<svg width="480px" height="360px" xmlns="http://www.w3.org/2000/svg"><rect x="216" y="124" width="80.5" height="80.5" fill-opacity="0"/><path fill="#F00" d="M252.655 180.485L252.655 180.485Q249.648 180.485 247.297 178.982Q244.945 177.479 243.612 174.691Q242.279 171.903 242.279 167.927L242.279 167.927Q242.279 163.903 243.685 161.067Q245.091 158.230 247.491 156.752Q249.891 155.273 252.897 155.273L252.897 155.273Q255.515 155.273 257.406 156.533Q259.297 157.794 260.267 159.879L260.267 159.879L260.267 145.139L266.909 145.139L266.909 180L260.945 180L260.655 175.297Q259.636 177.721 257.503 179.103Q255.370 180.485 252.655 180.485ZM254.594 175.394L254.594 175.394Q257.164 175.394 258.715 173.382Q260.267 171.370 260.267 167.685L260.267 167.685Q260.267 164.194 258.739 162.279Q257.212 160.364 254.691 160.364L254.691 160.364Q251.976 160.364 250.448 162.279Q248.921 164.194 248.921 167.879L248.921 167.879Q248.921 171.564 250.424 173.479Q251.927 175.394 254.594 175.394Z"/></svg>