<svg width="480px" height="360px" xmlns="http://www.w3.org/2000/svg"><rect x="216" y="124" width="80.5" height="80.5" fill-opacity="0"/><path fill="#F00" d="M258.667 165.261L258.667 164.339Q258.667 161.624 257.212 160.145Q255.758 158.667 253.091 158.667L253.091 158.667Q250.570 158.667 248.824 159.758Q247.079 160.848 246.255 163.273L246.255 163.273L243.103 161.333Q244.073 158.618 246.691 156.945Q249.309 155.273 253.188 155.273L253.188 155.273Q255.806 155.273 257.939 156.170Q260.073 157.067 261.309 158.885Q262.545 160.703 262.545 163.564L262.545 163.564L262.545 175.297Q262.545 177.042 264.388 177.042L264.388 177.042Q265.309 177.042 266.182 176.800L266.182 176.800L265.988 179.855Q265.018 180.339 263.467 180.339L263.467 180.339Q261.673 180.339 260.388 179.467Q259.103 178.594 258.715 176.800L258.715 176.800Q257.455 178.691 255.273 179.588Q253.091 180.485 250.958 180.485L250.958 180.485Q248.824 180.485 246.982 179.758Q245.139 179.030 244.048 177.552Q242.958 176.073 242.958 173.891L242.958 173.891Q242.958 171.176 244.776 169.406Q246.594 167.636 249.842 167.006L249.842 167.006L258.667 165.261ZM246.933 173.697L246.933 173.697Q246.933 175.200 248.121 176.145Q249.309 177.091 251.491 177.091L251.491 177.091Q253.382 177.091 255.006 176.436Q256.630 175.782 257.648 174.448Q258.667 173.115 258.667 171.030L258.667 171.030L258.667 168.461L251.636 169.915Q249.261 170.400 248.097 171.273Q246.933 172.145 246.933 173.697Z"/></svg>