<svg width="480px" height="360px" xmlns="http://www.w3.org/2000/svg"><rect x="216" y="124" width="80.5" height="80.5" fill-opacity="0"/><path fill="#F00" d="M243.394 153.818L245.867 151.345L250.182 155.612Q252.752 153.867 256.145 153.867L256.145 153.867Q259.588 153.867 262.158 155.661L262.158 155.661L266.376 151.345L268.848 153.818L264.630 158.133Q266.327 160.703 266.327 164.048L266.327 164.048Q266.327 167.491 264.533 170.109L264.533 170.109L268.848 174.327L266.376 176.800L262.012 172.582Q259.491 174.279 256.145 174.279L256.145 174.279Q252.703 174.279 250.085 172.436L250.085 172.436L245.867 176.800L243.394 174.327L247.661 169.964Q245.915 167.394 245.915 164.048L245.915 164.048Q245.915 160.606 247.709 158.036L247.709 158.036L243.394 153.818ZM256.145 157.358L256.145 157.358Q253.382 157.358 251.588 159.248Q249.794 161.139 249.794 164.048L249.794 164.048Q249.794 167.006 251.588 168.897Q253.382 170.788 256.145 170.788L256.145 170.788Q258.861 170.788 260.655 168.897Q262.448 167.006 262.448 164.048L262.448 164.048Q262.448 161.139 260.655 159.248Q258.861 157.358 256.145 157.358Z"/></svg>