<svg width="480px" height="360px" xmlns="http://www.w3.org/2000/svg"><rect x="216" y="124" width="80.5" height="80.5" fill-opacity="0"/><path fill="#F00" d="M250.133 180L243.491 180L243.491 155.758L249.455 155.758L249.697 160.121Q250.909 157.697 253.018 156.485Q255.127 155.273 257.697 155.273L257.697 155.273Q260.315 155.273 262.424 156.461Q264.533 157.648 265.600 160.073L265.600 160.073Q266.715 157.648 269.042 156.461Q271.370 155.273 273.842 155.273L273.842 155.273Q276.218 155.273 278.182 156.242Q280.145 157.212 281.309 159.152Q282.473 161.091 282.473 164.097L282.473 164.097L282.473 180L275.830 180L275.830 165.406Q275.830 162.739 274.642 161.624Q273.455 160.509 271.661 160.509L271.661 160.509Q269.430 160.509 267.879 162.133Q266.327 163.758 266.327 166.958L266.327 166.958L266.327 180L259.685 180L259.685 165.406Q259.685 162.739 258.497 161.624Q257.309 160.509 255.467 160.509L255.467 160.509Q254.206 160.509 252.970 161.188Q251.733 161.867 250.933 163.321Q250.133 164.776 250.133 167.152L250.133 167.152L250.133 180Z"/></svg>