<svg width="480px" height="360px" xmlns="http://www.w3.org/2000/svg"><rect x="216" y="124" width="80.5" height="80.5" fill-opacity="0"/><path fill="#F00" d="M245.236 148L256.533 148Q259.782 148 262.182 149.188Q264.582 150.376 265.939 152.558Q267.297 154.739 267.297 157.745L267.297 157.745Q267.297 160.752 265.939 162.933Q264.582 165.115 262.182 166.303Q259.782 167.491 256.533 167.491L256.533 167.491L249.115 167.491L249.115 180L245.236 180L245.236 148ZM249.115 163.855L255.952 163.855Q259.733 163.855 261.479 162.279Q263.224 160.703 263.224 157.745L263.224 157.745Q263.224 154.739 261.479 153.188Q259.733 151.636 255.952 151.636L255.952 151.636L249.115 151.636L249.115 163.855Z"/></svg>