<svg width="480px" height="360px" xmlns="http://www.w3.org/2000/svg"><rect x="216" y="124" width="80.5" height="80.5" fill-opacity="0"/><path fill="#F00" d="M252.462 167.231L252.462 167.231Q252.462 172.132 251.176 176.626Q249.890 181.121 247.242 184.923Q244.593 188.725 241.692 190.330L241.692 190.330L240.835 187.846Q244.220 185.253 246.275 179.791Q248.330 174.330 248.374 167.670L248.374 167.670L248.374 166.967Q248.374 162.352 247.407 158.385Q246.440 154.418 244.714 151.275Q242.989 148.132 240.835 146.374L240.835 146.374L241.692 143.890Q244.593 145.495 247.220 149.253Q249.846 153.011 251.154 157.538Q252.462 162.066 252.462 167.231Z"/></svg>