<svg width="480px" height="360px" xmlns="http://www.w3.org/2000/svg"><rect x="216" y="124" width="80.5" height="80.5" fill-opacity="0"/><path fill="#F00" d="M242 168.176L242 167.890Q242 164.396 243.374 161.604Q244.747 158.813 247.198 157.297Q249.648 155.780 252.791 155.780L252.791 155.780Q257.648 155.780 260.648 159.143Q263.648 162.505 263.648 168.088L263.648 168.088L263.648 168.374Q263.648 171.846 262.319 174.604Q260.989 177.363 258.516 178.901Q256.044 180.440 252.835 180.440L252.835 180.440Q248 180.440 245 177.077Q242 173.714 242 168.176L242 168.176ZM246.088 168.374L246.088 168.374Q246.088 172.330 247.923 174.725Q249.758 177.121 252.835 177.121L252.835 177.121Q255.934 177.121 257.758 174.692Q259.582 172.264 259.582 167.890L259.582 167.890Q259.582 163.978 257.725 161.549Q255.868 159.121 252.791 159.121L252.791 159.121Q249.780 159.121 247.934 161.516Q246.088 163.912 246.088 168.374Z"/></svg>