<svg width="480px" height="360px" xmlns="http://www.w3.org/2000/svg"><rect x="216" y="124" width="80.5" height="80.5" fill-opacity="0"/><path fill="#F00" d="M253.143 165.736L253.143 165.736Q247.714 164.176 245.242 161.901Q242.769 159.626 242.769 156.286L242.769 156.286Q242.769 152.505 245.791 150.033Q248.813 147.560 253.648 147.560L253.648 147.560Q256.945 147.560 259.527 148.835Q262.110 150.110 263.527 152.352Q264.945 154.593 264.945 157.253L264.945 157.253L260.703 157.253Q260.703 154.352 258.857 152.692Q257.011 151.033 253.648 151.033L253.648 151.033Q250.527 151.033 248.780 152.407Q247.033 153.780 247.033 156.220L247.033 156.220Q247.033 158.176 248.692 159.527Q250.352 160.879 254.341 162Q258.330 163.121 260.582 164.473Q262.835 165.824 263.923 167.626Q265.011 169.429 265.011 171.868L265.011 171.868Q265.011 175.758 261.978 178.099Q258.945 180.440 253.868 180.440L253.868 180.440Q250.571 180.440 247.714 179.176Q244.857 177.912 243.308 175.714Q241.758 173.516 241.758 170.725L241.758 170.725L246 170.725Q246 173.626 248.143 175.308Q250.286 176.989 253.868 176.989L253.868 176.989Q257.209 176.989 258.989 175.626Q260.769 174.264 260.769 171.912Q260.769 169.560 259.121 168.275Q257.473 166.989 253.143 165.736Z"/></svg>