<svg width="480px" height="360px" xmlns="http://www.w3.org/2000/svg"><rect x="216" y="124" width="80.5" height="80.5" fill-opacity="0"/><path fill="#F00" d="M254.739 186.012L254.739 189.164Q250.473 189.164 248.630 187.588Q246.788 186.012 246.788 183.152L246.788 183.152L246.788 173.115Q246.788 170.400 245.552 169.236Q244.315 168.073 241.358 168.073L241.358 168.073L241.358 164.679Q244.315 164.679 245.552 163.515Q246.788 162.352 246.788 159.636L246.788 159.636L246.788 149.600Q246.788 146.739 248.630 145.164Q250.473 143.588 254.739 143.588L254.739 143.588L254.739 146.739Q252.364 146.739 251.394 147.370Q250.424 148 250.424 149.309L250.424 149.309L250.424 159.976Q250.424 165.164 244.897 166.376L244.897 166.376Q250.424 167.588 250.424 172.776L250.424 172.776L250.424 183.442Q250.424 184.752 251.394 185.382Q252.364 186.012 254.739 186.012L254.739 186.012Z"/></svg>