<svg width="480px" height="360px" xmlns="http://www.w3.org/2000/svg"><rect x="216" y="124" width="80.5" height="80.5" fill-opacity="0"/><path fill="#F00" d="M250.715 146.061L250.715 146.061Q252.170 146.061 253.042 147.152Q253.915 148.242 253.915 149.988L253.915 149.988Q253.915 151.830 252.970 153.745Q252.024 155.661 250.230 157.115Q248.436 158.570 245.915 159.103L245.915 159.103L244.703 156.776Q247.564 156.388 249.067 155.055Q250.570 153.721 251.055 151.976L251.055 151.976L251.006 151.927Q250.764 152.121 250.497 152.194Q250.230 152.267 249.697 152.267L249.697 152.267Q248.533 152.267 247.927 151.418Q247.321 150.570 247.321 149.552L247.321 149.552Q247.321 148 248.315 147.030Q249.309 146.061 250.715 146.061Z"/></svg>