<svg width="480px" height="360px" xmlns="http://www.w3.org/2000/svg"><rect x="216" y="124" width="80.5" height="80.5" fill-opacity="0"/><path fill="#F00" d="M245.382 180L241.503 180L249.697 144.606L253.576 144.606L250.327 158.715Q251.685 156.970 253.770 156.121Q255.855 155.273 258.182 155.273L258.182 155.273Q260.897 155.273 262.861 156.485Q264.824 157.697 265.648 159.952Q266.473 162.206 265.745 165.406L265.745 165.406L262.352 180L258.473 180L261.867 165.358Q262.594 162.206 261.261 160.436Q259.927 158.667 257.067 158.667L257.067 158.667Q253.673 158.667 251.491 160.873Q249.309 163.079 248.339 167.248L248.339 167.248L245.382 180Z"/></svg>