<svg width="480px" height="360px" xmlns="http://www.w3.org/2000/svg"><rect x="216" y="124" width="80.5" height="80.5" fill-opacity="0"/><path fill="#F00" d="M263.011 169.846L267.253 169.846Q266.659 174.923 263.505 177.681Q260.352 180.440 255.121 180.440L255.121 180.440Q249.451 180.440 246.033 176.374Q242.615 172.308 242.615 165.495L242.615 165.495L242.615 162.418Q242.615 157.956 244.209 154.571Q245.802 151.187 248.725 149.374Q251.648 147.560 255.495 147.560L255.495 147.560Q260.593 147.560 263.670 150.407Q266.747 153.253 267.253 158.286L267.253 158.286L263.011 158.286Q262.462 154.462 260.626 152.747Q258.791 151.033 255.495 151.033L255.495 151.033Q251.451 151.033 249.154 154.022Q246.857 157.011 246.857 162.527L246.857 162.527L246.857 165.626Q246.857 170.835 249.033 173.912Q251.209 176.989 255.121 176.989L255.121 176.989Q258.637 176.989 260.516 175.396Q262.396 173.802 263.011 169.846L263.011 169.846Z"/></svg>