<svg width="480px" height="360px" xmlns="http://www.w3.org/2000/svg"><rect x="216" y="124" width="80.5" height="80.5" fill-opacity="0"/><path fill="#F00" d="M254.255 180.436L254.255 180.436Q251.006 180.436 248.291 179.370Q245.576 178.303 243.952 176.267Q242.327 174.230 242.327 171.418L242.327 171.418Q242.327 167.830 244.509 165.600Q246.691 163.370 250.327 162.594L250.327 162.594Q248.873 161.673 248.048 160.170Q247.224 158.667 247.224 156.873L247.224 156.873Q247.224 154.061 248.582 151.952Q249.939 149.842 252.291 148.655Q254.642 147.467 257.697 147.467L257.697 147.467Q260.558 147.467 262.861 148.436Q265.164 149.406 266.521 151.176Q267.879 152.945 267.879 155.467L267.879 155.467Q267.879 158.473 266.109 160.703Q264.339 162.933 261.430 163.855L261.430 163.855Q263.418 164.970 264.533 166.642Q265.648 168.315 265.648 170.545L265.648 170.545Q265.648 173.552 264.145 175.782Q262.642 178.012 260.073 179.224Q257.503 180.436 254.255 180.436ZM257.406 161.624L257.406 161.624Q260.218 161.624 262.036 160.048Q263.855 158.473 263.855 155.952L263.855 155.952Q263.855 153.770 262.206 152.364Q260.558 150.958 257.648 150.958L257.648 150.958Q254.739 150.958 252.970 152.630Q251.200 154.303 251.200 156.727L251.200 156.727Q251.200 158.812 252.897 160.218Q254.594 161.624 257.406 161.624ZM254.594 176.848L254.594 176.848Q257.794 176.848 259.709 175.297Q261.624 173.745 261.624 170.933L261.624 170.933Q261.624 169.042 260.485 167.709Q259.345 166.376 257.552 165.697Q255.758 165.018 253.721 165.018L253.721 165.018Q250.521 165.018 248.436 166.691Q246.352 168.364 246.352 171.079L246.352 171.079Q246.352 172.970 247.515 174.255Q248.679 175.539 250.545 176.194Q252.412 176.848 254.594 176.848Z"/></svg>