<svg width="480px" height="360px" xmlns="http://www.w3.org/2000/svg"><rect x="216" y="124" width="80.5" height="80.5" fill-opacity="0"/><path fill="#F00" d="M246.109 169.236L241.842 169.236L241.842 166.036L245.624 166.036Q245.576 165.067 245.576 164L245.576 164Q245.576 163.321 245.624 162.642L245.624 162.642L241.842 162.642L241.842 159.491L245.964 159.491Q247.079 153.818 250.788 150.667Q254.497 147.515 259.976 147.515L259.976 147.515Q264.630 147.515 267.830 149.479Q271.030 151.442 272.194 155.079L272.194 155.079L267.055 157.406Q266.473 154.933 264.655 153.697Q262.836 152.461 260.315 152.461L260.315 152.461Q257.164 152.461 255.103 154.279Q253.042 156.097 252.267 159.491L252.267 159.491L263.806 159.491L262.739 162.642L251.830 162.642Q251.782 163.321 251.782 164L251.782 164Q251.782 165.067 251.879 166.036L251.879 166.036L261.818 166.036L260.848 169.236L252.364 169.236Q253.188 172.291 255.152 173.915Q257.115 175.539 260.315 175.539L260.315 175.539Q262.982 175.539 264.752 174.158Q266.521 172.776 267.200 169.964L267.200 169.964L272.533 171.661Q271.321 175.976 268.048 178.230Q264.776 180.485 260.073 180.485L260.073 180.485Q254.448 180.485 250.861 177.527Q247.273 174.570 246.109 169.236L246.109 169.236Z"/></svg>