<svg width="480px" height="360px" xmlns="http://www.w3.org/2000/svg"><rect x="216" y="124" width="80.5" height="80.5" fill-opacity="0"/><path fill="#F00" d="M264.396 162.945L267.758 162.923Q267.758 166.396 265.703 168.780Q263.648 171.165 260.637 171.165L260.637 171.165Q259.055 171.165 257.648 170.582Q256.242 170 254.385 168.374Q252.527 166.747 251.714 166.352Q250.901 165.956 249.978 165.956L249.978 165.956Q248.264 165.956 247.341 167.132Q246.418 168.308 246.418 170.374L246.418 170.374L242.879 170.418Q242.879 166.901 244.901 164.637Q246.923 162.374 249.978 162.374L249.978 162.374Q251.648 162.374 253.187 163.077Q254.725 163.780 256.659 165.549Q258.593 167.319 260 167.538L260 167.538L260.637 167.582Q262.308 167.582 263.352 166.308Q264.396 165.033 264.396 162.945L264.396 162.945Z"/></svg>