<svg width="480px" height="360px" xmlns="http://www.w3.org/2000/svg"><rect x="216" y="124" width="80.5" height="80.5" fill-opacity="0"/><path fill="#F00" d="M253.042 180.485L253.042 180.485Q248.630 180.485 245.770 178.061Q242.909 175.636 242.036 171.661L242.036 171.661L246.158 170.497Q246.545 173.406 248.364 175.127Q250.182 176.848 253.333 176.848L253.333 176.848Q255.515 176.848 256.994 175.952Q258.473 175.055 259.224 173.600Q259.976 172.145 259.976 170.497L259.976 170.497Q259.976 167.685 258.206 166.642Q256.436 165.600 253.964 165.600L253.964 165.600Q253.624 165.600 253.309 165.600Q252.994 165.600 252.606 165.648L252.606 165.648L253.479 161.818Q254.497 161.964 255.467 161.964L255.467 161.964Q258.473 161.964 260.242 160.461Q262.012 158.958 262.012 156.097L262.012 156.097Q262.012 154.303 261.164 153.212Q260.315 152.121 259.006 151.612Q257.697 151.103 256.194 151.103L256.194 151.103Q253.236 151.103 251.709 152.485Q250.182 153.867 249.309 156L249.309 156L245.964 153.915Q247.224 150.861 250.061 149.164Q252.897 147.467 256.630 147.467L256.630 147.467Q259.248 147.467 261.333 148.436Q263.418 149.406 264.630 151.176Q265.842 152.945 265.842 155.467L265.842 155.467Q265.842 157.891 264.873 159.782Q263.903 161.673 262.230 162.764Q260.558 163.855 258.473 164L258.473 164L258.424 164.097Q260.994 164.436 262.448 165.988Q263.903 167.539 263.903 170.158L263.903 170.158Q263.903 173.406 262.352 175.709Q260.800 178.012 258.327 179.248Q255.855 180.485 253.042 180.485Z"/></svg>