<svg width="480px" height="360px" xmlns="http://www.w3.org/2000/svg"><rect x="216" y="124" width="80.5" height="80.5" fill-opacity="0"/><path fill="#F00" d="M252.897 188.242L252.897 188.242Q249.794 188.242 247.394 187.248Q244.994 186.255 243.636 184.412Q242.279 182.570 242.279 180L242.279 180Q242.279 177.188 243.515 175.273Q244.752 173.358 246.812 172.339Q248.873 171.321 251.394 171.030L251.394 171.030L251.394 165.842L255.418 165.842L255.418 173.115Q250.570 173.842 248.461 175.297Q246.352 176.752 246.352 179.515L246.352 179.515Q246.352 181.794 248.048 183.200Q249.745 184.606 253.188 184.606L253.188 184.606Q256.388 184.606 258.400 182.836Q260.412 181.067 260.800 178.012L260.800 178.012L264.242 180Q263.418 183.733 260.436 185.988Q257.455 188.242 252.897 188.242ZM253.479 161.576L253.479 161.576Q252.073 161.576 251.200 160.703Q250.327 159.830 250.327 158.424L250.327 158.424Q250.327 157.018 251.200 156.145Q252.073 155.273 253.479 155.273L253.479 155.273Q254.885 155.273 255.758 156.145Q256.630 157.018 256.630 158.424L256.630 158.424Q256.630 159.830 255.758 160.703Q254.885 161.576 253.479 161.576Z"/></svg>