<svg version="1.1" xmlns="http://www.w3.org/2000/svg" xmlns:xlink="http://www.w3.org/1999/xlink" width="480" height="360" viewBox="0,0,480,360"><defs><linearGradient x1="30" y1="-30" x2="450" y2="390" gradientUnits="userSpaceOnUse" id="color-1"><stop offset="0" stop-color="#11eeaf"/><stop offset="0.5" stop-color="#0fbd8c"/><stop offset="1" stop-color="#0c8d68"/></linearGradient><linearGradient x1="30" y1="-30" x2="450" y2="390" gradientUnits="userSpaceOnUse" id="color-2"><stop offset="0" stop-color="#11eeaf"/><stop offset="0.5" stop-color="#0fbd8c"/><stop offset="1" stop-color="#0c8d68"/></linearGradient></defs><g data-paper-data="{&quot;isPaintingLayer&quot;:true}" fill-rule="nonzero" stroke-dasharray="" stroke-dashoffset="0" style="mix-blend-mode: normal"><path d="M0,360v-360h480v360z" fill="url(#color-1)" stroke="none" stroke-width="20" stroke-linecap="round" stroke-linejoin="round" stroke-miterlimit="10"/><path d="M240,30c110,0 150,40 150,150c0,110 -40,150 -150,150c-110,0 -150,-40 -150,-150c0,-110 40,-150 150,-150z" fill="#ffffff" stroke="none" stroke-width="20" stroke-linecap="round" stroke-linejoin="round" stroke-miterlimit="10"/><g fill="#0d9166" stroke="#0d9166" stroke-width="9" stroke-linecap="round" stroke-linejoin="round" stroke-miterlimit="4"><path d="M248.604,236.39999h-27.456l-10.56,-30.912h-48.576l-10.56,30.912h-27.072l46.272,-126.72h31.68zM167.964,185.90399h36.672l-18.432,-55.296z"/><path d="M319.45191,175.15199c0,-5.504 -1.6,-9.792 -4.8,-12.864c-3.072,-3.072 -7.168,-4.608 -12.288,-4.608c-4.736,0 -8.896,1.216 -12.48,3.648c-3.584,2.432 -6.208,6.464 -7.872,12.096l-22.464,-6.912c2.176,-8.448 6.912,-15.232 14.208,-20.352c7.424,-5.12 17.344,-7.68 29.76,-7.68c12.544,0 22.656,3.008 30.336,9.024c7.808,5.888 11.712,14.72 11.712,26.496v38.976c0,4.864 2.304,7.296 6.912,7.296c2.176,0 4.224,-0.32 6.144,-0.96l-1.536,16.32c-3.328,1.664 -7.488,2.496 -12.48,2.496c-5.504,0 -10.304,-1.152 -14.4,-3.456c-3.968,-2.304 -6.656,-5.76 -8.064,-10.368c-3.072,4.608 -7.488,8.128 -13.248,10.56c-5.632,2.304 -11.456,3.456 -17.472,3.456c-9.728,0 -17.472,-2.176 -23.232,-6.528c-5.632,-4.48 -8.448,-10.944 -8.448,-19.392c0,-7.168 2.304,-12.992 6.912,-17.472c4.608,-4.608 11.2,-7.744 19.776,-9.408l33.024,-6.72zM286.04391,209.90399c0,3.2 1.152,5.632 3.456,7.296c2.432,1.664 5.312,2.496 8.64,2.496c3.712,0 7.168,-0.576 10.368,-1.728c3.2,-1.152 5.824,-3.072 7.872,-5.76c2.048,-2.816 3.072,-6.528 3.072,-11.136v-5.952l-20.16,4.032c-4.352,0.896 -7.68,2.112 -9.984,3.648c-2.176,1.408 -3.264,3.776 -3.264,7.104z"/></g><g fill="url(#color-2)" stroke="none" stroke-width="1" stroke-linecap="butt" stroke-linejoin="miter" stroke-miterlimit="10"><path d="M246.604,234.39999h-27.456l-10.56,-30.912h-48.576l-10.56,30.912h-27.072l46.272,-126.72h31.68zM165.964,183.90399h36.672l-18.432,-55.296z"/><path d="M317.45191,173.15199c0,-5.504 -1.6,-9.792 -4.8,-12.864c-3.072,-3.072 -7.168,-4.608 -12.288,-4.608c-4.736,0 -8.896,1.216 -12.48,3.648c-3.584,2.432 -6.208,6.464 -7.872,12.096l-22.464,-6.912c2.176,-8.448 6.912,-15.232 14.208,-20.352c7.424,-5.12 17.344,-7.68 29.76,-7.68c12.544,0 22.656,3.008 30.336,9.024c7.808,5.888 11.712,14.72 11.712,26.496v38.976c0,4.864 2.304,7.296 6.912,7.296c2.176,0 4.224,-0.32 6.144,-0.96l-1.536,16.32c-3.328,1.664 -7.488,2.496 -12.48,2.496c-5.504,0 -10.304,-1.152 -14.4,-3.456c-3.968,-2.304 -6.656,-5.76 -8.064,-10.368c-3.072,4.608 -7.488,8.128 -13.248,10.56c-5.632,2.304 -11.456,3.456 -17.472,3.456c-9.728,0 -17.472,-2.176 -23.232,-6.528c-5.632,-4.48 -8.448,-10.944 -8.448,-19.392c0,-7.168 2.304,-12.992 6.912,-17.472c4.608,-4.608 11.2,-7.744 19.776,-9.408l33.024,-6.72zM284.04391,207.90399c0,3.2 1.152,5.632 3.456,7.296c2.432,1.664 5.312,2.496 8.64,2.496c3.712,0 7.168,-0.576 10.368,-1.728c3.2,-1.152 5.824,-3.072 7.872,-5.76c2.048,-2.816 3.072,-6.528 3.072,-11.136v-5.952l-20.16,4.032c-4.352,0.896 -7.68,2.112 -9.984,3.648c-2.176,1.408 -3.264,3.776 -3.264,7.104z"/></g></g></svg>