<svg width="480px" height="360px" xmlns="http://www.w3.org/2000/svg"><rect x="216" y="124" width="80.5" height="80.5" fill-opacity="0"/><path fill="#F00" d="M246.352 174.182L246.352 174.182Q248.048 174.182 249.018 175.491Q249.988 176.800 249.988 178.885L249.988 178.885Q249.988 181.309 248.727 183.539Q247.467 185.770 244.703 187.079L244.703 187.079L242.667 185.188Q244.655 184.509 245.867 183.127Q247.079 181.745 247.418 180.242L247.418 180.242L247.224 180.145Q247.030 180.291 246.739 180.388Q246.448 180.485 245.867 180.485L245.867 180.485Q244.994 180.485 244.097 179.733Q243.200 178.982 243.200 177.430L243.200 177.430Q243.200 176.121 244.121 175.152Q245.042 174.182 246.352 174.182Z"/></svg>