<svg width="480px" height="360px" xmlns="http://www.w3.org/2000/svg"><rect x="216" y="124" width="80.5" height="80.5" fill-opacity="0"/><path fill="#F00" d="M247.515 169.624L242.424 169.624L243.152 166.473L247.370 166.473Q247.467 164.339 247.855 162.303L247.855 162.303L244.121 162.303L244.848 159.152L248.727 159.152Q249.939 155.758 252.048 153.139Q254.158 150.521 257.018 149.018Q259.879 147.515 263.321 147.515L263.321 147.515Q267.442 147.515 270.036 149.527Q272.630 151.539 273.309 155.127L273.309 155.127L269.673 156.145Q268.897 150.764 262.982 150.764L262.982 150.764Q259.588 150.764 256.897 153.164Q254.206 155.564 252.655 159.152L252.655 159.152L264.242 159.152L262.400 162.303L251.588 162.303Q251.103 164.388 251.006 166.473L251.006 166.473L260.509 166.473L258.909 169.624L251.152 169.624Q251.685 173.164 253.794 175.127Q255.903 177.091 259.152 177.091L259.152 177.091Q261.673 177.091 263.442 175.855Q265.212 174.618 266.279 171.903L266.279 171.903L269.770 173.600Q268.024 176.994 265.479 178.739Q262.933 180.485 258.812 180.485L258.812 180.485Q254.303 180.485 251.200 177.697Q248.097 174.909 247.515 169.624L247.515 169.624Z"/></svg>