<svg width="480px" height="360px" xmlns="http://www.w3.org/2000/svg"><rect x="216" y="124" width="80.5" height="80.5" fill-opacity="0"/><path fill="#F00" d="M264.145 148L270.885 148L270.885 167.394Q270.885 173.939 267.394 177.212Q263.903 180.485 257.212 180.485L257.212 180.485Q250.521 180.485 247.030 177.212Q243.539 173.939 243.539 167.394L243.539 167.394L243.539 148L250.230 148L250.230 167.103Q250.230 171.127 251.952 173.067Q253.673 175.006 257.212 175.006L257.212 175.006Q260.752 175.006 262.448 173.067Q264.145 171.127 264.145 167.103L264.145 167.103L264.145 148Z"/></svg>