<svg width="480px" height="360px" xmlns="http://www.w3.org/2000/svg"><rect x="216" y="124" width="80.5" height="80.5" fill-opacity="0"/><path fill="#F00" d="M254.400 147.515L254.400 147.515Q258.424 147.515 261.188 149.624Q263.952 151.733 265.358 155.442Q266.764 159.152 266.764 164L266.764 164Q266.764 172.048 263.636 176.267Q260.509 180.485 254.448 180.485L254.448 180.485Q250.473 180.485 247.612 178.642Q244.752 176.800 243.345 173.261L243.345 173.261L247.176 171.224Q247.952 173.745 249.721 175.297Q251.491 176.848 254.594 176.848L254.594 176.848Q257.939 176.848 259.830 175.103Q261.721 173.358 262.473 170.158Q263.224 166.958 263.224 162.691L263.224 162.691L263.224 162.255L263.030 162.255Q262.448 164.436 260.994 165.770Q259.539 167.103 257.721 167.685Q255.903 168.267 254.109 168.267L254.109 168.267Q250.958 168.267 248.533 167.030Q246.109 165.794 244.752 163.564Q243.394 161.333 243.394 158.279L243.394 158.279Q243.394 153.382 246.327 150.448Q249.261 147.515 254.400 147.515ZM254.448 151.248L254.448 151.248Q251.055 151.248 249.261 153.115Q247.467 154.982 247.467 158.327L247.467 158.327Q247.467 161.188 249.358 162.861Q251.248 164.533 254.448 164.533L254.448 164.533Q257.600 164.533 259.515 162.691Q261.430 160.848 261.430 157.939L261.430 157.939Q261.430 154.933 259.515 153.091Q257.600 151.248 254.448 151.248Z"/></svg>