<svg width="480px" height="360px" xmlns="http://www.w3.org/2000/svg"><rect x="216" y="124" width="80.5" height="80.5" fill-opacity="0"/><path fill="#F00" d="M250.133 180L243.491 180L243.491 145.139L250.133 145.139L250.133 159.879Q251.297 157.552 253.333 156.412Q255.370 155.273 257.939 155.273L257.939 155.273Q261.721 155.273 264.194 157.479Q266.667 159.685 266.667 164.097L266.667 164.097L266.667 180L260.024 180L260.024 166.036Q260.024 162.885 258.812 161.697Q257.600 160.509 255.709 160.509L255.709 160.509Q254.303 160.509 253.042 161.164Q251.782 161.818 250.958 163.297Q250.133 164.776 250.133 167.200L250.133 167.200L250.133 180Z"/></svg>