<svg width="480px" height="360px" xmlns="http://www.w3.org/2000/svg"><rect x="216" y="124" width="80.5" height="80.5" fill-opacity="0"/><path fill="#F00" d="M242.440 158.462L242.440 158.462Q242.440 157.407 243.066 156.703Q243.692 156 244.945 156Q246.198 156 246.846 156.703Q247.495 157.407 247.495 158.462L247.495 158.462Q247.495 159.473 246.846 160.154Q246.198 160.835 244.945 160.835Q243.692 160.835 243.066 160.154Q242.440 159.473 242.440 158.462ZM243.209 186.374L243.209 186.374L240.901 184.791Q242.967 181.912 243.055 178.857L243.055 178.857L243.055 175.187L247.033 175.187L247.033 178.374Q247.033 180.593 245.945 182.813Q244.857 185.033 243.209 186.374Z"/></svg>