<svg width="480px" height="360px" xmlns="http://www.w3.org/2000/svg"><rect x="216" y="124" width="80.5" height="80.5" fill-opacity="0"/><path fill="#F00" d="M260.412 160.121L265.842 160.121Q265.358 168.752 258.618 168.752L258.618 168.752Q256.921 168.752 255.733 168.242Q254.545 167.733 253.648 167.103Q252.752 166.473 251.903 165.964Q251.055 165.455 250.085 165.455L250.085 165.455Q248 165.455 247.515 168.606L247.515 168.606L242.085 168.606Q242.570 159.976 249.358 159.976L249.358 159.976Q251.006 159.976 252.194 160.485Q253.382 160.994 254.303 161.624Q255.224 162.255 256.073 162.764Q256.921 163.273 257.891 163.273L257.891 163.273Q259.927 163.273 260.412 160.121L260.412 160.121Z"/></svg>