<svg width="480px" height="360px" xmlns="http://www.w3.org/2000/svg"><rect x="216" y="124" width="80.5" height="80.5" fill-opacity="0"/><path fill="#F00" d="M256.873 184.848L253.527 184.848L253.527 179.855Q249.261 179.515 246.424 177.600Q243.588 175.685 242.036 173.067L242.036 173.067L245.333 170.400Q246.497 172.679 248.509 174.255Q250.521 175.830 253.527 176.267L253.527 176.267L253.527 165.600L251.442 165.115Q247.079 164.145 245.285 162.061Q243.491 159.976 243.491 157.164L243.491 157.164Q243.491 154.836 244.679 152.873Q245.867 150.909 248.121 149.600Q250.376 148.291 253.527 148L253.527 148L253.527 143.152L256.873 143.152L256.873 148.048Q263.564 148.679 267.055 154.545L267.055 154.545L263.903 156.970Q262.497 154.545 260.800 153.261Q259.103 151.976 256.873 151.588L256.873 151.588L256.873 162.448L259.345 162.982Q263.806 163.952 265.576 165.964Q267.345 167.976 267.345 170.933L267.345 170.933Q267.345 174.667 264.509 177.115Q261.673 179.564 256.873 179.903L256.873 179.903L256.873 184.848ZM252.606 161.479L252.606 161.479L253.527 161.673L253.527 151.491Q250.376 151.733 248.897 153.188Q247.418 154.642 247.418 156.630L247.418 156.630Q247.418 158.279 248.461 159.539Q249.503 160.800 252.606 161.479ZM258.715 166.764L258.715 166.764L256.873 166.327L256.873 176.364Q259.927 176.170 261.673 174.861Q263.418 173.552 263.418 171.273L263.418 171.273Q263.418 169.770 262.424 168.582Q261.430 167.394 258.715 166.764Z"/></svg>