<svg width="480px" height="360px" xmlns="http://www.w3.org/2000/svg"><rect x="216" y="124" width="80.5" height="80.5" fill-opacity="0"/><path fill="#F00" d="M253.867 180.485L253.867 180.485Q249.648 180.485 246.764 178.739Q243.879 176.994 242.036 173.406L242.036 173.406L248.048 170.400Q248.679 172.533 250.036 173.842Q251.394 175.152 254.012 175.152L254.012 175.152Q256.679 175.152 258.206 173.745Q259.733 172.339 259.733 169.721L259.733 169.721Q259.733 167.103 258.303 165.745Q256.873 164.388 254.158 164.388L254.158 164.388Q250.182 164.388 248.291 166.715L248.291 166.715L243.055 165.745L245.042 148L264.388 148L264.388 153.382L250.085 153.382L249.115 161.188L248.970 161.818L249.067 161.818Q250.085 160.703 251.855 160.048Q253.624 159.394 255.903 159.394L255.903 159.394Q259.006 159.394 261.261 160.655Q263.515 161.915 264.727 164.170Q265.939 166.424 265.939 169.333L265.939 169.333Q265.939 173.018 264.315 175.515Q262.691 178.012 259.952 179.248Q257.212 180.485 253.867 180.485Z"/></svg>