<svg width="480px" height="360px" xmlns="http://www.w3.org/2000/svg"><rect x="216" y="124" width="80.5" height="80.5" fill-opacity="0"/><path fill="#F00" d="M252.615 177.121L252.615 177.121Q254.791 177.121 256.418 175.802Q258.044 174.484 258.220 172.505L258.220 172.505L262.066 172.505Q261.956 174.549 260.659 176.396Q259.363 178.242 257.198 179.341Q255.033 180.440 252.615 180.440L252.615 180.440Q247.758 180.440 244.890 177.198Q242.022 173.956 242.022 168.330L242.022 168.330L242.022 167.648Q242.022 164.176 243.297 161.473Q244.571 158.769 246.956 157.275Q249.341 155.780 252.593 155.780L252.593 155.780Q256.593 155.780 259.242 158.176Q261.890 160.571 262.066 164.396L262.066 164.396L258.220 164.396Q258.044 162.088 256.473 160.604Q254.901 159.121 252.593 159.121L252.593 159.121Q249.495 159.121 247.791 161.352Q246.088 163.582 246.088 167.802L246.088 167.802L246.088 168.571Q246.088 172.681 247.780 174.901Q249.473 177.121 252.615 177.121Z"/></svg>