<svg width="480px" height="360px" xmlns="http://www.w3.org/2000/svg"><rect x="216" y="124" width="80.5" height="80.5" fill-opacity="0"/><path fill="#F00" d="M255.661 147.515L255.661 147.515Q259.491 147.515 261.915 149.091Q264.339 150.667 265.842 154.255L265.842 154.255L262.255 155.952Q261.527 153.721 259.903 152.436Q258.279 151.152 255.418 151.152L255.418 151.152Q252.655 151.152 250.715 152.970Q248.776 154.788 247.782 157.842Q246.788 160.897 246.788 164.727L246.788 164.727L246.788 165.600L246.982 165.600Q247.515 163.515 248.945 162.230Q250.376 160.945 252.194 160.339Q254.012 159.733 255.758 159.733L255.758 159.733Q259.006 159.733 261.430 160.994Q263.855 162.255 265.188 164.582Q266.521 166.909 266.521 170.109L266.521 170.109Q266.521 174.861 263.539 177.673Q260.558 180.485 255.515 180.485L255.515 180.485Q251.491 180.485 248.727 178.352Q245.964 176.218 244.558 172.509Q243.152 168.800 243.152 164L243.152 164Q243.152 158.618 244.800 154.958Q246.448 151.297 249.285 149.406Q252.121 147.515 255.661 147.515ZM255.467 163.467L255.467 163.467Q252.364 163.467 250.424 165.309Q248.485 167.152 248.485 170.061L248.485 170.061Q248.485 171.903 249.406 173.430Q250.327 174.958 251.903 175.855Q253.479 176.752 255.467 176.752L255.467 176.752Q258.764 176.752 260.606 174.982Q262.448 173.212 262.448 170.061L262.448 170.061Q262.448 167.006 260.606 165.236Q258.764 163.467 255.467 163.467Z"/></svg>