<svg width="480px" height="360px" xmlns="http://www.w3.org/2000/svg"><rect x="216" y="124" width="80.5" height="80.5" fill-opacity="0"/><path fill="#F00" d="M256.923 173.692L256.923 173.692Q256.923 172.044 255.681 171.132Q254.440 170.220 251.352 169.560Q248.264 168.901 246.451 167.978Q244.637 167.055 243.769 165.780Q242.901 164.505 242.901 162.747L242.901 162.747Q242.901 159.824 245.374 157.802Q247.846 155.780 251.692 155.780L251.692 155.780Q255.736 155.780 258.253 157.868Q260.769 159.956 260.769 163.209L260.769 163.209L256.681 163.209Q256.681 161.538 255.264 160.330Q253.846 159.121 251.692 159.121L251.692 159.121Q249.473 159.121 248.220 160.088Q246.967 161.055 246.967 162.615L246.967 162.615Q246.967 164.088 248.132 164.835Q249.297 165.582 252.341 166.264Q255.385 166.945 257.275 167.890Q259.165 168.835 260.077 170.165Q260.989 171.495 260.989 173.407L260.989 173.407Q260.989 176.593 258.440 178.516Q255.890 180.440 251.824 180.440L251.824 180.440Q248.967 180.440 246.769 179.429Q244.571 178.418 243.330 176.604Q242.088 174.791 242.088 172.681L242.088 172.681L246.154 172.681Q246.264 174.725 247.791 175.923Q249.319 177.121 251.824 177.121L251.824 177.121Q254.132 177.121 255.527 176.187Q256.923 175.253 256.923 173.692Z"/></svg>