<svg width="480px" height="360px" xmlns="http://www.w3.org/2000/svg"><rect x="216" y="124" width="80.5" height="80.5" fill-opacity="0"/><path fill="#F00" d="M250.473 176.897L257.552 176.897Q260.994 176.897 262.933 178.473Q264.873 180.048 264.873 182.667L264.873 182.667Q264.873 185.042 263.297 186.788Q261.721 188.533 259.079 189.479Q256.436 190.424 253.139 190.424L253.139 190.424Q247.418 190.424 244.582 188.485Q241.745 186.545 241.745 183.830L241.745 183.830Q241.745 182.182 242.667 180.824Q243.588 179.467 245.721 178.885L245.721 178.885Q244.558 178.352 243.830 177.406Q243.103 176.461 243.103 174.861L243.103 174.861Q243.103 173.358 243.976 172.121Q244.848 170.885 246.594 170.206L246.594 170.206Q244.752 169.139 243.782 167.394Q242.812 165.648 242.812 163.467L242.812 163.467Q242.812 161.042 244.097 159.200Q245.382 157.358 247.612 156.315Q249.842 155.273 252.752 155.273L252.752 155.273Q255.806 155.273 258.230 156.485L258.230 156.485Q258.570 154.061 260.388 152.679Q262.206 151.297 264.679 151.297L264.679 151.297L264.921 151.297L265.794 154.739L265.455 154.739Q263.224 154.739 261.964 155.564Q260.703 156.388 260.558 158.133L260.558 158.133Q262.691 160.364 262.691 163.467L262.691 163.467Q262.691 165.842 261.430 167.709Q260.170 169.576 257.915 170.618Q255.661 171.661 252.752 171.661L252.752 171.661Q250.958 171.661 249.406 171.321L249.406 171.321Q247.952 171.758 247.321 172.533Q246.691 173.309 246.691 174.230L246.691 174.230Q246.691 176.897 250.473 176.897L250.473 176.897ZM252.752 158.424L252.752 158.424Q250.230 158.424 248.533 159.806Q246.836 161.188 246.836 163.467L246.836 163.467Q246.836 165.697 248.533 167.103Q250.230 168.509 252.752 168.509L252.752 168.509Q255.273 168.509 256.970 167.103Q258.667 165.697 258.667 163.467L258.667 163.467Q258.667 161.188 256.970 159.806Q255.273 158.424 252.752 158.424ZM253.091 187.176L253.091 187.176Q257.309 187.176 259.297 185.939Q261.285 184.703 261.285 183.103L261.285 183.103Q261.285 181.794 260.242 181.018Q259.200 180.242 256.485 180.242L256.485 180.242L249.018 180.242Q247.467 180.242 246.400 181.042Q245.333 181.842 245.333 183.248L245.333 183.248Q245.333 185.042 247.394 186.109Q249.455 187.176 253.091 187.176Z"/></svg>