<svg version="1.1" xmlns="http://www.w3.org/2000/svg" xmlns:xlink="http://www.w3.org/1999/xlink" width="300.28251" height="64.0213" viewBox="0,0,300.28251,64.0213"><g transform="translate(-89.85875,-147.98935)"><g data-paper-data="{&quot;isPaintingLayer&quot;:true}" fill-rule="nonzero" stroke-miterlimit="10" stroke-dasharray="" stroke-dashoffset="0" style="mix-blend-mode: normal"><path d="M96.85876,205.01065v-50.0213h286.28251v50.0213z" data-paper-data="{&quot;zoomLevel&quot;:1.5487}" fill="#4a752c" stroke="#4a752c" stroke-width="14" stroke-linecap="butt" stroke-linejoin="round"/><g stroke-linecap="butt" stroke-linejoin="miter"><g><path d="M175.79194,178.65077c0,-5.36944 4.35278,-9.72222 9.72222,-9.72222c5.36944,0 9.72223,4.35279 9.72223,9.72222c0,5.36944 -4.35279,9.72222 -9.72223,9.72222c-5.36944,0 -9.72222,-4.35279 -9.72222,-9.72222z" fill="none" stroke="#ffffff" stroke-width="2"/><path d="M188.81503,179.16665v-7.38095h12.85715v7.38095z" fill="#4a752c" stroke="none" stroke-width="0"/></g><path d="M195.81027,175.37002l-8.5714,0.02295l8.54845,-8.59435z" fill="#ffffff" stroke="none" stroke-width="NaN"/></g><path d="M219.2184,180.02975v5.79603h-1.90335v-14.82179h5.36709c1.58898,0 2.83502,0.41317 3.73811,1.23952c0.90309,0.82635 1.35464,1.9262 1.35464,3.29955c0,1.43155 -0.44583,2.53722 -1.33749,3.317c-0.88023,0.77979 -2.14341,1.16968 -3.78955,1.16968zM219.2184,178.42362h3.46374c1.0174,0 1.80046,-0.24441 2.34918,-0.73323c0.54871,-0.48882 0.82307,-1.19877 0.82307,-2.12986c0,-0.88453 -0.27436,-1.58867 -0.82307,-2.11241c-0.54871,-0.53537 -1.29747,-0.81471 -2.24629,-0.83799h-3.56663zM231.94588,185.82578h-1.8519v-15.6423h1.8519zM241.57845,185.82578c-0.10288,-0.22113 -0.18862,-0.60521 -0.25721,-1.15222c-0.85736,0.90781 -1.8862,1.36172 -3.08651,1.36172c-1.06313,0 -1.93765,-0.30842 -2.62354,-0.92527c-0.67446,-0.61685 -1.01168,-1.39663 -1.01168,-2.33936c0,-1.14058 0.42296,-2.02512 1.2689,-2.6536c0.85736,-0.64012 2.06339,-0.96019 3.61808,-0.96019h1.80046v-0.87289c0,-0.6634 -0.19433,-1.18714 -0.583,-1.57121c-0.37724,-0.39571 -0.9431,-0.59357 -1.69758,-0.59357c-0.66303,0 -1.21746,0.17458 -1.66329,0.52374c-0.44583,0.33752 -0.66875,0.74487 -0.66875,1.22206h-1.86905c0,-0.54701 0.18862,-1.07657 0.56586,-1.58867c0.38867,-0.5121 0.90881,-0.91363 1.5604,-1.2046c0.66303,-0.3026 1.38893,-0.4539 2.17771,-0.4539c1.24604,0 2.22342,0.32006 2.93218,0.96018c0.70875,0.62849 1.07456,1.49556 1.09742,2.60123v5.0628c0,1.01256 0.12575,1.82144 0.37724,2.42665v0.15712zM238.50909,184.39423c0.583,0 1.13171,-0.1513 1.64613,-0.45391c0.52585,-0.31424 0.90309,-0.71577 1.13172,-1.20459v-2.25208h-1.44037c-2.27487,0 -3.41231,0.67504 -3.41231,2.02512c0,0.59357 0.19434,1.05911 0.58301,1.39664c0.38867,0.32588 0.88594,0.48882 1.49182,0.48882zM249.42711,183.06743l2.52065,-8.2576h1.97194l-4.33826,12.70937c-0.67446,1.83891 -1.74331,2.75835 -3.20654,2.75835l-0.3601,-0.03491l-0.68589,-0.13967v-1.51884l0.49727,0.03492c0.62873,0 1.11458,-0.12803 1.45752,-0.38407c0.35438,-0.25605 0.64588,-0.72741 0.87451,-1.41409l0.41153,-1.11731l-3.85814,-10.89375h2.02338zM267.32061,185.82578c-0.10289,-0.22113 -0.18862,-0.60521 -0.25721,-1.15222c-0.85737,0.90781 -1.88619,1.36172 -3.0865,1.36172c-1.06313,0 -1.93764,-0.30842 -2.62353,-0.92527c-0.67446,-0.61685 -1.01169,-1.39663 -1.01169,-2.33936c0,-1.14058 0.42296,-2.02512 1.26889,-2.6536c0.85737,-0.64012 2.06339,-0.96019 3.61807,-0.96019h1.80047v-0.87289c0,-0.6634 -0.19434,-1.18714 -0.58301,-1.57121c-0.37724,-0.39571 -0.9431,-0.59357 -1.69758,-0.59357c-0.66303,0 -1.21745,0.17458 -1.66328,0.52374c-0.44583,0.33752 -0.66874,0.74487 -0.66874,1.22206h-1.86906c0,-0.54701 0.18862,-1.07657 0.56586,-1.58867c0.38867,-0.5121 0.90881,-0.91363 1.5604,-1.2046c0.66303,-0.3026 1.38893,-0.4539 2.17771,-0.4539c1.24604,0 2.22343,0.32006 2.93219,0.96018c0.70875,0.62849 1.07456,1.49556 1.09742,2.60123v5.0628c0,1.01256 0.12574,1.82144 0.37723,2.42665v0.15712zM264.25125,184.39423c0.58301,0 1.13172,-0.1513 1.64614,-0.45391c0.52585,-0.31424 0.90309,-0.71577 1.13172,-1.20459v-2.25208h-1.44037c-2.27487,0 -3.41231,0.67504 -3.41231,2.02512c0,0.59357 0.19434,1.05911 0.58301,1.39664c0.38867,0.32588 0.88594,0.48882 1.49181,0.48882zM271.34115,180.22179c0,-1.71087 0.38867,-3.07259 1.16601,-4.08515c0.77735,-1.01256 1.81189,-1.51884 3.10366,-1.51884c1.31462,0 2.34346,0.47136 3.08651,1.41409l0.08573,-1.22205h1.69758v10.75409c0,1.41992 -0.41725,2.53722 -1.25175,3.35192c-0.82307,0.82635 -1.93764,1.23951 -3.34371,1.23951c-0.77735,0 -1.54326,-0.16876 -2.29774,-0.50628c-0.74305,-0.33752 -1.30891,-0.80307 -1.69758,-1.39664l0.96024,-1.11731c0.78877,0.98928 1.76045,1.48392 2.91504,1.48392c0.89166,0 1.58898,-0.25605 2.09197,-0.76815c0.50299,-0.5121 0.75448,-1.23951 0.75448,-2.18224v-0.94273c-0.73161,0.87289 -1.73759,1.30935 -3.01792,1.30935c-1.2689,0 -2.29773,-0.51791 -3.08651,-1.55375c-0.77735,-1.04747 -1.16601,-2.46739 -1.16601,-4.25974zM273.19305,180.44874c0,1.23369 0.25149,2.20552 0.75448,2.91547c0.50299,0.70996 1.20603,1.06493 2.10912,1.06493c1.16602,0 2.01766,-0.54119 2.55494,-1.62358v-5.02788c-0.56014,-1.04747 -1.40608,-1.57121 -2.5378,-1.57121c-0.90308,0 -1.61185,0.35498 -2.12626,1.06493c-0.50299,0.70996 -0.75448,1.76908 -0.75448,3.17735zM289.94381,185.82578c-0.10289,-0.22113 -0.18862,-0.60521 -0.25721,-1.15222c-0.85737,0.90781 -1.8862,1.36172 -3.08651,1.36172c-1.06313,0 -1.93764,-0.30842 -2.62353,-0.92527c-0.67446,-0.61685 -1.01169,-1.39663 -1.01169,-2.33936c0,-1.14058 0.42297,-2.02512 1.2689,-2.6536c0.85737,-0.64012 2.06338,-0.96019 3.61807,-0.96019h1.80046v-0.87289c0,-0.6634 -0.19434,-1.18714 -0.58301,-1.57121c-0.37724,-0.39571 -0.94309,-0.59357 -1.69757,-0.59357c-0.66303,0 -1.21746,0.17458 -1.66329,0.52374c-0.44583,0.33752 -0.66875,0.74487 -0.66875,1.22206h-1.86905c0,-0.54701 0.18862,-1.07657 0.56586,-1.58867c0.38867,-0.5121 0.90881,-0.91363 1.5604,-1.2046c0.66303,-0.3026 1.38892,-0.4539 2.1777,-0.4539c1.24604,0 2.22343,0.32006 2.93219,0.96018c0.70875,0.62849 1.07456,1.49556 1.09743,2.60123v5.0628c0,1.01256 0.12575,1.82144 0.37724,2.42665v0.15712zM286.87444,184.39423c0.58301,0 1.13172,-0.1513 1.64614,-0.45391c0.52585,-0.31424 0.90309,-0.71577 1.13172,-1.20459v-2.25208h-1.44037c-2.27487,0 -3.41231,0.67504 -3.41231,2.02512c0,0.59357 0.19434,1.05911 0.58301,1.39664c0.38867,0.32588 0.88594,0.48882 1.49181,0.48882zM296.41639,185.82578h-1.8519v-11.01595h1.8519zM294.41017,171.89435c0,-0.3026 0.09145,-0.55865 0.27435,-0.76815c0.1829,-0.22113 0.45155,-0.3317 0.80592,-0.3317c0.36581,0 0.64017,0.11058 0.82307,0.3317c0.19434,0.2095 0.2915,0.46554 0.2915,0.76815c0,0.3026 -0.09716,0.55866 -0.2915,0.76815c-0.1829,0.19786 -0.45726,0.29678 -0.82307,0.29678c-0.35438,0 -0.62302,-0.09893 -0.80592,-0.29678c-0.1829,-0.2095 -0.27435,-0.46555 -0.27435,-0.76815zM301.12769,174.80983l0.05144,1.37918c0.82307,-1.04747 1.90335,-1.57121 3.24084,-1.57121c2.28631,0 3.44088,1.30935 3.46375,3.92803v7.27996h-1.85191v-7.27996c-0.01143,-0.80307 -0.19433,-1.39081 -0.54871,-1.76325c-0.34294,-0.38407 -0.88594,-0.57611 -1.62899,-0.57611c-0.59443,0 -1.12029,0.16294 -1.57755,0.48882c-0.44583,0.32588 -0.80021,0.75651 -1.06313,1.29189v7.83861h-1.83476v-11.01595z" fill="#ffffff" stroke="none" stroke-width="1" stroke-linecap="square" stroke-linejoin="miter"/></g></g></svg>