<svg width="480px" height="360px" xmlns="http://www.w3.org/2000/svg"><rect x="216" y="124" width="80.5" height="80.5" fill-opacity="0"/><path fill="#F00" d="M256.582 180L245.236 180L245.236 148L256.630 148Q262.303 148 264.921 150.376Q267.539 152.752 267.539 156.824L267.539 156.824Q267.539 159.248 266.133 161.212Q264.727 163.176 262.158 163.709L262.158 163.709L262.158 163.758Q265.018 164.291 266.691 166.352Q268.364 168.412 268.364 171.030L268.364 171.030Q268.364 175.103 265.309 177.552Q262.255 180 256.582 180L256.582 180ZM249.115 151.636L249.115 162.061L256.679 162.061Q263.467 162.061 263.467 156.824L263.467 156.824Q263.467 151.636 256.679 151.636L256.679 151.636L249.115 151.636ZM249.115 165.697L249.115 176.364L257.503 176.364Q260.945 176.364 262.618 174.958Q264.291 173.552 264.291 171.030L264.291 171.030Q264.291 168.461 262.618 167.079Q260.945 165.697 257.503 165.697L257.503 165.697L249.115 165.697Z"/></svg>