<svg width="480px" height="360px" xmlns="http://www.w3.org/2000/svg"><rect x="216" y="124" width="80.5" height="80.5" fill-opacity="0"/><path fill="#F00" d="M247.273 169.624L243.006 169.624L243.006 166.473L246.788 166.473Q246.691 165.261 246.691 164L246.691 164Q246.691 163.127 246.739 162.303L246.739 162.303L243.006 162.303L243.006 159.152L247.176 159.152Q248.242 153.721 251.661 150.618Q255.079 147.515 259.976 147.515L259.976 147.515Q264.388 147.515 267.248 149.430Q270.109 151.345 271.418 154.982L271.418 154.982L267.927 156.630Q267.103 153.867 265.188 152.388Q263.273 150.909 260.315 150.909L260.315 150.909Q256.921 150.909 254.497 153.091Q252.073 155.273 251.103 159.152L251.103 159.152L262.642 159.152L261.673 162.303L250.618 162.303Q250.570 163.127 250.570 164L250.570 164Q250.570 165.309 250.667 166.473L250.667 166.473L260.703 166.473L259.733 169.624L251.248 169.624Q252.218 173.164 254.497 175.127Q256.776 177.091 260.315 177.091L260.315 177.091Q263.370 177.091 265.479 175.418Q267.588 173.745 268.461 170.497L268.461 170.497L272 171.806Q270.642 175.927 267.588 178.206Q264.533 180.485 260.170 180.485L260.170 180.485Q254.982 180.485 251.685 177.600Q248.388 174.715 247.273 169.624L247.273 169.624Z"/></svg>