<svg width="480px" height="360px" xmlns="http://www.w3.org/2000/svg"><rect x="216" y="124" width="80.5" height="80.5" fill-opacity="0"/><path fill="#F00" d="M249.648 147.515L249.648 147.515Q253.188 147.515 255.273 149.915Q257.358 152.315 257.358 156.339L257.358 156.339Q257.358 160.315 255.273 162.739Q253.188 165.164 249.648 165.164L249.648 165.164Q246.109 165.164 244.024 162.739Q241.939 160.315 241.939 156.339L241.939 156.339Q241.939 152.315 244.024 149.915Q246.109 147.515 249.648 147.515ZM252.412 180L248.727 180L269.091 148L272.776 148L252.412 180ZM249.648 150.570L249.648 150.570Q247.564 150.570 246.473 152.097Q245.382 153.624 245.382 156.339L245.382 156.339Q245.382 159.055 246.473 160.582Q247.564 162.109 249.648 162.109L249.648 162.109Q251.733 162.109 252.824 160.582Q253.915 159.055 253.915 156.339L253.915 156.339Q253.915 153.624 252.824 152.097Q251.733 150.570 249.648 150.570ZM290.667 162.836L290.667 162.836Q294.206 162.836 296.291 165.236Q298.376 167.636 298.376 171.661L298.376 171.661Q298.376 175.636 296.291 178.061Q294.206 180.485 290.667 180.485L290.667 180.485Q287.127 180.485 285.042 178.061Q282.958 175.636 282.958 171.661L282.958 171.661Q282.958 167.636 285.042 165.236Q287.127 162.836 290.667 162.836ZM271.855 162.836L271.855 162.836Q275.394 162.836 277.479 165.236Q279.564 167.636 279.564 171.661L279.564 171.661Q279.564 175.636 277.479 178.061Q275.394 180.485 271.855 180.485L271.855 180.485Q268.315 180.485 266.230 178.061Q264.145 175.636 264.145 171.661L264.145 171.661Q264.145 167.636 266.230 165.236Q268.315 162.836 271.855 162.836ZM290.667 165.891L290.667 165.891Q288.582 165.891 287.491 167.418Q286.400 168.945 286.400 171.661L286.400 171.661Q286.400 174.376 287.491 175.903Q288.582 177.430 290.667 177.430L290.667 177.430Q292.752 177.430 293.842 175.903Q294.933 174.376 294.933 171.661L294.933 171.661Q294.933 168.945 293.842 167.418Q292.752 165.891 290.667 165.891ZM271.855 165.891L271.855 165.891Q269.770 165.891 268.679 167.418Q267.588 168.945 267.588 171.661L267.588 171.661Q267.588 174.376 268.679 175.903Q269.770 177.430 271.855 177.430L271.855 177.430Q273.939 177.430 275.030 175.903Q276.121 174.376 276.121 171.661L276.121 171.661Q276.121 168.945 275.030 167.418Q273.939 165.891 271.855 165.891Z"/></svg>