<svg width="480px" height="360px" xmlns="http://www.w3.org/2000/svg"><rect x="216" y="124" width="80.5" height="80.5" fill-opacity="0"/><path fill="#F00" d="M262.396 180L255.451 167.055L247.934 167.055L247.934 180L243.692 180L243.692 148L254.286 148Q259.692 148 262.604 150.462Q265.516 152.923 265.516 157.626L265.516 157.626Q265.516 160.615 263.901 162.835Q262.286 165.055 259.407 166.154L259.407 166.154L266.923 179.736L266.923 180L262.396 180ZM247.934 151.473L247.934 163.604L254.418 163.604Q257.560 163.604 259.418 161.978Q261.275 160.352 261.275 157.626L261.275 157.626Q261.275 154.659 259.505 153.077Q257.736 151.495 254.396 151.473L254.396 151.473L247.934 151.473ZM281.297 173.692L281.297 173.692Q281.297 172.044 280.055 171.132Q278.813 170.220 275.725 169.560Q272.637 168.901 270.824 167.978Q269.011 167.055 268.143 165.780Q267.275 164.505 267.275 162.747L267.275 162.747Q267.275 159.824 269.747 157.802Q272.220 155.780 276.066 155.780L276.066 155.780Q280.110 155.780 282.626 157.868Q285.143 159.956 285.143 163.209L285.143 163.209L281.055 163.209Q281.055 161.538 279.637 160.330Q278.220 159.121 276.066 159.121L276.066 159.121Q273.846 159.121 272.593 160.088Q271.341 161.055 271.341 162.615L271.341 162.615Q271.341 164.088 272.505 164.835Q273.670 165.582 276.714 166.264Q279.758 166.945 281.648 167.890Q283.538 168.835 284.451 170.165Q285.363 171.495 285.363 173.407L285.363 173.407Q285.363 176.593 282.813 178.516Q280.264 180.440 276.198 180.440L276.198 180.440Q273.341 180.440 271.143 179.429Q268.945 178.418 267.703 176.604Q266.462 174.791 266.462 172.681L266.462 172.681L270.527 172.681Q270.637 174.725 272.165 175.923Q273.692 177.121 276.198 177.121L276.198 177.121Q278.505 177.121 279.901 176.187Q281.297 175.253 281.297 173.692Z"/></svg>