<svg version="1.1" xmlns="http://www.w3.org/2000/svg" xmlns:xlink="http://www.w3.org/1999/xlink" width="654.68384" height="564.99141" viewBox="0,0,654.68384,564.99141"><g transform="translate(101.18384,28.75)"><g data-paper-data="{&quot;isPaintingLayer&quot;:true}" fill-rule="nonzero" stroke-linejoin="miter" stroke-miterlimit="10" stroke-dasharray="" stroke-dashoffset="0" style="mix-blend-mode: normal"><path d="M-79.5,360.25v-389h633v389z" fill="#4ac0fd" stroke="none" stroke-width="0" stroke-linecap="butt"/><g><path d="M31.91841,430.70786v-294.2705h394.84397v294.2705z" fill="#4ac0fd" stroke="none" stroke-width="0" stroke-linecap="butt"/><path d="M-39.61409,536.24141v-180.10343l585.65547,-1.09586v181.19929z" fill="#e5c29f" stroke="none" stroke-width="0" stroke-linecap="butt"/><path d="M-36.42077,504.94684v-118.15296h544.14226v118.15296z" fill="#a7d948" stroke="none" stroke-width="0" stroke-linecap="butt"/><g data-paper-data="{&quot;index&quot;:null}" stroke="none" stroke-width="0" stroke-linecap="butt"><g><path d="M177.5637,416.70204v-31.28952h31.28952v31.28952z" fill="#a7d948"/><path d="M177.5637,447.99159v-31.28952h31.28952v31.28952z" fill="#8ecc39"/></g><g data-paper-data="{&quot;index&quot;:null}"><path d="M240.14274,416.70204v31.28952h-31.28952v-31.28952z" fill="#a7d948"/><path d="M240.51524,385.41248v31.28952h-32.03451v-31.28952z" fill="#8ecc39"/></g><g><g><path d="M146.24815,416.70209l31.28947,-0.05204l0.05204,31.28948l-31.28947,0.05204z" fill="#a7d948"/><path d="M114.95867,416.75413l31.28948,-0.05204l0.05204,31.28948l-31.28948,0.05203z" fill="#8ecc39"/></g><g><path d="M83.66911,416.76419l31.28947,-0.05204l0.05204,31.28948l-31.28948,0.05204z" fill="#a7d948"/><path d="M52.37963,416.81622l31.28948,-0.05204l0.05203,31.28948l-31.28947,0.05204z" fill="#8ecc39"/></g></g><g><g><path d="M333.98528,416.45376l31.28947,-0.05203l0.05204,31.28947l-31.28948,0.05204z" fill="#a7d948"/><path d="M302.6958,416.50579l31.28948,-0.05204l0.05204,31.28948l-31.28948,0.05204z" fill="#8ecc39"/></g><g><path d="M271.40624,416.51585l31.28947,-0.05204l0.05204,31.28948l-31.28948,0.05203z" fill="#a7d948"/><path d="M240.11676,416.56788l31.28948,-0.05204l0.05203,31.28948l-31.28947,0.05203z" fill="#8ecc39"/></g></g></g><g><path d="M244.42642,357.38349c0,0 -0.98126,-8.11731 -0.29089,-11.97192c1.2534,-6.9982 4.72229,-23.41299 12.92495,-24.991c3.17407,-0.61062 7.95582,2.70262 11.43824,4.53159c3.62603,1.90439 5.89038,2.34068 5.89038,2.34068c0,0 10.76465,6.06863 12.26162,7.19027c0.79664,0.59691 7.72315,5.85423 10.84164,8.03081c3.06011,2.13582 2.30838,1.18773 3.56834,2.15706c5.1007,3.92412 -5.90489,12.62275 -5.90489,12.62275l-11.24502,1.9522z" fill="#9e9e9e" stroke="none" stroke-width="0" stroke-linecap="butt"/><path d="M274.69158,327.435c0,0 16.93392,-35.48761 19.84237,-41.58269c0.84372,-1.76816 1.11225,-3.07488 2.73697,-4.16965c0.61916,-0.4172 1.43372,-0.90148 2.31223,-1.25135c2.18237,-0.86912 3.72975,-0.03403 5.85935,0.95739c2.1916,1.02029 5.31431,2.51701 6.65489,4.59874c0.84198,1.30746 1.0833,3.09541 1.11361,4.55977c0.03664,1.77032 -0.30169,2.83075 -1.31938,4.27977c-3.09504,4.40684 -26.95644,38.38169 -26.95644,38.38169z" fill="#66473d" stroke="none" stroke-width="0" stroke-linecap="butt"/><path d="M266.8692,356.86207l-4.65618,-0.37249l12.29231,-28.68206c0,0 1.47646,-0.104 3.16559,0.00917c2.49113,0.16692 4.23404,0.67814 5.74048,2.66919c1.04476,1.38086 1.71002,2.90906 1.71002,2.90906z" fill="#808080" stroke="none" stroke-width="0" stroke-linecap="butt"/><path d="M275.62281,325.94504c0,0 16.18893,-33.81139 19.09738,-39.90647c0.84373,-1.76815 1.11225,-3.07488 2.73697,-4.16964c0.61916,-0.4172 1.43372,-0.90148 2.31223,-1.25135c2.18237,-0.86912 3.72975,-0.03403 5.85935,0.95738c2.1916,1.02029 3.82433,1.21329 5.16491,3.295c2.01789,3.13348 1.5638,6.72083 -0.57827,9.77078c-3.09504,4.40683 -24.90772,35.58799 -24.90772,35.58799c0,0 -2.248,-2.19332 -3.64753,-3.20137c-1.39953,-1.00805 -6.03732,-1.08231 -6.03732,-1.08231z" fill="#795548" stroke="none" stroke-width="0" stroke-linecap="butt"/><path d="M249.92071,357.60702c0,0 -2.49161,-10.43524 1.14976,-18.74756c2.21693,-5.06069 7.97635,-14.40443 7.97635,-14.40443" fill="none" stroke="#b0b0b0" stroke-width="5" stroke-linecap="round"/></g><path d="M336.34302,347.80836l2.60171,-2.63408l4.65561,4.59839l-2.60171,2.63408l5.51322,5.44545l-5.95973,6.0339l-5.51322,-5.44545l-9.92281,10.04629l-4.0385,-3.26276l-6.46818,-26.96194l-0.06127,-0.0605l5.95976,-6.03392zM325.78489,358.49783l4.59839,-4.6556l-7.99415,-7.89589l0.24955,0.9726z" fill="#7f26a2" stroke="none" stroke-width="1" stroke-linecap="square"/><g data-paper-data="{&quot;index&quot;:null}" stroke="none" stroke-width="0" stroke-linecap="butt"><path d="M84.04161,355.73716l31.28947,-0.05204l0.05204,31.28947l-31.28948,0.05204z" fill="#a7d948"/><path d="M52.75212,355.78919l31.28948,-0.05204l0.05204,31.28947l-31.28948,0.05204z" fill="#8ecc39"/></g><g stroke="none" stroke-width="0" stroke-linecap="butt"><path d="M145.87566,355.48885l31.53781,-0.05204l0.05204,31.28948l-31.53781,0.05204z" fill="#e5c29f"/><path d="M115.08284,355.54087l31.53781,-0.05204l0.05204,31.28948l-31.53781,0.05204z" fill="#d7b899"/></g><g stroke="none" stroke-width="0" stroke-linecap="butt"><path d="M270.78542,355.73716l31.53781,-0.05204l0.05204,31.28947l-31.53781,0.05204z" fill="#e5c29f"/><path d="M239.9926,355.78919l31.53781,-0.05204l0.05204,31.28947l-31.53781,0.05204z" fill="#d7b899"/></g><g stroke="none" stroke-width="0" stroke-linecap="butt"><path d="M333.73696,355.73716l31.53781,-0.05204l0.05204,31.28947l-31.53781,0.05204z" fill="#e5c29f"/><path d="M302.19914,355.78919l32.2828,-0.05204l0.05204,31.28947l-32.2828,0.05204z" fill="#d7b899"/></g><g stroke="none" stroke-width="0" stroke-linecap="butt"><path d="M195.90852,342.14752l-0.09523,-22.76117l27.80865,10.47587z" fill="#f23607"/><path d="M190.04768,349.81005v-32.28468l6.09504,1.99995l-0.09524,30.28475z" fill="#e63307"/><path d="M187.00016,355.52419c0,0 -0.5098,-3.64776 1.42347,-5.33895c1.37594,-1.20365 4.77025,-0.88796 4.77025,-0.88796c0,0 3.38258,-0.25532 4.81085,1.21795c1.5883,1.63838 1.376,5.00896 1.376,5.00896z" fill="#e63307"/></g><path d="M158.7909,355.64443l-0.05478,-5.78173l18.40172,-0.17436l-1.6972,-5.64874l4.37297,-0.04144l3.88944,10.8819l0.005,0.52828z" fill="#1976d2" stroke="none" stroke-width="1" stroke-linecap="square"/><g stroke="none" stroke-width="0" stroke-linecap="butt"><g><path d="M208.85321,386.90245v-31.28952h31.28952v31.28952z" fill="#a7d948"/><path d="M208.85321,418.19205v-31.28952h31.28952v31.28952z" fill="#8ecc39"/></g><g data-paper-data="{&quot;index&quot;:null}"><path d="M208.85321,386.90245v31.28952h-31.28952v-31.28952z" fill="#a7d948"/><path d="M209.2257,355.61293v31.28952h-32.03451v-31.28952z" fill="#8ecc39"/></g><g><g><path d="M271.40624,418.19203l-31.28948,-0.05204l0.05204,-31.28948l31.28947,0.05204z" fill="#a7d948"/><path d="M302.69572,418.24406l-31.28948,-0.05204l0.05204,-31.28948l31.28948,0.05204z" fill="#8ecc39"/></g><g><path d="M333.98528,418.25412l-31.28948,-0.05204l0.05204,-31.28947l31.28947,0.05203z" fill="#a7d948"/><path d="M365.27475,418.30616l-31.28947,-0.05204l0.05203,-31.28948l31.28948,0.05204z" fill="#8ecc39"/></g></g><g><g><path d="M83.66911,417.94371l-31.28948,-0.05204l0.05204,-31.28948l31.28947,0.05204z" fill="#a7d948"/><path d="M114.95859,417.99573l-31.28948,-0.05204l0.05204,-31.28948l31.28948,0.05204z" fill="#8ecc39"/></g><g><path d="M146.24815,418.00578l-31.28948,-0.05204l0.05204,-31.28948l31.28948,0.05204z" fill="#a7d948"/><path d="M177.53762,418.05781l-31.28947,-0.05203l0.05204,-31.28948l31.28947,0.05204z" fill="#8ecc39"/></g></g></g><g data-paper-data="{&quot;index&quot;:null}" stroke="none" stroke-width="0" stroke-linecap="butt"><path d="M22.95254,355.73714l31.28947,-0.05204l0.05204,31.28948l-31.28947,0.05204z" fill="#a7d948"/><path d="M-8.33694,355.78917l31.28948,-0.05204l0.05204,31.28948l-31.28948,0.05204z" fill="#8ecc39"/></g><g data-paper-data="{&quot;index&quot;:null}" stroke="none" stroke-width="0" stroke-linecap="butt"><path d="M22.95254,417.57118l-31.28948,-0.05204l0.05204,-31.28948l31.28948,0.05204z" fill="#a7d948"/><path d="M54.24201,417.62321l-31.28947,-0.05204l0.05204,-31.28948l31.28947,0.05204z" fill="#8ecc39"/></g><g stroke="none" stroke-width="0" stroke-linecap="butt"><path d="M396.316,355.73716l31.53781,-0.05204l0.05204,31.28947l-31.53781,0.05204z" fill="#e5c29f"/><path d="M364.77818,355.78919l32.2828,-0.05204l0.05203,31.28947l-32.2828,0.05204z" fill="#d7b899"/></g><g data-paper-data="{&quot;index&quot;:null}" stroke="none" stroke-width="0" stroke-linecap="butt"><path d="M396.19183,418.31616l-31.28948,-0.05204l0.05204,-31.28947l31.28948,0.05203z" fill="#a7d948"/><path d="M427.48131,418.3682l-31.28948,-0.05204l0.05204,-31.28948l31.28947,0.05204z" fill="#8ecc39"/></g><path d="M380.66039,355.33935h-5.73293v-18.24639l-5.61651,1.62966v-4.33606l10.82561,-3.75404h0.52383z" fill="#1976d2" stroke="none" stroke-width="1" stroke-linecap="square"/><path d="M408.25148,336.1822l2.81528,1.79526c2.21992,1.41561 4.01838,1.04374 5.39539,-1.11562c0.54051,-0.8476 0.72212,-1.71115 0.5449,-2.59064c-0.17724,-0.87949 -0.75021,-1.62809 -1.7189,-2.24581c-0.78706,-0.5019 -1.62122,-0.70738 -2.50247,-0.61641c-0.88124,0.09095 -1.54064,0.47952 -1.9782,1.16569l-5.93324,-3.78357c0.86224,-1.35214 2.00132,-2.31483 3.41722,-2.88806c1.42877,-0.59342 2.99575,-0.75809 4.70091,-0.49397c1.73821,0.25681 3.40446,0.89355 4.99878,1.91022c2.86573,1.82744 4.69766,3.91824 5.49583,6.27243c0.81104,2.33401 0.48945,4.64124 -0.96478,6.92171c-0.70782,1.10997 -1.72008,1.9406 -3.03684,2.49192c-1.29657,0.56419 -2.7837,0.73719 -4.46136,0.519c1.04328,1.34659 1.62661,2.76893 1.75005,4.26702c0.14361,1.51095 -0.26076,3.01315 -1.21308,4.50654c-1.45422,2.28046 -3.51329,3.5507 -6.17722,3.81069c-2.63086,0.25268 -5.37916,-0.53468 -8.24487,-2.36211c-1.67502,-1.06814 -3.03315,-2.38841 -4.07438,-3.96079c-1.02104,-1.5595 -1.54457,-3.14242 -1.5706,-4.74872c-0.02603,-1.6063 0.42427,-3.13597 1.35086,-4.58902l5.99379,3.82217c-0.5019,0.78706 -0.62665,1.6727 -0.37424,2.65689c0.28544,0.97689 0.89234,1.76132 1.82068,2.35331c1.04942,0.66921 2.07353,0.91066 3.07236,0.72436c0.99883,-0.18629 1.7878,-0.73353 2.36692,-1.64167c0.82364,-1.2916 1.07986,-2.40565 0.76865,-3.34217c-0.29832,-0.9567 -1.02264,-1.80181 -2.17296,-2.53537l-2.90608,-1.85317z" fill="#d32f2f" stroke="none" stroke-width="1" stroke-linecap="square"/><path d="M84.42053,355.89665v-61.5738h5.67404v61.57382z" fill="#8ecc39" stroke="none" stroke-width="0" stroke-linecap="butt"/><g stroke="none" stroke-width="0" stroke-linecap="butt"><g fill="#ff8a00"><path d="M92.82883,289.06506c8.56172,8.71254 12.74782,18.4823 9.34989,21.82136c-3.39786,3.33906 -13.09308,-1.017 -21.6548,-9.72954c-8.56172,-8.71254 -12.74782,-18.4823 -9.34989,-21.82136c3.39786,-3.33906 13.09307,1.017 21.65479,9.72954z"/><path d="M101.83019,279.33552c3.39786,3.33906 -0.78817,13.10882 -9.34989,21.82136c-8.56172,8.71254 -18.25686,13.0686 -21.65479,9.72954c-3.39786,-3.33906 0.78816,-13.10882 9.34989,-21.82136c8.56172,-8.71254 18.25687,-13.0686 21.6548,-9.72954z" data-paper-data="{&quot;index&quot;:null}"/></g><g fill="#ff7e00"><path d="M88.91068,293.532c3.25356,3.3109 4.84431,7.02351 3.55312,8.29245c-1.29127,1.26894 -4.97558,-0.38644 -8.22914,-3.69736c-3.25356,-3.3109 -4.84431,-7.02351 -3.55311,-8.29245c1.29127,-1.26894 4.97557,0.38644 8.22913,3.69736z"/><path d="M92.33129,289.83465c1.29127,1.26894 -0.2995,4.98155 -3.55313,8.29238c-3.25356,3.3109 -6.93788,4.96628 -8.22914,3.69736c-1.29127,-1.26894 0.2995,-4.98155 3.55312,-8.29238c3.25356,-3.3109 6.93788,-4.96628 8.22915,-3.69737z" data-paper-data="{&quot;index&quot;:null}"/></g></g><path d="M70.0954,322.06311c0,0 5.9241,-0.94073 9.45833,-0.04745c0.76069,0.19226 1.50026,0.47833 2.37268,0.87949c1.53895,0.70764 2.57787,1.40076 2.57787,1.40076l0.12638,6.19095c0,0 -0.55225,0.06662 -1.38977,0.0595c-4.07421,-0.0346 -6.77139,-0.95929 -9.32203,-3.51057c-2.03016,-2.03064 -3.82345,-4.97269 -3.82345,-4.97269z" fill="#8ecc39" stroke="none" stroke-width="0" stroke-linecap="butt"/><path d="M89.63512,336.35622l0.61684,-5.67491c0,0 1.90575,-1.66006 3.96674,-3.05145c2.82025,-1.90395 5.16068,-1.97987 8.52301,-1.45685c1.04872,0.16313 1.8209,0.31379 1.8209,0.31379c0,0 -0.62225,1.64974 -1.5004,3.44451c-1.52975,3.12644 -3.37792,4.87906 -6.78387,5.59614c-3.13285,0.65959 -6.64321,0.82876 -6.64321,0.82876z" fill="#8ecc39" stroke="none" stroke-width="0" stroke-linecap="butt"/></g><path d="M-101.18384,49.19918v-64.89549h603.63998v64.89549z" fill="#8ecc39" stroke="none" stroke-width="none" stroke-linecap="butt"/></g></g></svg>