<svg version="1.1" xmlns="http://www.w3.org/2000/svg" xmlns:xlink="http://www.w3.org/1999/xlink" width="102.83806" height="27.91019" viewBox="0,0,102.83806,27.91019"><g transform="translate(-188.58097,-166.0449)"><g data-paper-data="{&quot;isPaintingLayer&quot;:true}" fill-rule="nonzero" stroke-miterlimit="10" stroke-dasharray="" stroke-dashoffset="0" style="mix-blend-mode: normal"><path d="M195.58097,186.9551v-13.91019h88.83806v13.91019z" data-paper-data="{&quot;zoomLevel&quot;:1.5487}" fill="none" stroke="#4a752c" stroke-width="14" stroke-linecap="butt" stroke-linejoin="round"/><path d="M225.31748,180.50781v4.50001h-3.20312v-13.26564h5.29688c1.01041,0 1.90625,0.1875 2.6875,0.5625c0.78125,0.375 1.38541,0.90625 1.8125,1.59375c0.42709,0.6875 0.64063,1.46875 0.64063,2.34375c0,1.29166 -0.46354,2.32813 -1.39062,3.10938c-0.92709,0.77083 -2.19791,1.15625 -3.8125,1.15625h-2.03125zM225.31748,178.03906h2.09375c0.61459,0 1.08334,-0.15104 1.40625,-0.45312c0.33334,-0.3125 0.5,-0.75521 0.5,-1.32812c0,-0.61459 -0.16666,-1.10417 -0.5,-1.46875c-0.33334,-0.375 -0.79166,-0.56771 -1.375,-0.57812h-2.125zM237.35107,185.00782h-3.07812v-14.00001h3.07813zM244.79221,185.00782c-0.10416,-0.19791 -0.19791,-0.49479 -0.28125,-0.89064c-0.5625,0.71876 -1.35416,1.07814 -2.375,1.07814c-0.92709,0 -1.71875,-0.28125 -2.375,-0.84376c-0.64584,-0.5625 -0.96875,-1.27084 -0.96875,-2.125c0,-1.0625 0.39584,-1.86459 1.1875,-2.40625c0.79166,-0.55209 1.9375,-0.82812 3.4375,-0.82812h0.95313v-0.53125c0,-0.89584 -0.39062,-1.34375 -1.17187,-1.34375c-0.72916,0 -1.09375,0.35416 -1.09375,1.0625h-3.07812c0,-0.94792 0.40625,-1.71875 1.21875,-2.3125c0.8125,-0.59375 1.84375,-0.89062 3.09375,-0.89062c1.26041,0 2.25521,0.30729 2.98438,0.92188c0.72916,0.60416 1.10416,1.44271 1.125,2.51563v4.35938c0.01041,0.90625 0.15104,1.59896 0.42188,2.07814v0.15625h-3.07812zM242.87034,183.00781c0.38541,0 0.70313,-0.08334 0.95313,-0.25c0.26041,-0.16667 0.44271,-0.35417 0.54688,-0.5625v-1.5625h-0.89062c-1.07291,0 -1.60937,0.47916 -1.60937,1.4375c0,0.28125 0.09375,0.51041 0.28125,0.6875c0.1875,0.16666 0.42709,0.25 0.71875,0.25zM252.94814,180.71093l1.64063,-5.5625h3.29688l-4.01562,11.51564l-0.1875,0.40625c-0.5625,1.28125 -1.56771,1.92188 -3.01562,1.92188c-0.40625,0 -0.82812,-0.0625 -1.26562,-0.1875v-2.1875h0.40625c0.42709,0 0.75521,-0.0625 0.98438,-0.1875c0.22916,-0.125 0.39584,-0.34896 0.5,-0.67187l0.25,-0.65625l-3.42187,-9.95314h3.28125z" fill="#ffffff" stroke="none" stroke-width="1" stroke-linecap="square" stroke-linejoin="miter"/></g></g></svg>