<svg version="1.1" xmlns="http://www.w3.org/2000/svg" xmlns:xlink="http://www.w3.org/1999/xlink" width="300.28251" height="64.0213" viewBox="0,0,300.28251,64.0213"><g transform="translate(-89.85876,-147.98935)"><g data-paper-data="{&quot;isPaintingLayer&quot;:true}" fill-rule="nonzero" stroke-miterlimit="10" stroke-dasharray="" stroke-dashoffset="0" style="mix-blend-mode: normal"><path d="M96.85877,205.01065v-50.0213h286.28251v50.0213z" data-paper-data="{&quot;zoomLevel&quot;:1.5487}" fill="#4a752c" stroke="#4a752c" stroke-width="14" stroke-linecap="butt" stroke-linejoin="round"/><g stroke-linecap="butt" stroke-linejoin="miter"><g><path d="M175.79195,178.65077c0,-5.36944 4.35278,-9.72222 9.72222,-9.72222c5.36944,0 9.72223,4.35279 9.72223,9.72222c0,5.36944 -4.35279,9.72222 -9.72223,9.72222c-5.36944,0 -9.72222,-4.35279 -9.72222,-9.72222z" fill="none" stroke="#ffffff" stroke-width="2"/><path d="M188.81504,179.16665v-7.38095h12.85715v7.38095z" fill="#4a752c" stroke="none" stroke-width="0"/></g><path d="M195.81028,175.37002l-8.5714,0.02295l8.54845,-8.59435z" fill="#ffffff" stroke="none" stroke-width="NaN"/></g><path d="M224.17645,172.66269h-4.76355v13.20883h-1.93682v-13.20882h-4.7461v-1.6053h11.44649zM230.64451,176.55381c-0.29082,-0.04654 -0.6049,-0.0698 -0.94224,-0.0698c-1.23306,0 -2.07061,0.52347 -2.51265,1.5704v7.81712h-1.86703v-11.01026h1.83214l0.01745,1.27378c0.61652,-0.97714 1.49479,-1.46571 2.63479,-1.46571c0.36061,0 0.6398,0.04654 0.83755,0.13959zM236.15007,183.1146l2.565,-8.25333h2.00663l-4.41457,12.70281c-0.68632,1.83795 -1.77398,2.75693 -3.26295,2.75693l-0.36642,-0.0349l-0.69796,-0.13959v-1.51806l0.50602,0.0349c0.63979,0 1.13418,-0.12795 1.48316,-0.38387c0.36061,-0.25592 0.65724,-0.72704 0.8899,-1.41336l0.41878,-1.11673l-3.926,-10.88813h2.05897zM254.35836,185.87153c-0.10469,-0.22102 -0.19194,-0.60489 -0.26173,-1.15162c-0.87244,0.90734 -1.91938,1.36102 -3.1408,1.36102c-1.08184,0 -1.97172,-0.30827 -2.66968,-0.92479c-0.68632,-0.61652 -1.02948,-1.39592 -1.02948,-2.33816c0,-1.13999 0.43041,-2.02407 1.29122,-2.65223c0.87244,-0.63979 2.09969,-0.95969 3.68173,-0.95969h1.83214v-0.87244c0,-0.66306 -0.19775,-1.18653 -0.59327,-1.5704c-0.38387,-0.39551 -0.95968,-0.59326 -1.72743,-0.59326c-0.6747,0 -1.23887,0.17449 -1.69254,0.52347c-0.45367,0.33734 -0.6805,0.74449 -0.6805,1.22142h-1.90193c0,-0.54673 0.19195,-1.07601 0.57582,-1.58784c0.39551,-0.51183 0.9248,-0.91316 1.58786,-1.20397c0.6747,-0.30245 1.41336,-0.45368 2.21601,-0.45368c1.26796,0 2.26255,0.31991 2.98378,0.9597c0.72122,0.62816 1.09347,1.49479 1.11673,2.5999v5.06018c0,1.01203 0.12795,1.82051 0.38387,2.42541v0.15704zM251.23501,184.44072c0.59327,0 1.15162,-0.15123 1.67509,-0.45367c0.5351,-0.31408 0.91898,-0.7154 1.15163,-1.20397v-2.2509h-1.46571c-2.3149,0 -3.47233,0.67469 -3.47233,2.02407c0,0.59327 0.19774,1.05857 0.59326,1.39591c0.39551,0.32572 0.90153,0.48857 1.51807,0.48857zM258.44962,180.27042c0,-1.70999 0.39551,-3.07101 1.18653,-4.08305c0.79102,-1.01203 1.84377,-1.51805 3.15827,-1.51805c1.33776,0 2.38469,0.47113 3.14081,1.41337l0.08725,-1.22143h1.72744v10.74854c0,1.41917 -0.42459,2.5359 -1.27377,3.35019c-0.83755,0.82591 -1.97172,1.23888 -3.40253,1.23888c-0.79102,0 -1.5704,-0.16867 -2.33816,-0.50601c-0.75612,-0.33734 -1.33193,-0.80265 -1.72744,-1.39591l0.97714,-1.11674c0.80265,0.98878 1.79143,1.48317 2.96632,1.48317c0.90735,0 1.61694,-0.25592 2.12877,-0.76775c0.51183,-0.51183 0.76775,-1.23887 0.76775,-2.18111v-0.94225c-0.74449,0.87244 -1.76815,1.30868 -3.07101,1.30868c-1.29122,0 -2.33815,-0.51765 -3.1408,-1.55295c-0.79102,-1.04693 -1.18653,-2.46611 -1.18653,-4.25754zM260.33411,180.49726c0,1.23306 0.25592,2.20438 0.76775,2.91397c0.51183,0.7096 1.22725,1.06439 2.14623,1.06439c1.18653,0 2.05316,-0.54091 2.5999,-1.62275v-5.02529c-0.57,-1.04693 -1.43081,-1.5704 -2.58244,-1.5704c-0.91898,0 -1.6402,0.35479 -2.16366,1.06439c-0.51183,0.7096 -0.76776,1.76815 -0.76776,3.1757zM277.37954,185.87153c-0.10469,-0.22102 -0.19194,-0.60489 -0.26173,-1.15162c-0.87245,0.90734 -1.91938,1.36102 -3.1408,1.36102c-1.08184,0 -1.97173,-0.30827 -2.66968,-0.92479c-0.68632,-0.61652 -1.02948,-1.39592 -1.02948,-2.33816c0,-1.13999 0.43041,-2.02407 1.29122,-2.65223c0.87245,-0.63979 2.09969,-0.95969 3.68173,-0.95969h1.83214v-0.87244c0,-0.66306 -0.19775,-1.18653 -0.59327,-1.5704c-0.38387,-0.39551 -0.95968,-0.59326 -1.72744,-0.59326c-0.67469,0 -1.23887,0.17449 -1.69254,0.52347c-0.45367,0.33734 -0.68051,0.74449 -0.68051,1.22142h-1.90193c0,-0.54673 0.19195,-1.07601 0.57582,-1.58784c0.39551,-0.51183 0.9248,-0.91316 1.58786,-1.20397c0.67469,-0.30245 1.41336,-0.45368 2.21602,-0.45368c1.26796,0 2.26254,0.31991 2.98377,0.9597c0.72122,0.62816 1.09348,1.49479 1.11674,2.5999v5.06018c0,1.01203 0.12795,1.82051 0.38387,2.42541v0.15704zM274.25618,184.44072c0.59326,0 1.15163,-0.15123 1.6751,-0.45367c0.5351,-0.31408 0.91897,-0.7154 1.15162,-1.20397v-2.2509h-1.46571c-2.31489,0 -3.47233,0.67469 -3.47233,2.02407c0,0.59327 0.19775,1.05857 0.59326,1.39591c0.39551,0.32572 0.90153,0.48857 1.51806,0.48857zM283.966,185.87153h-1.88449v-11.01026h1.88449zM281.92447,171.94729c0,-0.30245 0.09306,-0.55837 0.27918,-0.76776c0.18613,-0.22102 0.45949,-0.33152 0.82011,-0.33152c0.37224,0 0.65142,0.11051 0.83755,0.33154c0.19775,0.20938 0.29664,0.46531 0.29664,0.76776c0,0.30245 -0.09888,0.55836 -0.29663,0.76775c-0.18613,0.19775 -0.46531,0.29664 -0.83755,0.29664c-0.36061,0 -0.63398,-0.09887 -0.8201,-0.29662c-0.18613,-0.20938 -0.27918,-0.46531 -0.27918,-0.76776zM288.76016,174.86125l0.05236,1.37847c0.83755,-1.04693 1.93683,-1.5704 3.29785,-1.5704c2.32652,0 3.50142,1.30867 3.52468,3.92601v7.27621h-1.88448v-7.2762c-0.01164,-0.80265 -0.19775,-1.3901 -0.55836,-1.76234c-0.34898,-0.38387 -0.90153,-0.57581 -1.65765,-0.57581c-0.6049,0 -1.13999,0.16285 -1.6053,0.48857c-0.45367,0.32572 -0.81429,0.75612 -1.08184,1.29122v7.83457h-1.86703v-11.01026z" fill="#ffffff" stroke="none" stroke-width="1" stroke-linecap="square" stroke-linejoin="miter"/></g></g></svg>