<svg version="1.1" xmlns="http://www.w3.org/2000/svg" xmlns:xlink="http://www.w3.org/1999/xlink" width="90.36093" height="37.91019" viewBox="0,0,90.36093,37.91019"><g transform="translate(-193.30177,-161.04492)"><g data-paper-data="{&quot;isPaintingLayer&quot;:true}" fill-rule="nonzero" stroke-miterlimit="10" stroke-dasharray="" stroke-dashoffset="0" style="mix-blend-mode: normal"><path d="M200.30177,191.95512v-23.91019h76.36093v23.91019z" data-paper-data="{&quot;zoomLevel&quot;:1.5487}" fill="#ffffff" stroke="#ffffff" stroke-width="14" stroke-linecap="butt" stroke-linejoin="round"/><path d="M213.45898,172.62871l3.40625,9.625l3.39063,-9.625h3.59375v13.26563h-2.75v-3.625l0.28125,-6.26562l-3.57812,9.89063h-1.875l-3.57812,-9.875l0.28125,6.25v3.625h-2.73437v-13.26562zM230.5983,186.08187c-1.44792,0 -2.625,-0.44271 -3.53125,-1.32812c-0.90625,-0.89583 -1.35937,-2.07812 -1.35937,-3.54687v-0.26562c0,-0.98958 0.1875,-1.86979 0.5625,-2.64062c0.38542,-0.78125 0.92708,-1.38021 1.625,-1.79687c0.70833,-0.42708 1.51042,-0.64062 2.40625,-0.64062c1.35417,0 2.41667,0.42708 3.1875,1.28125c0.77083,0.84375 1.15625,2.04688 1.15625,3.60938v1.0625h-6.26562c0.08333,0.64583 0.33854,1.16667 0.76563,1.5625c0.42708,0.38542 0.96875,0.57813 1.625,0.57813c1.01042,0 1.80208,-0.36979 2.375,-1.10937l1.29688,1.45313c-0.39583,0.5625 -0.93229,1 -1.60937,1.3125c-0.66667,0.3125 -1.41146,0.46875 -2.23437,0.46875zM230.30142,177.98812c-0.52083,0 -0.94792,0.17708 -1.28125,0.53125c-0.32292,0.35417 -0.52604,0.85938 -0.60937,1.51563h3.65625v-0.21875c-0.01042,-0.58333 -0.17187,-1.03125 -0.48437,-1.34375c-0.30208,-0.32292 -0.72917,-0.48437 -1.28125,-0.48437zM235.72939,180.89437c0,-1.54167 0.34375,-2.76562 1.03125,-3.67187c0.69792,-0.90625 1.64583,-1.35937 2.84375,-1.35937c0.95833,0 1.75,0.35417 2.375,1.0625v-5.03125h2.64063v14h-2.375l-0.125,-1.04687c-0.65625,0.82292 -1.5,1.23438 -2.53125,1.23438c-1.16667,0 -2.10417,-0.45833 -2.8125,-1.375c-0.69792,-0.91667 -1.04687,-2.1875 -1.04687,-3.8125zM238.37001,181.08187c0,0.92708 0.16146,1.63542 0.48438,2.125c0.32292,0.48958 0.79167,0.73438 1.40625,0.73438c0.8125,0 1.38542,-0.34375 1.71875,-1.03125v-3.89062c-0.33333,-0.67708 -0.90104,-1.01562 -1.70312,-1.01562c-1.27083,0 -1.90625,1.02604 -1.90625,3.07813zM249.44487,185.89437h-2.65625v-9.85937h2.65625zM246.648,173.48812c0,-0.39583 0.13021,-0.71875 0.39063,-0.96875c0.26042,-0.26042 0.61979,-0.39062 1.07813,-0.39062c0.44792,0 0.80208,0.13021 1.0625,0.39063c0.27083,0.25 0.40625,0.57292 0.40625,0.96875c0,0.39583 -0.13542,0.72396 -0.40625,0.98438c-0.26042,0.25 -0.61458,0.375 -1.0625,0.375c-0.44792,0 -0.80729,-0.125 -1.07812,-0.375c-0.26042,-0.26042 -0.39062,-0.58854 -0.39062,-0.98437zM257.51631,184.89437c-0.65625,0.79167 -1.55729,1.1875 -2.70312,1.1875c-1.0625,0 -1.86979,-0.30208 -2.42187,-0.90625c-0.55208,-0.61458 -0.83333,-1.50521 -0.84375,-2.67187v-6.46875h2.625v6.375c0,1.02083 0.46875,1.53125 1.40625,1.53125c0.89583,0 1.51042,-0.30729 1.84375,-0.92187v-6.98437h2.64063v9.85938h-2.48437zM264.51832,176.03496l0.07813,1.10938c0.69792,-0.85417 1.64063,-1.28125 2.82813,-1.28125c1.27083,0 2.14583,0.5 2.625,1.5c0.6875,-1 1.67188,-1.5 2.95313,-1.5c1.07292,0 1.86979,0.3125 2.39062,0.9375c0.52083,0.61458 0.78125,1.54688 0.78125,2.79688v6.29688h-2.64062v-6.28125c0,-0.5625 -0.10937,-0.96875 -0.32812,-1.21875c-0.21875,-0.26042 -0.60417,-0.39062 -1.15625,-0.39062c-0.79167,0 -1.33854,0.375 -1.64062,1.125v6.76563h-2.625v-6.28125c0,-0.5625 -0.11458,-0.96875 -0.34375,-1.21875c-0.21875,-0.26042 -0.59896,-0.39062 -1.14062,-0.39062c-0.75,0 -1.29167,0.30729 -1.625,0.92188v6.96875h-2.625v-9.85937z" fill="#000000" stroke="none" stroke-width="1" stroke-linecap="square" stroke-linejoin="miter"/></g></g></svg>