<svg width="480px" height="360px" xmlns="http://www.w3.org/2000/svg"><rect x="216" y="124" width="80.5" height="80.5" fill-opacity="0"/><path fill="#F00" d="M262.836 180L241.212 180L242.085 176.364Q246.061 173.552 249.600 171.103Q253.139 168.655 255.830 166.303Q258.521 163.952 260.048 161.552Q261.576 159.152 261.576 156.388L261.576 156.388Q261.576 153.770 259.927 152.485Q258.279 151.200 255.855 151.200L255.855 151.200Q252.509 151.200 250.448 153.212Q248.388 155.224 247.564 158.327L247.564 158.327L244.558 155.806Q245.333 153.479 246.909 151.588Q248.485 149.697 250.788 148.606Q253.091 147.515 256.048 147.515L256.048 147.515Q260.315 147.515 262.958 149.745Q265.600 151.976 265.600 155.709L265.600 155.709Q265.600 158.376 264.461 160.752Q263.321 163.127 261.406 165.261Q259.491 167.394 257.091 169.333Q254.691 171.273 252.170 173.042Q249.648 174.812 247.370 176.461L247.370 176.461L247.370 176.509Q247.903 176.461 249.042 176.412Q250.182 176.364 250.667 176.364L250.667 176.364L263.709 176.364L262.836 180Z"/></svg>