<svg width="480px" height="360px" xmlns="http://www.w3.org/2000/svg"><rect x="216" y="124" width="80.5" height="80.5" fill-opacity="0"/><path fill="#F00" d="M261.624 180L257.745 180L257.745 171.612L242.133 171.612L242.133 168.752L256.727 148L261.624 148L261.624 168.267L267.297 168.267L267.297 171.612L261.624 171.612L261.624 180ZM254.642 156.485L246.255 168.267L257.745 168.267L257.745 156.291Q257.745 155.030 257.818 153.721Q257.891 152.412 257.939 151.152L257.939 151.152L257.842 151.152Q257.261 152.364 256.339 153.867Q255.418 155.370 254.642 156.485L254.642 156.485Z"/></svg>