<svg width="480px" height="360px" xmlns="http://www.w3.org/2000/svg"><rect x="216" y="124" width="80.5" height="80.5" fill-opacity="0"/><path fill="#F00" d="M242.110 167.912L242.110 167.912Q242.110 162.352 244.681 159.066Q247.253 155.780 251.495 155.780L251.495 155.780Q255.846 155.780 258.286 158.857L258.286 158.857L258.484 156.220L262.198 156.220L262.198 179.429Q262.198 184.044 259.462 186.703Q256.725 189.363 252.110 189.363L252.110 189.363Q249.538 189.363 247.077 188.264Q244.615 187.165 243.319 185.253L243.319 185.253L245.429 182.813Q248.044 186.044 251.824 186.044L251.824 186.044Q254.791 186.044 256.451 184.374Q258.110 182.703 258.110 179.670L258.110 179.670L258.110 177.626Q255.670 180.440 251.451 180.440L251.451 180.440Q247.275 180.440 244.692 177.077Q242.110 173.714 242.110 167.912ZM246.198 168.374L246.198 168.374Q246.198 172.396 247.846 174.692Q249.495 176.989 252.462 176.989L252.462 176.989Q256.308 176.989 258.110 173.495L258.110 173.495L258.110 162.637Q256.242 159.231 252.505 159.231L252.505 159.231Q249.538 159.231 247.868 161.538Q246.198 163.846 246.198 168.374Z"/></svg>