<svg version="1.1" xmlns="http://www.w3.org/2000/svg" xmlns:xlink="http://www.w3.org/1999/xlink" width="20" height="20" viewBox="0,0,20,20"><g transform="translate(-230,-170)"><g data-paper-data="{&quot;isPaintingLayer&quot;:true}" fill-rule="nonzero" stroke="none" stroke-linejoin="miter" stroke-miterlimit="10" stroke-dasharray="" stroke-dashoffset="0" style="mix-blend-mode: normal"><path d="M230,190v-20h20v20z" fill="#e5c29f" stroke-width="0" stroke-linecap="butt"/><path d="M244.76559,186.72653h-9.24999v-2l4.26563,-4.48437c1.05208,-1.19792 1.57812,-2.15104 1.57812,-2.85937c0,-0.5625 -0.125,-0.99479 -0.375,-1.29687c-0.25,-0.30208 -0.61458,-0.45312 -1.09374,-0.45312c-0.46875,0 -0.84896,0.20313 -1.14062,0.60938c-0.29167,0.39583 -0.4375,0.89063 -0.4375,1.48438h-3.07812c0,-0.8125 0.20313,-1.5625 0.60938,-2.25c0.41667,-0.6875 0.98438,-1.22396 1.70313,-1.60937c0.71875,-0.39583 1.52604,-0.59375 2.42188,-0.59375c1.43749,0 2.54166,0.33333 3.31249,1c0.77083,0.65625 1.15625,1.60417 1.15625,2.84375c0,0.52083 -0.09896,1.03125 -0.29687,1.53125c-0.1875,0.48958 -0.48958,1.00521 -0.90625,1.54688c-0.40625,0.54167 -1.0625,1.27083 -1.96875,2.1875l-1.71874,1.96875h5.21874v2.375z" fill="#388e3c" stroke-width="1" stroke-linecap="square"/></g></g></svg>