<svg width="480px" height="360px" xmlns="http://www.w3.org/2000/svg"><rect x="216" y="124" width="80.5" height="80.5" fill-opacity="0"/><path fill="#F00" d="M258.133 147.515L258.133 147.515Q262.691 147.515 266.012 149.527Q269.333 151.539 271.152 155.224Q272.970 158.909 272.970 164L272.970 164Q272.970 169.091 271.152 172.776Q269.333 176.461 266.012 178.473Q262.691 180.485 258.133 180.485L258.133 180.485Q253.576 180.485 250.255 178.473Q246.933 176.461 245.115 172.776Q243.297 169.091 243.297 164L243.297 164Q243.297 158.909 245.115 155.224Q246.933 151.539 250.255 149.527Q253.576 147.515 258.133 147.515ZM258.133 151.152L258.133 151.152Q253.139 151.152 250.255 154.545Q247.370 157.939 247.370 164L247.370 164Q247.370 170.012 250.255 173.430Q253.139 176.848 258.133 176.848L258.133 176.848Q263.127 176.848 266.012 173.430Q268.897 170.012 268.897 164L268.897 164Q268.897 157.939 266.012 154.545Q263.127 151.152 258.133 151.152Z"/></svg>