<svg width="480px" height="360px" xmlns="http://www.w3.org/2000/svg"><rect x="216" y="124" width="80.5" height="80.5" fill-opacity="0"/><path fill="#F00" d="M253.430 180.436L253.430 180.436Q250.085 180.436 247.685 178.958Q245.285 177.479 244.024 174.982Q242.764 172.485 242.764 169.479L242.764 169.479Q242.764 165.309 244.364 162.133Q245.964 158.958 248.824 157.139Q251.685 155.321 255.467 155.321L255.467 155.321Q259.588 155.321 262.158 157.455Q264.727 159.588 265.358 162.788L265.358 162.788L261.285 163.758Q261.091 161.624 259.612 160.145Q258.133 158.667 255.273 158.667L255.273 158.667Q252.800 158.667 250.861 160.024Q248.921 161.382 247.806 163.782Q246.691 166.182 246.691 169.430L246.691 169.430Q246.691 172.630 248.509 174.861Q250.327 177.091 253.818 177.091L253.818 177.091Q255.709 177.091 257.382 176.121Q259.055 175.152 259.733 173.261L259.733 173.261L263.515 174.618Q262.255 177.430 259.564 178.933Q256.873 180.436 253.430 180.436Z"/></svg>