<svg width="480px" height="360px" xmlns="http://www.w3.org/2000/svg"><rect x="216" y="124" width="80.5" height="80.5" fill-opacity="0"/><path fill="#F00" d="M267.341 164.066L267.341 175.802Q265.714 178.132 262.802 179.286Q259.890 180.440 256.022 180.440L256.022 180.440Q252.110 180.440 249.077 178.604Q246.044 176.769 244.385 173.385Q242.725 170 242.681 165.538L242.681 165.538L242.681 162.747Q242.681 155.516 246.055 151.538Q249.429 147.560 255.538 147.560L255.538 147.560Q260.549 147.560 263.604 150.121Q266.659 152.681 267.341 157.385L267.341 157.385L263.121 157.385Q261.934 151.033 255.560 151.033L255.560 151.033Q251.319 151.033 249.132 154.011Q246.945 156.989 246.923 162.637L246.923 162.637L246.923 165.253Q246.923 170.637 249.385 173.813Q251.846 176.989 256.044 176.989L256.044 176.989Q258.418 176.989 260.198 176.462Q261.978 175.934 263.143 174.681L263.143 174.681L263.143 167.495L255.736 167.495L255.736 164.066L267.341 164.066Z"/></svg>