<svg width="480px" height="360px" xmlns="http://www.w3.org/2000/svg"><rect x="216" y="124" width="80.5" height="80.5" fill-opacity="0"/><path fill="#F00" d="M246.642 145.236L249.212 143.588Q251.685 147.321 253.018 152.121Q254.352 156.921 254.352 161.576L254.352 161.576Q254.352 167.152 252.533 172.364Q250.715 177.576 247.200 181.915Q243.685 186.255 238.642 189.164L238.642 189.164L237.042 186.788Q241.455 183.927 244.461 179.855Q247.467 175.782 248.994 171.006Q250.521 166.230 250.521 161.188L250.521 161.188Q250.521 156.921 249.479 152.703Q248.436 148.485 246.642 145.236L246.642 145.236Z"/></svg>