<svg width="480px" height="360px" xmlns="http://www.w3.org/2000/svg"><rect x="216" y="124" width="80.5" height="80.5" fill-opacity="0"/><path fill="#F00" d="M247.780 164.791L244.527 163.956L246.154 148L262.549 148L262.549 151.758L249.604 151.758L248.637 160.484Q250.989 159.099 253.978 159.099L253.978 159.099Q258.352 159.099 260.923 161.989Q263.495 164.879 263.495 169.802L263.495 169.802Q263.495 174.747 260.824 177.593Q258.154 180.440 253.363 180.440L253.363 180.440Q249.121 180.440 246.440 178.088Q243.758 175.736 243.385 171.582L243.385 171.582L247.231 171.582Q247.604 174.330 249.187 175.725Q250.769 177.121 253.363 177.121L253.363 177.121Q256.198 177.121 257.813 175.187Q259.429 173.253 259.429 169.846L259.429 169.846Q259.429 166.637 257.681 164.692Q255.934 162.747 253.033 162.747L253.033 162.747Q250.374 162.747 248.857 163.912L248.857 163.912L247.780 164.791Z"/></svg>