<svg width="480px" height="360px" xmlns="http://www.w3.org/2000/svg"><rect x="216" y="124" width="80.5" height="80.5" fill-opacity="0"/><path fill="#F00" d="M267.152 170.352L271.030 171.806Q269.527 175.927 266.085 178.206Q262.642 180.485 258.133 180.485L258.133 180.485Q253.576 180.485 250.255 178.473Q246.933 176.461 245.115 172.776Q243.297 169.091 243.297 164L243.297 164Q243.297 158.909 245.115 155.224Q246.933 151.539 250.255 149.527Q253.576 147.515 258.036 147.515L258.036 147.515Q262.691 147.515 265.818 149.430Q268.945 151.345 270.448 154.982L270.448 154.982L266.618 156.776Q265.552 154.012 263.539 152.582Q261.527 151.152 258.327 151.152L258.327 151.152Q255.079 151.152 252.606 152.679Q250.133 154.206 248.752 157.067Q247.370 159.927 247.370 164L247.370 164Q247.370 170.012 250.255 173.430Q253.139 176.848 258.133 176.848L258.133 176.848Q261.333 176.848 263.709 175.224Q266.085 173.600 267.152 170.352L267.152 170.352Z"/></svg>