<svg width="480px" height="360px" xmlns="http://www.w3.org/2000/svg"><rect x="216" y="124" width="80.5" height="80.5" fill-opacity="0"/><path fill="#F00" d="M251.588 155.758L259.248 155.758L259.248 160.703L251.879 160.703L251.879 180L245.236 180L245.236 160.703L241.018 160.703L241.018 155.758L245.236 155.758L245.236 152.848Q245.236 148.727 247.806 146.691Q250.376 144.655 254.303 144.655L254.303 144.655Q256 144.655 257.358 145.018Q258.715 145.382 259.442 145.915L259.442 145.915L258.521 150.327Q257.988 149.988 257.309 149.794Q256.630 149.600 255.709 149.600L255.709 149.600Q253.818 149.600 252.703 150.448Q251.588 151.297 251.588 153.333L251.588 153.333L251.588 155.758Z"/></svg>