<svg version="1.1" xmlns="http://www.w3.org/2000/svg" xmlns:xlink="http://www.w3.org/1999/xlink" width="21.88888" height="25.82613" viewBox="0,0,21.88888,25.82613"><g transform="translate(-230.16668,-168.39791)"><g data-paper-data="{&quot;isPaintingLayer&quot;:true}" fill-rule="nonzero" stroke-linejoin="miter" stroke-miterlimit="10" stroke-dasharray="" stroke-dashoffset="0" style="mix-blend-mode: normal"><path d="M252.05556,183.25223c0,6.05956 -4.89999,10.97181 -10.94444,10.97181c-6.04445,0 -10.94444,-4.91224 -10.94444,-10.97181c0,-6.05956 4.89999,-10.97181 10.94444,-10.97181c6.04445,0 10.94444,4.91224 10.94444,10.97181z" fill="#efad00" stroke="none" stroke-width="0" stroke-linecap="butt"/><path d="M238.85074,172.80852v-1.91528h4.02756v1.91528z" fill="#efad00" stroke="none" stroke-width="0" stroke-linecap="butt"/><path d="M245.0234,169.77691c0,0.51118 -0.86444,1.06684 -2.05065,1.30501c-0.58112,0.11668 -1.23947,0.07399 -1.91124,0.07399c-0.69789,0 -1.42726,0.04251 -2.08518,-0.07599c-1.26809,-0.2284 -2.27071,-0.75779 -2.27071,-1.25923c0,-0.47746 0.62912,-1.02957 1.79793,-1.27709c0.69559,-0.14731 1.79573,-0.14569 2.55796,-0.14569c0.89825,0 1.72872,0.03179 2.42643,0.23027c0.88921,0.25295 1.53546,0.72198 1.53546,1.14873z" fill="#ffbf00" stroke="none" stroke-width="0" stroke-linecap="butt"/><path d="M246.75262,181.82674c0,4.31574 -3.4692,7.81433 -7.74867,7.81433c-4.27947,0 -7.74867,-3.4986 -7.74867,-7.81433c0,-4.31574 3.4692,-7.81433 7.74867,-7.81433c4.27947,0 7.74867,3.4986 7.74867,7.81433z" fill="#efad00" stroke="none" stroke-width="0" stroke-linecap="butt"/><path d="M231.69889,182.89653c0,-2.70149 1.22955,-5.12588 3.17814,-6.78056c1.6483,-1.39968 3.81109,-2.24861 6.17936,-2.24861c5.16801,0 8.75556,4.15194 8.75556,9.13861c0,4.98667 -4.13477,9.41222 -9.30278,9.41222c-5.168,0 -8.81028,-4.535 -8.81028,-9.52167z" fill="none" stroke="#ffbf00" stroke-width="3" stroke-linecap="butt"/><path d="M248.33957,182.53814c0,4.31574 -3.4692,7.81433 -7.74867,7.81433c-4.27947,0 -7.74867,-3.4986 -7.74867,-7.81433c0,-4.31574 3.4692,-7.81433 7.74867,-7.81433c4.27947,0 7.74867,3.4986 7.74867,7.81433z" fill="#efad00" stroke="none" stroke-width="0" stroke-linecap="butt"/><g stroke="none" stroke-width="0" stroke-linecap="butt"><path d="M248.83207,183.08536c0,4.31574 -3.4692,7.81433 -7.74867,7.81433c-4.27947,0 -7.74867,-3.4986 -7.74867,-7.81433c0,-4.31574 3.4692,-7.81433 7.74867,-7.81433c4.27947,0 7.74867,3.4986 7.74867,7.81433z" fill="#cccccc"/><path d="M234.03518,184.7708c0,-0.89721 0.00019,-4.55109 2.1807,-6.6214c2.21645,-2.10443 4.54646,-2.59227 7.4845,-1.75013c1.09398,0.31357 2.51681,1.10189 2.53865,1.11809c1.7875,1.32615 2.54926,3.69716 2.54926,6.07143c0,4.01352 -3.3026,7.26711 -7.37656,7.26711c-4.07396,0 -7.37656,-2.0716 -7.37656,-6.08511z" fill="#f2f2f2"/><path d="M240.51429,184.28924c0,0 -0.67439,-3.51849 -0.48668,-5.07884c0.06022,-0.50058 0.46356,-0.61227 0.68056,-0.61227c0.24887,0 0.54711,-0.00353 0.62115,0.57127c0.20644,1.60266 -0.28968,5.11984 -0.28968,5.11984z" fill="#333333"/><path d="M240.42862,183.89382c0,0 4.47773,-5.6901 5.39631,-4.94437c1.01282,0.82224 -4.86571,5.36498 -4.86571,5.36498z" fill="#333333"/></g><path d="M232.57444,187.4932c0,0 -1.83904,-4.46722 -1.03915,-6.87687c0.33988,-1.02389 1.32613,-3.0602 2.69519,-4.54684c1.05988,-1.1509 2.72174,-1.76434 2.72174,-1.76434" fill="none" stroke="#ffd97a" stroke-width="1" stroke-linecap="round"/></g></g></svg>