<svg width="480px" height="360px" xmlns="http://www.w3.org/2000/svg"><rect x="216" y="124" width="80.5" height="80.5" fill-opacity="0"/><path fill="#F00" d="M243.055 190.182L239.176 190.182L247.127 155.758L250.521 155.758L249.745 159.976Q251.006 157.794 253.236 156.582Q255.467 155.370 258.182 155.370L258.182 155.370Q260.752 155.370 262.788 156.630Q264.824 157.891 266.012 160.267Q267.200 162.642 267.200 165.939L267.200 165.939Q267.200 170.109 265.552 173.406Q263.903 176.703 261.091 178.594Q258.279 180.485 254.739 180.485L254.739 180.485Q251.636 180.485 249.479 178.861Q247.321 177.236 246.642 174.521L246.642 174.521L243.055 190.182ZM254.788 177.139L254.788 177.139Q257.164 177.139 259.103 175.685Q261.042 174.230 262.206 171.685Q263.370 169.139 263.370 165.939L263.370 165.939Q263.370 162.448 261.552 160.582Q259.733 158.715 256.873 158.715L256.873 158.715Q254.400 158.715 252.436 160.170Q250.473 161.624 249.333 164.194Q248.194 166.764 248.194 170.061L248.194 170.061Q248.194 173.212 249.867 175.176Q251.539 177.139 254.788 177.139Z"/></svg>