<svg width="480px" height="360px" xmlns="http://www.w3.org/2000/svg"><rect x="216" y="124" width="80.5" height="80.5" fill-opacity="0"/><path fill="#F00" d="M257.503 184.752L257.503 189.261Q251.927 189.261 249.552 187.491Q247.176 185.721 247.176 181.794L247.176 181.794L247.176 173.988Q247.176 171.273 245.939 170.109Q244.703 168.945 241.745 168.945L241.745 168.945L241.745 164.339Q244.703 164.339 245.939 163.176Q247.176 162.012 247.176 159.297L247.176 159.297L247.176 151.442Q247.176 147.564 249.552 145.794Q251.927 144.024 257.503 144.024L257.503 144.024L257.503 148.533Q254.933 148.533 253.818 149.358Q252.703 150.182 252.703 151.976L252.703 151.976L252.703 160.509Q252.703 162.982 251.418 164.485Q250.133 165.988 247.661 166.618L247.661 166.618Q250.133 167.248 251.418 168.776Q252.703 170.303 252.703 172.776L252.703 172.776L252.703 181.309Q252.703 183.103 253.818 183.927Q254.933 184.752 257.503 184.752L257.503 184.752Z"/></svg>