<svg width="480px" height="360px" xmlns="http://www.w3.org/2000/svg"><rect x="216" y="124" width="80.5" height="80.5" fill-opacity="0"/><path fill="#F00" d="M242.376 154.497L246.255 150.570L250.570 155.176Q252.897 153.915 255.855 153.915L255.855 153.915Q258.812 153.915 261.188 155.224L261.188 155.224L265.358 150.570L269.333 154.497L264.776 158.764Q266.133 161.091 266.133 164.048L266.133 164.048Q266.133 167.055 264.727 169.430L264.727 169.430L269.333 173.600L265.358 177.527L261.091 172.921Q258.764 174.182 255.855 174.182L255.855 174.182Q252.897 174.182 250.521 172.873L250.521 172.873L246.255 177.527L242.376 173.600L246.885 169.382Q245.527 167.006 245.527 164.048L245.527 164.048Q245.527 161.042 246.933 158.667L246.933 158.667L242.376 154.497ZM255.855 158.909L255.855 158.909Q253.721 158.909 252.339 160.339Q250.958 161.770 250.958 164.048L250.958 164.048Q250.958 166.327 252.339 167.758Q253.721 169.188 255.855 169.188L255.855 169.188Q257.988 169.188 259.345 167.758Q260.703 166.327 260.703 164.048L260.703 164.048Q260.703 161.770 259.345 160.339Q257.988 158.909 255.855 158.909Z"/></svg>