<svg width="480px" height="360px" xmlns="http://www.w3.org/2000/svg"><rect x="216" y="124" width="80.5" height="80.5" fill-opacity="0"/><path fill="#F00" d="M257.890 147.978L258.615 147.978L258.615 151.429L257.868 151.429Q253.121 151.516 250.308 154.242Q247.495 156.967 247.055 161.912L247.055 161.912Q249.582 159.011 253.956 159.011L253.956 159.011Q258.132 159.011 260.626 161.956Q263.121 164.901 263.121 169.560L263.121 169.560Q263.121 174.505 260.429 177.473Q257.736 180.440 253.209 180.440L253.209 180.440Q248.615 180.440 245.758 176.912Q242.901 173.385 242.901 167.824L242.901 167.824L242.901 166.264Q242.901 157.429 246.670 152.758Q250.440 148.088 257.890 147.978L257.890 147.978ZM253.275 162.396L253.275 162.396Q251.187 162.396 249.429 163.648Q247.670 164.901 246.989 166.791L246.989 166.791L246.989 168.286Q246.989 172.242 248.769 174.659Q250.549 177.077 253.209 177.077L253.209 177.077Q255.956 177.077 257.527 175.055Q259.099 173.033 259.099 169.758L259.099 169.758Q259.099 166.462 257.505 164.429Q255.912 162.396 253.275 162.396Z"/></svg>