<svg width="480px" height="360px" xmlns="http://www.w3.org/2000/svg"><rect x="216" y="124" width="80.5" height="80.5" fill-opacity="0"/><path fill="#F00" d="M244.558 148L248.630 148L248.630 161.867L248.048 169.915L245.139 169.915L244.558 161.867L244.558 148ZM246.594 174.182L246.594 174.182Q248 174.182 248.873 175.055Q249.745 175.927 249.745 177.333L249.745 177.333Q249.745 178.739 248.873 179.612Q248 180.485 246.594 180.485L246.594 180.485Q245.188 180.485 244.315 179.612Q243.442 178.739 243.442 177.333L243.442 177.333Q243.442 175.927 244.315 175.055Q245.188 174.182 246.594 174.182Z"/></svg>