<svg width="480px" height="360px" xmlns="http://www.w3.org/2000/svg"><rect x="216" y="124" width="80.5" height="80.5" fill-opacity="0"/><path fill="#F00" d="M254.400 180.485L254.400 180.485Q249.600 180.485 246.230 178.473Q242.861 176.461 241.600 172.679L241.600 172.679L247.903 169.915Q248.873 175.103 254.303 175.103L254.303 175.103Q256.727 175.103 258.109 173.818Q259.491 172.533 259.491 170.400L259.491 170.400Q259.491 166.327 254.448 166.327L254.448 166.327Q253.285 166.327 252.024 166.473L252.024 166.473L252.024 161.576Q252.752 161.673 253.673 161.673L253.673 161.673Q256.388 161.673 257.576 160.558Q258.764 159.442 258.764 157.067L258.764 157.067Q258.764 155.079 257.552 153.988Q256.339 152.897 254.206 152.897L254.206 152.897Q251.879 152.897 250.521 154.061Q249.164 155.224 248.630 157.503L248.630 157.503L242.667 155.273Q243.539 151.636 246.788 149.552Q250.036 147.467 254.545 147.467L254.545 147.467Q259.879 147.467 262.642 149.891Q265.406 152.315 265.406 156.097L265.406 156.097Q265.406 158.715 264.388 160.364Q263.370 162.012 261.964 162.836Q260.558 163.661 259.394 163.806L259.394 163.806L259.394 163.952Q260.848 164 262.400 164.727Q263.952 165.455 265.018 166.958Q266.085 168.461 266.085 170.788L266.085 170.788Q266.085 173.745 264.558 175.927Q263.030 178.109 260.412 179.297Q257.794 180.485 254.400 180.485Z"/></svg>