<svg width="480px" height="360px" xmlns="http://www.w3.org/2000/svg"><rect x="216" y="124" width="80.5" height="80.5" fill-opacity="0"/><path fill="#F00" d="M248.388 190.182L244.509 190.182L244.509 155.758L247.903 155.758L248.145 160.024Q249.261 157.891 251.467 156.582Q253.673 155.273 256.533 155.273L256.533 155.273Q259.491 155.273 261.988 156.776Q264.485 158.279 265.988 161.091Q267.491 163.903 267.491 167.879L267.491 167.879Q267.491 171.806 265.964 174.642Q264.436 177.479 261.915 178.982Q259.394 180.485 256.388 180.485L256.388 180.485Q253.673 180.485 251.588 179.297Q249.503 178.109 248.388 176.218L248.388 176.218L248.388 190.182ZM256 177.091L256 177.091Q259.588 177.091 261.600 174.570Q263.612 172.048 263.612 167.879L263.612 167.879Q263.612 163.709 261.648 161.188Q259.685 158.667 256.145 158.667L256.145 158.667Q252.655 158.667 250.521 161.188Q248.388 163.709 248.388 167.879L248.388 167.879Q248.388 172.048 250.473 174.570Q252.558 177.091 256 177.091Z"/></svg>