<svg width="480px" height="360px" xmlns="http://www.w3.org/2000/svg"><rect x="216" y="124" width="80.5" height="80.5" fill-opacity="0"/><path fill="#F00" d="M256.388 180.485L256.388 180.485Q253.624 180.485 251.442 179.176Q249.261 177.867 248.145 175.733L248.145 175.733L247.903 180L244.509 180L244.509 144.606L248.388 144.606L248.388 159.539Q249.552 157.648 251.661 156.461Q253.770 155.273 256.436 155.273L256.436 155.273Q259.442 155.273 261.964 156.776Q264.485 158.279 265.988 161.091Q267.491 163.903 267.491 167.879L267.491 167.879Q267.491 171.806 265.964 174.642Q264.436 177.479 261.915 178.982Q259.394 180.485 256.388 180.485ZM256 177.091L256 177.091Q259.588 177.091 261.600 174.570Q263.612 172.048 263.612 167.879L263.612 167.879Q263.612 163.709 261.624 161.188Q259.636 158.667 256.048 158.667L256.048 158.667Q252.655 158.667 250.521 161.236Q248.388 163.806 248.388 167.976L248.388 167.976Q248.388 172.145 250.497 174.618Q252.606 177.091 256 177.091Z"/></svg>