<svg width="480px" height="360px" xmlns="http://www.w3.org/2000/svg"><rect x="216" y="124" width="80.5" height="80.5" fill-opacity="0"/><path fill="#F00" d="M253.382 180.436L253.382 180.436Q250.036 180.436 247.636 178.982Q245.236 177.527 243.976 175.055Q242.715 172.582 242.715 169.527L242.715 169.527Q242.715 165.745 244.218 162.497Q245.721 159.248 248.606 157.285Q251.491 155.321 255.612 155.321L255.612 155.321Q258.570 155.321 260.679 156.533Q262.788 157.745 263.903 159.855Q265.018 161.964 265.018 164.630L265.018 164.630Q265.018 166.521 264.339 168.800L264.339 168.800L246.642 168.800Q246.642 169.236 246.642 169.673L246.642 169.673Q246.642 172.921 248.606 175.006Q250.570 177.091 253.818 177.091L253.818 177.091Q256.291 177.042 257.891 176.024Q259.491 175.006 260.509 173.358L260.509 173.358L263.564 175.394Q261.964 177.721 259.394 179.079Q256.824 180.436 253.382 180.436ZM255.370 158.667L255.370 158.667Q251.879 158.667 249.915 160.655Q247.952 162.642 247.176 165.406L247.176 165.406L261.188 165.406Q261.236 164.921 261.236 164.485L261.236 164.485Q261.236 161.867 259.685 160.267Q258.133 158.667 255.370 158.667Z"/></svg>