<svg width="480px" height="360px" xmlns="http://www.w3.org/2000/svg"><rect x="216" y="124" width="80.5" height="80.5" fill-opacity="0"/><path fill="#F00" d="M244.218 174.182L244.218 174.182Q245.673 174.182 246.545 175.273Q247.418 176.364 247.418 178.109L247.418 178.109Q247.418 179.952 246.473 181.867Q245.527 183.782 243.733 185.236Q241.939 186.691 239.418 187.224L239.418 187.224L238.206 184.897Q241.067 184.509 242.570 183.176Q244.073 181.842 244.558 180.097L244.558 180.097L244.509 180.048Q244.267 180.242 244 180.315Q243.733 180.388 243.200 180.388L243.200 180.388Q242.036 180.388 241.430 179.539Q240.824 178.691 240.824 177.673L240.824 177.673Q240.824 176.121 241.818 175.152Q242.812 174.182 244.218 174.182Z"/></svg>