<svg width="480px" height="360px" xmlns="http://www.w3.org/2000/svg"><rect x="216" y="124" width="80.5" height="80.5" fill-opacity="0"/><path fill="#F00" d="M253.915 180.485L253.915 180.485Q249.648 180.485 247.055 178.545Q244.461 176.606 243.055 173.164L243.055 173.164L246.836 171.176Q247.612 173.697 249.236 175.273Q250.861 176.848 254.012 176.848L254.012 176.848Q257.309 176.848 259.224 175.030Q261.139 173.212 261.139 170.012L261.139 170.012Q261.139 166.618 259.370 164.873Q257.600 163.127 254.352 163.127L254.352 163.127Q252.024 163.127 250.182 163.855Q248.339 164.582 247.224 166.230L247.224 166.230L243.830 165.600L245.721 148L263.709 148L263.709 151.636L249.018 151.636L247.758 161.721L247.661 162.158L247.758 162.158Q248.921 160.945 250.739 160.218Q252.558 159.491 255.079 159.491L255.079 159.491Q258.133 159.491 260.388 160.776Q262.642 162.061 263.903 164.388Q265.164 166.715 265.164 169.818L265.164 169.818Q265.164 173.115 263.733 175.515Q262.303 177.915 259.782 179.200Q257.261 180.485 253.915 180.485Z"/></svg>