<svg width="480px" height="360px" xmlns="http://www.w3.org/2000/svg"><rect x="216" y="124" width="80.5" height="80.5" fill-opacity="0"/><path fill="#F00" d="M254.303 147.515L254.303 147.515Q257.697 147.515 260.364 148.509Q263.030 149.503 264.558 151.442Q266.085 153.382 266.085 156.194L266.085 156.194Q266.085 159.152 264.848 161.042Q263.612 162.933 261.527 163.927Q259.442 164.921 256.921 165.164L256.921 165.164L256.582 169.721L250.521 169.721L250.570 162.400Q255.127 161.915 257.042 160.606Q258.958 159.297 258.958 157.067L258.958 157.067Q258.958 155.224 257.697 154.158Q256.436 153.091 253.867 153.091L253.867 153.091Q251.345 153.091 249.818 154.521Q248.291 155.952 248 158.570L248 158.570L241.697 156.145Q242.521 152.364 245.624 149.939Q248.727 147.515 254.303 147.515ZM253.624 172.873L253.624 172.873Q255.564 172.873 256.679 173.891Q257.794 174.909 257.794 176.655L257.794 176.655Q257.794 178.400 256.679 179.418Q255.564 180.436 253.624 180.436L253.624 180.436Q251.733 180.436 250.618 179.418Q249.503 178.400 249.503 176.655L249.503 176.655Q249.503 174.909 250.618 173.891Q251.733 172.873 253.624 172.873Z"/></svg>