<svg width="480px" height="360px" xmlns="http://www.w3.org/2000/svg"><rect x="216" y="124" width="80.5" height="80.5" fill-opacity="0"/><path fill="#F00" d="M262.022 180L257.758 180Q257.407 179.297 257.187 177.495L257.187 177.495Q254.352 180.440 250.418 180.440L250.418 180.440Q246.901 180.440 244.648 178.451Q242.396 176.462 242.396 173.407L242.396 173.407Q242.396 169.692 245.220 167.637Q248.044 165.582 253.165 165.582L253.165 165.582L257.121 165.582L257.121 163.714Q257.121 161.582 255.846 160.319Q254.571 159.055 252.088 159.055L252.088 159.055Q249.912 159.055 248.440 160.154Q246.967 161.253 246.967 162.813L246.967 162.813L242.879 162.813Q242.879 161.033 244.143 159.374Q245.407 157.714 247.571 156.747Q249.736 155.780 252.330 155.780L252.330 155.780Q256.440 155.780 258.769 157.835Q261.099 159.890 261.187 163.495L261.187 163.495L261.187 174.440Q261.187 177.714 262.022 179.648L262.022 179.648L262.022 180ZM251.011 176.901L251.011 176.901Q252.923 176.901 254.637 175.912Q256.352 174.923 257.121 173.341L257.121 173.341L257.121 168.462L253.934 168.462Q246.462 168.462 246.462 172.835L246.462 172.835Q246.462 174.747 247.736 175.824Q249.011 176.901 251.011 176.901Z"/></svg>