<svg width="480px" height="360px" xmlns="http://www.w3.org/2000/svg"><rect x="216" y="124" width="80.5" height="80.5" fill-opacity="0"/><path fill="#F00" d="M242.945 177.868L242.945 177.868Q242.945 176.813 243.571 176.110Q244.198 175.407 245.451 175.407Q246.703 175.407 247.352 176.110Q248 176.813 248 177.868L248 177.868Q248 178.879 247.352 179.560Q246.703 180.242 245.451 180.242Q244.198 180.242 243.571 179.560Q242.945 178.879 242.945 177.868ZM242.967 158.462L242.967 158.462Q242.967 157.407 243.593 156.703Q244.220 156 245.473 156Q246.725 156 247.374 156.703Q248.022 157.407 248.022 158.462L248.022 158.462Q248.022 159.473 247.374 160.154Q246.725 160.835 245.473 160.835Q244.220 160.835 243.593 160.154Q242.967 159.473 242.967 158.462Z"/></svg>