<svg width="480px" height="360px" xmlns="http://www.w3.org/2000/svg"><rect x="216" y="124" width="80.5" height="80.5" fill-opacity="0"/><path fill="#F00" d="M261.915 162.933L261.915 162.933Q260.558 162.933 259.297 162.448Q258.036 161.964 256.800 161.309Q255.564 160.655 254.255 160.170Q252.945 159.685 251.491 159.685L251.491 159.685Q249.503 159.685 247.758 160.291Q246.012 160.897 244.121 162.448L244.121 162.448L244.994 158.667Q246.885 157.261 248.582 156.630Q250.279 156 251.976 156L251.976 156Q253.333 156 254.667 156.509Q256 157.018 257.333 157.697Q258.667 158.376 260 158.885Q261.333 159.394 262.642 159.394L262.642 159.394Q264.242 159.394 265.818 158.642Q267.394 157.891 268.994 156.630L268.994 156.630L268.024 160.800Q266.424 161.770 264.994 162.352Q263.564 162.933 261.915 162.933ZM259.685 172.630L259.685 172.630Q258.327 172.630 257.067 172.145Q255.806 171.661 254.570 171.006Q253.333 170.352 252.024 169.867Q250.715 169.382 249.261 169.382L249.261 169.382Q247.273 169.382 245.527 169.988Q243.782 170.594 241.891 172.145L241.891 172.145L242.764 168.364Q244.655 166.958 246.352 166.327Q248.048 165.697 249.745 165.697L249.745 165.697Q251.103 165.697 252.436 166.206Q253.770 166.715 255.103 167.394Q256.436 168.073 257.770 168.582Q259.103 169.091 260.412 169.091L260.412 169.091Q262.012 169.091 263.588 168.339Q265.164 167.588 266.764 166.327L266.764 166.327L265.794 170.497Q264.194 171.467 262.764 172.048Q261.333 172.630 259.685 172.630Z"/></svg>