<svg width="480px" height="360px" xmlns="http://www.w3.org/2000/svg"><rect x="216" y="124" width="80.5" height="80.5" fill-opacity="0"/><path fill="#F00" d="M254.739 180.485L254.739 180.485Q249.018 180.485 245.576 177.164Q242.133 173.842 242.133 167.879L242.133 167.879Q242.133 163.903 243.685 161.091Q245.236 158.279 248.024 156.776Q250.812 155.273 254.400 155.273L254.400 155.273Q258.085 155.273 260.655 156.752Q263.224 158.230 264.582 160.776Q265.939 163.321 265.939 166.570L265.939 166.570Q265.939 167.539 265.891 168.412Q265.842 169.285 265.745 169.964L265.745 169.964L248.630 169.964Q249.018 172.776 250.594 174.158Q252.170 175.539 254.691 175.539L254.691 175.539Q256.824 175.539 258.133 174.715Q259.442 173.891 260.170 172.436L260.170 172.436L265.455 174.473Q264.291 177.333 261.382 178.909Q258.473 180.485 254.739 180.485ZM254.352 160.170L254.352 160.170Q249.648 160.170 248.679 165.358L248.679 165.358L259.588 165.358Q259.297 162.836 257.964 161.503Q256.630 160.170 254.352 160.170Z"/></svg>