<svg width="480px" height="360px" xmlns="http://www.w3.org/2000/svg"><rect x="216" y="124" width="80.5" height="80.5" fill-opacity="0"/><path fill="#F00" d="M259.879 180.485L259.879 180.485Q254.933 180.485 251.200 178.303Q247.467 176.121 245.382 172.388Q243.297 168.655 243.297 164L243.297 164Q243.297 159.297 245.382 155.588Q247.467 151.879 251.200 149.697Q254.933 147.515 259.879 147.515L259.879 147.515Q264.824 147.515 268.558 149.673Q272.291 151.830 274.376 155.564Q276.461 159.297 276.461 164L276.461 164Q276.461 168.655 274.376 172.388Q272.291 176.121 268.558 178.303Q264.824 180.485 259.879 180.485ZM259.879 177.333L259.879 177.333Q263.806 177.333 266.764 175.564Q269.721 173.794 271.370 170.764Q273.018 167.733 273.018 164L273.018 164Q273.018 160.267 271.370 157.236Q269.721 154.206 266.764 152.436Q263.806 150.667 259.879 150.667L259.879 150.667Q256 150.667 253.018 152.436Q250.036 154.206 248.388 157.236Q246.739 160.267 246.739 164L246.739 164Q246.739 167.733 248.388 170.764Q250.036 173.794 253.018 175.564Q256 177.333 259.879 177.333ZM256.291 173.067L253.042 173.067L253.042 155.127L260.412 155.127Q263.418 155.127 265.309 156.655Q267.200 158.182 267.200 160.848L267.200 160.848Q267.200 162.933 266.012 164.339Q264.824 165.745 262.836 166.279L262.836 166.279L267.588 173.067L263.903 173.067L259.588 166.570L256.291 166.570L256.291 173.067ZM256.291 157.600L256.291 164.097L260.364 164.097Q263.952 164.097 263.952 160.848L263.952 160.848Q263.952 157.600 260.364 157.600L260.364 157.600L256.291 157.600Z"/></svg>