<svg width="480px" height="360px" xmlns="http://www.w3.org/2000/svg"><rect x="216" y="124" width="80.5" height="80.5" fill-opacity="0"/><path fill="#F00" d="M262.725 161.077L262.725 166.352Q262.725 173.495 260.286 176.967Q257.846 180.440 252.659 180.440L252.659 180.440Q247.538 180.440 245.077 177.044Q242.615 173.648 242.527 166.901L242.527 166.901L242.527 161.473Q242.527 154.418 244.967 150.989Q247.407 147.560 252.615 147.560L252.615 147.560Q257.780 147.560 260.220 150.868Q262.659 154.176 262.725 161.077L262.725 161.077ZM258.659 167.451L258.659 160.791Q258.659 155.626 257.209 153.264Q255.758 150.901 252.615 150.901L252.615 150.901Q249.495 150.901 248.066 153.253Q246.637 155.604 246.593 160.484L246.593 160.484L246.593 166.989Q246.593 172.176 248.099 174.648Q249.604 177.121 252.659 177.121L252.659 177.121Q255.670 177.121 257.132 174.791Q258.593 172.462 258.659 167.451L258.659 167.451Z"/></svg>