<svg width="480px" height="360px" xmlns="http://www.w3.org/2000/svg"><rect x="216" y="124" width="80.5" height="80.5" fill-opacity="0"/><path fill="#F00" d="M263.495 162.769L263.495 166.813L241.560 166.813L241.560 162.769L263.495 162.769ZM250.132 155.868L250.132 155.868Q250.132 154.813 250.758 154.110Q251.385 153.407 252.637 153.407Q253.890 153.407 254.538 154.110Q255.187 154.813 255.187 155.868L255.187 155.868Q255.187 156.901 254.538 157.582Q253.890 158.264 252.637 158.264Q251.385 158.264 250.758 157.582Q250.132 156.901 250.132 155.868ZM250.132 173.824L250.132 173.824Q250.132 172.769 250.758 172.066Q251.385 171.363 252.637 171.363Q253.890 171.363 254.538 172.066Q255.187 172.769 255.187 173.824L255.187 173.824Q255.187 174.835 254.538 175.527Q253.890 176.220 252.637 176.220Q251.385 176.220 250.758 175.527Q250.132 174.835 250.132 173.824Z"/></svg>