<svg width="480px" height="360px" xmlns="http://www.w3.org/2000/svg"><rect x="216" y="124" width="80.5" height="80.5" fill-opacity="0"/><path fill="#F00" d="M253.964 180.485L253.964 180.485Q250.958 180.485 248.436 178.982Q245.915 177.479 244.412 174.642Q242.909 171.806 242.909 167.879L242.909 167.879Q242.909 163.855 244.509 161.042Q246.109 158.230 248.727 156.752Q251.345 155.273 254.352 155.273L254.352 155.273Q256.970 155.273 259.006 156.461Q261.042 157.648 262.012 159.685L262.012 159.685L262.012 144.606L265.891 144.606L265.891 180L262.497 180L262.255 175.442Q261.236 177.915 258.958 179.200Q256.679 180.485 253.964 180.485ZM254.352 177.091L254.352 177.091Q257.794 177.091 259.903 174.521Q262.012 171.952 262.012 167.539L262.012 167.539Q262.012 163.370 259.927 161.018Q257.842 158.667 254.545 158.667L254.545 158.667Q250.861 158.667 248.824 161.188Q246.788 163.709 246.788 167.879L246.788 167.879Q246.788 172.048 248.776 174.570Q250.764 177.091 254.352 177.091Z"/></svg>