<svg width="480px" height="360px" xmlns="http://www.w3.org/2000/svg"><rect x="216" y="124" width="80.5" height="80.5" fill-opacity="0"/><path fill="#F00" d="M243.055 156.220L246.901 156.220L247.011 158.857Q249.626 155.780 254.066 155.780L254.066 155.780Q259.055 155.780 260.857 159.604L260.857 159.604Q262.044 157.890 263.945 156.835Q265.846 155.780 268.440 155.780L268.440 155.780Q276.264 155.780 276.396 164.066L276.396 164.066L276.396 180L272.330 180L272.330 164.308Q272.330 161.758 271.165 160.495Q270 159.231 267.253 159.231L267.253 159.231Q264.989 159.231 263.495 160.582Q262 161.934 261.758 164.220L261.758 164.220L261.758 180L257.670 180L257.670 164.418Q257.670 159.231 252.593 159.231L252.593 159.231Q248.593 159.231 247.121 162.637L247.121 162.637L247.121 180L243.055 180L243.055 156.220Z"/></svg>