<svg width="480px" height="360px" xmlns="http://www.w3.org/2000/svg"><rect x="216" y="124" width="80.5" height="80.5" fill-opacity="0"/><path fill="#F00" d="M260.267 155.758L264.436 155.758L253.042 184.073Q251.636 187.612 249.867 189.018Q248.097 190.424 245.527 190.424L245.527 190.424Q243.879 190.424 242.497 189.964Q241.115 189.503 240.048 188.727L240.048 188.727L241.115 185.333Q242.085 186.206 243.176 186.618Q244.267 187.030 245.333 187.030L245.333 187.030Q246.594 187.030 247.709 186.255Q248.824 185.479 249.745 183.103L249.745 183.103L251.006 179.952L248.582 174.182L240.873 155.758L245.285 155.758L251.345 171.564L252.848 175.879L254.594 171.079L260.267 155.758Z"/></svg>