<svg width="480px" height="360px" xmlns="http://www.w3.org/2000/svg"><rect x="216" y="124" width="80.5" height="80.5" fill-opacity="0"/><path fill="#F00" d="M251.152 163.515L251.152 163.515Q248.776 163.515 246.909 162.473Q245.042 161.430 243.976 159.636Q242.909 157.842 242.909 155.515L242.909 155.515Q242.909 153.188 243.976 151.370Q245.042 149.552 246.909 148.533Q248.776 147.515 251.152 147.515L251.152 147.515Q253.576 147.515 255.418 148.533Q257.261 149.552 258.327 151.370Q259.394 153.188 259.394 155.515L259.394 155.515Q259.394 157.842 258.327 159.636Q257.261 161.430 255.418 162.473Q253.576 163.515 251.152 163.515ZM251.152 160.364L251.152 160.364Q253.285 160.364 254.642 158.982Q256 157.600 256 155.515L256 155.515Q256 153.382 254.642 152.024Q253.285 150.667 251.152 150.667L251.152 150.667Q249.067 150.667 247.685 152.024Q246.303 153.382 246.303 155.515L246.303 155.515Q246.303 157.600 247.685 158.982Q249.067 160.364 251.152 160.364Z"/></svg>