<svg width="480px" height="360px" xmlns="http://www.w3.org/2000/svg"><rect x="216" y="124" width="80.5" height="80.5" fill-opacity="0"/><path fill="#F00" d="M254.061 180L242.279 180L249.697 148L258.958 148Q263.079 148 265.988 149.697Q268.897 151.394 270.473 154.352Q272.048 157.309 272.048 161.091L272.048 161.091Q272.048 165.115 270.764 168.558Q269.479 172 267.103 174.570Q264.727 177.139 261.406 178.570Q258.085 180 254.061 180L254.061 180ZM252.752 151.636L246.982 176.364L254.642 176.364Q257.697 176.364 260.145 175.176Q262.594 173.988 264.315 171.927Q266.036 169.867 266.958 167.224Q267.879 164.582 267.879 161.673L267.879 161.673Q267.879 158.812 266.861 156.558Q265.842 154.303 263.758 152.970Q261.673 151.636 258.473 151.636L258.473 151.636L252.752 151.636Z"/></svg>