<svg width="480px" height="360px" xmlns="http://www.w3.org/2000/svg"><rect x="216" y="124" width="80.5" height="80.5" fill-opacity="0"/><path fill="#F00" d="M238.400 189.164L237.285 189.164L237.964 186.303Q240.485 186.303 241.479 185.455Q242.473 184.606 242.861 182.958L242.861 182.958L245.430 171.855Q245.964 169.527 247.515 167.927Q249.067 166.327 251.345 165.988L251.345 165.988Q249.261 165.455 248.436 163.903Q247.612 162.352 248.145 159.976L248.145 159.976L250.473 149.842Q251.200 146.594 247.079 146.594L247.079 146.594L247.806 143.588Q251.636 143.588 253.212 145.236Q254.788 146.885 254.158 149.600L254.158 149.600L251.830 159.636Q251.200 162.352 252.145 163.515Q253.091 164.679 255.321 164.679L255.321 164.679L255.612 164.679L254.836 168.073L254.109 168.073Q252.024 168.073 250.739 168.921Q249.455 169.770 248.921 172.194L248.921 172.194L246.303 183.636Q245.721 186.158 243.855 187.661Q241.988 189.164 238.400 189.164L238.400 189.164Z"/></svg>