<svg width="480px" height="360px" xmlns="http://www.w3.org/2000/svg"><rect x="216" y="124" width="80.5" height="80.5" fill-opacity="0"/><path fill="#F00" d="M251.055 180.388L251.055 180.388Q248.436 180.388 246.424 179.200Q244.412 178.012 243.515 175.758Q242.618 173.503 243.345 170.352L243.345 170.352L246.739 155.758L250.618 155.758L247.273 170.255Q246.497 173.503 247.879 175.248Q249.261 176.994 252.073 176.994L252.073 176.994Q258.667 176.994 260.655 168.509L260.655 168.509L263.612 155.758L267.491 155.758L261.867 180L258.473 180L259.055 176.509Q257.794 178.497 255.661 179.442Q253.527 180.388 251.055 180.388Z"/></svg>