<svg width="480px" height="360px" xmlns="http://www.w3.org/2000/svg"><rect x="216" y="124" width="80.5" height="80.5" fill-opacity="0"/><path fill="#F00" d="M261.915 161.382L265.600 161.382Q264.582 165.067 262.352 166.836Q260.121 168.606 257.648 168.606L257.648 168.606Q256.048 168.606 255.030 168.073Q254.012 167.539 253.188 166.812Q252.364 166.085 251.515 165.552Q250.667 165.018 249.455 165.018L249.455 165.018Q246.739 165.018 245.624 168.606L245.624 168.606L241.939 168.606Q242.909 164.921 245.139 163.152Q247.370 161.382 249.939 161.382L249.939 161.382Q251.491 161.382 252.533 161.915Q253.576 162.448 254.376 163.176Q255.176 163.903 256.048 164.436Q256.921 164.970 258.085 164.970L258.085 164.970Q259.345 164.970 260.364 164.073Q261.382 163.176 261.915 161.382L261.915 161.382Z"/></svg>