<svg width="480px" height="360px" xmlns="http://www.w3.org/2000/svg"><rect x="216" y="124" width="80.5" height="80.5" fill-opacity="0"/><path fill="#F00" d="M244.527 150.462L248.593 150.462L248.593 156.220L253.033 156.220L253.033 159.363L248.593 159.363L248.593 174.110Q248.593 175.538 249.187 176.253Q249.780 176.967 251.209 176.967L251.209 176.967Q251.912 176.967 253.143 176.703L253.143 176.703L253.143 180Q251.538 180.440 250.022 180.440L250.022 180.440Q247.297 180.440 245.912 178.791Q244.527 177.143 244.527 174.110L244.527 174.110L244.527 159.363L240.198 159.363L240.198 156.220L244.527 156.220L244.527 150.462Z"/></svg>