<svg version="1.1" xmlns="http://www.w3.org/2000/svg" xmlns:xlink="http://www.w3.org/1999/xlink" width="786.12674" height="536.65794" viewBox="0,0,786.12674,536.65794"><g transform="translate(126.51825,17.19985)"><g data-paper-data="{&quot;isPaintingLayer&quot;:true}" fill-rule="nonzero" stroke-linejoin="miter" stroke-miterlimit="10" stroke-dasharray="" stroke-dashoffset="0" style="mix-blend-mode: normal"><path d="M-30.5,377.80015v-395h530v395z" fill="#4ac0fd" stroke="none" stroke-width="0" stroke-linecap="butt"/><path d="M-126.51825,519.45809v-241.75326h786.12674v241.75326z" fill="#e5c29f" stroke="none" stroke-width="0" stroke-linecap="butt"/><path d="M-122.23185,477.45134v-158.597h730.40347v158.597z" fill="#a7d948" stroke="none" stroke-width="0" stroke-linecap="butt"/><g data-paper-data="{&quot;index&quot;:null}" stroke="none" stroke-width="0" stroke-linecap="butt"><g><path d="M165.00001,359.0001v-42h42v42z" fill="#a7d948"/><path d="M165.00001,401.00017v-42h42v42z" fill="#8ecc39"/></g><g data-paper-data="{&quot;index&quot;:null}"><path d="M249.00001,359.0001v42h-42v-42z" fill="#a7d948"/><path d="M249.50001,317.00005v42h-43v-42z" fill="#8ecc39"/></g><g><g><path d="M122.96508,359.00019l41.99994,-0.06985l0.06985,41.99994l-41.99994,0.06985z" fill="#a7d948"/><path d="M80.96514,359.07003l41.99994,-0.06985l0.06985,41.99994l-41.99994,0.06985z" fill="#8ecc39"/></g><g><path d="M38.96508,359.08355l41.99994,-0.06985l0.06985,41.99994l-41.99994,0.06985z" fill="#a7d948"/><path d="M-3.03486,359.15339l41.99994,-0.06985l0.06985,41.99994l-41.99994,0.06985z" fill="#8ecc39"/></g></g><g><g><path d="M374.96508,358.66686l41.99994,-0.06985l0.06985,41.99994l-41.99994,0.06985z" fill="#a7d948"/><path d="M332.96514,358.7367l41.99994,-0.06985l0.06985,41.99994l-41.99994,0.06985z" fill="#8ecc39"/></g><g><path d="M290.96508,358.75019l41.99994,-0.06985l0.06985,41.99994l-41.99994,0.06985z" fill="#a7d948"/><path d="M248.96514,358.82003l41.99994,-0.06985l0.06985,41.99994l-41.99994,0.06985z" fill="#8ecc39"/></g></g></g><g><path d="M254.75,279.37667c0,0 -1.31715,-10.89588 -0.39046,-16.06993c1.68245,-9.3937 6.33875,-31.42731 17.3492,-33.54548c4.26056,-0.81964 10.67912,3.62773 15.35358,6.08276c4.86723,2.55627 7.90668,3.14191 7.90668,3.14191c0,0 14.44942,8.14593 16.4588,9.65153c1.06934,0.80124 10.3668,7.85815 14.55276,10.77978c4.10759,2.86692 3.09855,1.59431 4.7898,2.89544c6.84668,5.26736 -7.92615,16.94354 -7.92615,16.94354l-15.09422,2.62044z" fill="#9e9e9e" stroke="none" stroke-width="0" stroke-linecap="butt"/><path d="M295.375,239.17675c0,0 22.73044,-47.63511 26.63445,-55.81655c1.13253,-2.3734 1.49298,-4.12742 3.67385,-5.59693c0.8311,-0.56001 1.92449,-1.21006 3.10371,-1.67969c2.92939,-1.16662 5.00646,-0.04568 7.86502,1.2851c2.94179,1.36954 7.13341,3.3786 8.93287,6.17289c1.13019,1.75501 1.45412,4.15498 1.4948,6.12059c0.04918,2.37631 -0.40496,3.79972 -1.77101,5.74475c-4.15447,5.91531 -36.1837,51.51984 -36.1837,51.51984z" fill="#66473d" stroke="none" stroke-width="0" stroke-linecap="butt"/><path d="M284.875,278.67677l-6.25,-0.5l16.5,-38.5c0,0 1.98186,-0.13961 4.24918,0.01231c3.34386,0.22406 5.68337,0.91027 7.70546,3.58286c1.40239,1.85353 2.29537,3.90483 2.29537,3.90483z" fill="#808080" stroke="none" stroke-width="0" stroke-linecap="butt"/><path d="M296.625,237.17677c0,0 21.73044,-45.38511 25.63446,-53.56655c1.13254,-2.37339 1.49298,-4.12742 3.67385,-5.59693c0.8311,-0.56001 1.92449,-1.21007 3.10371,-1.67969c2.92939,-1.16662 5.00646,-0.04568 7.86502,1.2851c2.94179,1.36954 5.13341,1.6286 6.93287,4.42289c2.70863,4.20608 2.09909,9.02139 -0.77621,13.11534c-4.15447,5.9153 -33.4337,47.76984 -33.4337,47.76984c0,0 -3.0175,-2.9441 -4.89609,-4.29721c-1.87859,-1.35311 -8.10391,-1.45279 -8.10391,-1.45279z" fill="#795548" stroke="none" stroke-width="0" stroke-linecap="butt"/><path d="M262.125,279.67672c0,0 -3.34449,-14.00725 1.54332,-25.1649c2.97579,-6.79298 10.70668,-19.33511 10.70668,-19.33511" fill="none" stroke="#b0b0b0" stroke-width="5" stroke-linecap="round"/></g><path d="M378.12988,266.52394l3.49228,-3.53574l6.24923,6.17242l-3.49229,3.53574l7.4004,7.30944l-7.99976,8.09931l-7.4004,-7.30944l-13.31942,13.48516l-5.42089,-4.3796l-8.68225,-36.19108l-0.08223,-0.08121l7.99979,-8.09933zM363.95768,280.87246l6.17242,-6.24922l-10.73056,-10.59867l0.33497,1.30552z" fill="#7f26a2" stroke="none" stroke-width="1" stroke-linecap="square"/><g stroke="none" stroke-width="0" stroke-linecap="butt"><path d="M56.73073,276.17958v-97.66666h9v97.66667z" fill="#8ecc39"/><path d="M31.06318,148.93343l-6,-13.33334l16,-7.66666l5,-13.66667l14.51824,4.77452l14.84589,-4.83177l7.23342,13.86912l13.71944,6.22035l-5.39929,16.27081l7.30227,13.97592l-14.95723,5.45483l-6.93496,16.31051l-14.52698,-6.44416l-15.83786,6.03835l-5.41573,-15.65447l-15.0139,-4.05068z" fill="#fbcd1f"/><path d="M46.9366,149.1021l-2.97648,-6.61441l7.93729,-3.80329l2.4804,-6.77977l7.20222,2.36855l7.36477,-2.39695l3.58836,6.88021l6.80595,3.08579l-2.67848,8.07164l3.62252,6.93319l-7.42,2.70603l-3.4403,8.09134l-7.20656,-3.19682l-7.85686,2.99551l-2.68664,-7.76588l-7.44811,-2.00947z" fill="#f4c20d"/><path d="M18.73073,189.17964c0,0 15.62343,-3.08973 24.94414,-0.15586c2.00614,0.63147 3.95658,1.57101 6.25737,2.88857c4.05862,2.32417 6.7985,4.60063 6.7985,4.60063l0.33333,20.33333c0,0 -1.45646,0.2188 -3.66521,0.19544c-10.74477,-0.11365 -17.85791,-3.15066 -24.58468,-11.53001c-5.35403,-6.66937 -10.08344,-16.33209 -10.08344,-16.33209z" fill="#8ecc39"/><path d="M62.73073,253.51298l1.66667,-15.33334c0,0 5.14922,-4.48542 10.71795,-8.24488c7.62017,-5.14438 13.94391,-5.34951 23.02875,-3.93631c2.83358,0.44078 4.91997,0.84785 4.91997,0.84785c0,0 -1.68127,4.45752 -4.05403,9.30689c-4.13329,8.44748 -9.12696,13.18298 -18.32967,15.1205c-8.4648,1.78216 -17.94962,2.23928 -17.94962,2.23928z" fill="#8ecc39"/></g><g data-paper-data="{&quot;index&quot;:null}" stroke="none" stroke-width="0" stroke-linecap="butt"><path d="M39.46508,277.16679l41.99994,-0.06985l0.06985,41.99994l-41.99994,0.06985z" fill="#a7d948"/><path d="M-2.53486,277.23663l41.99994,-0.06985l0.06985,41.99994l-41.99994,0.06985z" fill="#8ecc39"/></g><g stroke="none" stroke-width="0" stroke-linecap="butt"><path d="M122.46508,276.83349l42.33327,-0.06985l0.06985,41.99994l-42.33327,0.06985z" fill="#e5c29f"/><path d="M81.13181,276.90333l42.33328,-0.06985l0.06985,41.99994l-42.33327,0.06985z" fill="#d7b899"/></g><g stroke="none" stroke-width="0" stroke-linecap="butt"><path d="M290.13175,277.16679l42.33327,-0.06985l0.06985,41.99994l-42.33328,0.06985z" fill="#e5c29f"/><path d="M248.79847,277.23663l42.33328,-0.06985l0.06985,41.99994l-42.33327,0.06985z" fill="#d7b899"/></g><g stroke="none" stroke-width="0" stroke-linecap="butt"><path d="M374.63175,277.16679l42.33327,-0.06985l0.06985,41.99994l-42.33328,0.06985z" fill="#e5c29f"/><path d="M332.29847,277.23663l43.33328,-0.06985l0.06985,41.99994l-43.33328,0.06985z" fill="#d7b899"/></g><g stroke="none" stroke-width="0" stroke-linecap="butt"><path d="M189.62431,258.92539l-0.12784,-30.55238l37.32762,14.06178z" fill="#f23607"/><path d="M181.7573,269.21083v-43.3358l8.18138,2.68454l-0.12784,40.65129z" fill="#e63307"/><path d="M177.6666,276.88093c0,0 -0.68431,-4.89639 1.91073,-7.16648c1.84693,-1.61566 6.40312,-1.19191 6.40312,-1.19191c0,0 4.54045,-0.34272 6.45762,1.63486c2.13198,2.1992 1.847,6.72354 1.847,6.72354z" fill="#e63307"/></g><path d="M139.80124,277.04233l-0.07353,-7.76083l24.70067,-0.23404l-2.27817,-7.58232l5.86984,-0.05562l5.22081,14.6068l0.00672,0.70911z" fill="#1976d2" stroke="none" stroke-width="1" stroke-linecap="square"/><path d="M57.26829,25.26881l10.90223,34.09105l10.90222,-34.091h15.57459v48.97344h-11.88283v-11.42136l1.15368,-23.41956l-11.82514,34.84092h-7.78726l-11.88283,-34.89858l1.15367,23.47726v11.42136h-11.82512v-48.97339zM113.53862,74.24223h-11.36366v-36.39837h11.36371zM101.54043,28.49908c0,-1.61514 0.57683,-2.94185 1.7305,-3.98016c1.15367,-1.03831 2.65345,-1.55743 4.49933,-1.55743c1.88435,0 3.40335,0.51917 4.55703,1.55748c1.19214,1.03831 1.78821,2.36504 1.78821,3.98019c0,1.61514 -0.59607,2.94189 -1.78818,3.9802c-1.15367,0.99984 -2.67267,1.49979 -4.55699,1.49979c-1.84587,0 -3.34566,-0.49995 -4.49933,-1.49977c-1.15367,-1.03831 -1.7305,-2.36501 -1.7305,-3.98016zM130.97255,37.84383l0.3461,4.26858c2.49962,-3.26874 5.96062,-4.90309 10.38306,-4.90309c3.80712,0 6.63364,1.13445 8.47951,3.40335c1.88435,2.23045 2.86495,5.63376 2.94189,10.21001v23.41956h-11.36366v-22.95809c0,-1.84587 -0.38458,-3.19183 -1.15368,-4.03786c-0.73068,-0.88446 -2.0766,-1.32672 -4.03785,-1.32672c-2.19198,0 -3.82636,0.88448 -4.90309,2.65345v25.66923h-11.36366v-36.39835zM176.96802,74.93444c-5.57609,0 -10.09462,-1.6536 -13.55564,-4.96079c-3.42254,-3.34566 -5.13382,-7.69115 -5.13382,-13.03651v-0.9806c0,-3.69176 0.67297,-6.9605 2.01894,-9.80621c1.3844,-2.84572 3.40337,-5.0377 6.0568,-6.57594c2.65344,-1.57669 5.78759,-2.36501 9.40245,-2.36501c5.11463,0 9.1525,1.59592 12.11358,4.78776c2.96108,3.15339 4.44166,7.55657 4.44166,13.20957v4.38395h-22.49661c0.38456,2.03815 1.2498,3.65329 2.59579,4.84543c1.3844,1.15367 3.17262,1.73052 5.3646,1.73052c3.57639,0 6.36443,-1.2498 8.36414,-3.74943l5.19153,6.11447c-1.3844,1.96125 -3.38413,3.51872 -5.99911,4.67239c-2.57655,1.15367 -5.36457,1.73052 -8.36411,1.73052zM175.69896,45.91954c-3.30719,0 -5.26843,2.19198 -5.88374,6.57594h11.42137v-0.86524c0.03846,-1.80742 -0.423,-3.21105 -1.38441,-4.21089c-0.96141,-0.99984 -2.34581,-1.49977 -4.15322,-1.49977zM215.90756,64.03219c0,-0.96141 -0.49995,-1.73052 -1.49977,-2.30735c-0.99984,-0.61531 -2.92265,-1.23058 -5.76836,-1.84589c-2.80728,-0.61531 -5.13382,-1.42287 -6.9797,-2.42271c-1.84587,-1.03831 -3.24952,-2.28811 -4.21089,-3.74943c-0.96141,-1.46131 -1.44208,-3.13415 -1.44208,-5.01845c0,-3.34566 1.38441,-6.09523 4.15322,-8.24875c2.76881,-2.1535 6.38367,-3.23029 10.84454,-3.23029c4.76853,0 8.61407,1.09602 11.53671,3.28799c2.92265,2.1535 4.38397,4.99926 4.38397,8.53717h-11.36366c0,-2.92265 -1.53826,-4.38395 -4.6147,-4.38395c-1.19214,0 -2.19198,0.32688 -2.99954,0.98065c-0.80756,0.65373 -1.21133,1.48055 -1.21133,2.48042c0,0.99984 0.49995,1.82665 1.49977,2.48042c0.99984,0.61531 2.57654,1.13443 4.73006,1.55746c2.15352,0.38456 4.05709,0.84605 5.7107,1.38441c5.46073,1.88435 8.19107,5.26843 8.19107,10.15232c0,3.30719 -1.48055,6.01835 -4.44163,8.13342c-2.92265,2.07662 -6.72977,3.11493 -11.42136,3.11493c-3.11491,0 -5.90297,-0.55761 -8.36411,-1.67282c-2.42271,-1.15367 -4.32626,-2.69191 -5.71067,-4.61468c-1.3844,-1.92277 -2.0766,-3.94173 -2.0766,-6.05676h10.61379c0.03846,1.6536 0.59607,2.88418 1.67284,3.69176c1.07678,0.76911 2.46118,1.15367 4.15322,1.15367c1.53824,0 2.69191,-0.30763 3.46102,-0.92294c0.76911,-0.65373 1.15367,-1.48055 1.15367,-2.48037zM263.58736,59.30215l3.6341,-21.45832h10.90223l-8.59485,36.3984h-9.57548l-5.9991,-21.57369l-6.05677,21.57369h-9.63315l-8.53717,-36.39837h10.84452l3.6341,21.97749l5.76836,-21.97744h7.90268zM299.7512,74.93444c-5.57609,0 -10.09462,-1.6536 -13.55564,-4.96079c-3.42254,-3.34566 -5.13382,-7.69115 -5.13382,-13.03651v-0.9806c0,-3.69176 0.67297,-6.9605 2.01894,-9.80621c1.38441,-2.84572 3.40337,-5.0377 6.0568,-6.57594c2.65344,-1.57669 5.7876,-2.36501 9.40246,-2.36501c5.11463,0 9.15248,1.59592 12.11356,4.78776c2.96108,3.15339 4.44166,7.55657 4.44166,13.20957v4.38395h-22.49663c0.38456,2.03815 1.2498,3.65329 2.59579,4.84543c1.38441,1.15367 3.17262,1.73052 5.3646,1.73052c3.57639,0 6.36445,-1.2498 8.36415,-3.74943l5.19153,6.11447c-1.38441,1.96125 -3.38412,3.51872 -5.9991,4.67239c-2.57655,1.15367 -5.36457,1.73052 -8.36411,1.73052zM298.48216,45.91954c-3.30719,0 -5.26843,2.19198 -5.88374,6.57594h11.42137v-0.86524c0.03846,-1.80742 -0.423,-3.21105 -1.38441,-4.21089c-0.96141,-0.99984 -2.34581,-1.49977 -4.15322,-1.49977zM337.24874,74.93444c-5.57609,0 -10.09462,-1.6536 -13.55564,-4.96079c-3.42254,-3.34566 -5.13382,-7.69115 -5.13382,-13.03651v-0.9806c0,-3.69176 0.67297,-6.9605 2.01894,-9.80621c1.38441,-2.84572 3.40335,-5.0377 6.0568,-6.57594c2.65344,-1.57669 5.7876,-2.36501 9.40246,-2.36501c5.11463,0 9.15248,1.59592 12.11356,4.78776c2.96108,3.15339 4.44166,7.55657 4.44166,13.20957v4.38395h-22.49661c0.38456,2.03815 1.2498,3.65329 2.59577,4.84543c1.38441,1.15367 3.17262,1.73052 5.3646,1.73052c3.57639,0 6.36443,-1.2498 8.36414,-3.74943l5.19153,6.11447c-1.38441,1.96125 -3.38412,3.51872 -5.9991,4.67239c-2.57655,1.15367 -5.36457,1.73052 -8.36411,1.73052zM335.9797,45.91954c-3.30719,0 -5.26842,2.19198 -5.88374,6.57594h11.42137v-0.86524c0.03846,-1.80742 -0.423,-3.21105 -1.38441,-4.21089c-0.96141,-0.99984 -2.34581,-1.49977 -4.15322,-1.49977zM390.95522,56.30261c0,5.65299 -1.28828,10.17155 -3.86478,13.55567c-2.53808,3.38412 -5.96062,5.07616 -10.26769,5.07616c-3.34566,0 -6.09523,-1.23058 -8.24874,-3.69176v17.0167h-11.306v-50.41551h10.55613l0.3461,3.34566c2.19198,-2.65344 5.05692,-3.98016 8.59488,-3.98016c4.46085,0 7.9411,1.6536 10.44076,4.9608c2.49962,3.30719 3.74946,7.84498 3.74946,13.61335zM379.59156,55.6104c0,-6.46057 -1.88435,-9.69086 -5.65301,-9.69086c-2.69191,0 -4.48009,0.96141 -5.36455,2.88418v14.36325c0.99984,1.9997 2.80728,2.99956 5.42226,2.99956c3.61486,0 5.47997,-3.11493 5.59534,-9.34475zM413.52157,74.93444c-5.57609,0 -10.09462,-1.6536 -13.55564,-4.96079c-3.42254,-3.34566 -5.13382,-7.69115 -5.13382,-13.03651v-0.9806c0,-3.69176 0.67297,-6.9605 2.01894,-9.80621c1.38441,-2.84572 3.40335,-5.0377 6.05679,-6.57594c2.65344,-1.57669 5.7876,-2.36501 9.40246,-2.36501c5.11463,0 9.15248,1.59592 12.11356,4.78776c2.96108,3.15339 4.44166,7.55657 4.44166,13.20957v4.38395h-22.49661c0.38456,2.03815 1.2498,3.65329 2.59577,4.84543c1.38441,1.15367 3.17262,1.73052 5.3646,1.73052c3.57639,0 6.36443,-1.2498 8.36414,-3.74943l5.19153,6.11447c-1.38441,1.96125 -3.38412,3.51872 -5.9991,4.67239c-2.57655,1.15367 -5.36457,1.73052 -8.36411,1.73052zM412.25253,45.91954c-3.30719,0 -5.26842,2.19198 -5.88372,6.57594h11.42136v-0.86524c0.03846,-1.80742 -0.423,-3.21105 -1.38441,-4.21089c-0.96141,-0.99984 -2.34581,-1.49977 -4.15322,-1.49977zM455.46064,48.11152l-3.74941,-0.28839c-3.57639,0 -5.8645,1.13443 -6.86434,3.40335v23.0158h-11.306v-36.39837h10.61379l0.3461,4.67239c1.92277,-3.53792 4.57621,-5.3069 7.96034,-5.3069c1.23057,0 2.28811,0.13459 3.17262,0.4038z" fill="#a939e6" stroke="none" stroke-width="1" stroke-linecap="square"/><g stroke="none" stroke-width="0" stroke-linecap="butt"><g><path d="M207,319.00005v-42h42v42z" fill="#a7d948"/><path d="M207,361.00017v-42h42v42z" fill="#8ecc39"/></g><g data-paper-data="{&quot;index&quot;:null}"><path d="M207,319.00005v42h-42v-42z" fill="#a7d948"/><path d="M207.5,277.00005v42h-43v-42z" fill="#8ecc39"/></g><g><g><path d="M290.96508,361.00014l-41.99994,-0.06985l0.06985,-41.99994l41.99994,0.06985z" fill="#a7d948"/><path d="M332.96502,361.06998l-41.99994,-0.06985l0.06985,-41.99994l41.99994,0.06985z" fill="#8ecc39"/></g><g><path d="M374.96508,361.08349l-41.99994,-0.06985l0.06985,-41.99994l41.99994,0.06985z" fill="#a7d948"/><path d="M416.96502,361.15333l-41.99994,-0.06985l0.06985,-41.99994l41.99994,0.06985z" fill="#8ecc39"/></g></g><g><g><path d="M38.96508,360.66681l-41.99994,-0.06985l0.06985,-41.99994l41.99994,0.06985z" fill="#a7d948"/><path d="M80.96502,360.73665l-41.99994,-0.06985l0.06985,-41.99994l41.99994,0.06985z" fill="#8ecc39"/></g><g><path d="M122.96508,360.75014l-41.99994,-0.06985l0.06985,-41.99994l41.99994,0.06985z" fill="#a7d948"/><path d="M164.96502,360.81998l-41.99994,-0.06985l0.06985,-41.99994l41.99994,0.06985z" fill="#8ecc39"/></g></g></g><g data-paper-data="{&quot;index&quot;:null}" stroke="none" stroke-width="0" stroke-linecap="butt"><path d="M-42.53492,277.16677l41.99994,-0.06985l0.06985,41.99994l-41.99994,0.06985z" fill="#a7d948"/><path d="M-84.53486,277.23661l41.99994,-0.06985l0.06985,41.99994l-41.99994,0.06985z" fill="#8ecc39"/></g><g data-paper-data="{&quot;index&quot;:null}" stroke="none" stroke-width="0" stroke-linecap="butt"><path d="M-42.53492,360.16677l-41.99994,-0.06985l0.06985,-41.99994l41.99994,0.06985z" fill="#a7d948"/><path d="M-0.53498,360.23661l-41.99994,-0.06985l0.06985,-41.99994l41.99994,0.06985z" fill="#8ecc39"/></g><g stroke="none" stroke-width="0" stroke-linecap="butt"><path d="M458.63175,277.16679l42.33327,-0.06985l0.06985,41.99994l-42.33328,0.06985z" fill="#e5c29f"/><path d="M416.29847,277.23663l43.33328,-0.06985l0.06985,41.99994l-43.33328,0.06985z" fill="#d7b899"/></g><g data-paper-data="{&quot;index&quot;:null}" stroke="none" stroke-width="0" stroke-linecap="butt"><path d="M458.46508,361.16677l-41.99994,-0.06985l0.06985,-41.99994l41.99994,0.06985z" fill="#a7d948"/><path d="M500.46502,361.23661l-41.99994,-0.06985l0.06985,-41.99994l41.99994,0.06985z" fill="#8ecc39"/></g><path d="M437.61719,276.63282h-7.69532v-24.49218l-7.53905,2.1875v-5.8203l14.53125,-5.03905h0.70313z" fill="#1976d2" stroke="none" stroke-width="1" stroke-linecap="square"/><path d="M474.65277,250.91813l3.77895,2.40979c2.9798,1.90018 5.39389,1.40102 7.24225,-1.49751c0.72553,-1.13774 0.96932,-2.29688 0.73142,-3.47742c-0.2379,-1.18054 -1.00701,-2.18539 -2.30729,-3.01456c-1.05648,-0.6737 -2.17617,-0.94952 -3.35907,-0.82741c-1.18288,0.12209 -2.068,0.64366 -2.65534,1.5647l-7.9642,-5.07869c1.15739,-1.81498 2.68637,-3.1072 4.58694,-3.87666c1.91785,-0.79656 4.0212,-1.01759 6.31004,-0.66305c2.33321,0.34472 4.56982,1.19941 6.70987,2.56409c3.84667,2.45298 6.30569,5.25947 7.37706,8.41951c1.08865,3.13294 0.65699,6.22994 -1.29503,9.29103c-0.9501,1.48991 -2.30887,2.60487 -4.07636,3.34491c-1.74039,0.75732 -3.73656,0.98953 -5.98849,0.69665c1.40039,1.80753 2.1834,3.71674 2.34909,5.72763c0.19276,2.02815 -0.35002,4.04455 -1.62832,6.04914c-1.95201,3.06106 -4.7159,4.76611 -8.29169,5.11511c-3.53141,0.33918 -7.22046,-0.71771 -11.0671,-3.17067c-2.24839,-1.43377 -4.0714,-3.20597 -5.46904,-5.31658c-1.37054,-2.09332 -2.07327,-4.21808 -2.10821,-6.37422c-0.03494,-2.15614 0.5695,-4.20942 1.81326,-6.15984l8.04547,5.13051c-0.6737,1.05648 -0.84115,2.24527 -0.50234,3.56636c0.38315,1.31128 1.19779,2.36422 2.4439,3.15885c1.40864,0.89828 2.78331,1.22238 4.12404,0.97231c1.34073,-0.25006 2.39977,-0.98461 3.17712,-2.20362c1.10557,-1.73371 1.44949,-3.22912 1.03177,-4.48621c-0.40043,-1.28418 -1.3727,-2.41858 -2.91678,-3.40323l-3.90083,-2.48752z" fill="#d32f2f" stroke="none" stroke-width="1" stroke-linecap="square"/></g></g></svg>