<svg width="480px" height="360px" xmlns="http://www.w3.org/2000/svg"><rect x="216" y="124" width="80.5" height="80.5" fill-opacity="0"/><path fill="#F00" d="M245.382 180L241.503 180L247.127 155.758L250.521 155.758L249.939 159.248Q251.200 157.261 253.382 156.267Q255.564 155.273 258.085 155.273L258.085 155.273Q260.752 155.273 262.667 156.558Q264.582 157.842 265.261 160.218L265.261 160.218Q266.812 157.745 269.285 156.509Q271.758 155.273 274.521 155.273L274.521 155.273Q277.139 155.273 279.006 156.485Q280.873 157.697 281.648 159.976Q282.424 162.255 281.648 165.503L281.648 165.503L278.303 180L274.424 180L277.770 165.455Q278.497 162.255 277.285 160.461Q276.073 158.667 273.406 158.667L273.406 158.667Q270.255 158.667 268.170 160.606Q266.085 162.545 265.067 166.182L265.067 166.182L261.818 180L257.939 180L261.333 165.455Q262.109 162.255 260.873 160.461Q259.636 158.667 256.970 158.667L256.970 158.667Q253.576 158.667 251.442 160.873Q249.309 163.079 248.339 167.248L248.339 167.248L245.382 180Z"/></svg>