<svg width="480px" height="360px" xmlns="http://www.w3.org/2000/svg"><rect x="216" y="124" width="80.5" height="80.5" fill-opacity="0"/><path fill="#F00" d="M254.642 152.073L254.642 152.073Q256.048 152.073 256.921 152.945Q257.794 153.818 257.794 155.224L257.794 155.224Q257.794 156.630 256.921 157.503Q256.048 158.376 254.642 158.376L254.642 158.376Q253.236 158.376 252.364 157.503Q251.491 156.630 251.491 155.224L251.491 155.224Q251.491 153.818 252.364 152.945Q253.236 152.073 254.642 152.073ZM242.861 162.836L266.424 162.836L266.424 166.473L242.861 166.473L242.861 162.836ZM254.642 171.030L254.642 171.030Q256.048 171.030 256.921 171.903Q257.794 172.776 257.794 174.182L257.794 174.182Q257.794 175.588 256.921 176.461Q256.048 177.333 254.642 177.333L254.642 177.333Q253.236 177.333 252.364 176.461Q251.491 175.588 251.491 174.182L251.491 174.182Q251.491 172.776 252.364 171.903Q253.236 171.030 254.642 171.030Z"/></svg>