<svg width="480px" height="360px" xmlns="http://www.w3.org/2000/svg"><rect x="216" y="124" width="80.5" height="80.5" fill-opacity="0"/><path fill="#F00" d="M250.182 147.515L250.182 147.515Q254.061 147.515 256.388 149.988Q258.715 152.461 258.715 156.533L258.715 156.533Q258.715 160.606 256.388 163.079Q254.061 165.552 250.182 165.552L250.182 165.552Q246.303 165.552 243.976 163.079Q241.648 160.606 241.648 156.533L241.648 156.533Q241.648 152.461 243.976 149.988Q246.303 147.515 250.182 147.515ZM253.915 180L248.582 180L270.158 148L275.491 148L253.915 180ZM250.182 152.121L250.182 152.121Q248.533 152.121 247.661 153.285Q246.788 154.448 246.788 156.533L246.788 156.533Q246.788 158.618 247.661 159.758Q248.533 160.897 250.182 160.897L250.182 160.897Q251.830 160.897 252.703 159.758Q253.576 158.618 253.576 156.533L253.576 156.533Q253.576 154.448 252.703 153.285Q251.830 152.121 250.182 152.121ZM273.842 162.448L273.842 162.448Q277.721 162.448 280.048 164.921Q282.376 167.394 282.376 171.467L282.376 171.467Q282.376 175.539 280.048 178.012Q277.721 180.485 273.842 180.485L273.842 180.485Q269.964 180.485 267.636 178.012Q265.309 175.539 265.309 171.467L265.309 171.467Q265.309 167.394 267.636 164.921Q269.964 162.448 273.842 162.448ZM273.842 167.103L273.842 167.103Q272.194 167.103 271.321 168.242Q270.448 169.382 270.448 171.467L270.448 171.467Q270.448 173.552 271.321 174.715Q272.194 175.879 273.842 175.879L273.842 175.879Q275.491 175.879 276.364 174.715Q277.236 173.552 277.236 171.467L277.236 171.467Q277.236 169.382 276.364 168.242Q275.491 167.103 273.842 167.103Z"/></svg>