<svg width="480px" height="360px" xmlns="http://www.w3.org/2000/svg"><rect x="216" y="124" width="80.5" height="80.5" fill-opacity="0"/><path fill="#F00" d="M249.143 180L245.077 180L245.077 159.363L241.319 159.363L241.319 156.220L245.077 156.220L245.077 153.780Q245.077 149.956 247.121 147.868Q249.165 145.780 252.901 145.780L252.901 145.780Q254.308 145.780 255.692 146.154L255.692 146.154L255.473 149.451Q254.440 149.253 253.275 149.253L253.275 149.253Q251.297 149.253 250.220 150.407Q249.143 151.560 249.143 153.714L249.143 153.714L249.143 156.220L254.220 156.220L254.220 159.363L249.143 159.363L249.143 180Z"/></svg>