<svg width="480px" height="360px" xmlns="http://www.w3.org/2000/svg"><rect x="216" y="124" width="80.5" height="80.5" fill-opacity="0"/><path fill="#F00" d="M253.430 180L250.036 180L251.248 174.812L242.909 174.812L243.539 172.145L251.879 172.145L252.703 168.509L244.364 168.509L245.042 165.600L250.327 165.600L252.655 165.794L246.255 148L250.133 148L254.255 159.782L255.515 164.436L255.612 164.436L258.570 159.685L267.442 148L272.048 148L257.842 165.842L259.830 165.600L265.164 165.600L264.485 168.509L256.097 168.509L255.273 172.145L263.661 172.145L263.030 174.812L254.642 174.812L253.430 180Z"/></svg>