<svg width="480px" height="360px" xmlns="http://www.w3.org/2000/svg"><rect x="216" y="124" width="80.5" height="80.5" fill-opacity="0"/><path fill="#F00" d="M242.279 146.739L242.279 143.588Q246.545 143.588 248.388 145.164Q250.230 146.739 250.230 149.600L250.230 149.600L250.230 159.636Q250.230 162.352 251.467 163.515Q252.703 164.679 255.661 164.679L255.661 164.679L255.661 168.073Q252.703 168.073 251.467 169.236Q250.230 170.400 250.230 173.115L250.230 173.115L250.230 183.152Q250.230 186.012 248.388 187.588Q246.545 189.164 242.279 189.164L242.279 189.164L242.279 186.012Q244.655 186.012 245.624 185.382Q246.594 184.752 246.594 183.442L246.594 183.442L246.594 172.776Q246.594 167.588 252.121 166.376L252.121 166.376Q246.594 165.164 246.594 159.976L246.594 159.976L246.594 149.309Q246.594 148 245.624 147.370Q244.655 146.739 242.279 146.739L242.279 146.739Z"/></svg>