<svg width="480px" height="360px" xmlns="http://www.w3.org/2000/svg"><rect x="216" y="124" width="80.5" height="80.5" fill-opacity="0"/><path fill="#F00" d="M268.154 162.989L268.154 165.033Q268.154 169.670 266.681 173.022Q265.209 176.374 262.549 178.264L262.549 178.264L268.264 182.747L265.385 185.407L258.637 180.044Q257.055 180.440 255.297 180.440L255.297 180.440Q251.516 180.440 248.593 178.582Q245.670 176.725 244.055 173.286Q242.440 169.846 242.396 165.319L242.396 165.319L242.396 163.011Q242.396 158.396 244 154.857Q245.604 151.319 248.538 149.440Q251.473 147.560 255.253 147.560L255.253 147.560Q259.121 147.560 262.055 149.429Q264.989 151.297 266.571 154.802Q268.154 158.308 268.154 162.989L268.154 162.989ZM263.934 165.341L263.934 162.967Q263.934 157.319 261.681 154.253Q259.429 151.187 255.253 151.187L255.253 151.187Q251.275 151.187 248.978 154.231Q246.681 157.275 246.615 162.681L246.615 162.681L246.615 165.033Q246.615 170.527 248.912 173.692Q251.209 176.857 255.297 176.857Q259.385 176.857 261.626 173.879Q263.868 170.901 263.934 165.341L263.934 165.341Z"/></svg>