<svg width="480px" height="360px" xmlns="http://www.w3.org/2000/svg"><rect x="216" y="124" width="80.5" height="80.5" fill-opacity="0"/><path fill="#F00" d="M254.255 147.515L254.255 147.515Q260.655 147.515 263.976 151.855Q267.297 156.194 267.297 163.903L267.297 163.903Q267.297 172.388 263.758 176.436Q260.218 180.485 254.303 180.485L254.303 180.485Q250.182 180.485 247.176 178.739Q244.170 176.994 242.715 173.406L242.715 173.406L248.873 170.788Q249.406 172.776 250.739 173.964Q252.073 175.152 254.448 175.152L254.448 175.152Q258.182 175.152 259.733 172.242Q261.285 169.333 261.285 164.242L261.285 164.242L261.285 163.564L261.091 163.564Q260.558 165.309 259.273 166.376Q257.988 167.442 256.339 167.952Q254.691 168.461 252.945 168.461L252.945 168.461Q249.891 168.461 247.539 167.224Q245.188 165.988 243.830 163.758Q242.473 161.527 242.473 158.473L242.473 158.473Q242.473 155.079 243.927 152.630Q245.382 150.182 248.024 148.848Q250.667 147.515 254.255 147.515ZM254.303 152.945L254.303 152.945Q251.685 152.945 250.279 154.376Q248.873 155.806 248.873 158.376L248.873 158.376Q248.873 160.655 250.352 161.939Q251.830 163.224 254.303 163.224L254.303 163.224Q256.679 163.224 258.206 161.818Q259.733 160.412 259.733 158.133L259.733 158.133Q259.733 155.758 258.206 154.352Q256.679 152.945 254.303 152.945Z"/></svg>