<svg width="480px" height="360px" xmlns="http://www.w3.org/2000/svg"><rect x="216" y="124" width="80.5" height="80.5" fill-opacity="0"/><path fill="#F00" d="M255.515 147.515L255.515 147.515Q259.733 147.515 262.788 149.236Q265.842 150.958 267.879 154.303L267.879 154.303L264.630 156.824Q262.836 153.721 260.582 152.436Q258.327 151.152 255.127 151.152L255.127 151.152Q251.248 151.152 249.455 152.703Q247.661 154.255 247.661 156.485L247.661 156.485Q247.661 158.182 248.727 159.467Q249.794 160.752 252.994 161.479L252.994 161.479L259.927 163.030Q264.533 164.048 266.352 166.109Q268.170 168.170 268.170 171.224L268.170 171.224Q268.170 173.939 266.642 176.048Q265.115 178.158 262.352 179.321Q259.588 180.485 255.855 180.485L255.855 180.485Q250.667 180.485 247.273 178.424Q243.879 176.364 242.085 173.406L242.085 173.406L245.479 170.642Q246.885 173.406 249.479 175.127Q252.073 176.848 256.097 176.848L256.097 176.848Q259.830 176.848 261.988 175.491Q264.145 174.133 264.145 171.564L264.145 171.564Q264.145 170.012 263.127 168.776Q262.109 167.539 259.297 166.909L259.297 166.909L251.782 165.212Q247.321 164.242 245.455 162.061Q243.588 159.879 243.588 157.018L243.588 157.018Q243.588 154.448 245.018 152.291Q246.448 150.133 249.139 148.824Q251.830 147.515 255.515 147.515Z"/></svg>