<svg width="480px" height="360px" xmlns="http://www.w3.org/2000/svg"><rect x="216" y="124" width="80.5" height="80.5" fill-opacity="0"/><path fill="#F00" d="M245.236 148L257.358 148Q262.255 148 265.212 150.521Q268.170 153.042 268.170 157.358L268.170 157.358Q268.170 160.800 266.230 163.030Q264.291 165.261 260.994 166.085L260.994 166.085L270.109 180L265.503 180L256.776 166.715L249.115 166.715L249.115 180L245.236 180L245.236 148ZM249.115 163.079L257.309 163.079Q264.097 163.079 264.097 157.358L264.097 157.358Q264.097 151.636 257.309 151.636L257.309 151.636L249.115 151.636L249.115 163.079Z"/></svg>