<svg width="480px" height="360px" xmlns="http://www.w3.org/2000/svg"><rect x="216" y="124" width="80.5" height="80.5" fill-opacity="0"/><path fill="#F00" d="M263.626 176.681L263.626 180L242.659 180L242.659 177.077L253.736 164.769Q256.198 161.978 257.132 160.231Q258.066 158.484 258.066 156.615L258.066 156.615Q258.066 154.110 256.549 152.505Q255.033 150.901 252.505 150.901L252.505 150.901Q249.473 150.901 247.791 152.626Q246.110 154.352 246.110 157.429L246.110 157.429L242.044 157.429Q242.044 153.011 244.890 150.286Q247.736 147.560 252.505 147.560L252.505 147.560Q256.967 147.560 259.560 149.901Q262.154 152.242 262.154 156.132L262.154 156.132Q262.154 160.857 256.132 167.385L256.132 167.385L247.560 176.681L263.626 176.681Z"/></svg>