<svg width="480px" height="360px" xmlns="http://www.w3.org/2000/svg"><rect x="216" y="124" width="80.5" height="80.5" fill-opacity="0"/><path fill="#F00" d="M260.170 162.933L260.170 162.933Q258.715 162.933 257.333 162.424Q255.952 161.915 254.642 161.236Q253.333 160.558 252 160.048Q250.667 159.539 249.261 159.539L249.261 159.539Q247.127 159.539 245.721 160.170Q244.315 160.800 242.861 162.206L242.861 162.206L242.861 158.667Q244.412 157.261 245.794 156.630Q247.176 156 249.261 156L249.261 156Q250.812 156 252.218 156.509Q253.624 157.018 254.958 157.697Q256.291 158.376 257.600 158.885Q258.909 159.394 260.218 159.394L260.218 159.394Q261.818 159.394 263.297 158.861Q264.776 158.327 266.424 156.727L266.424 156.727L266.424 160.267Q263.612 162.933 260.170 162.933ZM260.170 172.630L260.170 172.630Q258.715 172.630 257.333 172.121Q255.952 171.612 254.642 170.933Q253.333 170.255 252 169.745Q250.667 169.236 249.261 169.236L249.261 169.236Q247.127 169.236 245.721 169.867Q244.315 170.497 242.861 171.903L242.861 171.903L242.861 168.364Q244.412 166.958 245.794 166.327Q247.176 165.697 249.261 165.697L249.261 165.697Q250.812 165.697 252.218 166.206Q253.624 166.715 254.958 167.394Q256.291 168.073 257.600 168.582Q258.909 169.091 260.218 169.091L260.218 169.091Q261.818 169.091 263.297 168.558Q264.776 168.024 266.424 166.424L266.424 166.424L266.424 169.964Q263.612 172.630 260.170 172.630Z"/></svg>