<svg version="1.1" xmlns="http://www.w3.org/2000/svg" xmlns:xlink="http://www.w3.org/1999/xlink" width="90.36093" height="32.85096" viewBox="0,0,90.36093,32.85096"><g transform="translate(-193.30177,-164.08046)"><g data-paper-data="{&quot;isPaintingLayer&quot;:true}" fill-rule="nonzero" stroke-miterlimit="10" stroke-dasharray="" stroke-dashoffset="0" style="mix-blend-mode: normal"><path d="M200.30177,189.93142v-18.85096h76.36093v18.85096z" data-paper-data="{&quot;zoomLevel&quot;:1.5487}" fill="#ffffff" stroke="#ffffff" stroke-width="14" stroke-linecap="butt" stroke-linejoin="round"/><path d="M218.52035,179.83089h-5.25v3.54688h6.15625v2.20313h-8.89062v-13.26562h8.875v2.21875h-6.14062v3.15625h5.25zM226.56137,185.58089c-0.11458,-0.23958 -0.20312,-0.53646 -0.26562,-0.89062c-0.63542,0.71875 -1.46354,1.07813 -2.48437,1.07813c-0.96875,0 -1.77083,-0.28125 -2.40625,-0.84375c-0.625,-0.5625 -0.9375,-1.26562 -0.9375,-2.10937c0,-1.05208 0.38542,-1.85417 1.15625,-2.40625c0.77083,-0.5625 1.89063,-0.84375 3.35938,-0.84375h1.20313v-0.57812c0,-0.44792 -0.11979,-0.80729 -0.35937,-1.07812c-0.22917,-0.28125 -0.59375,-0.42187 -1.09375,-0.42187c-0.4375,0 -0.78646,0.10938 -1.04687,0.32813c-0.25,0.20833 -0.375,0.5 -0.375,0.875h-2.625c0,-0.57292 0.17188,-1.09896 0.51563,-1.57812c0.35417,-0.48958 0.85417,-0.86979 1.5,-1.14062c0.64583,-0.28125 1.36979,-0.42187 2.17188,-0.42187c1.20833,0 2.16667,0.30729 2.875,0.92188c0.71875,0.60417 1.07813,1.45833 1.07813,2.5625v4.26563c0.01042,0.9375 0.14063,1.64583 0.39063,2.125v0.15625zM224.38949,183.75277c0.38542,0 0.73958,-0.08333 1.0625,-0.25c0.33333,-0.17708 0.57813,-0.41146 0.73438,-0.70312v-1.70312h-0.98437c-1.3125,0 -2.01042,0.45833 -2.09375,1.375l-0.01562,0.15625c0,0.32292 0.11458,0.59375 0.34375,0.8125c0.22917,0.20833 0.54688,0.3125 0.95313,0.3125zM236.18859,182.86214c0,-0.32292 -0.16146,-0.57812 -0.48437,-0.76562c-0.3125,-0.1875 -0.81771,-0.35417 -1.51562,-0.5c-2.35417,-0.48958 -3.53125,-1.48437 -3.53125,-2.98437c0,-0.875 0.36458,-1.60417 1.09375,-2.1875c0.72917,-0.58333 1.67708,-0.875 2.84375,-0.875c1.25,0 2.25,0.29688 3,0.89063c0.75,0.58333 1.125,1.34375 1.125,2.28125h-2.625c0,-0.375 -0.125,-0.68229 -0.375,-0.92187c-0.23958,-0.25 -0.61458,-0.375 -1.125,-0.375c-0.44792,0 -0.79167,0.09896 -1.03125,0.29688c-0.23958,0.19792 -0.35937,0.45313 -0.35937,0.76563c0,0.29167 0.13542,0.52604 0.40625,0.70313c0.28125,0.17708 0.75,0.33333 1.40625,0.46875c0.65625,0.125 1.20833,0.27083 1.65625,0.4375c1.38542,0.51042 2.07813,1.39583 2.07813,2.65625c0,0.89583 -0.38542,1.625 -1.15625,2.1875c-0.77083,0.55208 -1.76562,0.82813 -2.98437,0.82813c-0.82292,0 -1.55729,-0.14583 -2.20312,-0.4375c-0.63542,-0.30208 -1.13542,-0.70833 -1.5,-1.21875c-0.36458,-0.51042 -0.54687,-1.06771 -0.54687,-1.67187h2.48438c0.03125,0.46875 0.20833,0.82813 0.53125,1.07813c0.32292,0.25 0.75,0.375 1.28125,0.375c0.51042,0 0.89063,-0.09375 1.14063,-0.28125c0.26042,-0.19792 0.39063,-0.44792 0.39063,-0.75zM244.12465,181.86214l1.82813,-6.14062h2.82813l-3.96875,11.39063l-0.21875,0.51563c-0.59375,1.29167 -1.56771,1.9375 -2.92187,1.9375c-0.375,0 -0.76042,-0.05729 -1.15625,-0.17187v-2l0.39063,0.01563c0.5,0 0.86979,-0.07812 1.10938,-0.23437c0.25,-0.15625 0.44792,-0.40625 0.59375,-0.75l0.3125,-0.8125l-3.45312,-9.89062h2.82813z" fill="#000000" stroke="none" stroke-width="1" stroke-linecap="square" stroke-linejoin="miter"/></g></g></svg>