<svg width="480px" height="360px" xmlns="http://www.w3.org/2000/svg"><rect x="216" y="124" width="80.5" height="80.5" fill-opacity="0"/><path fill="#F00" d="M278.198 168.967L278.198 168.967Q277.934 174.286 275.560 177.363Q273.187 180.440 269.209 180.440L269.209 180.440Q265.099 180.440 263.934 176.747L263.934 176.747Q262.747 178.615 261.220 179.527Q259.692 180.440 258.066 180.440L258.066 180.440Q254.945 180.440 253.341 177.890Q251.736 175.341 252.154 170.835L252.154 170.835Q252.484 167.209 253.813 164.363Q255.143 161.516 257.242 159.890Q259.341 158.264 261.648 158.264L261.648 158.264Q263.429 158.264 264.835 158.736Q266.242 159.209 268 160.593L268 160.593L266.857 172.769Q266.440 177.846 269.670 177.846L269.670 177.846Q272.154 177.846 273.692 175.385Q275.231 172.923 275.363 168.967L275.363 168.967Q275.780 160.418 272.187 155.934Q268.593 151.451 261.253 151.451L261.253 151.451Q256.835 151.451 253.407 153.637Q249.978 155.824 248 159.956Q246.022 164.088 245.780 169.495L245.780 169.495Q245.516 174.945 247.099 178.956Q248.681 182.967 251.923 185.088Q255.165 187.209 259.758 187.209L259.758 187.209Q261.736 187.209 263.725 186.725Q265.714 186.242 267.033 185.473L267.033 185.473L267.846 188Q266.484 188.857 264.231 189.407Q261.978 189.956 259.670 189.956L259.670 189.956Q254.176 189.956 250.220 187.484Q246.264 185.011 244.297 180.363Q242.330 175.714 242.593 169.495L242.593 169.495Q242.857 163.451 245.297 158.626Q247.736 153.802 251.912 151.176Q256.088 148.549 261.341 148.549L261.341 148.549Q266.813 148.549 270.725 151.011Q274.637 153.473 276.549 158.110Q278.462 162.747 278.198 168.967ZM255.648 170.835L255.648 170.835Q255.341 173.956 256.231 175.626Q257.121 177.297 259.055 177.297L259.055 177.297Q260.374 177.297 261.593 176.176Q262.813 175.055 263.604 172.967L263.604 172.967L263.626 172.769L264.637 161.714Q263.407 161.077 262 161.077L262 161.077Q259.429 161.077 257.747 163.692Q256.066 166.308 255.648 170.835Z"/></svg>