<svg version="1.1" xmlns="http://www.w3.org/2000/svg" xmlns:xlink="http://www.w3.org/1999/xlink" width="4.68922" height="4.69419" viewBox="0,0,4.68922,4.69419"><g transform="translate(-237.65539,-177.6529)"><g data-paper-data="{&quot;isPaintingLayer&quot;:true}" fill-rule="nonzero" stroke="none" stroke-width="0" stroke-linecap="butt" stroke-linejoin="miter" stroke-miterlimit="10" stroke-dasharray="" stroke-dashoffset="0" style="mix-blend-mode: normal"><path d="M238.03965,179.91362l-0.38426,-0.86807l1.02469,-0.49914l0.32021,-0.88977l0.92979,0.31085l0.95078,-0.31457l0.46325,0.90295l0.87863,0.40498l-0.34579,1.05932l0.46766,0.90991l-0.95791,0.35514l-0.44414,1.0619l-0.93035,-0.41955l-1.0143,0.39313l-0.34684,-1.01919l-0.96153,-0.26372z" fill="#fbcd1f"/><path d="M239.05623,179.9246l-0.19062,-0.43063l0.50833,-0.24762l0.15885,-0.4414l0.46125,0.15421l0.47166,-0.15605l0.22981,0.44794l0.43587,0.2009l-0.17154,0.52551l0.232,0.45139l-0.4752,0.17618l-0.22033,0.52679l-0.46153,-0.20813l-0.50318,0.19502l-0.17206,-0.5056l-0.477,-0.13083z" fill="#f4c20d"/></g></g></svg>