<svg width="480px" height="360px" xmlns="http://www.w3.org/2000/svg"><rect x="216" y="124" width="80.5" height="80.5" fill-opacity="0"/><path fill="#F00" d="M256.769 166.330L249.868 166.330L250.044 171.165Q250.044 174.549 248.681 176.549L248.681 176.549L264.791 176.549L264.769 180L242.088 180L242.088 176.549L243.780 176.549Q244.659 176.352 245.209 174.912Q245.758 173.473 245.802 171.363L245.802 171.363L245.802 171.187L245.626 166.330L242 166.330L242 162.879L245.516 162.879L245.319 157.165Q245.319 152.791 248.011 150.176Q250.703 147.560 255.099 147.560L255.099 147.560Q259.275 147.560 261.714 149.890Q264.154 152.220 264.154 156.110L264.154 156.110L259.956 156.110Q259.956 153.758 258.560 152.396Q257.165 151.033 254.725 151.033L254.725 151.033Q252.418 151.033 250.989 152.725Q249.560 154.418 249.560 157.165L249.560 157.165L249.758 162.879L256.769 162.879L256.769 166.330Z"/></svg>