<svg width="480px" height="360px" xmlns="http://www.w3.org/2000/svg"><rect x="216" y="124" width="80.5" height="80.5" fill-opacity="0"/><path fill="#F00" d="M253.285 180.485L253.285 180.485Q250.958 180.485 248.897 179.612Q246.836 178.739 245.552 176.776Q244.267 174.812 244.267 171.661L244.267 171.661L244.267 155.758L248.145 155.758L248.145 170.642Q248.145 174.327 249.745 175.709Q251.345 177.091 254.255 177.091L254.255 177.091Q256.097 177.091 257.745 176.242Q259.394 175.394 260.461 173.600Q261.527 171.806 261.527 168.945L261.527 168.945L261.527 155.758L265.406 155.758L265.406 180L262.012 180L261.770 176.315Q260.509 178.497 258.352 179.491Q256.194 180.485 253.285 180.485Z"/></svg>