<svg width="480px" height="360px" xmlns="http://www.w3.org/2000/svg"><rect x="216" y="124" width="80.5" height="80.5" fill-opacity="0"/><path fill="#F00" d="M247.176 155.273L247.176 155.273Q248.582 155.273 249.455 156.145Q250.327 157.018 250.327 158.424L250.327 158.424Q250.327 159.830 249.455 160.703Q248.582 161.576 247.176 161.576L247.176 161.576Q245.770 161.576 244.897 160.703Q244.024 159.830 244.024 158.424L244.024 158.424Q244.024 157.018 244.897 156.145Q245.770 155.273 247.176 155.273ZM247.176 174.182L247.176 174.182Q248.582 174.182 249.455 175.055Q250.327 175.927 250.327 177.333L250.327 177.333Q250.327 178.739 249.455 179.612Q248.582 180.485 247.176 180.485L247.176 180.485Q245.770 180.485 244.897 179.612Q244.024 178.739 244.024 177.333L244.024 177.333Q244.024 175.927 244.897 175.055Q245.770 174.182 247.176 174.182Z"/></svg>