<svg width="480px" height="360px" xmlns="http://www.w3.org/2000/svg"><rect x="216" y="124" width="80.5" height="80.5" fill-opacity="0"/><path fill="#F00" d="M256.339 180.388L256.339 180.388Q250.909 180.388 247.200 177.964Q243.491 175.539 241.891 170.933L241.891 170.933L245.770 168.994Q247.030 173.261 249.964 175.006Q252.897 176.752 256.679 176.752L256.679 176.752Q260.267 176.752 262.061 175.030Q263.855 173.309 263.855 171.127L263.855 171.127Q263.855 169.333 262.715 168.315Q261.576 167.297 259.394 166.667L259.394 166.667L254.206 165.212Q250.521 164.145 248.509 162.036Q246.497 159.927 246.497 157.067L246.497 157.067Q246.497 154.400 247.927 152.218Q249.358 150.036 251.952 148.752Q254.545 147.467 258.085 147.467L258.085 147.467Q262.788 147.467 265.939 149.406Q269.091 151.345 270.448 155.321L270.448 155.321L266.570 157.212Q265.939 154.691 264.582 153.382Q263.224 152.073 261.479 151.588Q259.733 151.103 257.842 151.103L257.842 151.103Q254.158 151.103 252.339 152.703Q250.521 154.303 250.521 156.436L250.521 156.436Q250.521 158.085 251.782 159.418Q253.042 160.752 255.176 161.382L255.176 161.382L260.945 163.030Q267.879 165.018 267.879 170.497L267.879 170.497Q267.879 173.503 266.303 175.733Q264.727 177.964 262.109 179.176Q259.491 180.388 256.339 180.388Z"/></svg>