<svg width="480px" height="360px" xmlns="http://www.w3.org/2000/svg"><rect x="216" y="124" width="80.5" height="80.5" fill-opacity="0"/><path fill="#F00" d="M248.388 190.182L244.509 190.182L244.509 155.758L248.388 155.758L248.388 170.594Q248.388 173.988 249.988 175.539Q251.588 177.091 254.497 177.091L254.497 177.091Q256.436 177.091 258.085 176.242Q259.733 175.394 260.752 173.503Q261.770 171.612 261.770 168.509L261.770 168.509L261.770 155.758L265.648 155.758L265.648 180L262.497 180L262.158 176.073Q260.945 178.255 258.861 179.370Q256.776 180.485 254.303 180.485L254.303 180.485Q252.461 180.485 250.909 179.903Q249.358 179.321 248.388 178.012L248.388 178.012L248.388 190.182Z"/></svg>