<svg version="1.1" xmlns="http://www.w3.org/2000/svg" xmlns:xlink="http://www.w3.org/1999/xlink" width="267.73094" height="200.89034" viewBox="0,0,267.73094,200.89034"><g transform="translate(-106.13453,-38.826)"><g data-paper-data="{&quot;isPaintingLayer&quot;:true}" fill-rule="nonzero" stroke-linejoin="miter" stroke-miterlimit="10" stroke-dasharray="" stroke-dashoffset="0" style="mix-blend-mode: normal"><path d="M373.86547,215.29205c0,0 -0.06915,14.62634 -0.09001,19.03906c-0.01466,3.10133 -1.96867,5.39917 -5.2163,5.38517c-4.43511,-0.01912 -19.11137,-0.08239 -19.11137,-0.08239l0.11557,-24.44661z" data-paper-data="{&quot;index&quot;:null}" fill="#8ecc39" stroke="none" stroke-width="0" stroke-linecap="butt"/><path d="M129.34491,215.18175l0.11037,24.44661c0,0 -14.01516,0.06327 -18.25047,0.08239c-3.10133,0.014 -4.96733,-2.28384 -4.98132,-5.38517c-0.01991,-4.41272 -0.08595,-19.03906 -0.08595,-19.03906z" fill="#8ecc39" stroke="none" stroke-width="0" stroke-linecap="butt"/><path d="M106.13453,216.34562v-170.38008c0,0 1.59735,-5.97209 5.62078,-5.97209c21.98789,0 217.24378,-1.8671 256.78653,-0.87889c4.52968,0.11321 5.28265,6.85097 5.28265,6.85097v170.38009z" fill="#4dc1f9" stroke="none" stroke-width="0" stroke-linecap="butt"/><path d="M203.29193,89.38398c0,11.0136 -8.90602,19.9419 -19.89216,19.9419c-10.98614,0 -19.89214,-8.92828 -19.89214,-19.9419c0,-11.0136 8.90601,-19.9419 19.89215,-19.9419c10.98614,0 19.89216,8.92828 19.89216,19.9419z" fill="#efad00" stroke="none" stroke-width="0" stroke-linecap="butt"/><path d="M179.29142,70.40193v-3.48113h7.32033v3.48113z" fill="#efad00" stroke="none" stroke-width="0" stroke-linecap="butt"/><path d="M190.51057,64.89181c0,0.9291 -1.57117,1.93903 -3.72718,2.37193c-1.05621,0.21207 -2.2528,0.13448 -3.47378,0.13448c-1.26846,0 -2.59413,0.07726 -3.78994,-0.13811c-2.30483,-0.41513 -4.12713,-1.37733 -4.12713,-2.28872c0,-0.86781 1.14346,-1.8713 3.26784,-2.32118c1.26428,-0.26775 3.26385,-0.2648 4.64924,-0.2648c1.63262,0 3.14205,0.05778 4.41017,0.41852c1.61619,0.45975 2.79079,1.31225 2.79079,2.08789z" fill="#ffbf00" stroke="none" stroke-width="0" stroke-linecap="butt"/><path d="M193.65354,86.79306c0,7.84411 -6.30547,14.203 -14.08366,14.203c-7.77818,0 -14.08367,-6.3589 -14.08367,-14.20299c0,-7.84411 6.30548,-14.203 14.08367,-14.203c7.77818,0 14.08366,6.35891 14.08366,14.203z" fill="#efad00" stroke="none" stroke-width="0" stroke-linecap="butt"/><path d="M166.29251,88.73747c0,-4.91012 2.23478,-9.31658 5.77645,-12.32406c2.99587,-2.544 6.92688,-4.08698 11.23134,-4.08698c9.39316,0 15.91374,7.54639 15.91374,16.60996c0,9.06356 -7.51518,17.10725 -16.90834,17.10725c-9.39314,0 -16.01319,-8.24262 -16.01319,-17.30617z" fill="none" stroke="#ffbf00" stroke-width="4.5" stroke-linecap="butt"/><path d="M196.5379,88.08607c0,7.84411 -6.30547,14.203 -14.08366,14.203c-7.77818,0 -14.08366,-6.3589 -14.08366,-14.20299c0,-7.84411 6.30548,-14.20299 14.08366,-14.20299c7.77818,0 14.08366,6.35891 14.08366,14.203z" fill="#efad00" stroke="none" stroke-width="0" stroke-linecap="butt"/><g stroke="none" stroke-width="0" stroke-linecap="butt"><path d="M197.43305,89.08068c0,7.84411 -6.30548,14.203 -14.08366,14.203c-7.77818,0 -14.08366,-6.3589 -14.08366,-14.20299c0,-7.84411 6.30547,-14.20299 14.08366,-14.20299c7.77818,0 14.08366,6.35891 14.08366,14.203z" fill="#cccccc"/><path d="M170.53886,92.14406c0,-1.63073 0.00034,-8.27187 3.96354,-12.03477c4.02852,-3.82492 8.26345,-4.7116 13.6035,-3.18096c1.98838,0.56993 4.57444,2.00274 4.61414,2.03219c3.24888,2.41035 4.63342,6.7198 4.63342,11.03518c0,7.2948 -6.00266,13.20841 -13.40732,13.20841c-7.40466,0 -13.40733,-3.76525 -13.40733,-11.06004z" fill="#f2f2f2"/><path d="M182.315,91.2688c0,0 -1.22574,-6.39506 -0.88456,-9.23108c0.10946,-0.90983 0.84254,-1.11284 1.23696,-1.11284c0.45233,0 0.99441,-0.00642 1.12898,1.03832c0.37522,2.91293 -0.52651,9.3056 -0.52651,9.3056z" fill="#333333"/><path d="M182.1593,90.5501c0,0 8.13853,-10.34209 9.8081,-8.98667c1.84086,1.49448 -8.84371,9.75117 -8.84371,9.75117z" fill="#333333"/></g><path d="M208.63258,217.92631c0,0 -0.67349,-5.57127 -0.19965,-8.21687c0.86026,-4.80319 3.24113,-16.06941 8.87099,-17.15247c2.17851,-0.41909 5.46045,1.85492 7.8506,3.11023c2.48872,1.30707 4.04284,1.60652 4.04284,1.60652c0,0 7.38828,4.16517 8.41571,4.93502c0.54678,0.40969 5.30074,4.01802 7.44111,5.51191c2.10029,1.46591 1.58436,0.81521 2.44913,1.4805c3.50084,2.6933 -4.0528,8.66356 -4.0528,8.66356l-7.71797,1.33988z" fill="#9e9e9e" stroke="none" stroke-width="0" stroke-linecap="butt"/><path d="M229.40494,197.37129c0,0 11.62253,-24.35677 13.61873,-28.54011c0.57908,-1.21357 0.76339,-2.11043 1.87851,-2.86182c0.42496,-0.28634 0.98403,-0.61873 1.58699,-0.85886c1.49786,-0.59652 2.5599,-0.02336 4.02154,0.65709c1.5042,0.70027 3.64745,1.72754 4.56756,3.15632c0.57788,0.89736 0.74352,2.12452 0.76432,3.12958c0.02514,1.21505 -0.20706,1.94287 -0.90555,2.9374c-2.12427,3.02462 -18.50143,26.34311 -18.50143,26.34311z" fill="#66473d" stroke="none" stroke-width="0" stroke-linecap="butt"/><path d="M224.03608,217.56844l-3.19575,-0.25566l8.43677,-19.68581c0,0 1.01336,-0.07139 2.17269,0.00629c1.70978,0.11456 2.90602,0.46545 3.93996,1.83199c0.71707,0.94774 1.17366,1.99661 1.17366,1.99661z" fill="#808080" stroke="none" stroke-width="0" stroke-linecap="butt"/><path d="M230.0441,196.34866c0,0 11.1112,-23.20631 13.10741,-27.38964c0.57908,-1.21356 0.7634,-2.11043 1.87851,-2.86182c0.42496,-0.28634 0.98403,-0.61873 1.58699,-0.85886c1.49786,-0.59652 2.5599,-0.02336 4.02153,0.65709c1.5042,0.70027 2.62482,0.83273 3.54491,2.2615c1.38497,2.15065 1.0733,4.61282 -0.3969,6.70614c-2.12427,3.02461 -17.0953,24.42566 -17.0953,24.42566c0,0 -1.54292,-1.50538 -2.50347,-2.19724c-0.96056,-0.69187 -4.14369,-0.74284 -4.14369,-0.74284z" fill="#795548" stroke="none" stroke-width="0" stroke-linecap="butt"/><path d="M212.40356,218.07974c0,0 -1.71011,-7.16218 0.78913,-12.86731c1.52158,-3.47338 5.47453,-9.88642 5.47453,-9.88642" fill="none" stroke="#b0b0b0" stroke-width="2.5" stroke-linecap="round"/><g stroke="none" stroke-width="0" stroke-linecap="butt"><path d="M201.76052,239.63948v-23.51249h24.27831v23.51249z" fill="#d7b899"/><path d="M202.00055,216.13009v23.5125h-24.44891v-23.51249z" fill="#b648f2"/><g><path d="M153.58121,239.63796l-24.53695,-0.03922l0.04038,-23.58188l24.53695,0.03922z" fill="#e5c29f"/><path d="M177.75796,239.67717l-24.57111,-0.03921l0.04037,-23.58188l24.57112,0.03921z" fill="#db3236"/></g></g><g stroke="none" stroke-width="0" stroke-linecap="butt"><path d="M300.03879,239.63948v-23.44306h24.82096v23.44306z" fill="#8ecc39"/><path d="M300.65121,216.19637v23.44306h-25.36397v-23.44306z" fill="#e5c29f"/><g><path d="M250.93583,239.63796l-25.17222,-0.03922l0.04127,-23.51246l25.17222,0.03922z" fill="#e5c29f"/><path d="M275.56569,239.67717l-25.05059,-0.03921l0.04128,-23.51246l25.0506,0.03921z" fill="#ff901a"/></g></g><path d="M349.6322,216.21928v23.44306h-25.17227v-23.44306z" fill="#a7d948" stroke="none" stroke-width="0" stroke-linecap="butt"/><g stroke="none" stroke-width="0"><g fill="#ffbf00" stroke-linecap="butt"><g><path d="M287.81075,88.65575c0.01394,-3.47746 0.09958,-24.96703 0.09958,-24.96703h11.11783l0.04199,30.72384c0,0 -4.1357,0.01441 -7.10832,0.02935c-1.77441,0.00892 -2.99107,-1.67419 -3.63039,-2.86782c-0.35075,-0.65484 -0.5244,-1.99359 -0.52069,-2.91835z"/><path d="M309.43101,91.60984c-0.63932,1.19363 -1.85598,2.87674 -3.63039,2.86782c-2.97262,-0.01494 -6.97262,-0.02936 -6.97262,-0.02936l0.04199,-30.72384h10.98213c0,0 0.08563,21.48958 0.09957,24.96704c0.00371,0.92475 -0.16994,2.26351 -0.52068,2.91835z" data-paper-data="{&quot;index&quot;:null}"/></g><path d="M296.89487,103.75846v-10.68967h3.65954v10.68967z"/><g><path d="M306.7923,108.91873l-8.11073,0.06303l0.12232,-5.74597c0,0 2.85372,-0.03715 4.97447,-0.06892c1.26592,-0.01896 2.14072,1.6309 2.60165,2.80224c0.25287,0.64261 0.41229,2.94962 0.41229,2.94962z"/><path d="M291.32644,106.05503c0.45131,-1.17868 1.31254,-2.84251 2.57853,-2.84391c2.12087,-0.00235 4.97471,-0.01112 4.97471,-0.01112l0.09334,5.74646l-7.83515,0.06303c0,0 -0.05902,-2.30782 0.18857,-2.95445z" data-paper-data="{&quot;index&quot;:null}"/></g><g><path d="M279.21592,78.04036v-14.33022h4.29907v14.33022z"/><path d="M281.60429,67.77037v-4.06023h8.12046v4.06023z"/><path d="M288.30638,85.59686c0,0 -4.27312,-1.60232 -5.19681,-2.48627c-0.71191,-0.68128 -1.48365,-1.48653 -2.11762,-2.2665c-1.07371,-1.32097 -1.7244,-2.81419 -1.7244,-2.81419l3.47567,-2.57106c0,0 1.72955,3.0029 3.82412,4.51924c1.26223,0.91376 3.03726,0.299 3.57101,0.95762c1.57237,1.9402 -1.83197,4.66118 -1.83197,4.66118z"/></g><g data-paper-data="{&quot;index&quot;:null}"><path d="M314.32567,78.10831v-14.33022h4.29906v14.33022z"/><path d="M308.1159,67.83831v-4.06023h8.12046v4.06023z"/><path d="M307.7023,81.00364c0.53375,-0.65861 2.30879,-0.04385 3.57102,-0.95762c2.09458,-1.51633 3.82412,-4.51923 3.82412,-4.51923l3.47568,2.57106c0,0 -0.65069,1.49322 -1.7244,2.81419c-0.63397,0.77997 -1.4057,1.58522 -2.11761,2.26651c-0.92369,0.88395 -5.19682,2.48626 -5.19682,2.48626c0,0 -3.40434,-2.72097 -1.83197,-4.66117z"/></g></g><path d="M291.60673,90.63891v-21.57705c0,0 0.52334,-0.40711 0.81423,-0.40711c0.3359,0 1.08563,0.40711 1.08563,0.40711v21.57705c0,0 -0.63329,0.40711 -0.94993,0.40711c-0.31664,0 -0.94993,-0.40711 -0.94993,-0.40711z" fill="#ffd97a" stroke-linecap="butt"/><g stroke-linecap="butt"><path d="M307.41132,78.44957c0,4.86859 -3.91361,8.81537 -8.74129,8.81537c-4.82768,0 -8.7413,-3.94678 -8.7413,-8.81535c0,-4.86859 3.91362,-8.81536 8.7413,-8.81536c4.82768,0 8.74129,3.94678 8.74129,8.81537z" fill="#cccccc"/><path d="M290.71891,80.35092c0,-1.01214 0.00022,-5.1341 2.46006,-7.46962c2.50038,-2.37401 5.12887,-2.92434 8.44328,-1.97432c1.23413,0.35374 2.83922,1.24304 2.86386,1.26131c2.01648,1.49603 2.87583,4.17077 2.87583,6.84919c0,4.52766 -3.72567,8.19805 -8.32151,8.19805c-4.59584,0 -8.32151,-2.33698 -8.32151,-6.86463z" fill="#f2f2f2"/><path d="M298.02801,79.80767c0,0 -0.76078,-3.96922 -0.54903,-5.72946c0.06793,-0.56471 0.52295,-0.6907 0.76775,-0.6907c0.28075,0 0.61719,-0.00399 0.70072,0.64444c0.23289,1.80796 -0.32679,5.77571 -0.32679,5.77571z" fill="#333333"/><path d="M297.93137,79.36159c0,0 5.05133,-6.41902 6.08758,-5.57775c1.14256,0.92758 -5.48901,6.05225 -5.48901,6.05225z" fill="#333333"/></g><path d="M306.45411,65.16446l-0.66258,-4.0609l2.28968,3.25523l3.52889,-0.86581l-2.64919,2.42962l0.4661,3.16863l-2.15309,-2.33078l-3.30676,0.42458z" fill="#ffffff" stroke-linecap="round"/><path d="M287.27371,85.73234l-0.38849,-2.381l1.34249,1.90862l2.06908,-0.50765l-1.55329,1.42455l0.27328,1.85784l-1.26241,-1.3666l-1.93884,0.24894z" fill="#ffffff" stroke-linecap="round"/></g><g stroke="none" stroke-width="0" stroke-linecap="butt"><path d="M324.86554,209.29271l-19.37762,1.67882l6.96964,-24.41827z" fill="#f23607"/><path d="M331.80264,213.74617l-27.49489,2.2662l1.27539,-5.33116l25.79836,-2.04471z" fill="#e63307"/><path d="M336.88291,215.94047c0,0 -3.0708,0.69022 -4.64678,-0.83751c-1.12165,-1.08732 -1.09106,-4.0002 -1.09106,-4.0002c0,0 -0.45489,-2.86283 0.69956,-4.18261c1.28381,-1.46766 4.16924,-1.52345 4.16924,-1.52345z" fill="#e63307"/></g><g stroke="none" stroke-width="0" stroke-linecap="butt"><path d="M124.30126,206.38443l13.88953,-13.61586l10.1452,23.2788z" fill="#f23607"/><path d="M116.1153,207.35748l19.78151,-19.23009l2.40505,4.92581l-18.61284,17.9805z" fill="#e63307"/><path d="M110.79892,208.89375c0,0 1.93141,-2.48513 4.11916,-2.30792c1.55707,0.12613 3.38543,2.39393 3.38543,2.39393c0,0 2.17126,1.9205 2.11928,3.67318c-0.05781,1.94906 -2.2495,3.82665 -2.2495,3.82665z" fill="#e63307"/></g><path d="M159.26214,228.09321c0,-3.6676 2.97317,-6.64078 6.64078,-6.64078c3.6676,0 6.64078,2.97318 6.64078,6.64078c0,3.6676 -2.97318,6.64078 -6.64078,6.64078c-3.6676,0 -6.64078,-2.97317 -6.64078,-6.64078z" fill="#8e2023" stroke="none" stroke-width="0" stroke-linecap="butt"/><path d="M183.02913,228.09321c0,-3.6676 2.97317,-6.64078 6.64078,-6.64078c3.6676,0 6.64078,2.97318 6.64078,6.64078c0,3.6676 -2.97318,6.64078 -6.64078,6.64078c-3.6676,0 -6.64078,-2.97317 -6.64078,-6.64078z" fill="#762e9d" stroke="none" stroke-width="0" stroke-linecap="butt"/><path d="M256.42719,228.09321c0,-3.6676 2.97317,-6.64078 6.64078,-6.64078c3.6676,0 6.64078,2.97318 6.64078,6.64078c0,3.6676 -2.97318,6.64078 -6.64078,6.64078c-3.6676,0 -6.64078,-2.97317 -6.64078,-6.64078z" fill="#a5580b" stroke="none" stroke-width="0" stroke-linecap="butt"/></g></g></svg>