<svg width="480px" height="360px" xmlns="http://www.w3.org/2000/svg"><rect x="216" y="124" width="80.5" height="80.5" fill-opacity="0"/><path fill="#F00" d="M255.418 180.485L255.418 180.485Q249.261 180.485 245.939 176.291Q242.618 172.097 242.618 164L242.618 164Q242.618 155.903 245.939 151.709Q249.261 147.515 255.418 147.515L255.418 147.515Q261.576 147.515 264.897 151.709Q268.218 155.903 268.218 164L268.218 164Q268.218 172.097 264.897 176.291Q261.576 180.485 255.418 180.485ZM255.418 175.103L255.418 175.103Q258.521 175.103 260.024 172.412Q261.527 169.721 261.527 164L261.527 164Q261.527 158.279 260.024 155.588Q258.521 152.897 255.418 152.897L255.418 152.897Q252.315 152.897 250.812 155.588Q249.309 158.279 249.309 164L249.309 164Q249.309 169.721 250.812 172.412Q252.315 175.103 255.418 175.103Z"/></svg>