<svg width="480px" height="360px" xmlns="http://www.w3.org/2000/svg"><rect x="216" y="124" width="80.5" height="80.5" fill-opacity="0"/><path fill="#F00" d="M247.273 155.273L247.273 155.273Q249.212 155.273 250.352 156.339Q251.491 157.406 251.491 159.200L251.491 159.200Q251.491 161.042 250.352 162.085Q249.212 163.127 247.273 163.127L247.273 163.127Q245.285 163.127 244.170 162.085Q243.055 161.042 243.055 159.200L243.055 159.200Q243.055 157.406 244.170 156.339Q245.285 155.273 247.273 155.273ZM247.273 172.582L247.273 172.582Q249.212 172.582 250.352 173.648Q251.491 174.715 251.491 176.509L251.491 176.509Q251.491 178.352 250.352 179.394Q249.212 180.436 247.273 180.436L247.273 180.436Q245.285 180.436 244.170 179.394Q243.055 178.352 243.055 176.509L243.055 176.509Q243.055 174.715 244.170 173.648Q245.285 172.582 247.273 172.582Z"/></svg>