<svg width="480px" height="360px" xmlns="http://www.w3.org/2000/svg"><rect x="216" y="124" width="80.5" height="80.5" fill-opacity="0"/><path fill="#F00" d="M247.127 174.182L247.127 174.182Q248.824 174.182 249.794 175.491Q250.764 176.800 250.764 178.885L250.764 178.885Q250.764 181.309 249.503 183.539Q248.242 185.770 245.479 187.079L245.479 187.079L243.442 185.188Q245.430 184.509 246.642 183.127Q247.855 181.745 248.194 180.242L248.194 180.242L248 180.145Q247.806 180.291 247.515 180.388Q247.224 180.485 246.642 180.485L246.642 180.485Q245.770 180.485 244.873 179.733Q243.976 178.982 243.976 177.430L243.976 177.430Q243.976 176.121 244.897 175.152Q245.818 174.182 247.127 174.182ZM247.176 155.273L247.176 155.273Q248.582 155.273 249.455 156.145Q250.327 157.018 250.327 158.424L250.327 158.424Q250.327 159.830 249.455 160.703Q248.582 161.576 247.176 161.576L247.176 161.576Q245.770 161.576 244.897 160.703Q244.024 159.830 244.024 158.424L244.024 158.424Q244.024 157.018 244.897 156.145Q245.770 155.273 247.176 155.273Z"/></svg>