<svg width="480px" height="360px" xmlns="http://www.w3.org/2000/svg"><rect x="216" y="124" width="80.5" height="80.5" fill-opacity="0"/><path fill="#F00" d="M250.279 155.758L258.376 155.758L258.376 159.103L250.279 159.103L250.279 180L246.400 180L246.400 159.103L241.552 159.103L241.552 155.758L246.400 155.758L246.400 151.685Q246.400 148.436 248.388 146.400Q250.376 144.364 254.352 144.364L254.352 144.364Q255.612 144.364 256.727 144.655Q257.842 144.945 258.473 145.479L258.473 145.479L257.455 148.630Q256.291 147.903 254.691 147.903L254.691 147.903Q252.606 147.903 251.442 148.897Q250.279 149.891 250.279 152.073L250.279 152.073L250.279 155.758Z"/></svg>