<svg width="480px" height="360px" xmlns="http://www.w3.org/2000/svg"><rect x="216" y="124" width="80.5" height="80.5" fill-opacity="0"/><path fill="#F00" d="M246.206 158.958L246.206 158.958Q244.509 158.958 243.539 157.648Q242.570 156.339 242.570 154.255L242.570 154.255Q242.570 151.830 243.830 149.600Q245.091 147.370 247.855 146.061L247.855 146.061L249.891 147.952Q247.903 148.630 246.691 150.012Q245.479 151.394 245.139 152.897L245.139 152.897L245.333 152.994Q245.527 152.848 245.818 152.752Q246.109 152.655 246.691 152.655L246.691 152.655Q247.564 152.655 248.461 153.406Q249.358 154.158 249.358 155.709L249.358 155.709Q249.358 157.018 248.436 157.988Q247.515 158.958 246.206 158.958Z"/></svg>