<svg width="480px" height="360px" xmlns="http://www.w3.org/2000/svg"><rect x="216" y="124" width="80.5" height="80.5" fill-opacity="0"/><path fill="#F00" d="M250.327 190.424L250.327 190.424Q246.109 190.424 243.248 188.291Q240.388 186.158 239.709 182.618L239.709 182.618L243.588 181.261Q244.121 183.976 245.697 185.503Q247.273 187.030 250.618 187.030L250.618 187.030Q252.461 187.030 254.109 186.376Q255.758 185.721 257.018 184.097Q258.279 182.473 258.909 179.515L258.909 179.515L259.782 175.685Q258.618 177.430 256.655 178.448Q254.691 179.467 252.315 179.467L252.315 179.467Q249.503 179.467 247.273 178.061Q245.042 176.655 243.782 174.255Q242.521 171.855 242.521 168.994L242.521 168.994Q242.521 164.921 244.121 161.842Q245.721 158.764 248.509 157.018Q251.297 155.273 254.788 155.273L254.788 155.273Q257.988 155.273 260.194 156.897Q262.400 158.521 263.079 161.236L263.079 161.236L264.339 155.758L268.218 155.758L262.545 179.952Q261.236 185.527 257.988 187.976Q254.739 190.424 250.327 190.424ZM253.333 176.121L253.333 176.121Q255.612 176.121 257.455 174.764Q259.297 173.406 260.388 171.055Q261.479 168.703 261.479 165.697L261.479 165.697Q261.479 162.448 259.758 160.533Q258.036 158.618 255.030 158.618L255.030 158.618Q252.509 158.618 250.570 159.903Q248.630 161.188 247.515 163.491Q246.400 165.794 246.400 168.897L246.400 168.897Q246.400 172.048 248.242 174.085Q250.085 176.121 253.333 176.121Z"/></svg>