<svg width="480px" height="360px" xmlns="http://www.w3.org/2000/svg"><rect x="216" y="124" width="80.5" height="80.5" fill-opacity="0"/><path fill="#F00" d="M248.571 165.341L248.571 162.022L251.626 162.022Q254.505 161.978 256.154 160.505Q257.802 159.033 257.802 156.527L257.802 156.527Q257.802 150.901 252.198 150.901L252.198 150.901Q249.560 150.901 247.989 152.407Q246.418 153.912 246.418 156.396L246.418 156.396L242.352 156.396Q242.352 152.593 245.132 150.077Q247.912 147.560 252.198 147.560L252.198 147.560Q256.725 147.560 259.297 149.956Q261.868 152.352 261.868 156.615L261.868 156.615Q261.868 158.703 260.516 160.659Q259.165 162.615 256.835 163.582L256.835 163.582Q259.473 164.418 260.912 166.352Q262.352 168.286 262.352 171.077L262.352 171.077Q262.352 175.385 259.538 177.912Q256.725 180.440 252.220 180.440Q247.714 180.440 244.890 178Q242.066 175.560 242.066 171.560L242.066 171.560L246.154 171.560Q246.154 174.088 247.802 175.604Q249.451 177.121 252.220 177.121L252.220 177.121Q255.165 177.121 256.725 175.582Q258.286 174.044 258.286 171.165L258.286 171.165Q258.286 168.374 256.571 166.879Q254.857 165.385 251.626 165.341L251.626 165.341L248.571 165.341Z"/></svg>