<svg version="1.1" xmlns="http://www.w3.org/2000/svg" xmlns:xlink="http://www.w3.org/1999/xlink" width="20" height="20" viewBox="0,0,20,20"><g transform="translate(-230,-170)"><g data-paper-data="{&quot;isPaintingLayer&quot;:true}" fill-rule="nonzero" stroke="none" stroke-linejoin="miter" stroke-miterlimit="10" stroke-dasharray="" stroke-dashoffset="0" style="mix-blend-mode: normal"><path d="M230,190v-20h20v20z" fill="#d7b899" stroke-width="0" stroke-linecap="butt"/><path d="M242.7031,173.17968v2.40625h-0.125c-1.14583,0 -2.08854,0.27604 -2.82812,0.82813c-0.73958,0.55208 -1.19271,1.31771 -1.35937,2.29688c0.6875,-0.6875 1.55729,-1.03125 2.60938,-1.03125c1.15625,0 2.07292,0.42188 2.75,1.26563c0.67708,0.83333 1.01563,1.93229 1.01563,3.29688c0,0.84375 -0.19792,1.61979 -0.59375,2.32813c-0.39583,0.69792 -0.95312,1.25 -1.67187,1.65625c-0.70833,0.39583 -1.5,0.59375 -2.375,0.59375c-0.9375,0 -1.77604,-0.21354 -2.51562,-0.64062c-0.73958,-0.4375 -1.31771,-1.05208 -1.73437,-1.84375c-0.40625,-0.79167 -0.61979,-1.70833 -0.64062,-2.75v-1.23437c0,-1.36458 0.29167,-2.58854 0.875,-3.67187c0.59375,-1.09375 1.43229,-1.94792 2.51563,-2.5625c1.09375,-0.625 2.30208,-0.9375 3.625,-0.9375zM239.93747,180.03903c-0.40625,0 -0.74479,0.09375 -1.01562,0.28125c-0.27083,0.1875 -0.47396,0.41667 -0.60937,0.6875v0.92188c0,1.67708 0.57813,2.51563 1.73438,2.51563c0.46875,0 0.85938,-0.20833 1.17188,-0.625c0.3125,-0.41667 0.46875,-0.94271 0.46875,-1.57812c0,-0.64583 -0.16146,-1.17187 -0.48437,-1.57812c-0.3125,-0.41667 -0.73437,-0.625 -1.26562,-0.625z" fill="#0097a7" stroke-width="1" stroke-linecap="square"/></g></g></svg>