<svg width="480px" height="360px" xmlns="http://www.w3.org/2000/svg"><rect x="216" y="124" width="80.5" height="80.5" fill-opacity="0"/><path fill="#F00" d="M257.697 180L250.182 180L246.885 165.842L240.921 165.842L240.921 161.091L245.818 161.091L242.764 148L249.503 148L251.879 161.091L256.970 161.091L259.733 148L266.182 148L268.945 161.091L274.182 161.091L276.606 148L282.909 148L279.903 161.091L284.800 161.091L284.800 165.842L278.788 165.842L275.491 180L268.170 180L265.115 165.842L260.703 165.842L257.697 180ZM264.097 161.091L262.885 155.564L261.721 161.091L264.097 161.091ZM252.703 165.842L254.206 174.182L255.952 165.842L252.703 165.842ZM269.964 165.842L271.758 174.085L273.261 165.842L269.964 165.842Z"/></svg>