<svg version="1.1" xmlns="http://www.w3.org/2000/svg" xmlns:xlink="http://www.w3.org/1999/xlink" width="20" height="20" viewBox="0,0,20,20"><g transform="translate(-230,-170)"><g data-paper-data="{&quot;isPaintingLayer&quot;:true}" fill-rule="nonzero" stroke="none" stroke-linejoin="miter" stroke-miterlimit="10" stroke-dasharray="" stroke-dashoffset="0" style="mix-blend-mode: normal"><path d="M230,190v-20h20v20z" fill="#d7b899" stroke-width="0" stroke-linecap="butt"/><path d="M235.63277,180.05468l0.79688,-6.78125h7.76563v2.39063h-5.26562l-0.29687,2.625c0.21875,-0.125 0.50521,-0.23437 0.85938,-0.32812c0.35417,-0.10417 0.70313,-0.15625 1.04688,-0.15625c1.3125,0 2.32292,0.39063 3.03125,1.17188c0.70833,0.78125 1.0625,1.88021 1.0625,3.29688c0,0.84375 -0.19271,1.61458 -0.57812,2.3125c-0.375,0.6875 -0.90625,1.21875 -1.59375,1.59375c-0.67708,0.36458 -1.48437,0.54688 -2.42187,0.54688c-0.83333,0 -1.61458,-0.17187 -2.34375,-0.51562c-0.72917,-0.34375 -1.30208,-0.8125 -1.71875,-1.40625c-0.40625,-0.60417 -0.60937,-1.28125 -0.60937,-2.03125h3.07813c0.03125,0.47917 0.1875,0.86458 0.46875,1.15625c0.28125,0.28125 0.65104,0.42188 1.10938,0.42188c1.03125,0 1.54688,-0.76562 1.54688,-2.29687c0,-1.41667 -0.63542,-2.125 -1.90625,-2.125c-0.70833,0 -1.23958,0.23438 -1.59375,0.70313z" fill="#ff8f01" stroke-width="1" stroke-linecap="square"/></g></g></svg>