<svg width="480px" height="360px" xmlns="http://www.w3.org/2000/svg"><rect x="216" y="124" width="80.5" height="80.5" fill-opacity="0"/><path fill="#F00" d="M256.727 180L253.333 180L253.333 174.812L244.024 174.812L244.024 172.145L253.333 172.145L253.333 168.509L244.024 168.509L244.024 165.600L250.279 165.600L252.412 165.794L241.648 148L246.158 148L252.655 159.782L254.982 164.582L255.079 164.582L257.406 159.733L263.903 148L268.412 148L257.648 165.794L259.782 165.600L266.085 165.600L266.085 168.509L256.727 168.509L256.727 172.145L266.085 172.145L266.085 174.812L256.727 174.812L256.727 180Z"/></svg>