<svg width="480px" height="360px" xmlns="http://www.w3.org/2000/svg"><rect x="216" y="124" width="80.5" height="80.5" fill-opacity="0"/><path fill="#F00" d="M251.394 180.388L251.394 180.388Q247.903 180.388 246.012 178.352Q244.121 176.315 244.945 172.630L244.945 172.630L248.048 159.103L243.152 159.103L243.927 155.758L248.824 155.758L250.036 150.424L254.255 149.212L252.703 155.758L260.218 155.758L259.442 159.103L251.927 159.103L248.727 172.824Q248.242 175.055 249.333 176Q250.424 176.945 252.073 176.945L252.073 176.945Q253.285 176.945 254.206 176.606Q255.127 176.267 255.806 175.733L255.806 175.733L256.582 178.933Q255.370 179.758 254.109 180.073Q252.848 180.388 251.394 180.388Z"/></svg>