<svg width="480px" height="360px" xmlns="http://www.w3.org/2000/svg"><rect x="216" y="124" width="80.5" height="80.5" fill-opacity="0"/><path fill="#F00" d="M259.879 180.485L259.879 180.485Q254.933 180.485 251.200 178.303Q247.467 176.121 245.382 172.388Q243.297 168.655 243.297 164L243.297 164Q243.297 159.297 245.382 155.588Q247.467 151.879 251.200 149.697Q254.933 147.515 259.879 147.515L259.879 147.515Q264.824 147.515 268.558 149.697Q272.291 151.879 274.376 155.588Q276.461 159.297 276.461 164L276.461 164Q276.461 168.655 274.376 172.388Q272.291 176.121 268.558 178.303Q264.824 180.485 259.879 180.485ZM259.879 177.333L259.879 177.333Q263.806 177.333 266.764 175.564Q269.721 173.794 271.370 170.764Q273.018 167.733 273.018 164L273.018 164Q273.018 160.267 271.370 157.236Q269.721 154.206 266.764 152.436Q263.806 150.667 259.879 150.667L259.879 150.667Q256 150.667 253.018 152.436Q250.036 154.206 248.388 157.236Q246.739 160.267 246.739 164L246.739 164Q246.739 167.733 248.388 170.764Q250.036 173.794 253.018 175.564Q256 177.333 259.879 177.333ZM260.218 173.067L260.218 173.067Q256.097 173.067 253.745 170.667Q251.394 168.267 251.394 164.097L251.394 164.097Q251.394 159.927 253.745 157.527Q256.097 155.127 260.218 155.127L260.218 155.127Q263.079 155.127 264.970 156.364Q266.861 157.600 267.782 159.733L267.782 159.733L264.970 161.139Q263.758 158.036 260.170 158.036L260.170 158.036Q257.600 158.036 256.121 159.636Q254.642 161.236 254.642 164.097L254.642 164.097Q254.642 166.958 256.121 168.558Q257.600 170.158 260.170 170.158L260.170 170.158Q264.097 170.158 265.309 166.909L265.309 166.909L267.976 167.976Q267.055 170.352 265.115 171.709Q263.176 173.067 260.218 173.067Z"/></svg>