<svg width="480px" height="360px" xmlns="http://www.w3.org/2000/svg"><rect x="216" y="124" width="80.5" height="80.5" fill-opacity="0"/><path fill="#F00" d="M246.352 146.061L246.352 146.061Q248.048 146.061 249.018 147.370Q249.988 148.679 249.988 150.764L249.988 150.764Q249.988 153.188 248.727 155.418Q247.467 157.648 244.703 158.958L244.703 158.958L242.667 157.067Q244.655 156.388 245.867 155.006Q247.079 153.624 247.418 152.121L247.418 152.121L247.224 152.024Q247.030 152.170 246.739 152.267Q246.448 152.364 245.867 152.364L245.867 152.364Q244.994 152.364 244.097 151.612Q243.200 150.861 243.200 149.309L243.200 149.309Q243.200 148 244.121 147.030Q245.042 146.061 246.352 146.061Z"/></svg>