<svg width="480px" height="360px" xmlns="http://www.w3.org/2000/svg"><rect x="216" y="124" width="80.5" height="80.5" fill-opacity="0"/><path fill="#F00" d="M247.467 180.485L247.467 180.485Q244.994 180.485 243.564 179.297Q242.133 178.109 242.133 176.315L242.133 176.315Q242.133 174.618 243.661 173.309Q245.188 172 248.048 172L248.048 172Q249.309 172 250.352 172.267Q251.394 172.533 252.315 172.921L252.315 172.921Q252.315 172.582 252.315 172.097L252.315 172.097Q252.315 170.594 251.903 169.309Q251.491 168.024 250.667 166.521L250.667 166.521L243.879 166.521L243.879 163.370L248.873 163.370Q247.855 161.430 247.418 159.952Q246.982 158.473 246.982 156.970L246.982 156.970Q246.982 154.061 248.339 151.927Q249.697 149.794 252 148.655Q254.303 147.515 257.115 147.515L257.115 147.515Q264.679 147.515 266.764 155.079L266.764 155.079L263.418 156.921Q262.739 154.158 261.309 152.606Q259.879 151.055 257.018 151.055L257.018 151.055Q254.061 151.055 252.315 152.582Q250.570 154.109 250.570 156.970L250.570 156.970Q250.570 158.473 250.933 159.709Q251.297 160.945 252.412 163.079L252.412 163.079Q252.509 163.224 252.558 163.370L252.558 163.370L262.642 163.370L262.642 166.521L254.061 166.521Q254.642 167.976 254.982 169.309Q255.321 170.642 255.321 171.903L255.321 171.903Q255.321 173.309 255.030 174.618L255.030 174.618Q256.436 175.636 257.842 176.509Q259.248 177.382 261.139 177.382L261.139 177.382Q263.224 177.382 264.145 176.242Q265.067 175.103 265.115 172.582L265.115 172.582L268.267 172.582Q268.267 176.461 266.545 178.473Q264.824 180.485 261.673 180.485L261.673 180.485Q259.297 180.485 257.406 179.491Q255.515 178.497 253.818 177.430L253.818 177.430Q252.945 178.739 251.394 179.612Q249.842 180.485 247.467 180.485ZM245.673 176.315L245.673 176.315Q245.673 177.091 246.327 177.479Q246.982 177.867 247.952 177.867L247.952 177.867Q249.455 177.867 250.327 177.358Q251.200 176.848 251.636 176.024L251.636 176.024Q250.715 175.539 249.794 175.224Q248.873 174.909 247.903 174.909L247.903 174.909Q245.673 174.909 245.673 176.315Z"/></svg>