<svg width="480px" height="360px" xmlns="http://www.w3.org/2000/svg"><rect x="216" y="124" width="80.5" height="80.5" fill-opacity="0"/><path fill="#F00" d="M254.725 185.516L253.890 188.044Q250 186.945 248.033 184.429Q246.066 181.912 246.066 177.780L246.066 177.780L246.066 173.407Q246.066 168.066 241.407 168.066L241.407 168.066L241.407 164.879Q246.066 164.879 246.066 159.560L246.066 159.560L246.066 154.989Q246.110 150.967 248.033 148.495Q249.956 146.022 253.890 144.901L253.890 144.901L254.725 147.429Q250.132 148.901 250.132 155.099L250.132 155.099L250.132 159.538Q250.132 164.527 246.462 166.484L246.462 166.484Q250.132 168.462 250.132 173.495L250.132 173.495L250.132 178.022Q250.198 184.066 254.725 185.516L254.725 185.516Z"/></svg>