<svg width="480px" height="360px" xmlns="http://www.w3.org/2000/svg"><rect x="216" y="124" width="80.5" height="80.5" fill-opacity="0"/><path fill="#F00" d="M252.571 180L243.714 180L243.714 148L252.747 148Q256.923 148 260.132 149.846Q263.341 151.692 265.088 155.099Q266.835 158.505 266.857 162.923L266.857 162.923L266.857 164.967Q266.857 169.495 265.110 172.901Q263.363 176.308 260.121 178.132Q256.879 179.956 252.571 180L252.571 180ZM252.857 151.473L247.934 151.473L247.934 176.549L252.374 176.549Q257.253 176.549 259.967 173.516Q262.681 170.484 262.681 164.879L262.681 164.879L262.681 163.011Q262.681 157.560 260.121 154.538Q257.560 151.516 252.857 151.473L252.857 151.473Z"/></svg>