<svg width="480px" height="360px" xmlns="http://www.w3.org/2000/svg"><rect x="216" y="124" width="80.5" height="80.5" fill-opacity="0"/><path fill="#F00" d="M267.231 180.593L264.242 177.538Q260.747 180.440 256.154 180.440L256.154 180.440Q251.604 180.440 248.110 177.582L248.110 177.582L245.165 180.571L242.308 177.604L245.363 174.505Q243.077 171.077 243.077 166.637L243.077 166.637Q243.077 162.110 245.538 158.527L245.538 158.527L242.308 155.209L245.165 152.220L248.396 155.516Q251.868 152.879 256.154 152.879L256.154 152.879Q260.462 152.879 263.956 155.538L263.956 155.538L267.231 152.198L270.132 155.209L266.813 158.593Q269.231 162.176 269.231 166.637L269.231 166.637Q269.231 170.945 266.989 174.440L266.989 174.440L270.132 177.604L267.231 180.593ZM246.835 166.637L246.835 166.637Q246.835 169.341 248.099 171.670Q249.363 174 251.516 175.341Q253.670 176.681 256.154 176.681Q258.637 176.681 260.791 175.330Q262.945 173.978 264.187 171.659Q265.429 169.341 265.429 166.637L265.429 166.637Q265.429 163.956 264.187 161.637Q262.945 159.319 260.780 157.989Q258.615 156.659 256.154 156.659L256.154 156.659Q253.670 156.659 251.516 157.978Q249.363 159.297 248.099 161.626Q246.835 163.956 246.835 166.637Z"/></svg>