<svg width="480px" height="360px" xmlns="http://www.w3.org/2000/svg"><rect x="216" y="124" width="80.5" height="80.5" fill-opacity="0"/><path fill="#F00" d="M248.727 164.145L248.727 164.145Q245.333 164.145 243.224 161.964Q241.115 159.782 241.115 155.952L241.115 155.952Q241.115 152.073 243.224 149.915Q245.333 147.758 248.727 147.758L248.727 147.758Q252.121 147.758 254.230 149.915Q256.339 152.073 256.339 155.952L256.339 155.952Q256.339 159.782 254.230 161.964Q252.121 164.145 248.727 164.145ZM248.727 161.479L248.727 161.479Q250.861 161.479 251.903 160.024Q252.945 158.570 252.945 155.952L252.945 155.952Q252.945 153.333 251.903 151.855Q250.861 150.376 248.727 150.376L248.727 150.376Q246.594 150.376 245.552 151.855Q244.509 153.333 244.509 155.952L244.509 155.952Q244.509 158.570 245.552 160.024Q246.594 161.479 248.727 161.479ZM255.709 170.255L241.745 170.255L241.745 167.685L255.709 167.685L255.709 170.255Z"/></svg>