<svg width="480px" height="360px" xmlns="http://www.w3.org/2000/svg"><rect x="216" y="124" width="80.5" height="80.5" fill-opacity="0"/><path fill="#F00" d="M258.667 148L265.358 148L265.358 168.218Q265.358 173.988 262.085 177.236Q258.812 180.485 252.897 180.485L252.897 180.485Q248.630 180.485 245.964 178.909Q243.297 177.333 242.279 174.545Q241.261 171.758 241.891 168.121L241.891 168.121L248.388 166.958Q247.806 171.224 248.921 173.115Q250.036 175.006 253.042 175.006L253.042 175.006Q256.194 175.006 257.430 173.091Q258.667 171.176 258.667 167.297L258.667 167.297L258.667 148Z"/></svg>