<svg width="480px" height="360px" xmlns="http://www.w3.org/2000/svg"><rect x="216" y="124" width="80.5" height="80.5" fill-opacity="0"/><path fill="#F00" d="M253.236 147.515L253.236 147.515Q256.339 147.515 258.739 148.509Q261.139 149.503 262.497 151.345Q263.855 153.188 263.855 155.758L263.855 155.758Q263.855 158.570 262.618 160.485Q261.382 162.400 259.321 163.418Q257.261 164.436 254.739 164.727L254.739 164.727L254.739 169.915L250.715 169.915L250.715 162.642Q255.564 161.915 257.673 160.461Q259.782 159.006 259.782 156.242L259.782 156.242Q259.782 153.964 258.085 152.558Q256.388 151.152 252.945 151.152L252.945 151.152Q249.745 151.152 247.733 152.921Q245.721 154.691 245.333 157.745L245.333 157.745L241.891 155.758Q242.715 152.024 245.697 149.770Q248.679 147.515 253.236 147.515ZM252.655 174.182L252.655 174.182Q254.061 174.182 254.933 175.055Q255.806 175.927 255.806 177.333L255.806 177.333Q255.806 178.739 254.933 179.612Q254.061 180.485 252.655 180.485L252.655 180.485Q251.248 180.485 250.376 179.612Q249.503 178.739 249.503 177.333L249.503 177.333Q249.503 175.927 250.376 175.055Q251.248 174.182 252.655 174.182Z"/></svg>