<svg width="480px" height="360px" xmlns="http://www.w3.org/2000/svg"><rect x="216" y="124" width="80.5" height="80.5" fill-opacity="0"/><path fill="#F00" d="M242.088 168.220L242.088 167.912Q242.088 162.440 244.681 159.110Q247.275 155.780 251.473 155.780L251.473 155.780Q255.648 155.780 258.088 158.637L258.088 158.637L258.088 146.242L262.154 146.242L262.154 180L258.418 180L258.220 177.451Q255.780 180.440 251.429 180.440L251.429 180.440Q247.297 180.440 244.692 177.055Q242.088 173.670 242.088 168.220L242.088 168.220ZM246.154 168.374L246.154 168.374Q246.154 172.418 247.824 174.703Q249.495 176.989 252.440 176.989L252.440 176.989Q256.308 176.989 258.088 173.516L258.088 173.516L258.088 162.593Q256.264 159.231 252.484 159.231L252.484 159.231Q249.495 159.231 247.824 161.538Q246.154 163.846 246.154 168.374Z"/></svg>