<svg width="480px" height="360px" xmlns="http://www.w3.org/2000/svg"><rect x="216" y="124" width="80.5" height="80.5" fill-opacity="0"/><path fill="#F00" d="M257.794 184.848L254.255 184.848L254.255 170.739Q250.570 170.739 247.806 169.309Q245.042 167.879 243.515 165.309Q241.988 162.739 241.988 159.394L241.988 159.394Q241.988 155.952 243.636 153.382Q245.285 150.812 248.291 149.406Q251.297 148 255.273 148L255.273 148L267.442 148L267.442 184.848L264.048 184.848L264.048 151.248L257.794 151.248L257.794 184.848ZM254.255 167.491L254.255 167.491L254.255 151.248Q250.133 151.248 247.903 153.455Q245.673 155.661 245.673 159.394L245.673 159.394Q245.673 163.176 247.903 165.333Q250.133 167.491 254.255 167.491Z"/></svg>