<svg width="480px" height="360px" xmlns="http://www.w3.org/2000/svg"><rect x="216" y="124" width="80.5" height="80.5" fill-opacity="0"/><path fill="#F00" d="M263.467 189.455L263.467 189.455Q257.406 189.455 252.824 186.933Q248.242 184.412 245.721 179.830Q243.200 175.248 243.200 169.188L243.200 169.188Q243.200 164.485 244.776 160.606Q246.352 156.727 249.212 153.891Q252.073 151.055 255.952 149.527Q259.830 148 264.485 148L264.485 148Q269.042 148 272.582 149.479Q276.121 150.958 278.570 153.576Q281.018 156.194 282.279 159.588Q283.539 162.982 283.539 166.764L283.539 166.764Q283.539 170.982 282.133 174.036Q280.727 177.091 278.497 178.739Q276.267 180.388 273.697 180.388L273.697 180.388Q271.079 180.388 269.842 179.030Q268.606 177.673 268.800 175.588L268.800 175.588Q267.733 177.624 265.600 178.836Q263.467 180.048 261.188 180.048L261.188 180.048Q258.667 180.048 256.752 178.836Q254.836 177.624 253.770 175.467Q252.703 173.309 252.703 170.497L252.703 170.497Q252.703 166.861 254.133 163.927Q255.564 160.994 258.061 159.273Q260.558 157.552 263.758 157.552L263.758 157.552Q266.618 157.552 268.533 159.006Q270.448 160.461 271.079 162.885L271.079 162.885L272.242 157.988L275.685 157.988L272 173.794Q271.903 174.279 271.830 174.691Q271.758 175.103 271.758 175.491L271.758 175.491Q271.758 176.848 272.461 177.261Q273.164 177.673 274.036 177.673L274.036 177.673Q275.782 177.673 277.285 176.461Q278.788 175.248 279.733 172.800Q280.679 170.352 280.679 166.764L280.679 166.764Q280.679 162.206 278.715 158.618Q276.752 155.030 273.139 152.945Q269.527 150.861 264.630 150.861L264.630 150.861Q259.297 150.861 255.176 153.115Q251.055 155.370 248.752 159.491Q246.448 163.612 246.448 169.188L246.448 169.188Q246.448 174.618 248.703 178.497Q250.958 182.376 254.812 184.485Q258.667 186.594 263.467 186.594L263.467 186.594Q267.588 186.594 269.964 185.552Q272.339 184.509 273.939 183.297L273.939 183.297L275.636 185.673Q274.327 186.691 272.703 187.539Q271.079 188.388 268.848 188.921Q266.618 189.455 263.467 189.455ZM262.303 177.091L262.303 177.091Q264.339 177.091 266.036 175.758Q267.733 174.424 268.727 172.121Q269.721 169.818 269.721 166.958L269.721 166.958Q269.721 164.048 268.145 162.303Q266.570 160.558 264 160.558L264 160.558Q261.721 160.558 259.927 161.867Q258.133 163.176 257.139 165.406Q256.145 167.636 256.145 170.448L256.145 170.448Q256.145 173.648 257.745 175.370Q259.345 177.091 262.303 177.091Z"/></svg>