<svg width="480px" height="360px" xmlns="http://www.w3.org/2000/svg"><rect x="216" y="124" width="80.5" height="80.5" fill-opacity="0"/><path fill="#F00" d="M253.188 180.485L253.188 180.485Q249.503 180.485 246.473 179.176Q243.442 177.867 241.552 175.491L241.552 175.491L245.382 171.612Q246.545 173.358 248.485 174.473Q250.424 175.588 253.091 175.588L253.091 175.588Q254.982 175.588 256.121 175.030Q257.261 174.473 257.261 173.261L257.261 173.261Q257.261 172.485 256.727 171.927Q256.194 171.370 254.594 171.030L254.594 171.030L250.327 170.158Q246.109 169.285 244.339 167.515Q242.570 165.745 242.570 162.933L242.570 162.933Q242.570 160.945 243.758 159.200Q244.945 157.455 247.321 156.364Q249.697 155.273 253.236 155.273L253.236 155.273Q260.606 155.273 263.806 159.782L263.806 159.782L259.830 163.661Q258.764 161.964 257.042 161.067Q255.321 160.170 253.430 160.170L253.430 160.170Q249.164 160.170 249.164 162.545L249.164 162.545Q249.164 163.321 249.842 163.879Q250.521 164.436 252.315 164.824L252.315 164.824L257.261 165.842Q260.848 166.570 262.400 168.291Q263.952 170.012 263.952 172.436L263.952 172.436Q263.952 175.927 261.164 178.206Q258.376 180.485 253.188 180.485Z"/></svg>