<svg width="480px" height="360px" xmlns="http://www.w3.org/2000/svg"><rect x="216" y="124" width="80.5" height="80.5" fill-opacity="0"/><path fill="#F00" d="M252.800 180L246.255 180L246.255 173.939L241.891 173.939L241.891 170.255L246.255 170.255L246.255 167.248L241.891 167.248L241.891 163.224L246.255 163.224L246.255 148L258.958 148Q264.533 148 267.636 150.594Q270.739 153.188 270.739 157.600L270.739 157.600Q270.739 162.206 267.636 164.727Q264.533 167.248 258.958 167.248L258.958 167.248L252.800 167.248L252.800 170.255L261.527 170.255L261.527 173.939L252.800 173.939L252.800 180ZM252.800 153.236L252.800 163.224L257.891 163.224Q261.042 163.224 262.497 161.988Q263.952 160.752 263.952 158.230L263.952 158.230Q263.952 155.758 262.497 154.497Q261.042 153.236 257.891 153.236L257.891 153.236L252.800 153.236Z"/></svg>