<svg width="480px" height="360px" xmlns="http://www.w3.org/2000/svg"><rect x="216" y="124" width="80.5" height="80.5" fill-opacity="0"/><path fill="#F00" d="M257.891 184.461L253.382 184.461L253.382 179.855Q249.406 179.467 246.327 177.867Q243.248 176.267 241.406 173.891L241.406 173.891L245.091 169.527Q246.352 171.515 248.558 172.848Q250.764 174.182 253.382 174.667L253.382 174.667L253.382 166.424L251.394 165.988Q247.273 165.018 245.042 162.982Q242.812 160.945 242.812 157.745L242.812 157.745Q242.812 154.012 245.600 151.321Q248.388 148.630 253.382 148.097L253.382 148.097L253.382 143.539L257.891 143.539L257.891 148.097Q264.533 148.776 268.461 153.721L268.461 153.721L264.921 157.745Q262.012 154.012 257.891 153.236L257.891 153.236L257.891 161.576L259.782 162.012Q264.339 163.030 266.352 164.994Q268.364 166.958 268.364 170.206L268.364 170.206Q268.364 174.376 265.479 176.873Q262.594 179.370 257.891 179.855L257.891 179.855L257.891 184.461ZM248.970 156.873L248.970 156.873Q248.970 158.133 249.842 159.030Q250.715 159.927 253.382 160.558L253.382 160.558L253.382 153.091Q251.103 153.382 250.036 154.424Q248.970 155.467 248.970 156.873ZM258.182 167.539L258.182 167.539L257.891 167.491L257.891 174.764Q260.024 174.521 261.212 173.576Q262.400 172.630 262.400 171.030L262.400 171.030Q262.400 169.818 261.479 168.945Q260.558 168.073 258.182 167.539Z"/></svg>