<svg width="480px" height="360px" xmlns="http://www.w3.org/2000/svg"><rect x="216" y="124" width="80.5" height="80.5" fill-opacity="0"/><path fill="#F00" d="M265.891 189.455L265.891 189.455Q263.564 189.455 261.455 188.630Q259.345 187.806 257.939 185.818Q256.533 183.830 256.339 180.388L256.339 180.388Q252.315 180 249.382 177.891Q246.448 175.782 244.873 172.242Q243.297 168.703 243.297 164L243.297 164Q243.297 158.909 245.115 155.224Q246.933 151.539 250.255 149.527Q253.576 147.515 258.133 147.515L258.133 147.515Q262.691 147.515 266.012 149.527Q269.333 151.539 271.152 155.224Q272.970 158.909 272.970 164L272.970 164Q272.970 168.752 271.370 172.315Q269.770 175.879 266.812 177.964Q263.855 180.048 259.782 180.388L259.782 180.388Q260.024 182.570 260.897 183.685Q261.770 184.800 263.103 185.164Q264.436 185.527 265.988 185.527L265.988 185.527Q269.770 185.527 271.709 183.733L271.709 183.733L272.970 187.321Q271.806 188.339 269.745 188.897Q267.685 189.455 265.891 189.455ZM258.133 151.152L258.133 151.152Q253.139 151.152 250.255 154.545Q247.370 157.939 247.370 164L247.370 164Q247.370 170.012 250.255 173.430Q253.139 176.848 258.133 176.848L258.133 176.848Q263.127 176.848 266.012 173.430Q268.897 170.012 268.897 164L268.897 164Q268.897 157.939 266.012 154.545Q263.127 151.152 258.133 151.152Z"/></svg>