<svg width="480px" height="360px" xmlns="http://www.w3.org/2000/svg"><rect x="216" y="124" width="80.5" height="80.5" fill-opacity="0"/><path fill="#F00" d="M250.376 180.388L250.376 180.388Q246.982 180.388 244.727 178.788Q242.473 177.188 241.770 174.448Q241.067 171.709 242.230 168.364L242.230 168.364L245.915 168.121Q244.655 171.903 245.842 174.400Q247.030 176.897 250.715 176.897L250.715 176.897Q253.867 176.897 255.418 175.079Q256.970 173.261 257.891 168.994L257.891 168.994L262.739 148L266.667 148L261.576 169.964Q260.897 172.921 259.588 175.297Q258.279 177.673 256.073 179.030Q253.867 180.388 250.376 180.388Z"/></svg>