<svg width="480px" height="360px" xmlns="http://www.w3.org/2000/svg"><rect x="216" y="124" width="80.5" height="80.5" fill-opacity="0"/><path fill="#F00" d="M242.308 155.692L242.308 154.154Q242.308 151.275 244.143 149.407Q245.978 147.538 248.857 147.538L248.857 147.538Q251.780 147.538 253.593 149.418Q255.407 151.297 255.407 154.286L255.407 154.286L255.407 155.846Q255.407 158.747 253.571 160.582Q251.736 162.418 248.901 162.418L248.901 162.418Q246.044 162.418 244.176 160.582Q242.308 158.747 242.308 155.692L242.308 155.692ZM245.341 154.242L245.341 155.846Q245.341 157.560 246.308 158.670Q247.275 159.780 248.901 159.780L248.901 159.780Q250.462 159.780 251.418 158.703Q252.374 157.626 252.374 155.758L252.374 155.758L252.374 154.154Q252.374 152.440 251.429 151.319Q250.484 150.198 248.857 150.198Q247.231 150.198 246.286 151.319Q245.341 152.440 245.341 154.242L245.341 154.242ZM257.890 173.736L257.890 172.154Q257.890 169.275 259.725 167.418Q261.560 165.560 264.440 165.560Q267.319 165.560 269.165 167.407Q271.011 169.253 271.011 172.308L271.011 172.308L271.011 173.868Q271.011 176.747 269.176 178.604Q267.341 180.462 264.484 180.462Q261.626 180.462 259.758 178.626Q257.890 176.791 257.890 173.736L257.890 173.736ZM260.923 172.242L260.923 173.868Q260.923 175.604 261.890 176.714Q262.857 177.824 264.484 177.824L264.484 177.824Q266.066 177.824 267.011 176.736Q267.956 175.648 267.956 173.780L267.956 173.780L267.956 172.154Q267.956 170.418 267 169.319Q266.044 168.220 264.440 168.220L264.440 168.220Q262.879 168.220 261.901 169.308Q260.923 170.396 260.923 172.242L260.923 172.242ZM265.451 152.571L249.824 177.582L247.516 176.132L263.143 151.121L265.451 152.571Z"/></svg>