<svg width="480px" height="360px" xmlns="http://www.w3.org/2000/svg"><rect x="216" y="124" width="80.5" height="80.5" fill-opacity="0"/><path fill="#F00" d="M252.218 180.533L252.218 180.533Q248 180.533 245.091 178.594Q242.182 176.655 240.921 173.406L240.921 173.406L244.606 171.806Q246.448 177.139 252.412 177.139L252.412 177.139Q254.982 177.139 256.315 176Q257.648 174.861 257.648 173.212L257.648 173.212Q257.648 171.952 256.921 171.224Q256.194 170.497 254.642 170.061L254.642 170.061L250.327 168.848Q247.321 168.024 245.818 166.352Q244.315 164.679 244.315 162.497L244.315 162.497Q244.315 160.461 245.430 158.836Q246.545 157.212 248.630 156.242Q250.715 155.273 253.576 155.273L253.576 155.273Q257.018 155.273 259.636 156.824Q262.255 158.376 263.370 161.333L263.370 161.333L259.830 163.030Q259.152 160.994 257.455 159.806Q255.758 158.618 253.333 158.618L253.333 158.618Q250.667 158.618 249.382 159.588Q248.097 160.558 248.097 162.158L248.097 162.158Q248.097 163.515 249.042 164.315Q249.988 165.115 251.394 165.503L251.394 165.503L256.145 166.861Q258.618 167.539 260.048 169.091Q261.479 170.642 261.479 172.679L261.479 172.679Q261.479 175.103 260.267 176.873Q259.055 178.642 256.970 179.588Q254.885 180.533 252.218 180.533Z"/></svg>