<svg width="480px" height="360px" xmlns="http://www.w3.org/2000/svg"><rect x="216" y="124" width="80.5" height="80.5" fill-opacity="0"/><path fill="#F00" d="M263.165 168L263.165 168.374Q263.165 173.802 260.681 177.121Q258.198 180.440 253.956 180.440L253.956 180.440Q249.626 180.440 247.143 177.692L247.143 177.692L247.143 189.143L243.077 189.143L243.077 156.220L246.791 156.220L246.989 158.857Q249.473 155.780 253.890 155.780L253.890 155.780Q258.176 155.780 260.670 159.011Q263.165 162.242 263.165 168L263.165 168ZM259.099 167.912L259.099 167.912Q259.099 163.890 257.385 161.560Q255.670 159.231 252.681 159.231L252.681 159.231Q248.989 159.231 247.143 162.505L247.143 162.505L247.143 173.868Q248.967 177.121 252.725 177.121L252.725 177.121Q255.648 177.121 257.374 174.802Q259.099 172.484 259.099 167.912Z"/></svg>