<svg width="480px" height="360px" xmlns="http://www.w3.org/2000/svg"><rect x="216" y="124" width="80.5" height="80.5" fill-opacity="0"/><path fill="#F00" d="M256.242 147.515L256.242 147.515Q260.073 147.515 262.861 149.115Q265.648 150.715 267.006 154.497L267.006 154.497L261.382 157.115Q260.800 155.224 259.467 154.133Q258.133 153.042 255.806 153.042L255.806 153.042Q252.509 153.042 250.642 156.073Q248.776 159.103 248.776 163.952L248.776 163.952L248.776 164.776L248.921 164.970Q249.455 163.273 250.764 162.158Q252.073 161.042 253.770 160.509Q255.467 159.976 257.115 159.976L257.115 159.976Q260.170 159.976 262.521 161.164Q264.873 162.352 266.206 164.582Q267.539 166.812 267.539 169.915L267.539 169.915Q267.539 173.164 266.109 175.539Q264.679 177.915 262.061 179.200Q259.442 180.485 255.903 180.485L255.903 180.485Q251.830 180.485 248.848 178.545Q245.867 176.606 244.242 172.970Q242.618 169.333 242.618 164.194L242.618 164.194Q242.618 158.618 244.412 154.909Q246.206 151.200 249.309 149.358Q252.412 147.515 256.242 147.515ZM255.806 164.873L255.806 164.873Q253.430 164.873 251.879 166.279Q250.327 167.685 250.327 169.964L250.327 169.964Q250.327 172.194 251.927 173.673Q253.527 175.152 255.806 175.152L255.806 175.152Q258.424 175.152 259.830 173.794Q261.236 172.436 261.236 169.964L261.236 169.964Q261.236 167.588 259.830 166.230Q258.424 164.873 255.806 164.873Z"/></svg>