<svg width="480px" height="360px" xmlns="http://www.w3.org/2000/svg"><rect x="216" y="124" width="80.5" height="80.5" fill-opacity="0"/><path fill="#F00" d="M253.770 185.333L253.770 185.333Q249.503 185.333 246.836 183.903Q244.170 182.473 242.812 180.388L242.812 180.388L245.818 177.915Q246.836 179.758 248.800 180.921Q250.764 182.085 254.012 182.085L254.012 182.085Q257.261 182.085 259.055 180.873Q260.848 179.661 260.848 177.576L260.848 177.576Q260.848 176.364 260.024 175.491Q259.200 174.618 257.358 174.279L257.358 174.279L249.164 172.679Q245.188 171.903 243.345 170.133Q241.503 168.364 241.503 165.697L241.503 165.697Q241.503 163.612 242.861 162.085Q244.218 160.558 246.545 159.976L246.545 159.976Q245.527 159.055 245.091 157.867Q244.655 156.679 244.655 155.321L244.655 155.321Q244.655 153.042 245.939 151.273Q247.224 149.503 249.552 148.509Q251.879 147.515 254.982 147.515L254.982 147.515Q258.376 147.515 260.994 148.727Q263.612 149.939 265.261 152.315L265.261 152.315L262.255 154.642Q260.897 152.606 259.079 151.733Q257.261 150.861 254.836 150.861L254.836 150.861Q251.733 150.861 250.012 152.024Q248.291 153.188 248.291 155.030L248.291 155.030Q248.291 156.436 249.091 157.455Q249.891 158.473 252.558 158.909L252.558 158.909L259.394 160.073Q262.594 160.606 264.364 161.576Q266.133 162.545 266.836 163.855Q267.539 165.164 267.539 166.812L267.539 166.812Q267.539 168.752 266.400 170.448Q265.261 172.145 262.691 172.873L262.691 172.873Q263.612 173.745 264.024 174.885Q264.436 176.024 264.436 177.285L264.436 177.285Q264.436 179.564 263.152 181.406Q261.867 183.248 259.467 184.291Q257.067 185.333 253.770 185.333ZM250.279 169.333L257.891 170.691Q259.394 170.933 260.558 171.467L260.558 171.467Q263.855 170.545 263.855 167.733L263.855 167.733Q263.855 166.327 262.885 165.188Q261.915 164.048 258.812 163.515L258.812 163.515L251.830 162.303Q249.891 161.964 248.485 161.285L248.485 161.285Q246.933 161.818 246.036 162.739Q245.139 163.661 245.139 165.018L245.139 165.018Q245.139 166.424 246.279 167.612Q247.418 168.800 250.279 169.333L250.279 169.333Z"/></svg>