<svg width="480px" height="360px" xmlns="http://www.w3.org/2000/svg"><rect x="216" y="124" width="80.5" height="80.5" fill-opacity="0"/><path fill="#F00" d="M258.813 171.758L258.813 171.758Q258.813 169.736 257.396 168.352Q255.978 166.967 252.615 165.846L252.615 165.846Q247.934 164.418 245.791 162.121Q243.648 159.824 243.648 156.286L243.648 156.286Q243.648 152.681 245.747 150.374Q247.846 148.066 251.516 147.626L251.516 147.626L251.516 142.813L254.791 142.813L254.791 147.648Q258.484 148.154 260.538 150.747Q262.593 153.341 262.593 157.846L262.593 157.846L258.549 157.846Q258.549 154.747 257.077 152.923Q255.604 151.099 253.099 151.099L253.099 151.099Q250.484 151.099 249.099 152.451Q247.714 153.802 247.714 156.220L247.714 156.220Q247.714 158.462 249.176 159.791Q250.637 161.121 253.989 162.209Q257.341 163.297 259.220 164.604Q261.099 165.912 261.989 167.648Q262.879 169.385 262.879 171.714L262.879 171.714Q262.879 175.429 260.648 177.692Q258.418 179.956 254.396 180.374L254.396 180.374L254.396 184.571L251.143 184.571L251.143 180.374Q247.055 180 244.736 177.462Q242.418 174.923 242.418 170.571L242.418 170.571L246.484 170.571Q246.484 173.626 248.088 175.275Q249.692 176.923 252.637 176.923L252.637 176.923Q255.516 176.923 257.165 175.538Q258.813 174.154 258.813 171.758Z"/></svg>