<svg width="480px" height="360px" xmlns="http://www.w3.org/2000/svg"><rect x="216" y="124" width="80.5" height="80.5" fill-opacity="0"/><path fill="#F00" d="M262.933 189.164L262.933 189.164Q256.921 189.164 252.291 186.739Q247.661 184.315 245.042 179.806Q242.424 175.297 242.424 168.994L242.424 168.994Q242.424 164.339 244.024 160.461Q245.624 156.582 248.533 153.745Q251.442 150.909 255.370 149.382Q259.297 147.855 263.952 147.855L263.952 147.855Q269.818 147.855 274.133 150.279Q278.448 152.703 280.800 156.921Q283.152 161.139 283.152 166.521L283.152 166.521Q283.152 171.273 281.576 174.327Q280 177.382 277.624 178.861Q275.248 180.339 272.776 180.339L272.776 180.339Q269.673 180.339 268.121 178.788Q266.570 177.236 266.764 174.764L266.764 174.764Q265.697 177.091 263.612 178.424Q261.527 179.758 259.200 179.758L259.200 179.758Q255.758 179.758 253.576 177.236Q251.394 174.715 251.394 170.448L251.394 170.448Q251.394 167.055 252.727 164.097Q254.061 161.139 256.461 159.297Q258.861 157.455 262.109 157.455L262.109 157.455Q264.485 157.455 266.327 158.739Q268.170 160.024 268.703 162.545L268.703 162.545L269.818 157.891L275.588 157.891L272.194 172.485Q272.097 173.067 272 173.527Q271.903 173.988 271.903 174.424L271.903 174.424Q271.903 175.782 272.558 176.267Q273.212 176.752 274.182 176.752L274.182 176.752Q276.364 176.752 278.085 174.303Q279.806 171.855 279.806 166.667L279.806 166.667Q279.806 162.012 277.818 158.521Q275.830 155.030 272.291 153.091Q268.752 151.152 264.048 151.152L264.048 151.152Q258.812 151.152 254.812 153.358Q250.812 155.564 248.558 159.564Q246.303 163.564 246.303 168.994L246.303 168.994Q246.303 174.473 248.558 178.230Q250.812 181.988 254.642 183.903Q258.473 185.818 263.127 185.818L263.127 185.818Q266.812 185.818 269.067 184.921Q271.321 184.024 273.018 182.861L273.018 182.861L274.715 185.673Q273.358 186.594 271.758 187.394Q270.158 188.194 268.024 188.679Q265.891 189.164 262.933 189.164ZM261.624 175.345L261.624 175.345Q263.321 175.345 264.606 174.109Q265.891 172.873 266.667 170.909Q267.442 168.945 267.442 166.764L267.442 166.764Q267.442 164.533 266.303 163.248Q265.164 161.964 263.224 161.964L263.224 161.964Q261.382 161.964 260 163.200Q258.618 164.436 257.891 166.327Q257.164 168.218 257.164 170.303L257.164 170.303Q257.164 172.727 258.303 174.036Q259.442 175.345 261.624 175.345Z"/></svg>