<svg width="480px" height="360px" xmlns="http://www.w3.org/2000/svg"><rect x="216" y="124" width="80.5" height="80.5" fill-opacity="0"/><path fill="#F00" d="M254.813 180L243.714 180L243.714 148L254.176 148Q259.385 148 262.011 150.154Q264.637 152.308 264.637 156.527L264.637 156.527Q264.637 158.769 263.363 160.495Q262.088 162.220 259.890 163.165L259.890 163.165Q262.484 163.890 263.989 165.923Q265.495 167.956 265.495 170.769L265.495 170.769Q265.495 175.077 262.703 177.538Q259.912 180 254.813 180L254.813 180ZM254.967 165.033L247.934 165.033L247.934 176.549L254.901 176.549Q257.846 176.549 259.549 175.022Q261.253 173.495 261.253 170.813L261.253 170.813Q261.253 165.033 254.967 165.033L254.967 165.033ZM247.934 151.473L247.934 161.648L254.308 161.648Q257.077 161.648 258.736 160.264Q260.396 158.879 260.396 156.505L260.396 156.505Q260.396 153.868 258.857 152.670Q257.319 151.473 254.176 151.473L254.176 151.473L247.934 151.473Z"/></svg>