<svg version="1.1" xmlns="http://www.w3.org/2000/svg" xmlns:xlink="http://www.w3.org/1999/xlink" width="102.83806" height="27.91019" viewBox="0,0,102.83806,27.91019"><g transform="translate(-188.58097,-166.0449)"><g data-paper-data="{&quot;isPaintingLayer&quot;:true}" fill-rule="nonzero" stroke-miterlimit="10" stroke-dasharray="" stroke-dashoffset="0" style="mix-blend-mode: normal"><path d="M195.58097,186.9551v-13.91019h88.83806v13.91019z" data-paper-data="{&quot;zoomLevel&quot;:1.5487}" fill="none" stroke="#4a752c" stroke-width="14" stroke-linecap="butt" stroke-linejoin="round"/><path d="M204.20442,183.25738h4.06889v1.79443h-6.41192v-9.7036h2.34304zM212.64094,185.18896c-1.10485,0 -2.00015,-0.32765 -2.68592,-0.98293c-0.67815,-0.66291 -1.01722,-1.52392 -1.01722,-2.58306v-0.1943c0,-0.73149 0.13334,-1.37916 0.40003,-1.94301c0.27431,-0.56385 0.67434,-0.99817 1.2001,-1.30296c0.52575,-0.3124 1.14676,-0.4686 1.863,-0.4686c1.01341,0 1.81348,0.31621 2.40019,0.94865c0.58671,0.62481 0.88007,1.49726 0.88007,2.61735v0.86864h-4.45749c0.0762,0.40384 0.24764,0.72386 0.51433,0.96007c0.27431,0.22859 0.62862,0.34288 1.06294,0.34288c0.70863,0 1.26105,-0.24764 1.65727,-0.74291l1.02865,1.21152c-0.27431,0.3886 -0.67053,0.6972 -1.18866,0.92579c-0.51052,0.22859 -1.06294,0.34288 -1.65727,0.34288zM212.3895,179.43994c-0.65529,0 -1.04389,0.43432 -1.1658,1.30296h2.26303v-0.17144c0.00762,-0.35812 -0.08381,-0.63624 -0.27431,-0.83435c-0.19049,-0.19811 -0.4648,-0.29717 -0.82292,-0.29717zM220.64217,185.05181c-0.0762,-0.14478 -0.14478,-0.36193 -0.20573,-0.65148c-0.41146,0.52575 -0.99056,0.78864 -1.73728,0.78864c-0.67815,0 -1.25724,-0.20573 -1.73728,-0.61719c-0.47241,-0.41146 -0.70863,-0.92959 -0.70863,-1.55441c0,-0.7772 0.28954,-1.36391 0.86864,-1.76014c0.57909,-0.40384 1.41725,-0.60576 2.51448,-0.60576h0.6972v-0.3886c0,-0.65529 -0.28573,-0.98293 -0.85721,-0.98293c-0.53338,0 -0.80006,0.25907 -0.80006,0.7772h-2.2516c0,-0.69339 0.29717,-1.25724 0.8915,-1.69156c0.59433,-0.43432 1.34868,-0.65148 2.26303,-0.65148c0.92198,0 1.64965,0.22478 2.18303,0.67434c0.53338,0.44194 0.80768,1.05532 0.82292,1.84015v3.18882c0.00762,0.66291 0.11048,1.16962 0.3086,1.52012v0.11429zM219.23635,183.58884c0.28193,0 0.51433,-0.06095 0.6972,-0.18287c0.19049,-0.12192 0.32384,-0.25907 0.40003,-0.41146v-1.14295h-0.65148c-0.78482,0 -1.17723,0.35051 -1.17723,1.05151c0,0.20573 0.06858,0.37336 0.20573,0.5029c0.13715,0.12192 0.3124,0.18287 0.52575,0.18287zM223.54216,181.39438c0,-1.14295 0.24764,-2.04206 0.74292,-2.69735c0.49527,-0.65529 1.18485,-0.98293 2.06873,-0.98293c0.64005,0 1.18104,0.25145 1.62298,0.75434v-3.65743h2.25161v10.24079h-2.02301l-0.10286,-0.7772c-0.4648,0.60957 -1.05151,0.91436 -1.76014,0.91436c-0.86102,0 -1.54297,-0.32765 -2.04587,-0.98293c-0.5029,-0.66291 -0.75434,-1.60012 -0.75434,-2.81165zM225.79376,181.53154c0,1.2801 0.37336,1.92015 1.12009,1.92015c0.49527,0 0.84959,-0.20954 1.06294,-0.62862v-2.74307c-0.20573,-0.4267 -0.55624,-0.64005 -1.05151,-0.64005c-0.69339,0 -1.07056,0.56005 -1.13151,1.68013zM234.99019,185.18896c-1.10485,0 -2.00015,-0.32765 -2.68592,-0.98293c-0.67815,-0.66291 -1.01722,-1.52392 -1.01722,-2.58306v-0.1943c0,-0.73149 0.13334,-1.37916 0.40003,-1.94301c0.27431,-0.56385 0.67434,-0.99817 1.2001,-1.30296c0.52575,-0.3124 1.14676,-0.4686 1.863,-0.4686c1.01341,0 1.81348,0.31621 2.40019,0.94865c0.58671,0.62481 0.88007,1.49726 0.88007,2.61735v0.86864h-4.45749c0.0762,0.40384 0.24764,0.72386 0.51433,0.96007c0.27431,0.22859 0.62862,0.34288 1.06294,0.34288c0.70863,0 1.26105,-0.24764 1.65727,-0.74291l1.02865,1.21152c-0.27431,0.3886 -0.67053,0.6972 -1.18866,0.92579c-0.51052,0.22859 -1.06294,0.34288 -1.65727,0.34288zM234.73874,179.43994c-0.65529,0 -1.04389,0.43432 -1.1658,1.30296h2.26303v-0.17144c0.00762,-0.35812 -0.08381,-0.63624 -0.27431,-0.83435c-0.19049,-0.19811 -0.4648,-0.29717 -0.82292,-0.29717zM243.30003,179.87426l-0.74291,-0.05714c-0.70863,0 -1.16199,0.22478 -1.3601,0.67434v4.56036h-2.24017v-7.21198h2.10302l0.06858,0.92579c0.38098,-0.701 0.90673,-1.05151 1.57726,-1.05151c0.24383,0 0.45337,0.02667 0.62862,0.08001zM250.80248,181.50868c0,1.18104 -0.24764,2.09159 -0.74291,2.73164c-0.48766,0.63243 -1.17343,0.94865 -2.0573,0.94865c-0.73149,0 -1.32201,-0.29335 -1.77156,-0.88006l-0.09144,0.74292h-2.01158v-10.24079h2.24017v3.61171c0.41908,-0.47241 0.96007,-0.70863 1.62298,-0.70863c0.8915,0 1.58108,0.32384 2.06873,0.97151c0.49527,0.64005 0.74292,1.54298 0.74292,2.70878zM248.55087,181.37152c0,-0.69339 -0.09525,-1.18866 -0.28573,-1.48583c-0.18287,-0.29717 -0.4648,-0.44575 -0.84578,-0.44575c-0.5029,0 -0.8534,0.1943 -1.05151,0.58291v2.8688c0.19049,0.38098 0.5448,0.57147 1.06294,0.57147c0.53338,0 0.86864,-0.25907 1.00579,-0.7772c0.0762,-0.25145 0.11429,-0.68958 0.11429,-1.31438zM251.50204,181.38295c0,-0.72386 0.14096,-1.36391 0.42289,-1.92015c0.28193,-0.56385 0.68196,-0.99436 1.2001,-1.29152c0.52575,-0.30479 1.14295,-0.45718 1.85157,-0.45718c1.08199,0 1.93158,0.33526 2.54877,1.00579c0.62481,0.66291 0.93722,1.56964 0.93722,2.72021v0.08001c0,1.12771 -0.3124,2.02302 -0.93722,2.68593c-0.62481,0.65529 -1.47059,0.98293 -2.53734,0.98293c-1.02103,0 -1.84395,-0.30859 -2.46876,-0.92578c-0.62481,-0.61719 -0.96007,-1.45154 -1.00579,-2.50305zM253.75364,181.5201c0,0.66291 0.10287,1.15057 0.3086,1.46297c0.21335,0.3124 0.52194,0.46861 0.92579,0.46861c0.80006,0 1.21152,-0.61338 1.23438,-1.84014v-0.22859c0,-1.29534 -0.41527,-1.94301 -1.24581,-1.94301c-0.74672,0 -1.15437,0.55624 -1.22295,1.6687zM263.50821,185.05181c-0.0762,-0.14478 -0.14478,-0.36193 -0.20573,-0.65148c-0.41146,0.52575 -0.99056,0.78864 -1.73728,0.78864c-0.67815,0 -1.25724,-0.20573 -1.73728,-0.61719c-0.47241,-0.41146 -0.70863,-0.92959 -0.70863,-1.55441c0,-0.7772 0.28954,-1.36391 0.86864,-1.76014c0.57909,-0.40384 1.41725,-0.60576 2.51448,-0.60576h0.6972v-0.3886c0,-0.65529 -0.28573,-0.98293 -0.85721,-0.98293c-0.53338,0 -0.80006,0.25907 -0.80006,0.7772h-2.2516c0,-0.69339 0.29717,-1.25724 0.8915,-1.69156c0.59433,-0.43432 1.34868,-0.65148 2.26303,-0.65148c0.92198,0 1.64965,0.22478 2.18303,0.67434c0.53338,0.44194 0.80768,1.05532 0.82292,1.84015v3.18882c0.00762,0.66291 0.11048,1.16962 0.3086,1.52012v0.11429zM262.10239,183.58884c0.28193,0 0.51433,-0.06095 0.6972,-0.18287c0.19049,-0.12192 0.32384,-0.25907 0.40003,-0.41146v-1.14295h-0.65148c-0.78482,0 -1.17723,0.35051 -1.17723,1.05151c0,0.20573 0.06858,0.37336 0.20573,0.5029c0.13715,0.12192 0.3124,0.18287 0.52575,0.18287zM271.05998,179.87426l-0.74291,-0.05714c-0.70863,0 -1.16199,0.22478 -1.3601,0.67434v4.56036h-2.24017v-7.21198h2.10302l0.06858,0.92579c0.38098,-0.701 0.90673,-1.05151 1.57726,-1.05151c0.24383,0 0.45337,0.02667 0.62862,0.08001zM271.45237,181.39438c0,-1.14295 0.24764,-2.04206 0.74292,-2.69735c0.49527,-0.65529 1.18485,-0.98293 2.06873,-0.98293c0.64005,0 1.18104,0.25145 1.62298,0.75434v-3.65743h2.25161v10.24079h-2.02301l-0.10286,-0.7772c-0.4648,0.60957 -1.05151,0.91436 -1.76014,0.91436c-0.86102,0 -1.54297,-0.32765 -2.04587,-0.98293c-0.5029,-0.66291 -0.75434,-1.60012 -0.75434,-2.81165zM273.70398,181.53154c0,1.2801 0.37336,1.92015 1.12009,1.92015c0.49527,0 0.84959,-0.20954 1.06294,-0.62862v-2.74307c-0.20573,-0.4267 -0.55624,-0.64005 -1.05151,-0.64005c-0.69339,0 -1.07056,0.56005 -1.13151,1.68013z" fill="#ffffff" stroke="none" stroke-width="1" stroke-linecap="square" stroke-linejoin="miter"/></g></g></svg>