<svg width="480px" height="360px" xmlns="http://www.w3.org/2000/svg"><rect x="216" y="124" width="80.5" height="80.5" fill-opacity="0"/><path fill="#F00" d="M262 148L266.242 148L266.242 169.758Q266.220 174.286 263.396 177.165Q260.571 180.044 255.736 180.396L255.736 180.396L254.615 180.440Q249.363 180.440 246.242 177.604Q243.121 174.769 243.077 169.802L243.077 169.802L243.077 148L247.253 148L247.253 169.670Q247.253 173.143 249.165 175.066Q251.077 176.989 254.615 176.989L254.615 176.989Q258.198 176.989 260.099 175.077Q262 173.165 262 169.692L262 169.692L262 148Z"/></svg>