<svg width="480px" height="360px" xmlns="http://www.w3.org/2000/svg"><rect x="216" y="124" width="80.5" height="80.5" fill-opacity="0"/><path fill="#F00" d="M258.659 165.385L258.659 168.110L250.220 168.110Q250.308 172.396 252.286 174.703Q254.264 177.011 257.890 177.011L257.890 177.011Q260.440 177.011 262.681 176.264L262.681 176.264L263.121 179.780Q260.484 180.440 257.846 180.440L257.846 180.440Q252.396 180.440 249.264 177.220Q246.132 174 246 168.110L246 168.110L242.088 168.110L242.088 165.385L246 165.385L246 162.374L242.088 162.374L242.088 159.626L246 159.626Q246.220 153.868 249.352 150.714Q252.484 147.560 257.824 147.560L257.824 147.560Q260.154 147.560 263.121 148.242L263.121 148.242L262.681 151.802Q260.286 151.033 257.868 151.033L257.868 151.033Q254.264 151.033 252.319 153.264Q250.374 155.495 250.242 159.626L250.242 159.626L258.659 159.626L258.659 162.374L250.220 162.374L250.220 165.385L258.659 165.385Z"/></svg>