<svg width="480px" height="360px" xmlns="http://www.w3.org/2000/svg"><rect x="216" y="124" width="80.5" height="80.5" fill-opacity="0"/><path fill="#F00" d="M250.861 166.521L244.267 166.521L244.994 163.370L250.182 163.370Q249.891 162.061 249.673 160.752Q249.455 159.442 249.455 158.085L249.455 158.085Q249.455 154.933 250.909 152.558Q252.364 150.182 254.739 148.824Q257.115 147.467 259.879 147.467L259.879 147.467Q262.352 147.467 264.315 148.485Q266.279 149.503 267.515 151.321Q268.752 153.139 268.945 155.564L268.945 155.564L265.406 156.630Q265.164 154.303 263.782 152.630Q262.400 150.958 259.782 150.958L259.782 150.958Q257.648 150.958 256.145 152Q254.642 153.042 253.867 154.691Q253.091 156.339 253.091 158.279L253.091 158.279Q253.091 159.685 253.236 160.921Q253.382 162.158 253.576 163.370L253.576 163.370L262.739 163.370L262.012 166.521L254.061 166.521Q254.109 167.200 254.158 167.903Q254.206 168.606 254.206 169.382L254.206 169.382Q254.206 172.145 253.188 174.667L253.188 174.667Q254.594 175.636 256.097 176.461Q257.600 177.285 259.685 177.285L259.685 177.285Q261.576 177.285 262.570 176.121Q263.564 174.958 264.097 172.339L264.097 172.339L267.200 173.406Q266.424 176.945 264.533 178.715Q262.642 180.485 259.976 180.485L259.976 180.485Q257.067 180.485 255.127 179.467Q253.188 178.448 251.636 177.333L251.636 177.333Q250.570 178.739 249.115 179.588Q247.661 180.436 245.915 180.436L245.915 180.436Q243.927 180.436 242.594 179.321Q241.261 178.206 241.261 176.558L241.261 176.558Q241.261 174.764 242.739 173.455Q244.218 172.145 246.739 172.145L246.739 172.145Q247.903 172.145 248.873 172.412Q249.842 172.679 250.667 173.115L250.667 173.115Q251.152 171.418 251.152 169.576L251.152 169.576Q251.152 168.800 251.079 168.048Q251.006 167.297 250.861 166.521L250.861 166.521ZM244.606 176.412L244.606 176.412Q244.606 177.867 246.400 177.867L246.400 177.867Q247.224 177.867 248.024 177.333Q248.824 176.800 249.455 175.830L249.455 175.830Q248.776 175.442 248.048 175.200Q247.321 174.958 246.497 174.958L246.497 174.958Q244.606 174.958 244.606 176.412Z"/></svg>