<svg width="480px" height="360px" xmlns="http://www.w3.org/2000/svg"><rect x="216" y="124" width="80.5" height="80.5" fill-opacity="0"/><path fill="#F00" d="M242.088 168.198L242.088 167.912Q242.088 162.308 244.659 159.044Q247.231 155.780 251.560 155.780L251.560 155.780Q255.780 155.780 258.220 158.615L258.220 158.615L258.396 156.220L262.132 156.220L262.132 189.143L258.066 189.143L258.066 177.802Q255.604 180.440 251.516 180.440L251.516 180.440Q247.209 180.440 244.648 177.088Q242.088 173.736 242.088 168.198L242.088 168.198ZM246.154 168.374L246.154 168.374Q246.154 172.462 247.879 174.791Q249.604 177.121 252.527 177.121L252.527 177.121Q256.154 177.121 258.066 173.912L258.066 173.912L258.066 162.264Q256.132 159.121 252.571 159.121L252.571 159.121Q249.626 159.121 247.890 161.462Q246.154 163.802 246.154 168.374Z"/></svg>