<svg width="480px" height="360px" xmlns="http://www.w3.org/2000/svg"><rect x="216" y="124" width="80.5" height="80.5" fill-opacity="0"/><path fill="#F00" d="M266.909 190.182L260.267 190.182L260.267 175.879Q259.200 178.061 257.212 179.273Q255.224 180.485 252.655 180.485L252.655 180.485Q249.648 180.485 247.321 178.982Q244.994 177.479 243.636 174.642Q242.279 171.806 242.279 167.830L242.279 167.830Q242.279 163.806 243.661 161.018Q245.042 158.230 247.442 156.752Q249.842 155.273 252.897 155.273L252.897 155.273Q255.564 155.273 257.624 156.655Q259.685 158.036 260.703 160.364L260.703 160.364L260.945 155.758L266.909 155.758L266.909 190.182ZM254.594 175.394L254.594 175.394Q257.164 175.394 258.715 173.358Q260.267 171.321 260.267 167.782L260.267 167.782Q260.267 164.145 258.739 162.255Q257.212 160.364 254.642 160.364L254.642 160.364Q251.976 160.364 250.448 162.279Q248.921 164.194 248.921 167.879L248.921 167.879Q248.921 171.564 250.424 173.479Q251.927 175.394 254.594 175.394Z"/></svg>