<svg width="480px" height="360px" xmlns="http://www.w3.org/2000/svg"><rect x="216" y="124" width="80.5" height="80.5" fill-opacity="0"/><path fill="#F00" d="M252.558 180.485L252.558 180.485Q248.194 180.485 245.624 178.085Q243.055 175.685 242.230 171.855L242.230 171.855L246.303 170.545Q246.545 172.097 247.273 173.552Q248 175.006 249.382 175.927Q250.764 176.848 252.848 176.848L252.848 176.848Q256.388 176.848 258.667 174.836Q260.945 172.824 262.182 169.552Q263.418 166.279 263.758 162.545L263.758 162.545Q263.224 164.291 261.939 165.503Q260.655 166.715 258.982 167.345Q257.309 167.976 255.515 167.976L255.515 167.976Q252.412 167.976 250.182 166.764Q247.952 165.552 246.764 163.442Q245.576 161.333 245.576 158.667L245.576 158.667Q245.576 155.564 246.982 153.042Q248.388 150.521 250.909 149.018Q253.430 147.515 256.776 147.515L256.776 147.515Q260.558 147.515 262.958 149.067Q265.358 150.618 266.473 153.382Q267.588 156.145 267.588 159.830L267.588 159.830Q267.588 163.661 266.691 167.321Q265.794 170.982 263.952 173.964Q262.109 176.945 259.273 178.715Q256.436 180.485 252.558 180.485ZM256.291 164.533L256.291 164.533Q258.570 164.533 260.097 163.539Q261.624 162.545 262.400 160.921Q263.176 159.297 263.176 157.503L263.176 157.503Q263.176 154.448 261.382 152.800Q259.588 151.152 256.630 151.152L256.630 151.152Q253.382 151.152 251.491 153.067Q249.600 154.982 249.600 158.036L249.600 158.036Q249.600 159.733 250.352 161.236Q251.103 162.739 252.606 163.636Q254.109 164.533 256.291 164.533Z"/></svg>