<svg width="480px" height="360px" xmlns="http://www.w3.org/2000/svg"><rect x="216" y="124" width="80.5" height="80.5" fill-opacity="0"/><path fill="#F00" d="M263.709 167.588L269.236 167.588L269.236 171.806L263.030 171.806L261.673 180L256.921 180L258.230 171.806L251.345 171.806L249.988 180L245.236 180L246.545 171.806L241.164 171.806L241.164 167.588L247.224 167.588L248.436 160.364L243.248 160.364L243.248 156.145L249.115 156.145L250.424 148L255.224 148L253.867 156.145L260.800 156.145L262.158 148L266.909 148L265.552 156.145L271.321 156.145L271.321 160.364L264.873 160.364L263.709 167.588ZM253.188 160.364L252.024 167.588L258.958 167.588L260.121 160.364L253.188 160.364Z"/></svg>