<svg width="480px" height="360px" xmlns="http://www.w3.org/2000/svg"><rect x="216" y="124" width="80.5" height="80.5" fill-opacity="0"/><path fill="#F00" d="M258.659 148L260.549 158.462L265.692 158.462L267.626 148L271.868 148L269.648 158.462L272.615 158.462L272.615 161.802L268.923 161.802L268.022 166.066L272.615 166.066L272.615 169.407L267.319 169.407L265.077 180L261.033 180L259.143 169.407L254.110 169.407L252.176 180L248.132 180L245.868 169.407L240.681 169.407L240.681 166.066L245.165 166.066L244.264 161.802L240.681 161.802L240.681 158.462L243.538 158.462L241.319 148L245.538 148L247.538 158.462L252.835 158.462L254.725 148L258.659 148ZM248.176 161.802L248.989 166.066L251.451 166.066L252.220 161.802L248.176 161.802ZM261.143 161.802L261.912 166.066L264.286 166.066L265.077 161.802L261.143 161.802ZM255.516 161.802L254.725 166.066L258.549 166.066L257.802 161.802L255.516 161.802ZM250.176 174.154L250.813 169.626L250.857 169.407L249.648 169.407L249.670 169.538L250.176 174.154ZM263.143 174.022L263.648 169.538L263.670 169.407L262.505 169.407L262.549 169.560L263.143 174.022ZM256.132 158.396L256.110 158.462L257.209 158.462L257.187 158.308L256.659 154.505L256.132 158.396Z"/></svg>