<svg width="480px" height="360px" xmlns="http://www.w3.org/2000/svg"><rect x="216" y="124" width="80.5" height="80.5" fill-opacity="0"/><path fill="#F00" d="M268.330 163.011L268.330 165.033Q268.330 169.736 266.747 173.242Q265.165 176.747 262.264 178.593Q259.363 180.440 255.495 180.440L255.495 180.440Q251.714 180.440 248.791 178.582Q245.868 176.725 244.253 173.286Q242.637 169.846 242.593 165.319L242.593 165.319L242.593 163.011Q242.593 158.396 244.198 154.857Q245.802 151.319 248.736 149.440Q251.670 147.560 255.451 147.560L255.451 147.560Q259.297 147.560 262.231 149.418Q265.165 151.275 266.747 154.802Q268.330 158.330 268.330 163.011L268.330 163.011ZM264.132 165.341L264.132 162.967Q264.132 157.275 261.846 154.231Q259.560 151.187 255.451 151.187L255.451 151.187Q251.451 151.187 249.154 154.231Q246.857 157.275 246.791 162.681L246.791 162.681L246.791 165.033Q246.791 170.549 249.110 173.703Q251.429 176.857 255.495 176.857L255.495 176.857Q259.582 176.857 261.824 173.879Q264.066 170.901 264.132 165.341L264.132 165.341Z"/></svg>