<svg width="480px" height="360px" xmlns="http://www.w3.org/2000/svg"><rect x="216" y="124" width="80.5" height="80.5" fill-opacity="0"/><path fill="#F00" d="M254.497 155.273L254.497 155.273Q259.345 155.273 262.036 157.358Q264.727 159.442 265.600 162.400L265.600 162.400L259.394 164.630Q258.424 160.218 254.594 160.218L254.594 160.218Q251.830 160.218 250.303 162.158Q248.776 164.097 248.776 167.927L248.776 167.927Q248.776 171.806 250.352 173.673Q251.927 175.539 254.642 175.539L254.642 175.539Q258.861 175.539 259.685 171.224L259.685 171.224L265.697 173.164Q264.873 176.412 262.036 178.448Q259.200 180.485 254.691 180.485L254.691 180.485Q250.909 180.485 248.073 178.982Q245.236 177.479 243.685 174.667Q242.133 171.855 242.133 167.879L242.133 167.879Q242.133 163.903 243.709 161.091Q245.285 158.279 248.073 156.776Q250.861 155.273 254.497 155.273Z"/></svg>