<svg width="480px" height="360px" xmlns="http://www.w3.org/2000/svg"><rect x="216" y="124" width="80.5" height="80.5" fill-opacity="0"/><path fill="#F00" d="M248.388 180L244.509 180L244.509 144.606L248.388 144.606L248.388 159.394Q249.648 157.212 251.733 156.242Q253.818 155.273 256.291 155.273L256.291 155.273Q258.909 155.273 261.042 156.267Q263.176 157.261 264.461 159.297Q265.745 161.333 265.745 164.485L265.745 164.485L265.745 180L261.867 180L261.867 165.842Q261.867 161.818 260.145 160.242Q258.424 158.667 255.903 158.667L255.903 158.667Q254.158 158.667 252.412 159.491Q250.667 160.315 249.527 162.182Q248.388 164.048 248.388 167.152L248.388 167.152L248.388 180Z"/></svg>