<svg width="480px" height="360px" xmlns="http://www.w3.org/2000/svg"><rect x="216" y="124" width="80.5" height="80.5" fill-opacity="0"/><path fill="#F00" d="M247.176 172.582L247.176 172.582Q249.455 172.582 250.642 174.206Q251.830 175.830 251.830 178.061L251.830 178.061Q251.830 181.067 250.061 183.636Q248.291 186.206 245.624 187.467L245.624 187.467L242.764 185.188Q244.703 184.412 246.158 183.030Q247.612 181.648 248.145 180.145L248.145 180.145L247.903 180Q247.661 180.194 247.321 180.291Q246.982 180.388 246.352 180.388L246.352 180.388Q245.236 180.388 244.097 179.491Q242.958 178.594 242.958 176.752L242.958 176.752Q242.958 174.812 244.218 173.697Q245.479 172.582 247.176 172.582ZM247.273 155.273L247.273 155.273Q249.212 155.273 250.352 156.339Q251.491 157.406 251.491 159.200L251.491 159.200Q251.491 161.042 250.352 162.085Q249.212 163.127 247.273 163.127L247.273 163.127Q245.285 163.127 244.170 162.085Q243.055 161.042 243.055 159.200L243.055 159.200Q243.055 157.406 244.170 156.339Q245.285 155.273 247.273 155.273Z"/></svg>