<svg width="480px" height="360px" xmlns="http://www.w3.org/2000/svg"><rect x="216" y="124" width="80.5" height="80.5" fill-opacity="0"/><path fill="#F00" d="M255.855 180L242.279 180L249.697 148L261.139 148Q265.164 148 267.370 149.964Q269.576 151.927 269.576 155.224L269.576 155.224Q269.576 158.667 267.709 161.018Q265.842 163.370 262.885 164.097L262.885 164.097L262.885 164.145Q265.164 164.485 266.570 166.206Q267.976 167.927 267.976 170.206L267.976 170.206Q267.976 173.406 266.424 175.588Q264.873 177.770 262.158 178.885Q259.442 180 255.855 180L255.855 180ZM252.752 151.636L250.279 162.206L258.376 162.206Q261.818 162.206 263.685 160.388Q265.552 158.570 265.552 155.758L265.552 155.758Q265.552 153.479 264.024 152.558Q262.497 151.636 260.170 151.636L260.170 151.636L252.752 151.636ZM249.455 165.842L247.030 176.364L255.855 176.364Q259.782 176.364 261.842 174.715Q263.903 173.067 263.903 170.206L263.903 170.206Q263.903 165.842 258.230 165.842L258.230 165.842L249.455 165.842Z"/></svg>