<svg width="480px" height="360px" xmlns="http://www.w3.org/2000/svg"><rect x="216" y="124" width="80.5" height="80.5" fill-opacity="0"/><path fill="#F00" d="M248.857 165.055L252.923 165.055Q252.901 167.385 252.451 168.780Q252 170.176 250.945 171.473Q249.890 172.769 247.868 174.890Q245.846 177.011 245.604 179.187L245.604 179.187L245.560 180Q245.560 182.396 246.835 183.659Q248.110 184.923 250.505 184.923L250.505 184.923Q252.703 184.923 254.077 183.681Q255.451 182.440 255.451 180.440L255.451 180.440L259.516 180.440Q259.473 183.978 257 186.220Q254.527 188.462 250.505 188.462L250.505 188.462Q246.198 188.462 243.846 186.253Q241.495 184.044 241.495 180.110L241.495 180.110Q241.495 176.308 245.011 172.462L245.011 172.462L247.407 169.978Q248.857 168.264 248.857 165.055L248.857 165.055ZM253.099 158.088L253.099 158.088Q253.099 159.077 252.495 159.758Q251.890 160.440 250.703 160.440Q249.516 160.440 248.901 159.758Q248.286 159.077 248.286 158.088L248.286 158.088Q248.286 157.121 248.901 156.462Q249.516 155.802 250.703 155.802Q251.890 155.802 252.495 156.462Q253.099 157.121 253.099 158.088Z"/></svg>