<svg width="480px" height="360px" xmlns="http://www.w3.org/2000/svg"><rect x="216" y="124" width="80.5" height="80.5" fill-opacity="0"/><path fill="#F00" d="M244.170 148L258.279 148Q263.661 148 266.788 150.618Q269.915 153.236 269.915 157.648L269.915 157.648Q269.915 161.188 268.145 163.491Q266.376 165.794 263.176 166.715L263.176 166.715L271.806 180L264.291 180L256.776 167.733L250.764 167.733L250.764 180L244.170 180L244.170 148ZM250.764 162.642L257.503 162.642Q263.079 162.642 263.079 157.988L263.079 157.988Q263.079 153.333 257.503 153.333L257.503 153.333L250.764 153.333L250.764 162.642Z"/></svg>