<svg width="480px" height="360px" xmlns="http://www.w3.org/2000/svg"><rect x="216" y="124" width="80.5" height="80.5" fill-opacity="0"/><path fill="#F00" d="M246.788 180L243.345 180L246.400 171.030L241.309 171.030L241.309 168.073L247.370 168.073L250.133 159.927L244.558 159.927L244.558 156.970L251.103 156.970L254.158 148L257.600 148L254.545 156.970L262.448 156.970L265.503 148L268.945 148L265.891 156.970L271.467 156.970L271.467 159.927L264.921 159.927L262.158 168.073L268.218 168.073L268.218 171.030L261.188 171.030L258.133 180L254.691 180L257.745 171.030L249.842 171.030L246.788 180ZM253.576 159.927L250.812 168.073L258.715 168.073L261.479 159.927L253.576 159.927Z"/></svg>