<svg width="480px" height="360px" xmlns="http://www.w3.org/2000/svg"><rect x="216" y="124" width="80.5" height="80.5" fill-opacity="0"/><path fill="#F00" d="M255.079 180.485L255.079 180.485Q249.648 180.485 246.400 176.267Q243.152 172.048 243.152 164L243.152 164Q243.152 155.952 246.400 151.733Q249.648 147.515 255.079 147.515L255.079 147.515Q260.558 147.515 263.782 151.733Q267.006 155.952 267.006 164L267.006 164Q267.006 172.048 263.782 176.267Q260.558 180.485 255.079 180.485ZM255.079 176.994L255.079 176.994Q258.958 176.994 260.970 173.648Q262.982 170.303 262.982 164L262.982 164Q262.982 157.648 260.970 154.327Q258.958 151.006 255.079 151.006L255.079 151.006Q251.248 151.006 249.212 154.327Q247.176 157.648 247.176 164L247.176 164Q247.176 170.303 249.212 173.648Q251.248 176.994 255.079 176.994Z"/></svg>