<svg width="480px" height="360px" xmlns="http://www.w3.org/2000/svg"><rect x="216" y="124" width="80.5" height="80.5" fill-opacity="0"/><path fill="#F00" d="M243.539 148L250.521 148L250.521 159.636L249.697 169.673L244.364 169.673L243.539 159.636L243.539 148ZM247.030 172.970L247.030 172.970Q248.921 172.970 250.036 173.988Q251.152 175.006 251.152 176.703L251.152 176.703Q251.152 178.448 250.036 179.442Q248.921 180.436 247.030 180.436L247.030 180.436Q245.139 180.436 244.024 179.442Q242.909 178.448 242.909 176.703L242.909 176.703Q242.909 175.006 244.024 173.988Q245.139 172.970 247.030 172.970Z"/></svg>