<svg width="480px" height="360px" xmlns="http://www.w3.org/2000/svg"><rect x="216" y="124" width="80.5" height="80.5" fill-opacity="0"/><path fill="#F00" d="M250.424 175.442L257.891 175.442Q261.818 175.442 263.952 177.139Q266.085 178.836 266.085 181.891L266.085 181.891Q266.085 184.703 264.485 186.594Q262.885 188.485 260 189.455Q257.115 190.424 253.333 190.424L253.333 190.424Q247.079 190.424 244.194 188.679Q241.309 186.933 241.309 184.121L241.309 184.121Q241.309 182.473 242.352 181.236Q243.394 180 245.721 179.515L245.721 179.515Q242.473 178.303 242.473 174.958L242.473 174.958Q242.473 173.309 243.467 172.048Q244.461 170.788 246.206 170.158L246.206 170.158Q242.376 168.024 242.376 163.515L242.376 163.515Q242.376 159.685 245.333 157.479Q248.291 155.273 253.430 155.273L253.430 155.273Q256.339 155.273 258.667 156.048L258.667 156.048Q259.006 153.527 260.703 151.758Q262.400 149.988 265.309 149.988L265.309 149.988Q265.406 149.988 265.552 149.988Q265.697 149.988 265.842 149.988L265.842 149.988L266.618 154.739Q266.230 154.691 265.745 154.691L265.745 154.691Q263.903 154.691 262.788 155.394Q261.673 156.097 261.382 157.406L261.382 157.406Q264.485 159.588 264.485 163.515L264.485 163.515Q264.485 167.297 261.503 169.503Q258.521 171.709 253.430 171.709L253.430 171.709Q251.200 171.709 249.358 171.321L249.358 171.321Q248.242 171.612 247.782 172.170Q247.321 172.727 247.321 173.406L247.321 173.406Q247.321 175.442 250.424 175.442L250.424 175.442ZM253.430 159.442L253.430 159.442Q251.491 159.442 250.230 160.509Q248.970 161.576 248.970 163.467L248.970 163.467Q248.970 165.358 250.230 166.448Q251.491 167.539 253.430 167.539L253.430 167.539Q255.321 167.539 256.582 166.448Q257.842 165.358 257.842 163.467L257.842 163.467Q257.842 161.576 256.582 160.509Q255.321 159.442 253.430 159.442ZM253.382 185.867L253.382 185.867Q257.115 185.867 258.933 184.970Q260.752 184.073 260.752 182.812L260.752 182.812Q260.752 181.891 260.024 181.333Q259.297 180.776 257.406 180.776L257.406 180.776L249.212 180.776Q248.048 180.776 247.297 181.382Q246.545 181.988 246.545 182.958L246.545 182.958Q246.545 184.315 248.364 185.091Q250.182 185.867 253.382 185.867Z"/></svg>