<svg width="480px" height="360px" xmlns="http://www.w3.org/2000/svg"><rect x="216" y="124" width="80.5" height="80.5" fill-opacity="0"/><path fill="#F00" d="M249.018 189.164L248.970 189.164Q245.188 189.164 243.612 187.491Q242.036 185.818 242.667 183.152L242.667 183.152L244.994 173.115Q245.624 170.400 244.679 169.236Q243.733 168.073 241.503 168.073L241.503 168.073L241.212 168.073L241.988 164.679L242.715 164.679Q244.800 164.679 246.085 163.806Q247.370 162.933 247.903 160.558L247.903 160.558L250.521 149.115Q251.103 146.594 252.994 145.091Q254.885 143.588 258.424 143.588L258.424 143.588L259.539 143.588L258.861 146.594L258.812 146.594Q256.291 146.594 255.321 147.345Q254.352 148.097 253.964 149.794L253.964 149.794L251.394 160.897Q250.909 163.224 249.333 164.800Q247.758 166.376 245.479 166.764L245.479 166.764Q247.564 167.248 248.388 168.824Q249.212 170.400 248.679 172.776L248.679 172.776L246.303 183.055Q245.576 186.255 249.648 186.303L249.648 186.303L249.697 186.303L249.018 189.164Z"/></svg>