<svg width="480px" height="360px" xmlns="http://www.w3.org/2000/svg"><rect x="216" y="124" width="80.5" height="80.5" fill-opacity="0"/><path fill="#F00" d="M266.230 180L243.152 180L243.152 175.442Q248.970 171.564 252.461 168.582Q255.952 165.600 257.479 163.079Q259.006 160.558 259.006 158.085L259.006 158.085Q259.006 155.855 257.648 154.424Q256.291 152.994 253.818 152.994L253.818 152.994Q251.103 152.994 249.576 154.836Q248.048 156.679 247.903 160.073L247.903 160.073L242.133 157.891Q242.424 152.994 245.697 150.255Q248.970 147.515 254.206 147.515L254.206 147.515Q258.085 147.515 260.630 148.945Q263.176 150.376 264.461 152.703Q265.745 155.030 265.745 157.697L265.745 157.697Q265.745 162.303 262.279 166.303Q258.812 170.303 251.539 174.764L251.539 174.764L251.539 174.812Q252.606 174.764 254.376 174.691Q256.145 174.618 257.406 174.618L257.406 174.618L266.230 174.618L266.230 180Z"/></svg>