<svg width="480px" height="360px" xmlns="http://www.w3.org/2000/svg"><rect x="216" y="124" width="80.5" height="80.5" fill-opacity="0"/><path fill="#F00" d="M248.436 159.055L248.436 159.055Q247.030 159.055 246.109 158.036Q245.188 157.018 245.188 155.418L245.188 155.418Q245.188 153.285 246.303 151.297Q247.418 149.309 249.285 147.879Q251.152 146.448 253.382 146.061L253.382 146.061L254.400 148.388Q252.509 148.533 251.224 149.333Q249.939 150.133 249.212 151.127Q248.485 152.121 248.194 152.945L248.194 152.945L248.291 153.042Q248.388 152.994 248.703 152.921Q249.018 152.848 249.358 152.848L249.358 152.848Q250.618 152.848 251.224 153.624Q251.830 154.400 251.830 155.418L251.830 155.418Q251.830 156.970 250.885 158.012Q249.939 159.055 248.436 159.055ZM257.358 159.055L257.358 159.055Q255.952 159.055 255.030 158.036Q254.109 157.018 254.109 155.418L254.109 155.418Q254.109 153.285 255.224 151.297Q256.339 149.309 258.206 147.879Q260.073 146.448 262.303 146.061L262.303 146.061L263.321 148.388Q261.430 148.533 260.145 149.333Q258.861 150.133 258.133 151.127Q257.406 152.121 257.115 152.945L257.115 152.945L257.212 153.042Q257.309 152.994 257.624 152.921Q257.939 152.848 258.279 152.848L258.279 152.848Q259.539 152.848 260.145 153.624Q260.752 154.400 260.752 155.418L260.752 155.418Q260.752 156.970 259.806 158.012Q258.861 159.055 257.358 159.055Z"/></svg>