<svg width="480px" height="360px" xmlns="http://www.w3.org/2000/svg"><rect x="216" y="124" width="80.5" height="80.5" fill-opacity="0"/><path fill="#F00" d="M252.879 177.121L252.879 177.121Q255.077 177.121 256.703 175.791Q258.330 174.462 258.505 172.505L258.505 172.505L262.352 172.505Q262.220 175.275 260.044 177.484Q257.868 179.692 254.703 180.264L254.703 180.264L254.703 185.385L250.637 185.385L250.637 180.242Q246.703 179.495 244.505 176.374Q242.308 173.253 242.308 168.418L242.308 168.418L242.308 167.648Q242.308 162.989 244.527 159.857Q246.747 156.725 250.637 156L250.637 156L250.637 151.033L254.703 151.033L254.703 155.934Q258 156.440 260.110 158.769Q262.220 161.099 262.352 164.396L262.352 164.396L258.505 164.396Q258.330 162.088 256.758 160.604Q255.187 159.121 252.879 159.121L252.879 159.121Q249.780 159.121 248.077 161.352Q246.374 163.582 246.374 167.802L246.374 167.802L246.374 168.571Q246.374 172.681 248.077 174.901Q249.780 177.121 252.879 177.121Z"/></svg>