<svg width="480px" height="360px" xmlns="http://www.w3.org/2000/svg"><rect x="216" y="124" width="80.5" height="80.5" fill-opacity="0"/><path fill="#F00" d="M251.394 165.164L251.394 165.164Q248.097 165.164 246.279 163.127Q244.461 161.091 244.461 157.988L244.461 157.988Q244.461 155.224 245.576 152.848Q246.691 150.473 248.679 148.994Q250.667 147.515 253.333 147.515L253.333 147.515Q256.630 147.515 258.448 149.527Q260.267 151.539 260.267 154.691L260.267 154.691Q260.267 157.406 259.152 159.806Q258.036 162.206 256.048 163.685Q254.061 165.164 251.394 165.164ZM250.133 180L245.964 180L274.715 148L278.885 148L250.133 180ZM251.636 162.109L251.636 162.109Q253.333 162.109 254.473 160.994Q255.612 159.879 256.218 158.182Q256.824 156.485 256.824 154.788L256.824 154.788Q256.824 152.897 255.879 151.733Q254.933 150.570 253.091 150.570L253.091 150.570Q251.442 150.570 250.279 151.685Q249.115 152.800 248.509 154.473Q247.903 156.145 247.903 157.891L247.903 157.891Q247.903 159.782 248.848 160.945Q249.794 162.109 251.636 162.109ZM271.515 180.485L271.515 180.485Q268.218 180.485 266.400 178.448Q264.582 176.412 264.582 173.309L264.582 173.309Q264.582 170.545 265.697 168.170Q266.812 165.794 268.800 164.315Q270.788 162.836 273.455 162.836L273.455 162.836Q276.752 162.836 278.570 164.848Q280.388 166.861 280.388 170.012L280.388 170.012Q280.388 172.727 279.273 175.127Q278.158 177.527 276.170 179.006Q274.182 180.485 271.515 180.485ZM271.758 177.430L271.758 177.430Q273.455 177.430 274.594 176.315Q275.733 175.200 276.339 173.503Q276.945 171.806 276.945 170.109L276.945 170.109Q276.945 168.218 276 167.055Q275.055 165.891 273.212 165.891L273.212 165.891Q271.564 165.891 270.400 167.006Q269.236 168.121 268.630 169.794Q268.024 171.467 268.024 173.212L268.024 173.212Q268.024 175.103 268.970 176.267Q269.915 177.430 271.758 177.430Z"/></svg>