<svg width="480px" height="360px" xmlns="http://www.w3.org/2000/svg"><rect x="216" y="124" width="80.5" height="80.5" fill-opacity="0"/><path fill="#F00" d="M246.739 164.145L246.739 164.145Q244.218 164.145 242.764 162.958Q241.309 161.770 241.309 159.830L241.309 159.830Q241.309 157.939 242.497 156.824Q243.685 155.709 246.642 155.176L246.642 155.176L251.733 154.255L251.733 153.576Q251.733 152.073 250.836 151.224Q249.939 150.376 248.485 150.376L248.485 150.376Q246.982 150.376 245.721 151.079Q244.461 151.782 243.685 153.479L243.685 153.479L241.309 152.073Q241.988 150.230 243.782 148.994Q245.576 147.758 248.339 147.758L248.339 147.758Q251.491 147.758 253.261 149.188Q255.030 150.618 255.030 153.479L255.030 153.479L255.030 160.267Q255.030 161.139 255.467 161.455Q255.903 161.770 256.533 161.770L256.533 161.770Q257.309 161.770 257.697 161.576L257.697 161.576L257.455 163.709Q257.067 163.903 256.582 164.024Q256.097 164.145 255.564 164.145L255.564 164.145Q252.606 164.145 252.267 161.333L252.267 161.333Q251.491 162.545 250.036 163.345Q248.582 164.145 246.739 164.145ZM244.703 159.588L244.703 159.588Q244.703 160.509 245.382 161.018Q246.061 161.527 247.273 161.527L247.273 161.527Q248.242 161.527 249.285 161.212Q250.327 160.897 251.030 160.048Q251.733 159.200 251.733 157.697L251.733 157.697L251.733 156.436L247.709 157.261Q245.964 157.600 245.333 158.109Q244.703 158.618 244.703 159.588ZM256.776 170.255L241.261 170.255L241.261 167.685L256.776 167.685L256.776 170.255Z"/></svg>