<svg width="480px" height="360px" xmlns="http://www.w3.org/2000/svg"><rect x="216" y="124" width="80.5" height="80.5" fill-opacity="0"/><path fill="#F00" d="M252.073 155.758L259.830 155.758L259.830 160.703L252.073 160.703L252.073 172.097Q252.073 173.842 252.970 174.642Q253.867 175.442 255.418 175.442L255.418 175.442Q256.679 175.442 257.576 175.079Q258.473 174.715 259.200 174.085L259.200 174.085L260.267 178.497Q259.055 179.418 257.333 179.952Q255.612 180.485 253.673 180.485L253.673 180.485Q250.036 180.485 247.733 178.812Q245.430 177.139 245.430 173.164L245.430 173.164L245.430 160.703L240.970 160.703L240.970 155.758L245.430 155.758L245.430 150.182L252.073 148.339L252.073 155.758Z"/></svg>