<svg width="480px" height="360px" xmlns="http://www.w3.org/2000/svg"><rect x="216" y="124" width="80.5" height="80.5" fill-opacity="0"/><path fill="#F00" d="M240.582 190.424L240.582 190.424Q238.739 190.424 237.406 189.988Q236.073 189.552 235.200 188.776L235.200 188.776L236.752 185.527Q238.400 187.030 240.436 187.030L240.436 187.030Q241.988 187.030 243.176 186.158Q244.364 185.285 245.527 183.442L245.527 183.442L247.806 179.806L243.539 155.758L247.370 155.758L249.600 169.624L250.570 175.685L253.964 170.012L262.545 155.758L266.958 155.758L248.630 184.752Q246.739 187.709 244.727 189.067Q242.715 190.424 240.582 190.424Z"/></svg>