<svg width="480px" height="360px" xmlns="http://www.w3.org/2000/svg"><rect x="216" y="124" width="80.5" height="80.5" fill-opacity="0"/><path fill="#F00" d="M254.352 180.388L254.352 180.388Q251.006 180.388 248.606 178.861Q246.206 177.333 244.921 174.594Q243.636 171.855 243.636 168.170L243.636 168.170Q243.636 166.376 243.830 164.655Q244.024 162.933 244.412 161.285L244.412 161.285Q245.333 157.406 247.224 154.279Q249.115 151.152 251.952 149.333Q254.788 147.515 258.473 147.515L258.473 147.515Q261.624 147.515 263.903 149.042Q266.182 150.570 267.418 153.309Q268.655 156.048 268.655 159.685L268.655 159.685Q268.655 161.430 268.461 163.127Q268.267 164.824 267.879 166.473L267.879 166.473Q267.006 170.352 265.139 173.503Q263.273 176.655 260.558 178.521Q257.842 180.388 254.352 180.388ZM254.691 176.945L254.691 176.945Q257.115 176.945 258.958 175.418Q260.800 173.891 262.061 171.370Q263.321 168.848 263.952 165.988L263.952 165.988Q264.679 162.836 264.679 159.782L264.679 159.782Q264.679 155.127 262.885 153.042Q261.091 150.958 258.085 150.958L258.085 150.958Q255.515 150.958 253.552 152.509Q251.588 154.061 250.279 156.558Q248.970 159.055 248.291 162.012L248.291 162.012Q247.612 165.164 247.612 168.121L247.612 168.121Q247.612 171.321 248.558 173.261Q249.503 175.200 251.127 176.073Q252.752 176.945 254.691 176.945Z"/></svg>