<svg width="480px" height="360px" xmlns="http://www.w3.org/2000/svg"><rect x="216" y="124" width="80.5" height="80.5" fill-opacity="0"/><path fill="#F00" d="M261.867 180L256.824 180L242.570 167.055L243.297 163.806L250.764 163.806Q253.770 163.806 255.782 162.570Q257.794 161.333 258.473 158.958L258.473 158.958L244.315 158.958L244.945 155.903L258.764 155.903Q258.618 153.576 257.042 152.364Q255.467 151.152 253.042 151.103L253.042 151.103L246.012 151.055L246.642 148L269.188 148L268.509 151.152L259.394 151.103Q260.509 151.685 261.285 152.970Q262.061 154.255 262.303 155.903L262.303 155.903L267.491 155.903L266.861 158.958L262.158 158.958Q261.673 161.430 260.048 163.200Q258.424 164.970 256.097 165.915Q253.770 166.861 251.103 166.861L251.103 166.861L247.321 166.861L261.867 180Z"/></svg>