<svg width="480px" height="360px" xmlns="http://www.w3.org/2000/svg"><rect x="216" y="124" width="80.5" height="80.5" fill-opacity="0"/><path fill="#F00" d="M263.209 168.022L263.209 168.374Q263.209 173.824 260.703 177.132Q258.198 180.440 253.978 180.440L253.978 180.440Q249.473 180.440 247.011 177.253L247.011 177.253L246.813 180L243.077 180L243.077 146.242L247.143 146.242L247.143 158.835Q249.604 155.780 253.934 155.780Q258.264 155.780 260.736 159.055Q263.209 162.330 263.209 168.022L263.209 168.022ZM259.143 167.912L259.143 167.912Q259.143 163.758 257.538 161.495Q255.934 159.231 252.923 159.231L252.923 159.231Q248.901 159.231 247.143 162.967L247.143 162.967L247.143 173.253Q249.011 176.989 252.967 176.989L252.967 176.989Q255.890 176.989 257.516 174.725Q259.143 172.462 259.143 167.912Z"/></svg>