<svg width="480px" height="360px" xmlns="http://www.w3.org/2000/svg"><rect x="216" y="124" width="80.5" height="80.5" fill-opacity="0"/><path fill="#F00" d="M247.273 169.915L244.461 169.915L245.624 161.867L248.824 148L252.994 148L249.794 161.867L247.273 169.915ZM244.073 180.485L244.073 180.485Q242.861 180.485 242.061 179.733Q241.261 178.982 241.261 177.770L241.261 177.770Q241.261 176.121 242.230 175.152Q243.200 174.182 244.558 174.182L244.558 174.182Q245.770 174.182 246.570 174.933Q247.370 175.685 247.370 176.897L247.370 176.897Q247.370 178.545 246.424 179.515Q245.479 180.485 244.073 180.485Z"/></svg>