<svg width="480px" height="360px" xmlns="http://www.w3.org/2000/svg"><rect x="216" y="124" width="80.5" height="80.5" fill-opacity="0"/><path fill="#F00" d="M255.473 167.473L247.934 167.473L247.934 180L243.714 180L243.714 148L255.516 148Q260.769 148 263.747 150.681Q266.725 153.363 266.725 157.780L266.725 157.780Q266.725 162.440 263.813 164.956Q260.901 167.473 255.473 167.473L255.473 167.473ZM247.934 151.473L247.934 164.022L255.516 164.022Q258.901 164.022 260.703 162.429Q262.505 160.835 262.505 157.824L262.505 157.824Q262.505 154.967 260.703 153.253Q258.901 151.538 255.758 151.473L255.758 151.473L247.934 151.473Z"/></svg>