<svg width="480px" height="360px" xmlns="http://www.w3.org/2000/svg"><rect x="216" y="124" width="80.5" height="80.5" fill-opacity="0"/><path fill="#F00" d="M252.509 180.485L252.509 180.485Q247.515 180.485 244.582 178.158Q241.648 175.830 241.648 171.709L241.648 171.709Q241.600 170.061 242.206 168.388Q242.812 166.715 244.291 165.261Q245.770 163.806 248.436 162.788L248.436 162.788Q246.545 160.364 245.867 158.764Q245.188 157.164 245.188 155.321L245.188 155.321Q245.188 153.382 246.158 151.588Q247.127 149.794 249.164 148.655Q251.200 147.515 254.400 147.515L254.400 147.515Q258.667 147.515 260.776 149.600Q262.885 151.685 262.885 154.642L262.885 154.642Q262.885 157.358 261.309 159.564Q259.733 161.770 255.855 163.418L255.855 163.418Q256.485 164.145 257.188 164.970Q257.891 165.794 258.715 166.764L258.715 166.764Q259.733 167.927 260.606 168.921Q261.479 169.915 262.206 170.739L262.206 170.739Q262.933 169.236 263.321 167.418Q263.709 165.600 263.612 163.321L263.612 163.321L268.315 163.515Q268.364 166.376 267.588 168.994Q266.812 171.612 265.164 173.697L265.164 173.697Q266.764 175.055 268 175.467Q269.236 175.879 270.885 175.733L270.885 175.733L270.061 180.485Q268.509 180.485 267.248 180.267Q265.988 180.048 264.679 179.345Q263.370 178.642 261.770 177.285L261.770 177.285Q260.121 178.788 257.794 179.636Q255.467 180.485 252.509 180.485ZM251.006 155.467L251.006 155.467Q251.006 156.533 251.467 157.552Q251.927 158.570 253.576 160.655L253.576 160.655Q255.806 159.297 256.679 158.061Q257.552 156.824 257.552 155.176L257.552 155.176Q257.552 153.721 256.679 152.945Q255.806 152.170 254.352 152.170L254.352 152.170Q252.703 152.170 251.855 153.115Q251.006 154.061 251.006 155.467ZM247.467 171.224L247.467 171.224Q247.467 173.406 249.115 174.667Q250.764 175.927 253.333 175.927L253.333 175.927Q254.982 175.927 256.315 175.539Q257.648 175.152 258.812 174.424L258.812 174.424Q257.261 172.873 255.224 170.545L255.224 170.545Q253.964 169.139 252.897 167.976Q251.830 166.812 250.909 165.794L250.909 165.794Q248.921 167.055 248.194 168.242Q247.467 169.430 247.467 171.224Z"/></svg>