<svg version="1.1" xmlns="http://www.w3.org/2000/svg" xmlns:xlink="http://www.w3.org/1999/xlink" width="74.23909" height="17.4375" viewBox="0,0,74.23909,17.4375"><g transform="translate(-155.25627,-175.63747)"><g data-paper-data="{&quot;isPaintingLayer&quot;:true}" fill="#ffffff" fill-rule="nonzero" stroke="none" stroke-width="1" stroke-linecap="square" stroke-linejoin="miter" stroke-miterlimit="10" stroke-dasharray="" stroke-dashoffset="0" style="mix-blend-mode: normal"><path d="M165.50627,177.26247h-4.26562v11.82813h-1.73437v-11.82812h-4.25v-1.4375h10.25zM171.29823,180.74685c-0.26042,-0.04167 -0.54167,-0.0625 -0.84375,-0.0625c-1.10417,0 -1.85417,0.46875 -2.25,1.40625v7h-1.67187v-9.85937h1.64063l0.01563,1.14063c0.55208,-0.875 1.33854,-1.3125 2.35938,-1.3125c0.32292,0 0.57292,0.04167 0.75,0.125zM176.2283,186.62185l2.29688,-7.39062h1.79688l-3.95312,11.375c-0.61458,1.64583 -1.58854,2.46875 -2.92187,2.46875l-0.32812,-0.03125l-0.625,-0.125v-1.35937l0.45313,0.03125c0.57292,0 1.01563,-0.11458 1.32813,-0.34375c0.32292,-0.22917 0.58854,-0.65104 0.79688,-1.26562l0.375,-1l-3.51562,-9.75h1.84375zM192.53329,189.0906c-0.09375,-0.19792 -0.17187,-0.54167 -0.23437,-1.03125c-0.78125,0.8125 -1.71875,1.21875 -2.8125,1.21875c-0.96875,0 -1.76562,-0.27604 -2.39062,-0.82812c-0.61458,-0.55208 -0.92187,-1.25 -0.92187,-2.09375c0,-1.02083 0.38542,-1.8125 1.15625,-2.375c0.78125,-0.57292 1.88021,-0.85937 3.29688,-0.85937h1.64063v-0.78125c0,-0.59375 -0.17708,-1.0625 -0.53125,-1.40625c-0.34375,-0.35417 -0.85937,-0.53125 -1.54687,-0.53125c-0.60417,0 -1.10937,0.15625 -1.51562,0.46875c-0.40625,0.30208 -0.60937,0.66667 -0.60937,1.09375h-1.70312c0,-0.48958 0.17188,-0.96354 0.51563,-1.42187c0.35417,-0.45833 0.82813,-0.81771 1.42188,-1.07812c0.60417,-0.27083 1.26563,-0.40625 1.98438,-0.40625c1.13542,0 2.02604,0.28646 2.67188,0.85938c0.64583,0.5625 0.97917,1.33854 1,2.32813v4.53125c0,0.90625 0.11458,1.63021 0.34375,2.17188v0.14063zM189.73642,187.80935c0.53125,0 1.03125,-0.13542 1.5,-0.40625c0.47917,-0.28125 0.82292,-0.64062 1.03125,-1.07812v-2.01562h-1.3125c-2.07292,0 -3.10937,0.60417 -3.10937,1.8125c0,0.53125 0.17708,0.94792 0.53125,1.25c0.35417,0.29167 0.80729,0.4375 1.35938,0.4375zM196.1969,184.07497c0,-1.53125 0.35417,-2.75 1.0625,-3.65625c0.70833,-0.90625 1.65104,-1.35937 2.82813,-1.35937c1.19792,0 2.13542,0.42188 2.8125,1.26563l0.07813,-1.09375h1.54688v9.625c0,1.27083 -0.38021,2.27083 -1.14062,3c-0.75,0.73958 -1.76562,1.10938 -3.04687,1.10938c-0.70833,0 -1.40625,-0.15104 -2.09375,-0.45312c-0.67708,-0.30208 -1.19271,-0.71875 -1.54687,-1.25l0.875,-1c0.71875,0.88542 1.60417,1.32813 2.65625,1.32813c0.8125,0 1.44792,-0.22917 1.90625,-0.6875c0.45833,-0.45833 0.6875,-1.10937 0.6875,-1.95312v-0.84375c-0.66667,0.78125 -1.58333,1.17188 -2.75,1.17188c-1.15625,0 -2.09375,-0.46354 -2.8125,-1.39062c-0.70833,-0.9375 -1.0625,-2.20833 -1.0625,-3.8125zM197.8844,184.2781c0,1.10417 0.22917,1.97396 0.6875,2.60938c0.45833,0.63542 1.09896,0.95313 1.92188,0.95313c1.0625,0 1.83854,-0.48437 2.32813,-1.45312v-4.5c-0.51042,-0.9375 -1.28125,-1.40625 -2.3125,-1.40625c-0.82292,0 -1.46875,0.31771 -1.9375,0.95313c-0.45833,0.63542 -0.6875,1.58333 -0.6875,2.84375zM213.14809,189.0906c-0.09375,-0.19792 -0.17187,-0.54167 -0.23437,-1.03125c-0.78125,0.8125 -1.71875,1.21875 -2.8125,1.21875c-0.96875,0 -1.76562,-0.27604 -2.39062,-0.82812c-0.61458,-0.55208 -0.92187,-1.25 -0.92187,-2.09375c0,-1.02083 0.38542,-1.8125 1.15625,-2.375c0.78125,-0.57292 1.88021,-0.85937 3.29688,-0.85937h1.64063v-0.78125c0,-0.59375 -0.17708,-1.0625 -0.53125,-1.40625c-0.34375,-0.35417 -0.85937,-0.53125 -1.54687,-0.53125c-0.60417,0 -1.10937,0.15625 -1.51562,0.46875c-0.40625,0.30208 -0.60937,0.66667 -0.60937,1.09375h-1.70312c0,-0.48958 0.17188,-0.96354 0.51563,-1.42187c0.35417,-0.45833 0.82813,-0.81771 1.42188,-1.07812c0.60417,-0.27083 1.26563,-0.40625 1.98438,-0.40625c1.13542,0 2.02604,0.28646 2.67188,0.85938c0.64583,0.5625 0.97917,1.33854 1,2.32813v4.53125c0,0.90625 0.11458,1.63021 0.34375,2.17188v0.14063zM210.35121,187.80935c0.53125,0 1.03125,-0.13542 1.5,-0.40625c0.47917,-0.28125 0.82292,-0.64062 1.03125,-1.07812v-2.01562h-1.3125c-2.07292,0 -3.10937,0.60417 -3.10937,1.8125c0,0.53125 0.17708,0.94792 0.53125,1.25c0.35417,0.29167 0.80729,0.4375 1.35938,0.4375zM219.04607,189.0906h-1.6875v-9.85937h1.6875zM217.21794,176.62185c0,-0.27083 0.08333,-0.5 0.25,-0.6875c0.16667,-0.19792 0.41146,-0.29687 0.73438,-0.29687c0.33333,0 0.58333,0.09896 0.75,0.29688c0.17708,0.1875 0.26563,0.41667 0.26563,0.6875c0,0.27083 -0.08854,0.5 -0.26562,0.6875c-0.16667,0.17708 -0.41667,0.26563 -0.75,0.26563c-0.32292,0 -0.56771,-0.08854 -0.73437,-0.26562c-0.16667,-0.1875 -0.25,-0.41667 -0.25,-0.6875zM223.33911,179.23122l0.04688,1.23438c0.75,-0.9375 1.73438,-1.40625 2.95313,-1.40625c2.08333,0 3.13542,1.17188 3.15625,3.51563v6.51563h-1.6875v-6.51562c-0.01042,-0.71875 -0.17708,-1.24479 -0.5,-1.57812c-0.3125,-0.34375 -0.80729,-0.51562 -1.48437,-0.51562c-0.54167,0 -1.02083,0.14583 -1.4375,0.4375c-0.40625,0.29167 -0.72917,0.67708 -0.96875,1.15625v7.01563h-1.67187v-9.85937z"/></g></g></svg>