<svg width="480px" height="360px" xmlns="http://www.w3.org/2000/svg"><rect x="216" y="124" width="80.5" height="80.5" fill-opacity="0"/><path fill="#F00" d="M246.448 174.182L246.448 174.182Q248.145 174.182 249.115 175.491Q250.085 176.800 250.085 178.885L250.085 178.885Q250.085 181.309 248.824 183.539Q247.564 185.770 244.800 187.079L244.800 187.079L242.764 185.188Q244.752 184.509 245.964 183.127Q247.176 181.745 247.515 180.242L247.515 180.242L247.321 180.145Q247.127 180.291 246.836 180.388Q246.545 180.485 245.964 180.485L245.964 180.485Q245.091 180.485 244.194 179.733Q243.297 178.982 243.297 177.430L243.297 177.430Q243.297 176.121 244.218 175.152Q245.139 174.182 246.448 174.182Z"/></svg>