<svg width="480px" height="360px" xmlns="http://www.w3.org/2000/svg"><rect x="216" y="124" width="80.5" height="80.5" fill-opacity="0"/><path fill="#F00" d="M246.691 172.582L246.691 172.582Q248.970 172.582 250.158 174.206Q251.345 175.830 251.345 178.061L251.345 178.061Q251.345 181.067 249.576 183.636Q247.806 186.206 245.139 187.467L245.139 187.467L242.279 185.188Q244.218 184.412 245.673 183.030Q247.127 181.648 247.661 180.145L247.661 180.145L247.418 180Q247.176 180.194 246.836 180.291Q246.497 180.388 245.867 180.388L245.867 180.388Q244.752 180.388 243.612 179.491Q242.473 178.594 242.473 176.752L242.473 176.752Q242.473 174.812 243.733 173.697Q244.994 172.582 246.691 172.582ZM257.406 172.582L257.406 172.582Q259.685 172.582 260.873 174.206Q262.061 175.830 262.061 178.061L262.061 178.061Q262.061 181.067 260.291 183.636Q258.521 186.206 255.855 187.467L255.855 187.467L252.994 185.188Q254.933 184.412 256.388 183.030Q257.842 181.648 258.376 180.145L258.376 180.145L258.133 180Q257.891 180.194 257.552 180.291Q257.212 180.388 256.582 180.388L256.582 180.388Q255.467 180.388 254.327 179.491Q253.188 178.594 253.188 176.752L253.188 176.752Q253.188 174.812 254.448 173.697Q255.709 172.582 257.406 172.582Z"/></svg>