<svg width="480px" height="360px" xmlns="http://www.w3.org/2000/svg"><rect x="216" y="124" width="80.5" height="80.5" fill-opacity="0"/><path fill="#F00" d="M252.945 180.440L252.945 180.440Q248.110 180.440 245.077 177.264Q242.044 174.088 242.044 168.769L242.044 168.769L242.044 168.022Q242.044 164.484 243.396 161.703Q244.747 158.923 247.176 157.352Q249.604 155.780 252.440 155.780L252.440 155.780Q257.077 155.780 259.648 158.835Q262.220 161.890 262.220 167.582L262.220 167.582L262.220 169.275L246.110 169.275Q246.198 172.791 248.165 174.956Q250.132 177.121 253.165 177.121L253.165 177.121Q255.319 177.121 256.813 176.242Q258.308 175.363 259.429 173.912L259.429 173.912L261.912 175.846Q258.923 180.440 252.945 180.440ZM252.440 159.121L252.440 159.121Q249.978 159.121 248.308 160.912Q246.637 162.703 246.242 165.934L246.242 165.934L258.154 165.934L258.154 165.626Q257.978 162.527 256.484 160.824Q254.989 159.121 252.440 159.121Z"/></svg>