<svg width="480px" height="360px" xmlns="http://www.w3.org/2000/svg"><rect x="216" y="124" width="80.5" height="80.5" fill-opacity="0"/><path fill="#F00" d="M246.836 161.188L246.836 161.188Q244.558 161.188 243.370 159.564Q242.182 157.939 242.182 155.709L242.182 155.709Q242.182 152.703 243.952 150.133Q245.721 147.564 248.388 146.303L248.388 146.303L251.248 148.582Q249.309 149.358 247.855 150.739Q246.400 152.121 245.867 153.624L245.867 153.624L246.109 153.770Q246.352 153.576 246.691 153.479Q247.030 153.382 247.661 153.382L247.661 153.382Q248.776 153.382 249.915 154.279Q251.055 155.176 251.055 157.018L251.055 157.018Q251.055 158.958 249.794 160.073Q248.533 161.188 246.836 161.188ZM257.697 161.188L257.697 161.188Q255.418 161.188 254.230 159.564Q253.042 157.939 253.042 155.709L253.042 155.709Q253.042 152.703 254.812 150.133Q256.582 147.564 259.248 146.303L259.248 146.303L262.109 148.582Q260.170 149.358 258.715 150.739Q257.261 152.121 256.727 153.624L256.727 153.624L256.970 153.770Q257.212 153.576 257.552 153.479Q257.891 153.382 258.521 153.382L258.521 153.382Q259.636 153.382 260.776 154.279Q261.915 155.176 261.915 157.018L261.915 157.018Q261.915 158.958 260.655 160.073Q259.394 161.188 257.697 161.188Z"/></svg>