<svg width="480px" height="360px" xmlns="http://www.w3.org/2000/svg"><rect x="216" y="124" width="80.5" height="80.5" fill-opacity="0"/><path fill="#F00" d="M258.036 155.370L258.036 155.370Q260.655 155.370 262.739 156.630Q264.824 157.891 266.012 160.291Q267.200 162.691 267.200 166.133L267.200 166.133Q267.200 170.158 265.576 173.430Q263.952 176.703 261.164 178.594Q258.376 180.485 254.836 180.485L254.836 180.485Q251.442 180.485 249.309 178.739Q247.176 176.994 246.642 174.521L246.642 174.521L245.382 180L241.503 180L249.697 144.606L253.576 144.606L250.085 159.636Q251.200 157.794 253.333 156.582Q255.467 155.370 258.036 155.370ZM254.788 177.139L254.788 177.139Q257.164 177.139 259.103 175.709Q261.042 174.279 262.206 171.758Q263.370 169.236 263.370 166.036L263.370 166.036Q263.370 162.352 261.527 160.533Q259.685 158.715 256.921 158.715L256.921 158.715Q254.352 158.715 252.388 160.170Q250.424 161.624 249.309 164.194Q248.194 166.764 248.194 170.061L248.194 170.061Q248.194 173.212 249.867 175.176Q251.539 177.139 254.788 177.139Z"/></svg>