<svg width="480px" height="360px" xmlns="http://www.w3.org/2000/svg"><rect x="216" y="124" width="80.5" height="80.5" fill-opacity="0"/><path fill="#F00" d="M251.248 180.388L251.248 180.388Q246.352 180.388 243.709 177.988Q241.067 175.588 241.067 171.515L241.067 171.515Q241.067 167.345 243.588 165.042Q246.109 162.739 250.327 161.430L250.327 161.430Q249.939 159.927 249.697 158.545Q249.455 157.164 249.455 155.952L249.455 155.952Q249.455 153.333 250.521 151.442Q251.588 149.552 253.406 148.509Q255.224 147.467 257.552 147.467L257.552 147.467Q260.509 147.467 262.133 149.115Q263.758 150.764 263.758 153.285L263.758 153.285Q263.758 155.903 262.618 157.697Q261.479 159.491 259.418 160.752Q257.358 162.012 254.594 162.982L254.594 162.982Q255.030 164.242 255.588 165.527Q256.145 166.812 256.776 168.121L256.776 168.121Q258.085 170.885 259.976 173.115L259.976 173.115Q261.527 171.467 262.715 169.333Q263.903 167.200 264.388 164.533L264.388 164.533L267.636 164.824Q267.103 167.636 265.624 170.424Q264.145 173.212 262.109 175.248L262.109 175.248Q263.418 176.364 264.752 176.994Q266.085 177.624 267.394 177.624L267.394 177.624L266.812 180.533Q264.824 180.533 262.958 179.709Q261.091 178.885 259.442 177.479L259.442 177.479Q257.648 178.836 255.636 179.612Q253.624 180.388 251.248 180.388ZM252.945 155.806L252.945 155.806Q252.945 156.727 253.139 157.842Q253.333 158.958 253.673 160.218L253.673 160.218Q256.436 159.248 258.400 157.794Q260.364 156.339 260.364 153.867L260.364 153.867Q260.364 152.170 259.491 151.370Q258.618 150.570 257.261 150.570L257.261 150.570Q255.467 150.570 254.206 151.903Q252.945 153.236 252.945 155.806ZM244.703 171.321L244.703 171.321Q244.703 174.133 246.545 175.636Q248.388 177.139 251.297 177.139L251.297 177.139Q253.188 177.139 254.594 176.630Q256 176.121 257.261 175.248L257.261 175.248Q255.370 173.018 253.915 170.158L253.915 170.158Q253.139 168.606 252.436 167.079Q251.733 165.552 251.200 164L251.200 164Q248.145 165.067 246.424 166.691Q244.703 168.315 244.703 171.321Z"/></svg>