<svg width="480px" height="360px" xmlns="http://www.w3.org/2000/svg"><rect x="216" y="124" width="80.5" height="80.5" fill-opacity="0"/><path fill="#F00" d="M258.667 180L244.170 180L244.170 148L258.182 148Q264 148 266.764 150.279Q269.527 152.558 269.527 156.727L269.527 156.727Q269.527 159.297 267.976 161.285Q266.424 163.273 263.418 163.806L263.418 163.806L263.418 163.855Q266.764 164.339 268.558 166.376Q270.352 168.412 270.352 171.224L270.352 171.224Q270.352 175.345 267.370 177.673Q264.388 180 258.667 180L258.667 180ZM250.667 153.188L250.667 161.430L257.309 161.430Q262.594 161.430 262.594 157.309L262.594 157.309Q262.594 153.188 257.309 153.188L257.309 153.188L250.667 153.188ZM250.667 166.570L250.667 174.958L258.085 174.958Q260.752 174.958 262.085 173.867Q263.418 172.776 263.418 170.739L263.418 170.739Q263.418 168.752 262.085 167.661Q260.752 166.570 258.085 166.570L258.085 166.570L250.667 166.570Z"/></svg>