<svg width="480px" height="360px" xmlns="http://www.w3.org/2000/svg"><rect x="216" y="124" width="80.5" height="80.5" fill-opacity="0"/><path fill="#F00" d="M250.424 187.758L243.442 187.758L243.442 176.121L244.267 166.085L249.600 166.085L250.424 176.121L250.424 187.758ZM246.933 162.788L246.933 162.788Q245.042 162.788 243.927 161.770Q242.812 160.752 242.812 159.055L242.812 159.055Q242.812 157.309 243.927 156.315Q245.042 155.321 246.933 155.321L246.933 155.321Q248.824 155.321 249.939 156.315Q251.055 157.309 251.055 159.055L251.055 159.055Q251.055 160.752 249.939 161.770Q248.824 162.788 246.933 162.788Z"/></svg>