<svg width="480px" height="360px" xmlns="http://www.w3.org/2000/svg"><rect x="216" y="124" width="80.5" height="80.5" fill-opacity="0"/><path fill="#F00" d="M255.055 180L256.813 170.989L251.011 170.989L249.253 180L246.110 180L247.868 170.989L242.615 170.989L242.615 167.978L248.440 167.978L249.956 160.198L244.286 160.198L244.286 157.143L250.549 157.143L252.352 148L255.495 148L253.692 157.143L259.495 157.143L261.297 148L264.462 148L262.659 157.143L267.143 157.143L267.143 160.198L262.066 160.198L260.549 167.978L265.495 167.978L265.495 170.989L259.978 170.989L258.220 180L255.055 180ZM253.099 160.198L251.582 167.978L257.385 167.978L258.901 160.198L253.099 160.198Z"/></svg>