<svg width="480px" height="360px" xmlns="http://www.w3.org/2000/svg"><rect x="216" y="124" width="80.5" height="80.5" fill-opacity="0"/><path fill="#F00" d="M246.158 180L242.279 180L249.697 148L259.006 148Q263.806 148 266.545 150.424Q269.285 152.848 269.285 156.776L269.285 156.776Q269.285 159.927 267.733 162.400Q266.182 164.873 263.345 166.279Q260.509 167.685 256.727 167.685L256.727 167.685L249.018 167.685L246.158 180ZM258.715 151.636L258.715 151.636L252.752 151.636L249.842 164.048L257.648 164.048Q260.218 164.048 261.891 163.079Q263.564 162.109 264.412 160.509Q265.261 158.909 265.261 157.018L265.261 157.018Q265.261 154.594 263.612 153.115Q261.964 151.636 258.715 151.636Z"/></svg>