<svg width="480px" height="360px" xmlns="http://www.w3.org/2000/svg"><rect x="216" y="124" width="80.5" height="80.5" fill-opacity="0"/><path fill="#F00" d="M241.275 188.044L240.418 185.516Q244.879 184.088 245.033 178.242L245.033 178.242L245.033 173.407Q245.033 168.330 249.011 166.484L249.011 166.484Q245.033 164.681 245.033 159.560L245.033 159.560L245.033 155.099Q245.033 148.901 240.440 147.429L240.440 147.429L241.275 144.901Q245.165 146 247.121 148.473Q249.077 150.945 249.099 155.011L249.099 155.011L249.099 159.626Q249.099 164.879 253.758 164.879L253.758 164.879L253.758 168.066Q249.099 168.066 249.099 173.407L249.099 173.407L249.099 177.846Q249.099 181.978 247.110 184.462Q245.121 186.945 241.275 188.044L241.275 188.044Z"/></svg>