<svg width="480px" height="360px" xmlns="http://www.w3.org/2000/svg"><rect x="216" y="124" width="80.5" height="80.5" fill-opacity="0"/><path fill="#F00" d="M252.170 180.388L252.170 180.388Q249.358 180.388 247.224 179.030Q245.091 177.673 243.879 175.273Q242.667 172.873 242.667 169.721L242.667 169.721Q242.667 165.697 244.267 162.424Q245.867 159.152 248.655 157.212Q251.442 155.273 255.030 155.273L255.030 155.273Q258.230 155.273 260.412 156.897Q262.594 158.521 263.224 161.236L263.224 161.236L267.055 144.606L270.933 144.606L262.739 180L259.345 180L260.170 175.491Q259.006 177.721 256.848 179.055Q254.691 180.388 252.170 180.388ZM253.139 177.091L253.139 177.091Q255.467 177.091 257.406 175.588Q259.345 174.085 260.509 171.515Q261.673 168.945 261.673 165.794L261.673 165.794Q261.673 162.497 259.927 160.558Q258.182 158.618 255.273 158.618L255.273 158.618Q252.703 158.618 250.715 160.097Q248.727 161.576 247.612 164.073Q246.497 166.570 246.497 169.673L246.497 169.673Q246.497 173.212 248.218 175.152Q249.939 177.091 253.139 177.091Z"/></svg>