<svg width="480px" height="360px" xmlns="http://www.w3.org/2000/svg"><rect x="216" y="124" width="80.5" height="80.5" fill-opacity="0"/><path fill="#F00" d="M265.842 148L269.721 148L269.721 168.073Q269.721 174.230 266.473 177.358Q263.224 180.485 257.164 180.485L257.164 180.485Q251.152 180.485 247.879 177.358Q244.606 174.230 244.606 168.073L244.606 168.073L244.606 148L248.485 148L248.485 167.103Q248.485 172.097 250.594 174.473Q252.703 176.848 257.164 176.848L257.164 176.848Q261.624 176.848 263.733 174.473Q265.842 172.097 265.842 167.103L265.842 167.103L265.842 148Z"/></svg>