<svg width="480px" height="360px" xmlns="http://www.w3.org/2000/svg"><rect x="216" y="124" width="80.5" height="80.5" fill-opacity="0"/><path fill="#F00" d="M255.758 180.485L255.758 180.485Q251.539 180.485 248.703 178.788Q245.867 177.091 244.824 173.867Q243.782 170.642 244.800 166.133L244.800 166.133L249.067 148L252.945 148L248.582 167.055Q247.855 170.303 248.630 172.485Q249.406 174.667 251.321 175.758Q253.236 176.848 256 176.848L256 176.848Q259.879 176.848 262.109 174.424Q264.339 172 265.261 167.927L265.261 167.927L269.867 148L273.745 148L268.897 169.042Q267.685 174.182 264.388 177.333Q261.091 180.485 255.758 180.485Z"/></svg>