<svg width="480px" height="360px" xmlns="http://www.w3.org/2000/svg"><rect x="216" y="124" width="80.5" height="80.5" fill-opacity="0"/><path fill="#F00" d="M253.673 180.436L253.673 180.436Q250.182 180.436 247.733 178.958Q245.285 177.479 244 174.982Q242.715 172.485 242.715 169.527L242.715 169.527Q242.715 165.358 244.315 162.158Q245.915 158.958 248.727 157.139Q251.539 155.321 255.224 155.321L255.224 155.321Q258.764 155.321 261.188 156.800Q263.612 158.279 264.873 160.727Q266.133 163.176 266.133 166.182L266.133 166.182Q266.133 170.303 264.558 173.527Q262.982 176.752 260.170 178.594Q257.358 180.436 253.673 180.436ZM253.818 177.091L253.818 177.091Q256.194 177.091 258.085 175.758Q259.976 174.424 261.091 172Q262.206 169.576 262.206 166.327L262.206 166.327Q262.206 164.194 261.455 162.473Q260.703 160.752 259.127 159.709Q257.552 158.667 255.079 158.667L255.079 158.667Q252.752 158.667 250.836 160Q248.921 161.333 247.782 163.733Q246.642 166.133 246.642 169.382L246.642 169.382Q246.642 171.467 247.418 173.236Q248.194 175.006 249.794 176.048Q251.394 177.091 253.818 177.091Z"/></svg>