<svg width="480px" height="360px" xmlns="http://www.w3.org/2000/svg"><rect x="216" y="124" width="80.5" height="80.5" fill-opacity="0"/><path fill="#F00" d="M254.545 155.273L254.545 155.273Q257.988 155.273 260.630 156.776Q263.273 158.279 264.776 161.115Q266.279 163.952 266.279 167.879L266.279 167.879Q266.279 171.806 264.776 174.642Q263.273 177.479 260.630 178.982Q257.988 180.485 254.545 180.485L254.545 180.485Q251.152 180.485 248.485 178.982Q245.818 177.479 244.315 174.642Q242.812 171.806 242.812 167.879L242.812 167.879Q242.812 163.952 244.315 161.115Q245.818 158.279 248.485 156.776Q251.152 155.273 254.545 155.273ZM254.545 158.618L254.545 158.618Q250.861 158.618 248.776 161.091Q246.691 163.564 246.691 167.879L246.691 167.879Q246.691 172.194 248.776 174.667Q250.861 177.139 254.545 177.139L254.545 177.139Q258.230 177.139 260.315 174.667Q262.400 172.194 262.400 167.879L262.400 167.879Q262.400 163.564 260.315 161.091Q258.230 158.618 254.545 158.618Z"/></svg>