<svg width="480px" height="360px" xmlns="http://www.w3.org/2000/svg"><rect x="216" y="124" width="80.5" height="80.5" fill-opacity="0"/><path fill="#F00" d="M251.927 180.485L251.927 180.485Q249.503 180.485 247.564 179.612Q245.624 178.739 244.485 176.848Q243.345 174.958 243.345 171.855L243.345 171.855L243.345 155.758L249.988 155.758L249.988 170.255Q249.988 173.067 251.152 174.158Q252.315 175.248 254.497 175.248L254.497 175.248Q256.582 175.248 258.206 173.721Q259.830 172.194 259.830 168.800L259.830 168.800L259.830 155.758L266.473 155.758L266.473 180L260.558 180L260.315 175.782Q259.103 178.158 256.970 179.321Q254.836 180.485 251.927 180.485Z"/></svg>