<svg width="480px" height="360px" xmlns="http://www.w3.org/2000/svg"><rect x="216" y="124" width="80.5" height="80.5" fill-opacity="0"/><path fill="#F00" d="M244.558 174.182L244.558 174.182Q246.012 174.182 246.885 175.273Q247.758 176.364 247.758 178.109L247.758 178.109Q247.758 179.952 246.812 181.867Q245.867 183.782 244.073 185.236Q242.279 186.691 239.758 187.224L239.758 187.224L238.545 184.897Q241.406 184.509 242.909 183.176Q244.412 181.842 244.897 180.097L244.897 180.097L244.848 180.048Q244.606 180.242 244.339 180.315Q244.073 180.388 243.539 180.388L243.539 180.388Q242.376 180.388 241.770 179.539Q241.164 178.691 241.164 177.673L241.164 177.673Q241.164 176.121 242.158 175.152Q243.152 174.182 244.558 174.182Z"/></svg>