<svg width="480px" height="360px" xmlns="http://www.w3.org/2000/svg"><rect x="216" y="124" width="80.5" height="80.5" fill-opacity="0"/><path fill="#F00" d="M244.752 180.485L244.752 180.485Q243.539 180.485 242.739 179.733Q241.939 178.982 241.939 177.770L241.939 177.770Q241.939 176.121 242.909 175.152Q243.879 174.182 245.236 174.182L245.236 174.182Q246.448 174.182 247.248 174.933Q248.048 175.685 248.048 176.897L248.048 176.897Q248.048 178.545 247.103 179.515Q246.158 180.485 244.752 180.485ZM249.115 161.576L249.115 161.576Q247.903 161.576 247.103 160.824Q246.303 160.073 246.303 158.861L246.303 158.861Q246.303 157.212 247.273 156.242Q248.242 155.273 249.600 155.273L249.600 155.273Q250.812 155.273 251.612 156.024Q252.412 156.776 252.412 157.988L252.412 157.988Q252.412 159.636 251.467 160.606Q250.521 161.576 249.115 161.576Z"/></svg>