<svg width="480px" height="360px" xmlns="http://www.w3.org/2000/svg"><rect x="216" y="124" width="80.5" height="80.5" fill-opacity="0"/><path fill="#F00" d="M262.330 148L261.319 151.473L256.132 151.473Q257.538 153.253 257.912 155.824L257.912 155.824L262.330 155.824L261.319 159.297L257.978 159.297Q257.582 163.209 254.879 165.187Q252.176 167.165 247.363 167.165L247.363 167.165L258.198 179.736L258.198 180L253.209 180L241.560 166.440L241.538 163.692L247.011 163.692Q249.758 163.670 251.473 162.495Q253.187 161.319 253.648 159.297L253.648 159.297L240.923 159.297L241.934 155.824L253.604 155.824Q252.549 151.648 247.143 151.473L247.143 151.473L240.967 151.473L242 148L262.330 148Z"/></svg>