<svg width="480px" height="360px" xmlns="http://www.w3.org/2000/svg"><rect x="216" y="124" width="80.5" height="80.5" fill-opacity="0"/><path fill="#F00" d="M254.885 180.485L254.885 180.485Q249.212 180.485 246.473 177.091Q243.733 173.697 243.733 168.170L243.733 168.170Q243.733 164.339 244.606 160.655Q245.479 156.970 247.297 153.988Q249.115 151.006 251.976 149.236Q254.836 147.467 258.764 147.467L258.764 147.467Q262.206 147.467 264.921 149.164Q267.636 150.861 268.412 154.739L268.412 154.739L264.533 156Q264.194 153.624 262.424 152.364Q260.655 151.103 258.424 151.103L258.424 151.103Q255.855 151.103 253.939 152.364Q252.024 153.624 250.715 155.709Q249.406 157.794 248.630 160.315Q247.855 162.836 247.564 165.406L247.564 165.406Q248.388 162.739 250.909 161.309Q253.430 159.879 256.436 159.879L256.436 159.879Q260.752 159.879 263.248 162.352Q265.745 164.824 265.745 168.848L265.745 168.848Q265.745 172.145 264.436 174.788Q263.127 177.430 260.703 178.958Q258.279 180.485 254.885 180.485ZM255.030 176.848L255.030 176.848Q258.327 176.848 260.024 174.691Q261.721 172.533 261.721 169.479L261.721 169.479Q261.721 166.909 260.024 165.188Q258.327 163.467 255.030 163.467L255.030 163.467Q252.800 163.467 251.248 164.461Q249.697 165.455 248.921 167.055Q248.145 168.655 248.145 170.497L248.145 170.497Q248.145 173.552 250.109 175.200Q252.073 176.848 255.030 176.848Z"/></svg>