<svg width="480px" height="360px" xmlns="http://www.w3.org/2000/svg"><rect x="216" y="124" width="80.5" height="80.5" fill-opacity="0"/><path fill="#F00" d="M255.855 147.515L255.855 147.515Q260.218 147.515 263.515 149.018Q266.812 150.521 269.139 153.479L269.139 153.479L265.406 157.794Q263.418 155.273 261.067 154.085Q258.715 152.897 255.612 152.897L255.612 152.897Q252.509 152.897 251.103 154.036Q249.697 155.176 249.697 156.776L249.697 156.776Q249.697 158.085 250.691 158.982Q251.685 159.879 254.206 160.461L254.206 160.461L260.170 161.818Q264.873 162.885 266.958 164.994Q269.042 167.103 269.042 170.448L269.042 170.448Q269.042 173.600 267.394 175.855Q265.745 178.109 262.788 179.297Q259.830 180.485 256 180.485L256 180.485Q251.006 180.485 247.224 178.739Q243.442 176.994 241.261 174.230L241.261 174.230L245.042 169.721Q246.691 172.048 249.576 173.576Q252.461 175.103 256 175.103L256 175.103Q258.958 175.103 260.558 174.109Q262.158 173.115 262.158 171.273L262.158 171.273Q262.158 170.061 261.309 169.139Q260.461 168.218 258.182 167.733L258.182 167.733L251.685 166.279Q247.418 165.358 245.091 163.273Q242.764 161.188 242.764 157.600L242.764 157.600Q242.764 154.739 244.315 152.461Q245.867 150.182 248.800 148.848Q251.733 147.515 255.855 147.515Z"/></svg>