<svg width="480px" height="360px" xmlns="http://www.w3.org/2000/svg"><rect x="216" y="124" width="80.5" height="80.5" fill-opacity="0"/><path fill="#F00" d="M262.396 180L255.451 167.055L247.934 167.055L247.934 180L243.692 180L243.692 148L254.286 148Q259.692 148 262.604 150.462Q265.516 152.923 265.516 157.626L265.516 157.626Q265.516 160.615 263.901 162.835Q262.286 165.055 259.407 166.154L259.407 166.154L266.923 179.736L266.923 180L262.396 180ZM247.934 151.473L247.934 163.604L254.418 163.604Q257.560 163.604 259.418 161.978Q261.275 160.352 261.275 157.626L261.275 157.626Q261.275 154.659 259.505 153.077Q257.736 151.495 254.396 151.473L254.396 151.473L247.934 151.473Z"/></svg>