<svg width="480px" height="360px" xmlns="http://www.w3.org/2000/svg"><rect x="216" y="124" width="80.5" height="80.5" fill-opacity="0"/><path fill="#F00" d="M262.066 156.352L262.066 156.352Q262.066 158.747 260.802 160.615Q259.538 162.484 257.385 163.538L257.385 163.538Q259.890 164.615 261.352 166.681Q262.813 168.747 262.813 171.363L262.813 171.363Q262.813 175.516 260.011 177.978Q257.209 180.440 252.637 180.440L252.637 180.440Q248.022 180.440 245.242 177.967Q242.462 175.495 242.462 171.363L242.462 171.363Q242.462 168.769 243.879 166.681Q245.297 164.593 247.802 163.516L247.802 163.516Q245.670 162.462 244.440 160.593Q243.209 158.725 243.209 156.352L243.209 156.352Q243.209 152.308 245.802 149.934Q248.396 147.560 252.637 147.560L252.637 147.560Q256.857 147.560 259.462 149.934Q262.066 152.308 262.066 156.352ZM258.747 171.275L258.747 171.275Q258.747 168.593 257.044 166.901Q255.341 165.209 252.593 165.209Q249.846 165.209 248.187 166.879Q246.527 168.549 246.527 171.275Q246.527 174 248.143 175.560Q249.758 177.121 252.637 177.121L252.637 177.121Q255.495 177.121 257.121 175.549Q258.747 173.978 258.747 171.275ZM252.637 150.901L252.637 150.901Q250.242 150.901 248.758 152.385Q247.275 153.868 247.275 156.418L247.275 156.418Q247.275 158.857 248.736 160.363Q250.198 161.868 252.637 161.868Q255.077 161.868 256.538 160.363Q258 158.857 258 156.418Q258 153.978 256.484 152.440Q254.967 150.901 252.637 150.901Z"/></svg>