<svg width="480px" height="360px" xmlns="http://www.w3.org/2000/svg"><rect x="216" y="124" width="80.5" height="80.5" fill-opacity="0"/><path fill="#F00" d="M248.339 180L244.461 180L245.867 173.891L241.309 173.891L241.988 170.836L246.594 170.836L247.370 167.442L242.812 167.442L243.588 164.048L248.145 164.048L251.879 148L260.703 148Q265.503 148 268.242 150.424Q270.982 152.848 270.982 156.776L270.982 156.776Q270.982 160.073 269.358 162.473Q267.733 164.873 264.848 166.158Q261.964 167.442 258.182 167.442L258.182 167.442L251.248 167.442L250.473 170.836L258.861 170.836L258.182 173.891L249.745 173.891L248.339 180ZM254.933 151.636L252.024 164.048L259.345 164.048Q263.273 164.048 265.139 162.012Q267.006 159.976 267.006 157.018L267.006 157.018Q267.006 154.352 265.285 152.994Q263.564 151.636 260.412 151.636L260.412 151.636L254.933 151.636Z"/></svg>