<svg width="480px" height="360px" xmlns="http://www.w3.org/2000/svg"><rect x="216" y="124" width="80.5" height="80.5" fill-opacity="0"/><path fill="#F00" d="M264.388 180L258.570 180L242.618 167.491L242.618 163.806L251.103 163.806Q253.818 163.806 255.491 162.570Q257.164 161.333 257.552 158.958L257.552 158.958L242.618 158.958L242.618 155.903L257.552 155.903Q257.164 153.576 255.491 152.339Q253.818 151.103 251.103 151.103L251.103 151.103L242.618 151.055L242.618 148L265.648 148L265.648 151.152L257.891 151.103Q259.152 151.588 259.976 152.873Q260.800 154.158 261.091 155.903L261.091 155.903L265.648 155.903L265.648 158.958L261.091 158.958Q260.606 162.497 257.964 164.679Q255.321 166.861 251.103 166.861L251.103 166.861L247.176 166.861L264.388 180Z"/></svg>