<svg width="480px" height="360px" xmlns="http://www.w3.org/2000/svg"><rect x="216" y="124" width="80.5" height="80.5" fill-opacity="0"/><path fill="#F00" d="M265.115 180L243.588 180L243.588 176.848Q248.388 173.309 251.612 170.642Q254.836 167.976 256.776 165.794Q258.715 163.612 259.539 161.648Q260.364 159.685 260.364 157.552L260.364 157.552Q260.364 154.691 258.545 152.921Q256.727 151.152 253.576 151.152L253.576 151.152Q250.279 151.152 248.291 153.309Q246.303 155.467 245.964 159.055L245.964 159.055L242.570 157.018Q243.200 152.848 246.036 150.182Q248.873 147.515 253.721 147.515L253.721 147.515Q257.018 147.515 259.418 148.800Q261.818 150.085 263.127 152.339Q264.436 154.594 264.436 157.552L264.436 157.552Q264.436 160.558 262.982 163.442Q261.527 166.327 258.182 169.479Q254.836 172.630 249.115 176.461L249.115 176.461L249.115 176.509Q249.648 176.461 250.594 176.436Q251.539 176.412 252.485 176.388Q253.430 176.364 253.915 176.364L253.915 176.364L265.115 176.364L265.115 180Z"/></svg>