<svg width="480px" height="360px" xmlns="http://www.w3.org/2000/svg"><rect x="216" y="124" width="80.5" height="80.5" fill-opacity="0"/><path fill="#F00" d="M247.273 180L243.394 180L248.242 159.103L243.297 159.103L244.073 155.758L249.018 155.758L250.036 151.248Q250.861 147.661 252.970 146.012Q255.079 144.364 258.424 144.364L258.424 144.364Q259.782 144.364 260.945 144.679Q262.109 144.994 262.739 145.527L262.739 145.527L261.430 148.679Q260.994 148.339 260.170 148.097Q259.345 147.855 258.424 147.855L258.424 147.855Q256.388 147.855 255.273 148.824Q254.158 149.794 253.624 152.267L253.624 152.267L252.848 155.758L260.364 155.758L259.588 159.103L252.121 159.103L247.273 180Z"/></svg>