<svg width="480px" height="360px" xmlns="http://www.w3.org/2000/svg"><rect x="216" y="124" width="80.5" height="80.5" fill-opacity="0"/><path fill="#F00" d="M241.939 148L255.079 148L255.079 150.618L250.230 150.618L250.230 164L246.836 164L246.836 150.618L241.939 150.618L241.939 148ZM271.321 148L275.539 148L275.539 164L272.194 164L272.194 156.339L272.533 152.121L272.485 152.121L272.048 153.430L268.073 164L265.648 164L261.624 153.430L261.188 152.121L261.139 152.121L261.479 156.339L261.479 164L258.133 164L258.133 148L262.400 148L265.697 156.727L266.812 159.830L266.909 159.830L267.976 156.727L271.321 148Z"/></svg>