<svg width="480px" height="360px" xmlns="http://www.w3.org/2000/svg"><rect x="216" y="124" width="80.5" height="80.5" fill-opacity="0"/><path fill="#F00" d="M252.170 165.842L256.194 165.842L254.497 172.921Q249.600 172.921 246.739 174.400Q243.879 175.879 243.879 179.709L243.879 179.709Q243.879 182.182 245.673 183.345Q247.467 184.509 250.133 184.509L250.133 184.509Q253.333 184.509 255.394 182.982Q257.455 181.455 258.376 178.933L258.376 178.933L261.527 181.212Q260.218 184.267 257.212 186.206Q254.206 188.145 250.036 188.145L250.036 188.145Q247.127 188.145 244.848 187.152Q242.570 186.158 241.236 184.315Q239.903 182.473 239.903 179.903L239.903 179.903Q239.903 176.800 241.382 174.691Q242.861 172.582 245.406 171.418Q247.952 170.255 251.152 170.061L251.152 170.061L252.170 165.842ZM256 155.273L256 155.273Q257.212 155.273 258.012 156.024Q258.812 156.776 258.812 157.988L258.812 157.988Q258.812 159.636 257.842 160.606Q256.873 161.576 255.515 161.576L255.515 161.576Q254.303 161.576 253.503 160.824Q252.703 160.073 252.703 158.861L252.703 158.861Q252.703 157.212 253.648 156.242Q254.594 155.273 256 155.273Z"/></svg>