<svg width="480px" height="360px" xmlns="http://www.w3.org/2000/svg"><rect x="216" y="124" width="80.5" height="80.5" fill-opacity="0"/><path fill="#F00" d="M262.109 168.073L267.879 168.073L267.879 171.030L261.624 171.030L260.121 180L256.824 180L258.327 171.030L250.279 171.030L248.776 180L245.479 180L246.982 171.030L240.970 171.030L240.970 168.073L247.467 168.073L248.824 159.879L243.103 159.879L243.103 156.921L249.309 156.921L250.812 148L254.109 148L252.606 156.921L260.655 156.921L262.158 148L265.455 148L263.952 156.921L270.012 156.921L270.012 159.879L263.467 159.879L262.109 168.073ZM252.121 159.879L250.764 168.073L258.812 168.073L260.170 159.879L252.121 159.879Z"/></svg>