<svg width="480px" height="360px" xmlns="http://www.w3.org/2000/svg"><rect x="216" y="124" width="80.5" height="80.5" fill-opacity="0"/><path fill="#F00" d="M251.976 180L247.079 180L247.030 165.212L241.552 165.212L242.279 162.061L246.982 162.061L246.933 148L250.667 148L250.473 162.061L256.485 162.061L262.788 148L267.345 148L267.103 162.061L273.018 162.061L279.418 148L283.297 148L276.703 162.061L281.988 162.061L281.261 165.212L275.248 165.212L268.315 180L263.418 180L263.806 165.212L258.521 165.212L251.976 180ZM263.855 162.061L264.097 152.558L259.879 162.061L263.855 162.061ZM250.424 165.212L250.279 175.976L255.079 165.212L250.424 165.212ZM267.055 165.212L266.861 175.636L271.612 165.212L267.055 165.212Z"/></svg>