<svg width="480px" height="360px" xmlns="http://www.w3.org/2000/svg"><rect x="216" y="124" width="80.5" height="80.5" fill-opacity="0"/><path fill="#F00" d="M256.339 184.848L253.091 184.848L253.091 180.339Q248.679 179.758 245.939 176.485Q243.200 173.212 243.200 167.879L243.200 167.879Q243.200 162.545 245.939 159.273Q248.679 156 253.091 155.418L253.091 155.418L253.091 150.909L256.339 150.909L256.339 155.321Q259.539 155.612 261.673 157.309Q263.806 159.006 264.970 161.721L264.970 161.721L261.285 163.467Q259.976 159.248 256.339 158.570L256.339 158.570L256.339 177.236Q260.461 176.606 261.721 172.097L261.721 172.097L265.212 173.309Q264.145 176.364 261.891 178.230Q259.636 180.097 256.339 180.436L256.339 180.436L256.339 184.848ZM246.836 167.879L246.836 167.879Q246.836 171.758 248.582 174.158Q250.327 176.558 253.091 177.139L253.091 177.139L253.091 158.618Q250.327 159.200 248.582 161.600Q246.836 164 246.836 167.879Z"/></svg>