<svg width="480px" height="360px" xmlns="http://www.w3.org/2000/svg"><rect x="216" y="124" width="80.5" height="80.5" fill-opacity="0"/><path fill="#F00" d="M252.509 180.485L252.509 180.485Q247.709 180.485 245.018 178.061Q242.327 175.636 242.327 171.855L242.327 171.855Q242.327 168.897 243.903 166.497Q245.479 164.097 249.697 162.158L249.697 162.158Q247.855 159.636 247.127 158.012Q246.400 156.388 246.400 154.642L246.400 154.642Q246.400 152.897 247.248 151.248Q248.097 149.600 249.842 148.558Q251.588 147.515 254.352 147.515L254.352 147.515Q257.455 147.515 259.394 149.236Q261.333 150.958 261.333 153.964L261.333 153.964Q261.333 155.612 260.824 157.091Q260.315 158.570 258.861 160.024Q257.406 161.479 254.642 163.030L254.642 163.030Q255.321 163.903 256.170 164.970Q257.018 166.036 258.036 167.297L258.036 167.297Q259.200 168.752 260.170 169.939Q261.139 171.127 261.964 172.097L261.964 172.097Q262.982 170.255 263.515 167.952Q264.048 165.648 263.855 162.885L263.855 162.885L267.152 163.176Q267.345 166.133 266.570 169.067Q265.794 172 264.048 174.376L264.048 174.376Q265.406 175.733 266.400 176.412Q267.394 177.091 268.339 177.333Q269.285 177.576 270.400 177.576L270.400 177.576L269.430 180.485Q268.218 180.485 267.127 180.242Q266.036 180 264.824 179.224Q263.612 178.448 262.012 176.848L262.012 176.848Q260.218 178.545 257.867 179.515Q255.515 180.485 252.509 180.485ZM250.036 154.594L250.036 154.594Q250.036 155.418 250.230 156.170Q250.424 156.921 251.006 157.939Q251.588 158.958 252.800 160.655L252.800 160.655Q255.418 159.200 256.703 157.867Q257.988 156.533 257.988 154.400L257.988 154.400Q257.988 152.703 256.945 151.758Q255.903 150.812 254.109 150.812L254.109 150.812Q252.024 150.812 251.030 151.952Q250.036 153.091 250.036 154.594ZM246.012 171.515L246.012 171.515Q246.012 174.230 248 175.782Q249.988 177.333 252.897 177.333L252.897 177.333Q255.176 177.333 256.824 176.630Q258.473 175.927 259.879 174.618L259.879 174.618Q258.036 172.582 255.418 169.382L255.418 169.382Q254.255 167.927 253.261 166.691Q252.267 165.455 251.442 164.436L251.442 164.436Q248.291 166.036 247.152 167.588Q246.012 169.139 246.012 171.515Z"/></svg>