<svg width="480px" height="360px" xmlns="http://www.w3.org/2000/svg"><rect x="216" y="124" width="80.5" height="80.5" fill-opacity="0"/><path fill="#F00" d="M253.042 180.485L253.042 180.485Q250.085 180.485 247.830 179.321Q245.576 178.158 244.218 176.242Q242.861 174.327 242.521 172.194L242.521 172.194L246.642 171.127Q246.885 172.582 247.564 173.891Q248.242 175.200 249.673 176.024Q251.103 176.848 253.479 176.848L253.479 176.848Q255.855 176.848 257.382 175.709Q258.909 174.570 259.661 172.752Q260.412 170.933 260.412 168.897L260.412 168.897Q260.412 166.715 259.515 165.358Q258.618 164 257.188 163.370Q255.758 162.739 254.061 162.739L254.061 162.739Q252.218 162.739 250.909 163.248Q249.600 163.758 248.339 164.873L248.339 164.873L245.236 163.806L250.424 148L267.055 148L266.182 151.636L252.994 151.636L249.794 161.285Q252.073 159.442 255.612 159.442L255.612 159.442Q258.036 159.442 260.048 160.436Q262.061 161.430 263.248 163.418Q264.436 165.406 264.436 168.315L264.436 168.315Q264.436 171.806 263.055 174.570Q261.673 177.333 259.127 178.909Q256.582 180.485 253.042 180.485Z"/></svg>