<svg width="480px" height="360px" xmlns="http://www.w3.org/2000/svg"><rect x="216" y="124" width="80.5" height="80.5" fill-opacity="0"/><path fill="#F00" d="M260.218 163.127L260.218 163.127Q258.715 163.127 257.309 162.642Q255.903 162.158 254.594 161.552Q253.285 160.945 251.952 160.461Q250.618 159.976 249.212 159.976L249.212 159.976Q247.079 159.976 245.673 160.606Q244.267 161.236 242.812 162.594L242.812 162.594L242.812 157.406Q244.364 156.048 245.745 155.442Q247.127 154.836 249.212 154.836L249.212 154.836Q250.812 154.836 252.242 155.321Q253.673 155.806 254.982 156.436Q256.291 157.067 257.552 157.527Q258.812 157.988 260.073 157.988L260.073 157.988Q261.818 157.988 263.297 157.479Q264.776 156.970 266.473 155.418L266.473 155.418L266.473 160.558Q263.661 163.127 260.218 163.127ZM260.218 173.842L260.218 173.842Q258.715 173.842 257.309 173.382Q255.903 172.921 254.594 172.291Q253.285 171.661 251.952 171.176Q250.618 170.691 249.212 170.691L249.212 170.691Q247.079 170.691 245.673 171.321Q244.267 171.952 242.812 173.309L242.812 173.309L242.812 168.121Q244.364 166.764 245.745 166.182Q247.127 165.600 249.212 165.600L249.212 165.600Q250.812 165.600 252.242 166.061Q253.673 166.521 254.982 167.152Q256.291 167.782 257.552 168.242Q258.812 168.703 260.073 168.703L260.073 168.703Q261.818 168.703 263.297 168.194Q264.776 167.685 266.473 166.133L266.473 166.133L266.473 171.273Q263.661 173.842 260.218 173.842Z"/></svg>