<svg width="480px" height="360px" xmlns="http://www.w3.org/2000/svg"><rect x="216" y="124" width="80.5" height="80.5" fill-opacity="0"/><path fill="#F00" d="M253.042 184.848L249.697 184.848L250.958 179.418Q243.976 177.673 241.552 170.739L241.552 170.739L245.139 169.091Q245.964 171.952 247.709 173.648Q249.455 175.345 251.733 176.073L251.733 176.073L254.206 165.406L253.382 165.164Q250.036 164.242 248.024 162.182Q246.012 160.121 246.012 157.309L246.012 157.309Q246.012 154.691 247.394 152.582Q248.776 150.473 251.297 149.236Q253.818 148 257.261 148L257.261 148Q257.745 148 258.230 148L258.230 148L259.345 143.152L262.691 143.152L261.479 148.485Q267.297 149.891 269.285 155.612L269.285 155.612L265.697 157.212Q265.115 154.788 263.758 153.503Q262.400 152.218 260.703 151.733L260.703 151.733L258.182 162.642L259.976 163.176Q266.764 165.164 266.764 170.352L266.764 170.352Q266.764 173.261 265.236 175.418Q263.709 177.576 261.164 178.764Q258.618 179.952 255.564 179.952L255.564 179.952Q254.836 179.952 254.206 179.903L254.206 179.903L253.042 184.848ZM254.303 161.527L254.303 161.527L255.030 161.721L257.455 151.248Q257.261 151.248 257.067 151.248L257.067 151.248Q253.527 151.248 251.636 152.921Q249.745 154.594 249.745 156.679L249.745 156.679Q249.745 158.279 250.982 159.588Q252.218 160.897 254.303 161.527ZM258.667 166.618L258.667 166.618L257.358 166.230L254.933 176.606Q255.370 176.655 255.855 176.655L255.855 176.655Q258.182 176.655 259.806 175.830Q261.430 175.006 262.255 173.673Q263.079 172.339 263.079 170.933L263.079 170.933Q263.079 169.236 261.939 168.218Q260.800 167.200 258.667 166.618Z"/></svg>