<svg width="480px" height="360px" xmlns="http://www.w3.org/2000/svg"><rect x="216" y="124" width="80.5" height="80.5" fill-opacity="0"/><path fill="#F00" d="M253.236 180.485L253.236 180.485Q249.697 180.485 246.715 178.982Q243.733 177.479 242.133 174.715L242.133 174.715L245.430 172.339Q246.497 174.570 248.558 175.830Q250.618 177.091 253.527 177.091L253.527 177.091Q256.097 177.091 257.552 176.097Q259.006 175.103 259.006 173.503L259.006 173.503Q259.006 172.485 258.352 171.636Q257.697 170.788 255.855 170.400L255.855 170.400L250.036 169.188Q246.497 168.461 244.970 166.764Q243.442 165.067 243.442 162.545L243.442 162.545Q243.442 160.558 244.582 158.909Q245.721 157.261 247.830 156.267Q249.939 155.273 252.800 155.273L252.800 155.273Q256.388 155.273 258.861 156.679Q261.333 158.085 262.545 160.655L262.545 160.655L259.297 162.788Q258.473 160.655 256.630 159.661Q254.788 158.667 252.800 158.667L252.800 158.667Q250.182 158.667 248.727 159.733Q247.273 160.800 247.273 162.400L247.273 162.400Q247.273 163.467 248 164.364Q248.727 165.261 250.715 165.648L250.715 165.648L256.776 166.909Q260.170 167.588 261.527 169.139Q262.885 170.691 262.885 172.921L262.885 172.921Q262.885 176.364 260.218 178.424Q257.552 180.485 253.236 180.485Z"/></svg>