<svg width="480px" height="360px" xmlns="http://www.w3.org/2000/svg"><rect x="216" y="124" width="80.5" height="80.5" fill-opacity="0"/><path fill="#F00" d="M250.230 155.758L259.055 155.758L259.055 159.103L250.230 159.103L250.230 173.309Q250.230 175.103 251.248 175.976Q252.267 176.848 253.867 176.848L253.867 176.848Q255.273 176.848 256.291 176.364Q257.309 175.879 258.133 175.055L258.133 175.055L259.491 178.303Q258.376 179.321 256.848 179.903Q255.321 180.485 253.333 180.485L253.333 180.485Q251.491 180.485 249.891 179.830Q248.291 179.176 247.345 177.745Q246.400 176.315 246.352 173.988L246.352 173.988L246.352 159.103L241.503 159.103L241.503 155.758L246.352 155.758L246.352 149.939L250.230 148.873L250.230 155.758Z"/></svg>