<svg width="480px" height="360px" xmlns="http://www.w3.org/2000/svg"><rect x="216" y="124" width="80.5" height="80.5" fill-opacity="0"/><path fill="#F00" d="M257.988 147.515L257.988 147.515Q262.739 147.515 266.182 149.503Q269.624 151.491 271.491 155.176Q273.358 158.861 273.358 164L273.358 164Q273.358 169.139 271.491 172.824Q269.624 176.509 266.182 178.497Q262.739 180.485 257.988 180.485L257.988 180.485Q253.236 180.485 249.770 178.497Q246.303 176.509 244.436 172.824Q242.570 169.139 242.570 164L242.570 164Q242.570 158.861 244.436 155.176Q246.303 151.491 249.770 149.503Q253.236 147.515 257.988 147.515ZM257.988 152.994L257.988 152.994Q253.915 152.994 251.709 155.830Q249.503 158.667 249.503 164L249.503 164Q249.503 169.333 251.709 172.170Q253.915 175.006 257.988 175.006L257.988 175.006Q262.012 175.006 264.218 172.170Q266.424 169.333 266.424 164L266.424 164Q266.424 158.667 264.218 155.830Q262.012 152.994 257.988 152.994Z"/></svg>