<svg width="480px" height="360px" xmlns="http://www.w3.org/2000/svg"><rect x="216" y="124" width="80.5" height="80.5" fill-opacity="0"/><path fill="#F00" d="M242.923 167.011L242.923 167.011Q242.923 162.044 244.253 157.473Q245.582 152.901 248.220 149.165Q250.857 145.429 253.692 143.890L253.692 143.890L254.527 146.571Q251.319 149.033 249.264 154.088Q247.209 159.143 247.011 165.407L247.011 165.407L246.989 167.275Q246.989 175.758 250.088 182L250.088 182Q251.956 185.736 254.527 187.846L254.527 187.846L253.692 190.330Q250.769 188.703 248.110 184.879L248.110 184.879Q242.923 177.407 242.923 167.011Z"/></svg>