<svg width="480px" height="360px" xmlns="http://www.w3.org/2000/svg"><rect x="216" y="124" width="80.5" height="80.5" fill-opacity="0"/><path fill="#F00" d="M254.642 180.485L254.642 180.485Q251.200 180.485 248.509 178.982Q245.818 177.479 244.315 174.642Q242.812 171.806 242.812 167.879L242.812 167.879Q242.812 163.952 244.315 161.115Q245.818 158.279 248.436 156.776Q251.055 155.273 254.400 155.273L254.400 155.273Q257.794 155.273 260.194 156.727Q262.594 158.182 263.855 160.679Q265.115 163.176 265.115 166.279L265.115 166.279Q265.115 167.103 265.067 167.782Q265.018 168.461 264.921 168.994L264.921 168.994L246.642 168.994Q246.933 172.824 249.018 174.958Q251.103 177.091 254.545 177.091L254.545 177.091Q257.212 177.091 258.885 176.073Q260.558 175.055 261.576 173.309L261.576 173.309L264.630 175.103Q263.273 177.576 260.727 179.030Q258.182 180.485 254.642 180.485ZM254.303 158.667L254.303 158.667Q251.248 158.667 249.285 160.485Q247.321 162.303 246.788 165.552L246.788 165.552L261.236 165.552Q261.091 162.255 259.200 160.461Q257.309 158.667 254.303 158.667Z"/></svg>