<svg width="480px" height="360px" xmlns="http://www.w3.org/2000/svg"><rect x="216" y="124" width="80.5" height="80.5" fill-opacity="0"/><path fill="#F00" d="M242.242 164.352L242.242 160.198Q243.297 159.077 244.736 158.440Q246.176 157.802 247.626 157.802L247.626 157.802Q249.429 157.758 251.055 158.527L251.055 158.527L254.396 160.242Q255.846 160.923 257.560 160.923L257.560 160.923Q260.505 160.923 262.747 158.110L262.747 158.110L262.747 162.286Q260.484 164.681 257.560 164.681L257.560 164.681Q255.846 164.681 254.396 164L254.396 164L250.857 162.176Q249.363 161.495 247.626 161.538L247.626 161.538Q246.176 161.538 244.736 162.286Q243.297 163.033 242.242 164.352L242.242 164.352ZM242.220 173.538L242.220 169.385Q243.275 168.264 244.703 167.615Q246.132 166.967 247.582 166.967L247.582 166.967Q249.385 166.923 251.011 167.692L251.011 167.692L254.286 169.385Q255.780 170.110 257.538 170.110L257.538 170.110Q260.462 170.110 262.703 167.297L262.703 167.297L262.725 171.451Q260.462 173.846 257.538 173.846L257.538 173.846Q255.824 173.846 254.374 173.165L254.374 173.165L251.033 171.451Q249.407 170.681 247.604 170.725L247.604 170.725Q246.154 170.725 244.714 171.473Q243.275 172.220 242.220 173.538L242.220 173.538Z"/></svg>