<svg width="480px" height="360px" xmlns="http://www.w3.org/2000/svg"><rect x="216" y="124" width="80.5" height="80.5" fill-opacity="0"/><path fill="#F00" d="M242.220 171.407L242.220 171.407Q242.220 169.099 243.505 167.165Q244.791 165.231 248.418 162.659L248.418 162.659Q246.286 160.066 245.560 158.484Q244.835 156.901 244.835 155.341L244.835 155.341Q244.835 151.692 246.989 149.626Q249.143 147.560 252.835 147.560L252.835 147.560Q256.132 147.560 258.286 149.484Q260.440 151.407 260.440 154.330L260.440 154.330Q260.440 156.264 259.462 157.901Q258.484 159.538 256.044 161.341L256.044 161.341L253.692 163.077L260.813 171.582Q262.308 168.725 262.308 165.231L262.308 165.231L265.978 165.231Q265.978 170.835 263.275 174.527L263.275 174.527L267.846 180L262.967 180L260.835 177.473Q259.209 178.923 257.022 179.681Q254.835 180.440 252.571 180.440L252.571 180.440Q247.890 180.440 245.055 177.956Q242.220 175.473 242.220 171.407ZM252.571 177.121L252.571 177.121Q255.802 177.121 258.484 174.659L258.484 174.659L250.681 165.319L249.956 165.846Q246.286 168.549 246.286 171.407L246.286 171.407Q246.286 174 247.967 175.560Q249.648 177.121 252.571 177.121ZM248.901 155.209L248.901 155.209Q248.901 157.319 251.495 160.484L251.495 160.484L254.088 158.659Q255.582 157.604 256.132 156.648Q256.681 155.692 256.681 154.330L256.681 154.330Q256.681 152.857 255.582 151.879Q254.484 150.901 252.813 150.901L252.813 150.901Q251.011 150.901 249.956 152.121Q248.901 153.341 248.901 155.209Z"/></svg>