<svg width="480px" height="360px" xmlns="http://www.w3.org/2000/svg"><rect x="216" y="124" width="80.5" height="80.5" fill-opacity="0"/><path fill="#F00" d="M244.170 148L256.533 148Q264.048 148 268.170 152.170Q272.291 156.339 272.291 164L272.291 164Q272.291 171.661 268.170 175.830Q264.048 180 256.533 180L256.533 180L244.170 180L244.170 148ZM250.861 174.667L256.194 174.667Q260.752 174.667 263.055 171.927Q265.358 169.188 265.358 164L265.358 164Q265.358 158.812 263.055 156.073Q260.752 153.333 256.194 153.333L256.194 153.333L250.861 153.333L250.861 174.667Z"/></svg>