<svg width="480px" height="360px" xmlns="http://www.w3.org/2000/svg"><rect x="216" y="124" width="80.5" height="80.5" fill-opacity="0"/><path fill="#F00" d="M265.988 180L257.358 180L242.473 168.461L242.473 164.194L250.958 164.194Q255.758 164.194 256.776 160.364L256.776 160.364L242.473 160.364L242.424 156.097L256.727 156.097Q255.709 152.315 250.958 152.315L250.958 152.315L242.473 152.267L242.473 148L266.812 148L266.812 152.315L259.103 152.315Q261.091 153.236 261.673 156.097L261.673 156.097L266.812 156.097L266.812 160.364L261.818 160.364Q261.285 163.515 258.861 165.697Q256.436 167.879 252.558 168.121L252.558 168.121L250.133 168.121L265.988 180Z"/></svg>