<svg width="480px" height="360px" xmlns="http://www.w3.org/2000/svg"><rect x="216" y="124" width="80.5" height="80.5" fill-opacity="0"/><path fill="#F00" d="M254.061 180.485L254.061 180.485Q249.794 180.485 246.521 178.473Q243.248 176.461 242.085 172.921L242.085 172.921L245.964 170.933Q246.836 173.600 248.752 175.224Q250.667 176.848 254.448 176.848L254.448 176.848Q257.600 176.848 259.321 175.176Q261.042 173.503 261.042 170.885L261.042 170.885Q261.042 168.267 259.564 166.982Q258.085 165.697 254.642 165.697L254.642 165.697Q253.576 165.697 252.170 165.842L252.170 165.842L252.170 161.964Q252.606 162.012 253.018 162.012Q253.430 162.012 253.770 162.012L253.770 162.012Q257.309 162.012 258.812 160.630Q260.315 159.248 260.315 156.291L260.315 156.291Q260.315 153.770 258.764 152.461Q257.212 151.152 254.352 151.152L254.352 151.152Q251.297 151.152 249.697 152.485Q248.097 153.818 247.176 156.097L247.176 156.097L243.491 154.352Q244.655 151.345 247.539 149.406Q250.424 147.467 254.448 147.467L254.448 147.467Q257.794 147.467 259.976 148.606Q262.158 149.745 263.248 151.636Q264.339 153.527 264.339 155.806L264.339 155.806Q264.339 159.248 262.545 161.309Q260.752 163.370 258.327 163.758L258.327 163.758L258.327 163.855Q260.461 163.903 261.964 164.897Q263.467 165.891 264.267 167.467Q265.067 169.042 265.067 170.836L265.067 170.836Q265.067 173.648 263.685 175.830Q262.303 178.012 259.830 179.248Q257.358 180.485 254.061 180.485Z"/></svg>