<svg width="480px" height="360px" xmlns="http://www.w3.org/2000/svg"><rect x="216" y="124" width="80.5" height="80.5" fill-opacity="0"/><path fill="#F00" d="M251.912 170.989L247.846 170.989Q247.890 168.374 248.440 166.857Q248.989 165.341 250.681 163.495L250.681 163.495L253.560 160.527Q255.407 158.440 255.407 156.044L255.407 156.044Q255.407 153.736 254.198 152.429Q252.989 151.121 250.681 151.121L250.681 151.121Q248.440 151.121 247.077 152.308Q245.714 153.495 245.714 155.495L245.714 155.495L241.648 155.495Q241.692 151.934 244.187 149.747Q246.681 147.560 250.681 147.560L250.681 147.560Q254.835 147.560 257.154 149.791Q259.473 152.022 259.473 155.912L259.473 155.912Q259.473 159.758 255.912 163.495L255.912 163.495L253.516 165.868Q251.912 167.648 251.912 170.989L251.912 170.989ZM247.670 177.956L247.670 177.956Q247.670 176.967 248.275 176.297Q248.879 175.626 250.066 175.626Q251.253 175.626 251.868 176.297Q252.484 176.967 252.484 177.956Q252.484 178.945 251.868 179.593Q251.253 180.242 250.066 180.242Q248.879 180.242 248.275 179.593Q247.670 178.945 247.670 177.956Z"/></svg>