<svg width="480px" height="360px" xmlns="http://www.w3.org/2000/svg"><rect x="216" y="124" width="80.5" height="80.5" fill-opacity="0"/><path fill="#F00" d="M262.982 189.406L262.982 189.406Q260.509 189.406 258.473 188.461Q256.436 187.515 255.248 185.818Q254.061 184.121 254.061 181.794L254.061 181.794Q254.061 180.970 254.206 180.145L254.206 180.145Q251.345 179.515 249.067 177.721Q246.788 175.927 245.455 173.091Q244.121 170.255 244.121 166.424L244.121 166.424Q244.121 162.691 245.188 159.297Q246.255 155.903 248.315 153.261Q250.376 150.618 253.455 149.067Q256.533 147.515 260.509 147.515L260.509 147.515Q264.097 147.515 267.079 149.164Q270.061 150.812 271.855 153.939Q273.648 157.067 273.648 161.576L273.648 161.576Q273.648 165.261 272.606 168.655Q271.564 172.048 269.527 174.715Q267.491 177.382 264.509 178.933Q261.527 180.485 257.648 180.485L257.648 180.485Q257.600 180.776 257.600 181.115L257.600 181.115Q257.600 183.345 259.127 184.485Q260.655 185.624 263.321 185.624L263.321 185.624Q264.921 185.624 266.158 185.261Q267.394 184.897 268.606 184.170L268.606 184.170L268.897 188Q267.539 188.776 265.939 189.091Q264.339 189.406 262.982 189.406ZM257.842 176.800L257.842 176.800Q260.752 176.800 262.933 175.539Q265.115 174.279 266.594 172.121Q268.073 169.964 268.824 167.297Q269.576 164.630 269.576 161.818L269.576 161.818Q269.576 156.776 266.933 153.988Q264.291 151.200 260.024 151.200L260.024 151.200Q257.115 151.200 254.909 152.461Q252.703 153.721 251.200 155.855Q249.697 157.988 248.945 160.655Q248.194 163.321 248.194 166.182L248.194 166.182Q248.194 171.224 250.836 174.012Q253.479 176.800 257.842 176.800Z"/></svg>