<svg width="480px" height="360px" xmlns="http://www.w3.org/2000/svg"><rect x="216" y="124" width="80.5" height="80.5" fill-opacity="0"/><path fill="#F00" d="M265.406 169.333L271.564 171.176Q270.109 175.879 266.473 178.182Q262.836 180.485 257.988 180.485L257.988 180.485Q253.236 180.485 249.770 178.497Q246.303 176.509 244.436 172.824Q242.570 169.139 242.570 164L242.570 164Q242.570 158.861 244.461 155.176Q246.352 151.491 249.794 149.503Q253.236 147.515 257.891 147.515L257.891 147.515Q262.788 147.515 266.303 149.576Q269.818 151.636 271.127 155.806L271.127 155.806L265.067 158.376Q264.242 155.467 262.545 154.230Q260.848 152.994 258.182 152.994L258.182 152.994Q254.206 152.994 251.855 155.830Q249.503 158.667 249.503 164L249.503 164Q249.503 169.285 251.733 172.145Q253.964 175.006 258.182 175.006L258.182 175.006Q260.800 175.006 262.715 173.600Q264.630 172.194 265.406 169.333L265.406 169.333Z"/></svg>