<svg width="480px" height="360px" xmlns="http://www.w3.org/2000/svg"><rect x="216" y="124" width="80.5" height="80.5" fill-opacity="0"/><path fill="#F00" d="M263.806 180L257.745 180L257.745 172.485L242.133 172.485L242.133 168.121Q242.376 167.636 242.836 166.933Q243.297 166.230 243.879 165.309L243.879 165.309L255.806 148L263.806 148L263.806 167.636L268.994 167.636L268.994 172.485L263.806 172.485L263.806 180ZM247.855 167.636L247.855 167.636L257.794 167.636L257.794 157.067Q257.794 156 257.842 154.885Q257.891 153.770 257.939 152.606L257.939 152.606L257.842 152.606Q257.309 153.673 256.558 154.933Q255.806 156.194 255.176 157.115L255.176 157.115L248.485 166.715Q248.145 167.200 247.855 167.636Z"/></svg>