<svg width="480px" height="360px" xmlns="http://www.w3.org/2000/svg"><rect x="216" y="124" width="80.5" height="80.5" fill-opacity="0"/><path fill="#F00" d="M257.309 165.455L257.309 164.533Q257.309 162.448 256.121 161.285Q254.933 160.121 252.994 160.121L252.994 160.121Q251.200 160.121 249.842 161.042Q248.485 161.964 247.855 164.097L247.855 164.097L242.182 162.352Q243.006 159.152 245.794 157.212Q248.582 155.273 253.285 155.273L253.285 155.273Q258.036 155.273 260.970 157.527Q263.903 159.782 263.903 164.242L263.903 164.242L263.903 174.085Q263.903 175.927 265.648 175.927L265.648 175.927Q266.473 175.927 267.200 175.685L267.200 175.685L266.812 179.806Q265.552 180.436 263.661 180.436L263.661 180.436Q261.576 180.436 260.048 179.564Q258.521 178.691 257.988 176.945L257.988 176.945Q256.824 178.691 254.667 179.588Q252.509 180.485 250.230 180.485L250.230 180.485Q246.545 180.485 244.388 178.812Q242.230 177.139 242.230 173.939L242.230 173.939Q242.230 171.224 243.976 169.503Q245.721 167.782 248.970 167.152L248.970 167.152L257.309 165.455ZM248.873 173.309L248.873 173.309Q248.873 174.521 249.770 175.152Q250.667 175.782 251.927 175.782L251.927 175.782Q253.333 175.782 254.545 175.345Q255.758 174.909 256.533 173.867Q257.309 172.824 257.309 171.079L257.309 171.079L257.309 169.576L252.218 170.594Q250.570 170.933 249.721 171.491Q248.873 172.048 248.873 173.309Z"/></svg>