<svg version="1.1" xmlns="http://www.w3.org/2000/svg" xmlns:xlink="http://www.w3.org/1999/xlink" width="4.78176" height="4.78176" viewBox="0,0,4.78176,4.78176"><g transform="translate(-237.60912,-177.60912)"><g data-paper-data="{&quot;isPaintingLayer&quot;:true}" fill-rule="nonzero" stroke="none" stroke-width="0" stroke-linecap="butt" stroke-linejoin="miter" stroke-miterlimit="10" stroke-dasharray="" stroke-dashoffset="0" style="mix-blend-mode: normal"><g><path d="M237.60912,180c0,0 1.23139,-0.6228 1.65188,-1.04329c0.36999,-0.36999 0.739,-1.34759 0.739,-1.34759c0,0 0.48238,1.09097 0.86941,1.478c0.40875,0.40875 1.52147,0.91288 1.52147,0.91288c0,0 -1.05577,0.44719 -1.43453,0.82594c-0.41491,0.41491 -0.95635,1.56494 -0.95635,1.56494c0,0 -0.49065,-1.09924 -0.86941,-1.478c-0.41491,-0.41491 -1.52147,-0.91288 -1.52147,-0.91288z" fill="#c633fb"/><path d="M238.72678,181.31339c0,0 0.36094,-1.07179 0.36469,-1.55915c0.0033,-0.42881 -0.34338,-1.21189 -0.34338,-1.21189c0,0 0.90905,0.35969 1.35762,0.36314c0.47374,0.00365 1.41342,-0.34183 1.41342,-0.34183c0,0 -0.35938,0.86825 -0.36276,1.30723c-0.0037,0.48088 0.34144,1.46381 0.34144,1.46381c0,0 -0.91864,-0.35977 -1.35762,-0.36314c-0.48088,-0.0037 -1.41342,0.34183 -1.41342,0.34183z" fill="#c633fb"/><g fill="#b91eef"><path d="M239.16858,179.06755c0,0 0.71464,0.23456 1.03877,0.23456c0.2852,0 0.80421,-0.23456 0.80421,-0.23456c0,0 -0.23456,0.6064 -0.23456,0.90474c0,0.31508 0.23456,0.93824 0.23456,0.93824c0,0 -0.57927,-0.23456 -0.87123,-0.23456c-0.31982,0 -0.97175,0.23456 -0.97175,0.23456c0,0 0.23456,-0.61278 0.23456,-0.90474c0,-0.31982 -0.23456,-0.93824 -0.23456,-0.93824z"/><path d="M239.09314,180.00452c0,0 0.5522,-0.27397 0.74148,-0.46036c0.16654,-0.164 0.33474,-0.59943 0.33474,-0.59943c0,0 0.21173,0.489 0.38329,0.66321c0.18118,0.18399 0.67651,0.41301 0.67651,0.41301c0,0 -0.47315,0.19613 -0.64365,0.36402c-0.18676,0.18391 -0.43258,0.69578 -0.43258,0.69578c0,0 -0.2154,-0.49272 -0.38329,-0.66321c-0.18391,-0.18676 -0.67651,-0.41301 -0.67651,-0.41301z"/></g></g></g></g></svg>