<svg version="1.1" xmlns="http://www.w3.org/2000/svg" xmlns:xlink="http://www.w3.org/1999/xlink" width="267.73094" height="200.89034" viewBox="0,0,267.73094,200.89034"><g transform="translate(-106.13453,-38.82601)"><g data-paper-data="{&quot;isPaintingLayer&quot;:true}" fill-rule="nonzero" stroke-linejoin="miter" stroke-miterlimit="10" stroke-dasharray="" stroke-dashoffset="0" style="mix-blend-mode: normal"><path d="M373.86547,215.29205c0,0 -0.06915,14.62634 -0.09001,19.03906c-0.01466,3.10133 -1.96867,5.39917 -5.2163,5.38517c-4.43511,-0.01912 -19.11137,-0.08239 -19.11137,-0.08239l0.11557,-24.44661z" data-paper-data="{&quot;index&quot;:null}" fill="#8ecc39" stroke="none" stroke-width="0" stroke-linecap="butt"/><path d="M129.34491,215.18175l0.11037,24.44661c0,0 -14.01516,0.06327 -18.25047,0.08239c-3.10133,0.014 -4.96733,-2.28384 -4.98132,-5.38517c-0.01991,-4.41272 -0.08595,-19.03906 -0.08595,-19.03906z" fill="#8ecc39" stroke="none" stroke-width="0" stroke-linecap="butt"/><path d="M106.13453,216.34562v-170.38008c0,0 1.59735,-5.97209 5.62078,-5.97209c21.98789,0 217.24378,-1.8671 256.78653,-0.87889c4.52968,0.11321 5.28265,6.85097 5.28265,6.85097v170.38009z" fill="#4dc1f9" stroke="none" stroke-width="0" stroke-linecap="butt"/><path d="M236.78051,218.428v-51.3465h4.73158v51.34651z" fill="#8ecc39" stroke="none" stroke-width="0" stroke-linecap="butt"/><path d="M223.28625,151.5306l-3.15439,-7.00977l8.41171,-4.03061l2.62866,-7.185l7.6327,2.51012l7.80496,-2.54022l3.80284,7.29144l7.21274,3.27023l-2.83858,8.55409l3.83904,7.34759l-7.8635,2.86778l-3.64594,8.57495l-7.6373,-3.3879l-8.32646,3.17455l-2.84723,-8.23006l-7.89329,-2.12957z" fill="#fbcd1f" stroke="none" stroke-width="0" stroke-linecap="butt"/><path d="M231.63142,151.61927l-1.56483,-3.47741l4.17289,-1.99951l1.30402,-3.56434l3.78644,1.24522l3.87189,-1.26015l1.88652,3.61714l3.57811,1.62229l-1.40817,4.24352l1.90448,3.645l-3.90093,1.42264l-1.80867,4.25388l-3.78872,-1.68067l-4.1306,1.57483l-1.41245,-4.08277l-3.91571,-1.05643z" fill="#f4c20d" stroke="none" stroke-width="0" stroke-linecap="butt"/><path d="M216.80268,172.68933c0,0 8.21374,-1.62437 13.11393,-0.08194c1.0547,0.33198 2.08011,0.82593 3.2897,1.51861c2.13375,1.22189 3.57419,2.4187 3.57419,2.4187l0.17524,10.68988c0,0 -0.7657,0.11504 -1.92692,0.10276c-5.64887,-0.05975 -9.38847,-1.6564 -12.92495,-6.0617c-2.81479,-3.5063 -5.30119,-8.58631 -5.30119,-8.58631z" fill="#8ecc39" stroke="none" stroke-width="0" stroke-linecap="butt"/><path d="M239.9349,206.51143l0.87622,-8.06123c0,0 2.70711,-2.35813 5.63477,-4.3346c4.00617,-2.70457 7.33077,-2.81241 12.10696,-2.06945c1.4897,0.23173 2.58659,0.44574 2.58659,0.44574c0,0 -0.8839,2.34346 -2.13133,4.89293c-2.17301,4.44111 -4.79834,6.93072 -9.6365,7.94933c-4.45022,0.93695 -9.4367,1.17726 -9.4367,1.17726z" fill="#8ecc39" stroke="none" stroke-width="0" stroke-linecap="butt"/><path d="M139.26513,217.23393v-51.3465h4.73159v51.34651z" fill="#8ecc39" stroke="none" stroke-width="0" stroke-linecap="butt"/><g stroke="none" stroke-width="0" stroke-linecap="butt"><g fill="#fa273b"><path d="M137.36627,148.61922l16.12126,28.66953l-8.82702,4.58925l-16.12118,-28.66946z"/><path d="M153.90033,153.00949l-16.12126,28.66953l-8.82702,-4.58924l16.12126,-28.66953z" data-paper-data="{&quot;index&quot;:null}"/><path d="M158.18738,170.13236l-33.81872,0.30023l-0.11629,-9.66962l33.81872,-0.30023z" data-paper-data="{&quot;index&quot;:null}"/></g><g fill="#ee0d2b"><path d="M139.67899,159.24066l5.91471,10.51844l-3.23848,1.68367l-5.9147,-10.51844z"/><path d="M145.74512,160.85135l-5.9147,10.51841l-3.23847,-1.68375l5.9147,-10.51844z" data-paper-data="{&quot;index&quot;:null}"/><path d="M147.31794,167.13336l-12.4076,0.11015l-0.04264,-3.5476l12.4076,-0.11015z" data-paper-data="{&quot;index&quot;:null}"/></g></g><path d="M120.08335,183.0379c0,0 8.21374,-1.62438 13.11393,-0.08195c1.0547,0.33198 2.0801,0.82593 3.2897,1.51861c2.13375,1.22189 3.57419,2.4187 3.57419,2.4187l0.17524,10.68988c0,0 -0.7657,0.11504 -1.92692,0.10276c-5.64887,-0.05975 -9.38847,-1.6564 -12.92496,-6.0617c-2.81479,-3.5063 -5.30119,-8.5863 -5.30119,-8.5863z" fill="#8ecc39" stroke="none" stroke-width="0" stroke-linecap="butt"/><path d="M188.22183,225.59239v-51.3465h4.73159v51.34651z" fill="#8ecc39" stroke="none" stroke-width="0" stroke-linecap="butt"/><g stroke="none" stroke-width="0" stroke-linecap="butt"><g fill="#ff8a00"><path d="M195.23353,169.86141c7.13963,7.2654 10.63043,15.41242 7.79689,18.19687c-2.83348,2.78445 -10.91834,-0.84808 -18.05797,-8.11348c-7.13963,-7.2654 -10.63043,-15.41242 -7.79689,-18.19687c2.83348,-2.78445 10.91834,0.84808 18.05797,8.11348z"/><path d="M202.73978,161.74793c2.83348,2.78445 -0.65725,10.93147 -7.79689,18.19687c-7.13963,7.2654 -15.22443,10.89793 -18.05797,8.11348c-2.83348,-2.78445 0.65725,-10.93147 7.79689,-18.19687c7.13963,-7.2654 15.22443,-10.89793 18.05797,-8.11348z" data-paper-data="{&quot;index&quot;:null}"/></g><g fill="#ff7e00"><path d="M191.96618,173.5864c2.71315,2.76096 4.03968,5.85692 2.96295,6.91509c-1.07679,1.05817 -4.14914,-0.32226 -6.86229,-3.08324c-2.71315,-2.76096 -4.03968,-5.85692 -2.96295,-6.91509c1.07679,-1.05817 4.14914,0.32226 6.86229,3.08324z"/><path d="M194.81863,170.50317c1.07679,1.05817 -0.24975,4.15412 -2.96296,6.91503c-2.71315,2.76096 -5.78551,4.14139 -6.86229,3.08324c-1.07679,-1.05817 0.24975,-4.15412 2.96295,-6.91503c2.71315,-2.76096 5.78551,-4.14139 6.8623,-3.08324z" data-paper-data="{&quot;index&quot;:null}"/></g></g><path d="M176.27608,197.37854c0,0 4.94012,-0.78448 7.88732,-0.03957c0.63434,0.16033 1.25107,0.39888 1.97858,0.73341c1.28333,0.5901 2.14969,1.1681 2.14969,1.1681l0.10539,5.16264c0,0 -0.46052,0.05555 -1.15893,0.04962c-3.39749,-0.02885 -5.64667,-0.79995 -7.77366,-2.92747c-1.69295,-1.69335 -3.18838,-4.14673 -3.18838,-4.14673z" fill="#8ecc39" stroke="none" stroke-width="0" stroke-linecap="butt"/><path d="M192.57029,209.29759l0.51438,-4.73232c0,0 1.58921,-1.38433 3.30787,-2.54461c2.35181,-1.58771 4.3035,-1.65102 7.10735,-1.21487c0.87453,0.13603 1.51845,0.26167 1.51845,0.26167c0,0 -0.5189,1.37572 -1.25119,2.87238c-1.27566,2.60714 -2.81685,4.06866 -5.65708,4.66663c-2.61249,0.55003 -5.53978,0.69111 -5.53978,0.69111z" fill="#8ecc39" stroke="none" stroke-width="0" stroke-linecap="butt"/><path d="M285.73721,229.97063v-51.3465h4.73159v51.34651z" fill="#8ecc39" stroke="none" stroke-width="0" stroke-linecap="butt"/><path d="M288.66712,186.41154c-7.89605,0 -14.29704,-6.40098 -14.29704,-14.29704c0,-7.89605 6.40098,-14.29704 14.29704,-14.29704c7.89607,0 14.29704,6.40098 14.29704,14.29704c0,7.89606 -6.40098,14.29704 -14.29704,14.29704z" fill="#3584f5" stroke="none" stroke-width="0" stroke-linecap="butt"/><path d="M288.66712,181.53759c-5.20423,0 -9.42309,-4.21886 -9.42309,-9.42309c0,-5.20423 4.21886,-9.42309 9.42309,-9.42309c5.20423,0 9.42309,4.21886 9.42309,9.42309c0,5.20423 -4.21886,9.42309 -9.42309,9.42309z" fill="#2275e8" stroke="none" stroke-width="0" stroke-linecap="butt"/><path d="M288.8916,200.93913l0.87622,-6.98165c0,0 2.70711,-2.04232 5.63477,-3.7541c4.00617,-2.34237 7.33077,-2.43577 12.10696,-1.79231c1.4897,0.2007 2.58659,0.38605 2.58659,0.38605c0,0 -0.8839,2.02962 -2.13134,4.23766c-2.17301,3.84635 -4.79833,6.00254 -9.6365,6.88473c-4.45022,0.81146 -9.4367,1.0196 -9.4367,1.0196z" fill="#8ecc39" stroke="none" stroke-width="0" stroke-linecap="butt"/><path d="M203.29193,89.38398c0,11.0136 -8.90602,19.9419 -19.89216,19.9419c-10.98614,0 -19.89214,-8.92828 -19.89214,-19.9419c0,-11.0136 8.90601,-19.9419 19.89215,-19.9419c10.98614,0 19.89216,8.92828 19.89216,19.9419z" fill="#efad00" stroke="none" stroke-width="0" stroke-linecap="butt"/><path d="M179.29142,70.40193v-3.48113h7.32033v3.48113z" fill="#efad00" stroke="none" stroke-width="0" stroke-linecap="butt"/><path d="M190.51057,64.89181c0,0.9291 -1.57117,1.93903 -3.72718,2.37193c-1.05621,0.21207 -2.2528,0.13448 -3.47378,0.13448c-1.26846,0 -2.59413,0.07726 -3.78994,-0.13811c-2.30483,-0.41513 -4.12713,-1.37733 -4.12713,-2.28872c0,-0.86781 1.14346,-1.8713 3.26784,-2.32118c1.26428,-0.26775 3.26385,-0.2648 4.64924,-0.2648c1.63262,0 3.14205,0.05778 4.41017,0.41852c1.61619,0.45975 2.79079,1.31225 2.79079,2.08789z" fill="#ffbf00" stroke="none" stroke-width="0" stroke-linecap="butt"/><path d="M193.65354,86.79306c0,7.84411 -6.30547,14.203 -14.08366,14.203c-7.77818,0 -14.08367,-6.3589 -14.08367,-14.20299c0,-7.84411 6.30548,-14.203 14.08367,-14.203c7.77818,0 14.08366,6.35891 14.08366,14.203z" fill="#efad00" stroke="none" stroke-width="0" stroke-linecap="butt"/><path d="M166.29251,88.73747c0,-4.91012 2.23478,-9.31658 5.77645,-12.32406c2.99587,-2.544 6.92688,-4.08698 11.23134,-4.08698c9.39316,0 15.91374,7.54639 15.91374,16.60996c0,9.06356 -7.51518,17.10725 -16.90834,17.10725c-9.39314,0 -16.01319,-8.24262 -16.01319,-17.30617z" fill="none" stroke="#ffbf00" stroke-width="4.5" stroke-linecap="butt"/><path d="M196.5379,88.08607c0,7.84411 -6.30547,14.203 -14.08366,14.203c-7.77818,0 -14.08366,-6.3589 -14.08366,-14.20299c0,-7.84411 6.30548,-14.20299 14.08366,-14.20299c7.77818,0 14.08366,6.35891 14.08366,14.203z" fill="#efad00" stroke="none" stroke-width="0" stroke-linecap="butt"/><g stroke="none" stroke-width="0" stroke-linecap="butt"><path d="M197.43305,89.08068c0,7.84411 -6.30548,14.203 -14.08366,14.203c-7.77818,0 -14.08366,-6.3589 -14.08366,-14.20299c0,-7.84411 6.30547,-14.20299 14.08366,-14.20299c7.77818,0 14.08366,6.35891 14.08366,14.203z" fill="#cccccc"/><path d="M170.53886,92.14406c0,-1.63073 0.00034,-8.27187 3.96354,-12.03477c4.02852,-3.82492 8.26345,-4.7116 13.6035,-3.18096c1.98838,0.56993 4.57444,2.00274 4.61414,2.03219c3.24888,2.41035 4.63342,6.7198 4.63342,11.03518c0,7.2948 -6.00266,13.20841 -13.40732,13.20841c-7.40466,0 -13.40733,-3.76525 -13.40733,-11.06004z" fill="#f2f2f2"/><path d="M182.315,91.2688c0,0 -1.22574,-6.39506 -0.88456,-9.23108c0.10946,-0.90983 0.84254,-1.11284 1.23696,-1.11284c0.45233,0 0.99441,-0.00642 1.12898,1.03832c0.37522,2.91293 -0.52651,9.3056 -0.52651,9.3056z" fill="#333333"/><path d="M182.1593,90.5501c0,0 8.13853,-10.34209 9.8081,-8.98667c1.84086,1.49448 -8.84371,9.75117 -8.84371,9.75117z" fill="#333333"/></g><path d="M334.6939,233.55283v-51.3465h4.73159v51.34651z" fill="#8ecc39" stroke="none" stroke-width="0" stroke-linecap="butt"/><path d="M314.50201,168.5323c0,0 11.49858,-5.81563 15.42506,-9.74212c3.45493,-3.45493 6.9007,-12.58363 6.9007,-12.58363c0,0 4.50441,10.18735 8.11845,13.80139c3.81685,3.81686 14.20731,8.52436 14.20731,8.52436c0,0 -9.85866,4.1758 -13.39547,7.71252c-3.87437,3.87437 -8.93028,14.61323 -8.93028,14.61323c0,0 -4.58163,-10.26457 -8.11845,-13.80138c-3.87437,-3.87437 -14.20731,-8.52437 -14.20731,-8.52437z" fill="#c633fb" stroke="none" stroke-width="0" stroke-linecap="butt"/><path d="M324.9386,180.79658c0,0 3.37041,-10.00825 3.40542,-14.55916c0.03082,-4.00418 -3.20644,-11.31648 -3.20644,-11.31648c0,0 8.4886,3.35874 12.67729,3.39096c4.42372,0.03409 13.19834,-3.19197 13.19834,-3.19197c0,0 -3.35585,8.10761 -3.38741,12.20676c-0.03455,4.4904 3.18833,13.66888 3.18833,13.66888c0,0 -8.57816,-3.35948 -12.6773,-3.39095c-4.49039,-0.03455 -13.19834,3.19197 -13.19834,3.19197z" fill="#c633fb" stroke="none" stroke-width="0" stroke-linecap="butt"/><path d="M329.06408,159.8252c0,0 6.67322,2.19029 9.69991,2.19029c2.66316,0 7.50961,-2.19029 7.50961,-2.19029c0,0 -2.19029,5.66249 -2.19029,8.44835c0,2.94218 2.19029,8.76117 2.19029,8.76117c0,0 -5.40915,-2.19029 -8.13544,-2.19029c-2.98644,0 -9.07409,2.19029 -9.07409,2.19029c0,0 2.19029,-5.72207 2.19029,-8.44835c0,-2.98644 -2.19029,-8.76117 -2.19029,-8.76117z" fill="#b91eef" stroke="none" stroke-width="0" stroke-linecap="butt"/><path d="M328.35963,168.57451c0,0 5.15638,-2.5583 6.92386,-4.29879c1.55512,-1.53142 3.12576,-5.5974 3.12576,-5.5974c0,0 1.97711,4.56623 3.57912,6.19297c1.69184,1.71808 6.31716,3.85664 6.31716,3.85664c0,0 -4.41822,1.83145 -6.01033,3.39918c-1.74394,1.71733 -4.03938,6.49711 -4.03938,6.49711c0,0 -2.01138,-4.60096 -3.57912,-6.19297c-1.71733,-1.74394 -6.31716,-3.85664 -6.31716,-3.85664z" fill="#b91eef" stroke="none" stroke-width="0" stroke-linecap="butt"/><path d="M338.24632,196.16286l0.87622,-6.54981c0,0 2.70711,-1.916 5.63477,-3.5219c4.00617,-2.19749 7.33077,-2.28511 12.10696,-1.68144c1.4897,0.18828 2.58659,0.36217 2.58659,0.36217c0,0 -0.8839,1.90409 -2.13133,3.97555c-2.17301,3.60844 -4.79834,5.63126 -9.6365,6.45889c-4.45022,0.76128 -9.43669,0.95654 -9.43669,0.95654z" fill="#8ecc39" stroke="none" stroke-width="0" stroke-linecap="butt"/><path d="M318.75143,189.17455c0,0 7.05573,-1.12044 11.26506,-0.05652c0.906,0.22899 1.78684,0.5697 2.8259,1.04749c1.83292,0.84282 3.07029,1.66834 3.07029,1.66834l0.15053,7.37353c0,0 -0.65775,0.07935 -1.65526,0.07088c-4.85246,-0.04121 -8.06485,-1.14253 -11.10273,-4.18116c-2.41795,-2.41853 -4.5538,-5.92256 -4.5538,-5.92256z" fill="#8ecc39" stroke="none" stroke-width="0" stroke-linecap="butt"/><path d="M253.88029,126.65676c0,-0.78508 0.63644,-1.42151 1.42151,-1.42151c0.78507,0 1.4215,0.63644 1.4215,1.42151c0,0.78508 -0.63643,1.4215 -1.4215,1.4215c-0.78508,0 -1.42151,-0.63643 -1.42151,-1.4215z" fill="#ad2537" stroke="none" stroke-width="0" stroke-linecap="butt"/><g fill="#88e2ff" stroke="none" stroke-width="0" stroke-linecap="butt"><path d="M252.62937,127.05478c0,0 -6.16502,-10.12114 -2.72929,-10.12114c2.08524,0 3.75278,9.55253 3.75278,9.55253z"/><path d="M251.80362,127.87111c0,0 -6.79743,-5.57045 -4.39305,-6.41335c1.45928,-0.51158 4.9698,5.76433 4.9698,5.76433z"/></g><g data-paper-data="{&quot;index&quot;:null}" fill="#88e2ff" stroke="none" stroke-width="0" stroke-linecap="butt"><path d="M255.7492,128.11858c0,0 9.25132,-2.90596 10.20901,-1.05366c1.57794,3.05194 -10.24404,2.22397 -10.24404,2.22397z"/><path d="M255.67991,129.58691c0,0 7.18714,0.236 7.40293,1.76723c0.35553,2.52291 -7.71455,-0.95683 -7.71455,-0.95683z"/></g><path d="M251.5184,128.33209c0,-1.46547 1.188,-2.65348 2.65347,-2.65348c1.46547,0 2.65348,1.18801 2.65348,2.65348c0,1.46547 -1.18801,2.65348 -2.65348,2.65348c-1.46547,0 -2.65347,-1.188 -2.65347,-2.65348z" fill="#ee0d2b" stroke="none" stroke-width="0" stroke-linecap="butt"/><g stroke="none" stroke-width="0" stroke-linecap="butt"><path d="M201.76052,239.63948v-23.51249h24.27831v23.51249z" fill="#8ecc39"/><path d="M202.00055,216.13009v23.5125h-24.44891v-23.51249z" fill="#a7d948"/><g><path d="M153.58121,239.63796l-24.53695,-0.03922l0.04038,-23.58188l24.53695,0.03922z" fill="#a7d948"/><path d="M177.75796,239.67717l-24.57111,-0.03921l0.04037,-23.58188l24.57112,0.03921z" fill="#8ecc39"/></g></g><g stroke="none" stroke-width="0" stroke-linecap="butt"><path d="M300.03879,239.63948v-23.44306h24.82096v23.44306z" fill="#8ecc39"/><path d="M300.65121,216.19637v23.44306h-25.36397v-23.44306z" fill="#a7d948"/><g><path d="M250.93583,239.63796l-25.17222,-0.03922l0.04127,-23.51246l25.17222,0.03922z" fill="#a7d948"/><path d="M275.56569,239.67717l-25.05059,-0.03921l0.04128,-23.51246l25.0506,0.03921z" fill="#8ecc39"/></g></g><path d="M113.95369,164.34821c-0.36875,-0.79234 0.36197,-2.39533 1.12699,-2.75135c0.76502,-0.35603 1.68412,-0.00233 2.05286,0.79001c0.36875,0.79234 0.0475,1.72328 -0.71752,2.07931c-0.76502,0.35603 -2.09359,0.67437 -2.46233,-0.11796z" fill="#47e6f1" stroke="none" stroke-width="0" stroke-linecap="butt"/><path d="M114.10451,165.35751c0.52787,-0.87438 2.55897,-1.21129 3.40319,-0.70162c0.84423,0.50967 1.10069,1.63166 0.57282,2.50605c-0.52787,0.87438 -1.64018,1.17004 -2.48441,0.66037c-0.84423,-0.50967 -2.01948,-1.59041 -1.4916,-2.4648z" fill="#47e6f1" stroke="none" stroke-width="0" stroke-linecap="butt"/><path d="M111.4237,165.99409c-0.83502,0.12144 -1.61391,-0.4812 -1.73969,-1.34604c-0.12578,-0.86485 0.44916,-1.66439 1.28418,-1.78584c0.83502,-0.12144 2.32471,0.81894 2.4505,1.68378c0.12578,0.86485 -1.15997,1.32666 -1.99499,1.44809z" data-paper-data="{&quot;index&quot;:null}" fill="#47e6f1" stroke="none" stroke-width="0" stroke-linecap="butt"/><path d="M113.94876,168.35204c-0.42686,0.88897 -1.51928,1.25124 -2.44001,0.80914c-0.92073,-0.4421 -1.3211,-1.52115 -0.89424,-2.41012c0.42686,-0.88897 2.31042,-1.72026 3.23115,-1.27816c0.92073,0.4421 0.52996,1.99017 0.1031,2.87914z" data-paper-data="{&quot;index&quot;:null}" fill="#47e6f1" stroke="none" stroke-width="0" stroke-linecap="butt"/><path d="M112.13364,165.30752c0,-1.137 0.92172,-2.05873 2.05873,-2.05873c1.13701,0 2.05874,0.92172 2.05874,2.05873c0,1.137 -0.92172,2.05874 -2.05874,2.05874c-1.13701,0 -2.05873,-0.92173 -2.05873,-2.05874z" fill="#4c4949" stroke="none" stroke-width="0" stroke-linecap="butt"/><path d="M129.34576,136.94923c0,-1.36778 1.1088,-2.47658 2.47658,-2.47658c1.36778,0 2.47658,1.1088 2.47658,2.47658c0,1.36778 -1.1088,2.47658 -2.47658,2.47658c-1.36778,0 -2.47658,-1.1088 -2.47658,-2.47658z" fill="none" stroke="#ffffff" stroke-width="0.5" stroke-linecap="butt"/><path d="M131.82235,133.1734c0,0 0.42587,0.11031 0.90988,0.27504c0.958,0.32607 1.46082,0.71546 2.10375,1.49697c0.20386,0.2478 0.34745,0.43922 0.34745,0.43922" fill="none" stroke="#ffffff" stroke-width="0.5" stroke-linecap="round"/><path d="M135.02347,139.02081c0,0 -0.33416,0.28613 -0.74623,0.58879c-0.81562,0.59905 -1.42268,0.78858 -2.43149,0.86862c-0.31987,0.02538 -0.55903,0.03359 -0.55903,0.03359" fill="none" stroke="#ffffff" stroke-width="0.5" stroke-linecap="round"/><path d="M128.39942,138.82804c0,0 -0.10076,-0.42824 -0.18043,-0.93326c-0.15769,-0.99962 -0.04734,-1.62592 0.34475,-2.55886c0.12432,-0.29582 0.22682,-0.51205 0.22682,-0.51205" fill="none" stroke="#ffffff" stroke-width="0.5" stroke-linecap="round"/><g fill="none" stroke="#ffffff" stroke-width="0.5"><path d="M256.04692,179.44772c0,-1.36778 1.1088,-2.47658 2.47658,-2.47658c1.36778,0 2.47658,1.1088 2.47658,2.47658c0,1.36778 -1.1088,2.47658 -2.47658,2.47658c-1.36778,0 -2.47658,-1.1088 -2.47658,-2.47658z" stroke-linecap="butt"/><path d="M258.52351,175.67188c0,0 0.42587,0.1103 0.90988,0.27504c0.95801,0.32607 1.46082,0.71546 2.10375,1.49697c0.20386,0.2478 0.34745,0.43923 0.34745,0.43923" stroke-linecap="round"/><path d="M261.72462,181.51928c0,0 -0.33416,0.28614 -0.74623,0.58879c-0.81562,0.59905 -1.42268,0.78857 -2.43149,0.86861c-0.31988,0.02538 -0.55903,0.0336 -0.55903,0.0336" stroke-linecap="round"/><path d="M255.10058,181.32651c0,0 -0.10075,-0.42823 -0.18042,-0.93326c-0.15769,-0.99962 -0.04734,-1.62593 0.34475,-2.55887c0.12432,-0.29582 0.22682,-0.51205 0.22682,-0.51205" stroke-linecap="round"/></g><g fill="none" stroke="#ffffff" stroke-width="0.5"><path d="M356.17347,135.35476c0,-1.36778 1.1088,-2.47658 2.47658,-2.47658c1.36778,0 2.47658,1.1088 2.47658,2.47658c0,1.36778 -1.1088,2.47658 -2.47658,2.47658c-1.36778,0 -2.47658,-1.1088 -2.47658,-2.47658z" stroke-linecap="butt"/><path d="M358.65006,131.57893c0,0 0.42587,0.1103 0.90988,0.27504c0.95801,0.32607 1.46082,0.71546 2.10375,1.49697c0.20386,0.2478 0.34745,0.43922 0.34745,0.43922" stroke-linecap="round"/><path d="M361.85118,137.42633c0,0 -0.33417,0.28614 -0.74623,0.58879c-0.81562,0.59905 -1.42268,0.78858 -2.43149,0.86862c-0.31988,0.02538 -0.55903,0.03359 -0.55903,0.03359" stroke-linecap="round"/><path d="M355.22713,137.23355c0,0 -0.10075,-0.42824 -0.18043,-0.93326c-0.15769,-0.99962 -0.04733,-1.62592 0.34475,-2.55886c0.12432,-0.29582 0.22682,-0.51205 0.22682,-0.51205" stroke-linecap="round"/></g><path d="M349.6322,216.21928v23.44306h-25.17227v-23.44306z" fill="#a7d948" stroke="none" stroke-width="0" stroke-linecap="butt"/><path d="M178.43651,178.161l-0.04424,-2.44474l1.06973,2.1093l2.14914,-0.20901l-1.76477,1.2036l0.00458,1.90324l-1.06804,-1.55398l-1.98095,-0.03159z" fill="#ffffff" stroke="none" stroke-width="0" stroke-linecap="round"/><path d="M252.87769,144.59713l-0.4586,-2.8107l1.58477,2.25307l2.44249,-0.59926l-1.83361,1.68164l0.32261,2.19312l-1.49023,-1.61321l-2.28874,0.29386z" fill="#ffffff" stroke="none" stroke-width="0" stroke-linecap="round"/><path d="M332.87107,163.32602l-0.40031,-2.4535l1.38338,1.96674l2.13209,-0.52311l-1.60058,1.46792l0.28161,1.91441l-1.30084,-1.4082l-1.99787,0.25651z" fill="#ffffff" stroke="none" stroke-width="0" stroke-linecap="round"/><g stroke="none" stroke-width="0"><g fill="#ffbf00" stroke-linecap="butt"><g><path d="M287.81075,88.65575c0.01394,-3.47746 0.09958,-24.96703 0.09958,-24.96703h11.11783l0.04199,30.72384c0,0 -4.1357,0.01441 -7.10832,0.02935c-1.77441,0.00892 -2.99107,-1.67419 -3.63039,-2.86782c-0.35075,-0.65484 -0.5244,-1.99359 -0.52069,-2.91835z"/><path d="M309.43101,91.60984c-0.63932,1.19363 -1.85598,2.87674 -3.63039,2.86782c-2.97262,-0.01494 -6.97262,-0.02936 -6.97262,-0.02936l0.04199,-30.72384h10.98213c0,0 0.08563,21.48958 0.09957,24.96704c0.00371,0.92475 -0.16994,2.26351 -0.52068,2.91835z" data-paper-data="{&quot;index&quot;:null}"/></g><path d="M296.89487,103.75846v-10.68967h3.65954v10.68967z"/><g><path d="M306.7923,108.91873l-8.11073,0.06303l0.12232,-5.74597c0,0 2.85372,-0.03715 4.97447,-0.06892c1.26592,-0.01896 2.14072,1.6309 2.60165,2.80224c0.25287,0.64261 0.41229,2.94962 0.41229,2.94962z"/><path d="M291.32644,106.05503c0.45131,-1.17868 1.31254,-2.84251 2.57853,-2.84391c2.12087,-0.00235 4.97471,-0.01112 4.97471,-0.01112l0.09334,5.74646l-7.83515,0.06303c0,0 -0.05902,-2.30782 0.18857,-2.95445z" data-paper-data="{&quot;index&quot;:null}"/></g><g><path d="M279.21592,78.04036v-14.33022h4.29907v14.33022z"/><path d="M281.60429,67.77037v-4.06023h8.12046v4.06023z"/><path d="M288.30638,85.59686c0,0 -4.27312,-1.60232 -5.19681,-2.48627c-0.71191,-0.68128 -1.48365,-1.48653 -2.11762,-2.2665c-1.07371,-1.32097 -1.7244,-2.81419 -1.7244,-2.81419l3.47567,-2.57106c0,0 1.72955,3.0029 3.82412,4.51924c1.26223,0.91376 3.03726,0.299 3.57101,0.95762c1.57237,1.9402 -1.83197,4.66118 -1.83197,4.66118z"/></g><g data-paper-data="{&quot;index&quot;:null}"><path d="M314.32567,78.10831v-14.33022h4.29906v14.33022z"/><path d="M308.1159,67.83831v-4.06023h8.12046v4.06023z"/><path d="M307.7023,81.00364c0.53375,-0.65861 2.30879,-0.04385 3.57102,-0.95762c2.09458,-1.51633 3.82412,-4.51923 3.82412,-4.51923l3.47568,2.57106c0,0 -0.65069,1.49322 -1.7244,2.81419c-0.63397,0.77997 -1.4057,1.58522 -2.11761,2.26651c-0.92369,0.88395 -5.19682,2.48626 -5.19682,2.48626c0,0 -3.40434,-2.72097 -1.83197,-4.66117z"/></g></g><path d="M291.60673,90.63891v-21.57705c0,0 0.52334,-0.40711 0.81423,-0.40711c0.3359,0 1.08563,0.40711 1.08563,0.40711v21.57705c0,0 -0.63329,0.40711 -0.94993,0.40711c-0.31664,0 -0.94993,-0.40711 -0.94993,-0.40711z" fill="#ffd97a" stroke-linecap="butt"/><g stroke-linecap="butt"><path d="M307.41132,78.44957c0,4.86859 -3.91361,8.81537 -8.74129,8.81537c-4.82768,0 -8.7413,-3.94678 -8.7413,-8.81535c0,-4.86859 3.91362,-8.81536 8.7413,-8.81536c4.82768,0 8.74129,3.94678 8.74129,8.81537z" fill="#cccccc"/><path d="M290.71891,80.35092c0,-1.01214 0.00022,-5.1341 2.46006,-7.46962c2.50038,-2.37401 5.12887,-2.92434 8.44328,-1.97432c1.23413,0.35374 2.83922,1.24304 2.86386,1.26131c2.01648,1.49603 2.87583,4.17077 2.87583,6.84919c0,4.52766 -3.72567,8.19805 -8.32151,8.19805c-4.59584,0 -8.32151,-2.33698 -8.32151,-6.86463z" fill="#f2f2f2"/><path d="M298.02801,79.80767c0,0 -0.76078,-3.96922 -0.54903,-5.72946c0.06793,-0.56471 0.52295,-0.6907 0.76775,-0.6907c0.28075,0 0.61719,-0.00399 0.70072,0.64444c0.23289,1.80796 -0.32679,5.77571 -0.32679,5.77571z" fill="#333333"/><path d="M297.93137,79.36159c0,0 5.05133,-6.41902 6.08758,-5.57775c1.14256,0.92758 -5.48901,6.05225 -5.48901,6.05225z" fill="#333333"/></g><path d="M306.45411,65.16446l-0.66258,-4.0609l2.28968,3.25523l3.52889,-0.86581l-2.64919,2.42962l0.4661,3.16863l-2.15309,-2.33078l-3.30676,0.42458z" fill="#ffffff" stroke-linecap="round"/><path d="M287.27371,85.73234l-0.38849,-2.381l1.34249,1.90862l2.06908,-0.50765l-1.55329,1.42455l0.27328,1.85784l-1.26241,-1.3666l-1.93884,0.24894z" fill="#ffffff" stroke-linecap="round"/></g></g></g></svg>