<svg width="480px" height="360px" xmlns="http://www.w3.org/2000/svg"><rect x="216" y="124" width="80.5" height="80.5" fill-opacity="0"/><path fill="#F00" d="M265.939 189.697L265.939 189.697Q262.982 189.697 260.655 188.703Q258.327 187.709 256.970 185.648Q255.612 183.588 255.612 180.339L255.612 180.339Q249.552 179.612 246.061 175.321Q242.570 171.030 242.570 164L242.570 164Q242.570 158.861 244.436 155.176Q246.303 151.491 249.770 149.503Q253.236 147.515 257.988 147.515L257.988 147.515Q262.739 147.515 266.182 149.503Q269.624 151.491 271.491 155.176Q273.358 158.861 273.358 164L273.358 164Q273.358 171.079 269.842 175.394Q266.327 179.709 260.121 180.388L260.121 180.388Q260.509 182.812 262.158 183.612Q263.806 184.412 266.036 184.412L266.036 184.412Q267.976 184.412 269.430 183.952Q270.885 183.491 271.855 182.667L271.855 182.667L273.067 187.661Q271.855 188.630 269.842 189.164Q267.830 189.697 265.939 189.697ZM257.988 152.994L257.988 152.994Q253.915 152.994 251.709 155.830Q249.503 158.667 249.503 164L249.503 164Q249.503 169.333 251.709 172.170Q253.915 175.006 257.988 175.006L257.988 175.006Q262.012 175.006 264.218 172.170Q266.424 169.333 266.424 164L266.424 164Q266.424 158.667 264.218 155.830Q262.012 152.994 257.988 152.994Z"/></svg>