<svg width="480px" height="360px" xmlns="http://www.w3.org/2000/svg"><rect x="216" y="124" width="80.5" height="80.5" fill-opacity="0"/><path fill="#F00" d="M250.133 180L243.491 180L243.491 155.758L249.455 155.758L249.697 160.315Q250.812 157.794 252.970 156.533Q255.127 155.273 257.939 155.273L257.939 155.273Q261.721 155.273 264.194 157.479Q266.667 159.685 266.667 164.097L266.667 164.097L266.667 180L260.024 180L260.024 165.988Q260.024 162.885 258.788 161.697Q257.552 160.509 255.661 160.509L255.661 160.509Q254.303 160.509 253.018 161.164Q251.733 161.818 250.933 163.273Q250.133 164.727 250.133 167.152L250.133 167.152L250.133 180Z"/></svg>