<svg width="480px" height="360px" xmlns="http://www.w3.org/2000/svg"><rect x="216" y="124" width="80.5" height="80.5" fill-opacity="0"/><path fill="#F00" d="M242.857 153.275L242.857 153.275Q242.857 150.989 244.495 149.275Q246.132 147.560 248.462 147.560L248.462 147.560Q250.747 147.560 252.363 149.264Q253.978 150.967 253.978 153.275L253.978 153.275Q253.978 155.604 252.363 157.253Q250.747 158.901 248.462 158.901L248.462 158.901Q246.154 158.901 244.505 157.253Q242.857 155.604 242.857 153.275ZM248.462 156.088L248.462 156.088Q249.648 156.088 250.462 155.308Q251.275 154.527 251.275 153.275L251.275 153.275Q251.275 152 250.462 151.176Q249.648 150.352 248.462 150.352L248.462 150.352Q247.253 150.352 246.429 151.220Q245.604 152.088 245.604 153.275Q245.604 154.462 246.429 155.275Q247.253 156.088 248.462 156.088Z"/></svg>