<svg width="480px" height="360px" xmlns="http://www.w3.org/2000/svg"><rect x="216" y="124" width="80.5" height="80.5" fill-opacity="0"/><path fill="#F00" d="M255.079 147.612L255.079 147.612Q260.218 147.612 263.297 149.915Q266.376 152.218 266.376 156.242L266.376 156.242Q266.376 158.764 265.139 160.630Q263.903 162.497 261.576 163.418L261.576 163.418L261.576 163.467Q264.388 164.485 265.988 166.424Q267.588 168.364 267.588 171.321L267.588 171.321Q267.588 175.491 264.242 177.988Q260.897 180.485 255.079 180.485L255.079 180.485Q249.358 180.485 245.988 177.988Q242.618 175.491 242.618 171.321L242.618 171.321Q242.618 168.412 244.218 166.448Q245.818 164.485 248.679 163.467L248.679 163.467L248.679 163.418Q246.352 162.497 245.091 160.630Q243.830 158.764 243.830 156.242L243.830 156.242Q243.830 152.218 246.909 149.915Q249.988 147.612 255.079 147.612ZM255.079 152.752L255.079 152.752Q252.800 152.752 251.491 153.867Q250.182 154.982 250.182 156.970L250.182 156.970Q250.182 158.909 251.515 160.048Q252.848 161.188 255.079 161.188L255.079 161.188Q257.358 161.188 258.691 160.048Q260.024 158.909 260.024 156.970L260.024 156.970Q260.024 154.982 258.715 153.867Q257.406 152.752 255.079 152.752ZM255.079 175.297L255.079 175.297Q257.842 175.297 259.418 174.061Q260.994 172.824 260.994 170.642L260.994 170.642Q260.994 168.461 259.394 167.200Q257.794 165.939 255.079 165.939L255.079 165.939Q252.412 165.939 250.788 167.200Q249.164 168.461 249.164 170.642L249.164 170.642Q249.164 172.824 250.764 174.061Q252.364 175.297 255.079 175.297Z"/></svg>