<svg width="480px" height="360px" xmlns="http://www.w3.org/2000/svg"><rect x="216" y="124" width="80.5" height="80.5" fill-opacity="0"/><path fill="#F00" d="M245.236 148L255.564 148Q263.079 148 267.370 152.145Q271.661 156.291 271.661 164L271.661 164Q271.661 171.709 267.370 175.855Q263.079 180 255.564 180L255.564 180L245.236 180L245.236 148ZM249.115 176.364L255.952 176.364Q261.430 176.364 264.509 173.091Q267.588 169.818 267.588 164L267.588 164Q267.588 158.182 264.509 154.909Q261.430 151.636 255.952 151.636L255.952 151.636L249.115 151.636L249.115 176.364Z"/></svg>