<svg version="1.1" xmlns="http://www.w3.org/2000/svg" xmlns:xlink="http://www.w3.org/1999/xlink" width="20" height="20" viewBox="0,0,20,20"><g transform="translate(-230,-170)"><g data-paper-data="{&quot;isPaintingLayer&quot;:true}" fill-rule="nonzero" stroke="none" stroke-linejoin="miter" stroke-miterlimit="10" stroke-dasharray="" stroke-dashoffset="0" style="mix-blend-mode: normal"><path d="M230,190v-20h20v20z" fill="#e5c29f" stroke-width="0" stroke-linecap="butt"/><path d="M238.36714,178.7109h1.45313c1.14583,0 1.71875,-0.55729 1.71875,-1.67187c0,-0.4375 -0.13542,-0.79687 -0.40625,-1.07812c-0.27083,-0.28125 -0.65625,-0.42187 -1.15625,-0.42187c-0.40625,0 -0.76042,0.11979 -1.0625,0.35938c-0.30208,0.23958 -0.45312,0.53646 -0.45312,0.89063h-3.0625c0,-0.69792 0.19271,-1.31771 0.57813,-1.85937c0.38542,-0.55208 0.92188,-0.97917 1.60938,-1.28125c0.69792,-0.3125 1.45833,-0.46875 2.28125,-0.46875c1.47917,0 2.64063,0.33854 3.48438,1.01563c0.84375,0.66667 1.26563,1.58854 1.26563,2.76563c0,0.57292 -0.17708,1.11458 -0.53125,1.625c-0.34375,0.51042 -0.84896,0.92188 -1.51562,1.23438c0.69792,0.25 1.24479,0.63542 1.64063,1.15625c0.40625,0.52083 0.60938,1.16667 0.60938,1.9375c0,1.17708 -0.45833,2.125 -1.375,2.84375c-0.90625,0.70833 -2.09896,1.0625 -3.57812,1.0625c-0.86458,0 -1.67187,-0.16667 -2.42187,-0.5c-0.73958,-0.33333 -1.30208,-0.79167 -1.6875,-1.375c-0.38542,-0.58333 -0.57812,-1.25 -0.57812,-2h3.09375c0,0.40625 0.16146,0.76042 0.48438,1.0625c0.33333,0.29167 0.73958,0.4375 1.21875,0.4375c0.54167,0 0.97396,-0.15104 1.29688,-0.45312c0.32292,-0.30208 0.48438,-0.6875 0.48438,-1.15625c0,-0.66667 -0.16667,-1.13542 -0.5,-1.40625c-0.33333,-0.28125 -0.79687,-0.42187 -1.39062,-0.42187h-1.5z" fill="#d32f2f" stroke-width="1" stroke-linecap="square"/></g></g></svg>