<svg width="480px" height="360px" xmlns="http://www.w3.org/2000/svg"><rect x="216" y="124" width="80.5" height="80.5" fill-opacity="0"/><path fill="#F00" d="M250.812 180L247.176 180L247.176 173.794L242.570 173.794L242.570 170.739L247.176 170.739L247.176 167.345L242.570 167.345L242.570 163.952L247.176 163.952L247.176 148L258.473 148Q261.721 148 264.121 149.188Q266.521 150.376 267.879 152.558Q269.236 154.739 269.236 157.745L269.236 157.745Q269.236 160.655 267.879 162.812Q266.521 164.970 264.121 166.158Q261.721 167.345 258.473 167.345L258.473 167.345L250.812 167.345L250.812 170.739L259.442 170.739L259.442 173.794L250.812 173.794L250.812 180ZM250.812 151.539L250.812 163.952L257.891 163.952Q261.673 163.952 263.418 162.376Q265.164 160.800 265.164 157.745L265.164 157.745Q265.164 154.691 263.418 153.115Q261.673 151.539 257.891 151.539L257.891 151.539L250.812 151.539Z"/></svg>