<svg width="480px" height="360px" xmlns="http://www.w3.org/2000/svg"><rect x="216" y="124" width="80.5" height="80.5" fill-opacity="0"/><path fill="#F00" d="M256.630 180.388L256.630 180.388Q253.236 180.388 250.376 178.764Q247.515 177.139 245.794 174.061Q244.073 170.982 244.073 166.667L244.073 166.667Q244.073 162.933 245.164 159.515Q246.255 156.097 248.364 153.382Q250.473 150.667 253.576 149.091Q256.679 147.515 260.752 147.515L260.752 147.515Q263.661 147.515 266.158 148.339Q268.655 149.164 270.497 151.030Q272.339 152.897 273.212 156.097L273.212 156.097L269.285 157.455Q268.412 154.012 266.109 152.558Q263.806 151.103 260.509 151.103L260.509 151.103Q257.503 151.103 255.200 152.388Q252.897 153.673 251.321 155.855Q249.745 158.036 248.945 160.727Q248.145 163.418 248.145 166.230L248.145 166.230Q248.145 171.224 250.642 173.964Q253.139 176.703 257.406 176.703L257.406 176.703Q261.479 176.703 263.927 174.618Q266.376 172.533 267.152 169.188L267.152 169.188L267.491 167.733L257.503 167.733L258.327 164.097L271.758 164.097L267.879 180L264.824 180L265.697 175.733Q264.242 177.964 261.988 179.176Q259.733 180.388 256.630 180.388Z"/></svg>