<svg width="480px" height="360px" xmlns="http://www.w3.org/2000/svg"><rect x="216" y="124" width="80.5" height="80.5" fill-opacity="0"/><path fill="#F00" d="M254.691 180L249.891 180L246.400 165.212L240.679 165.212L240.679 162.061L245.673 162.061L242.327 148L246.352 148L249.358 162.061L255.321 162.061L258.327 148L262.788 148L265.794 162.061L271.903 162.061L275.055 148L278.691 148L275.345 162.061L280.388 162.061L280.388 165.212L274.618 165.212L271.127 180L266.327 180L263.224 165.212L257.794 165.212L254.691 180ZM262.545 162.061L260.509 152.461L258.473 162.061L262.545 162.061ZM250.036 165.212L252.315 176.024L254.642 165.212L250.036 165.212ZM266.473 165.212L268.800 176.024L271.224 165.212L266.473 165.212Z"/></svg>