<svg width="480px" height="360px" xmlns="http://www.w3.org/2000/svg"><rect x="216" y="124" width="80.5" height="80.5" fill-opacity="0"/><path fill="#F00" d="M258.088 173.736L258.088 172.154Q258.088 169.275 259.923 167.418Q261.758 165.560 264.637 165.560L264.637 165.560Q267.978 165.560 269.670 168.220L269.670 168.220Q271.407 165.560 274.725 165.560L274.725 165.560Q277.604 165.560 279.451 167.407Q281.297 169.253 281.297 172.308L281.297 172.308L281.297 173.868Q281.297 176.747 279.462 178.604Q277.626 180.462 274.769 180.462L274.769 180.462Q271.407 180.462 269.670 177.824L269.670 177.824Q268 180.462 264.681 180.462L264.681 180.462Q261.824 180.462 259.956 178.626Q258.088 176.791 258.088 173.736L258.088 173.736ZM241.495 155.692L241.495 154.154Q241.495 151.275 243.330 149.407Q245.165 147.538 248.044 147.538L248.044 147.538Q250.945 147.538 252.780 149.407Q254.615 151.275 254.615 154.264L254.615 154.264L254.615 155.846Q254.615 158.681 252.802 160.549Q250.989 162.418 248.088 162.418L248.088 162.418Q245.231 162.418 243.363 160.582Q241.495 158.747 241.495 155.692L241.495 155.692ZM265.055 152.571L249.429 177.582L247.143 176.132L262.769 151.121L265.055 152.571ZM261.121 172.242L261.121 173.868Q261.121 175.604 262.088 176.714Q263.055 177.824 264.681 177.824L264.681 177.824Q266.264 177.824 267.209 176.736Q268.154 175.648 268.154 173.780L268.154 173.780L268.154 172.154Q268.154 170.418 267.198 169.319Q266.242 168.220 264.637 168.220L264.637 168.220Q263.077 168.220 262.099 169.308Q261.121 170.396 261.121 172.242L261.121 172.242ZM271.209 172.242L271.209 173.868Q271.209 175.604 272.176 176.714Q273.143 177.824 274.747 177.824L274.747 177.824Q276.330 177.824 277.275 176.703Q278.220 175.582 278.220 173.780L278.220 173.780L278.220 172.154Q278.220 170.418 277.264 169.319Q276.308 168.220 274.703 168.220L274.703 168.220Q273.121 168.220 272.165 169.319Q271.209 170.418 271.209 172.242L271.209 172.242ZM244.527 154.242L244.527 155.846Q244.527 157.560 245.495 158.670Q246.462 159.780 248.088 159.780L248.088 159.780Q249.648 159.780 250.604 158.703Q251.560 157.626 251.560 155.758L251.560 155.758L251.560 154.154Q251.560 152.440 250.615 151.319Q249.670 150.198 248.044 150.198L248.044 150.198Q246.462 150.198 245.495 151.308Q244.527 152.418 244.527 154.242L244.527 154.242Z"/></svg>