<svg width="480px" height="360px" xmlns="http://www.w3.org/2000/svg"><rect x="216" y="124" width="80.5" height="80.5" fill-opacity="0"/><path fill="#F00" d="M248.388 180L244.509 180L244.509 155.758L247.903 155.758L248.145 159.539Q249.455 157.309 251.564 156.291Q253.673 155.273 255.903 155.273L255.903 155.273Q258.473 155.273 260.752 156.436Q263.030 157.600 264.242 160.024L264.242 160.024Q265.018 158.376 266.424 157.333Q267.830 156.291 269.503 155.782Q271.176 155.273 272.679 155.273L272.679 155.273Q275.006 155.273 277.115 156.242Q279.224 157.212 280.582 159.248Q281.939 161.285 281.939 164.485L281.939 164.485L281.939 180L278.061 180L278.061 164.873Q278.061 161.576 276.412 160.121Q274.764 158.667 272.339 158.667L272.339 158.667Q270.448 158.667 268.800 159.588Q267.152 160.509 266.158 162.303Q265.164 164.097 265.164 166.715L265.164 166.715L265.164 180L261.285 180L261.285 164.873Q261.285 161.576 259.636 160.121Q257.988 158.667 255.564 158.667L255.564 158.667Q253.964 158.667 252.291 159.515Q250.618 160.364 249.503 162.206Q248.388 164.048 248.388 167.055L248.388 167.055L248.388 180Z"/></svg>