<svg width="480px" height="360px" xmlns="http://www.w3.org/2000/svg"><rect x="216" y="124" width="80.5" height="80.5" fill-opacity="0"/><path fill="#F00" d="M243.209 156.220L247.275 156.220L247.275 182.747Q247.275 189.604 241.055 189.604L241.055 189.604Q239.714 189.604 238.571 189.209L238.571 189.209L238.571 185.956Q239.275 186.132 240.418 186.132L240.418 186.132Q241.780 186.132 242.495 185.396Q243.209 184.659 243.209 182.835L243.209 182.835L243.209 156.220ZM242.791 149.912L242.791 149.912Q242.791 148.945 243.396 148.253Q244 147.560 245.165 147.560L245.165 147.560Q246.352 147.560 246.967 148.242Q247.582 148.923 247.582 149.912Q247.582 150.901 246.967 151.560Q246.352 152.220 245.165 152.220Q243.978 152.220 243.385 151.560Q242.791 150.901 242.791 149.912Z"/></svg>