<svg version="1.1" xmlns="http://www.w3.org/2000/svg" xmlns:xlink="http://www.w3.org/1999/xlink" width="74.17139" height="37.91019" viewBox="0,0,74.17139,37.91019"><g transform="translate(-188.88147,-161.04491)"><g data-paper-data="{&quot;isPaintingLayer&quot;:true}" fill-rule="nonzero" stroke-miterlimit="10" stroke-dasharray="" stroke-dashoffset="0" style="mix-blend-mode: normal"><path d="M195.88147,191.9551v-23.91019h60.17139v23.91019z" data-paper-data="{&quot;zoomLevel&quot;:1.5487}" fill="#ffffff" stroke="#ffffff" stroke-width="14" stroke-linecap="butt" stroke-linejoin="round"/><path d="M247.08053,184.04178l-6.89311,-6.89311h13.78622z" fill="#000000" stroke="none" stroke-width="0" stroke-linecap="butt" stroke-linejoin="miter"/><path d="M207.98165,187.09844h-2.73437v-5.6875h-5.32812v5.6875h-2.73437v-13.26562h2.73438v5.375h5.32813v-5.375h2.73438zM215.89747,187.09844c-0.11458,-0.23958 -0.20312,-0.53646 -0.26562,-0.89062c-0.63542,0.71875 -1.46354,1.07813 -2.48437,1.07813c-0.96875,0 -1.77083,-0.28125 -2.40625,-0.84375c-0.625,-0.5625 -0.9375,-1.26562 -0.9375,-2.10937c0,-1.05208 0.38542,-1.85417 1.15625,-2.40625c0.77083,-0.5625 1.89063,-0.84375 3.35938,-0.84375h1.20313v-0.57812c0,-0.44792 -0.11979,-0.80729 -0.35937,-1.07812c-0.22917,-0.28125 -0.59375,-0.42187 -1.09375,-0.42187c-0.4375,0 -0.78646,0.10938 -1.04687,0.32813c-0.25,0.20833 -0.375,0.5 -0.375,0.875h-2.625c0,-0.57292 0.17188,-1.09896 0.51563,-1.57812c0.35417,-0.48958 0.85417,-0.86979 1.5,-1.14062c0.64583,-0.28125 1.36979,-0.42187 2.17188,-0.42187c1.20833,0 2.16667,0.30729 2.875,0.92188c0.71875,0.60417 1.07813,1.45833 1.07813,2.5625v4.26563c0.01042,0.9375 0.14063,1.64583 0.39063,2.125v0.15625zM213.72559,185.2703c0.38542,0 0.73958,-0.08333 1.0625,-0.25c0.33333,-0.17708 0.57813,-0.41146 0.73438,-0.70312v-1.70312h-0.98437c-1.3125,0 -2.01042,0.45833 -2.09375,1.375l-0.01562,0.15625c0,0.32292 0.11458,0.59375 0.34375,0.8125c0.22917,0.20833 0.54688,0.3125 0.95313,0.3125zM225.72782,179.7078c-0.35417,-0.04167 -0.66667,-0.0625 -0.9375,-0.0625c-1,0 -1.65625,0.33333 -1.96875,1v6.45313h-2.625v-9.85937h2.48438l0.07813,1.17188c0.52083,-0.89583 1.25,-1.34375 2.1875,-1.34375c0.29167,0 0.56771,0.03646 0.82813,0.10938zM226.40632,182.09844c0,-1.54167 0.34375,-2.76562 1.03125,-3.67187c0.69792,-0.90625 1.64583,-1.35937 2.84375,-1.35937c0.95833,0 1.75,0.35417 2.375,1.0625v-5.03125h2.64063v14h-2.375l-0.125,-1.04687c-0.65625,0.82292 -1.5,1.23438 -2.53125,1.23438c-1.16667,0 -2.10417,-0.45833 -2.8125,-1.375c-0.69792,-0.91667 -1.04687,-2.1875 -1.04687,-3.8125zM229.04694,182.28594c0,0.92708 0.16146,1.63542 0.48438,2.125c0.32292,0.48958 0.79167,0.73438 1.40625,0.73438c0.8125,0 1.38542,-0.34375 1.71875,-1.03125v-3.89062c-0.33333,-0.67708 -0.90104,-1.01562 -1.70312,-1.01562c-1.27083,0 -1.90625,1.02604 -1.90625,3.07813z" fill="#000000" stroke="none" stroke-width="1" stroke-linecap="square" stroke-linejoin="miter"/></g></g></svg>