<svg width="480px" height="360px" xmlns="http://www.w3.org/2000/svg"><rect x="216" y="124" width="80.5" height="80.5" fill-opacity="0"/><path fill="#F00" d="M254.545 155.273L254.545 155.273Q258.279 155.273 260.752 156.994Q263.224 158.715 264.582 161.721L264.582 161.721L260.897 163.467Q260.121 161.139 258.545 159.903Q256.970 158.667 254.448 158.667L254.448 158.667Q250.812 158.667 248.752 161.115Q246.691 163.564 246.691 167.879L246.691 167.879Q246.691 172.194 248.752 174.642Q250.812 177.091 254.448 177.091L254.448 177.091Q257.309 177.091 259.006 175.782Q260.703 174.473 261.236 172.097L261.236 172.097L264.824 173.358Q263.612 176.703 261.018 178.594Q258.424 180.485 254.545 180.485L254.545 180.485Q251.152 180.485 248.485 178.982Q245.818 177.479 244.315 174.642Q242.812 171.806 242.812 167.879L242.812 167.879Q242.812 163.952 244.315 161.115Q245.818 158.279 248.485 156.776Q251.152 155.273 254.545 155.273Z"/></svg>