<svg width="480px" height="360px" xmlns="http://www.w3.org/2000/svg"><rect x="216" y="124" width="80.5" height="80.5" fill-opacity="0"/><path fill="#F00" d="M258.861 180L252.606 180L252.606 174.376L243.297 174.376L243.297 171.612L252.606 171.612L252.606 168.267L243.297 168.267L243.297 165.358L249.212 165.358L251.830 165.552L241.212 148L248.242 148L253.479 158.376L255.709 163.273L255.806 163.273L257.988 158.327L263.224 148L270.303 148L259.636 165.552L262.255 165.358L268.218 165.358L268.218 168.267L258.861 168.267L258.861 171.612L268.218 171.612L268.218 174.376L258.861 174.376L258.861 180Z"/></svg>