<svg width="480px" height="360px" xmlns="http://www.w3.org/2000/svg"><rect x="216" y="124" width="80.5" height="80.5" fill-opacity="0"/><path fill="#F00" d="M248.436 187.758L244.364 187.758L244.364 173.891L244.945 165.842L247.855 165.842L248.436 173.891L248.436 187.758ZM246.400 161.576L246.400 161.576Q244.994 161.576 244.121 160.703Q243.248 159.830 243.248 158.424L243.248 158.424Q243.248 157.018 244.121 156.145Q244.994 155.273 246.400 155.273L246.400 155.273Q247.806 155.273 248.679 156.145Q249.552 157.018 249.552 158.424L249.552 158.424Q249.552 159.830 248.679 160.703Q247.806 161.576 246.400 161.576Z"/></svg>