<svg width="480px" height="360px" xmlns="http://www.w3.org/2000/svg"><rect x="216" y="124" width="80.5" height="80.5" fill-opacity="0"/><path fill="#F00" d="M262.739 189.503L262.739 189.503Q257.067 189.503 252.655 187.176Q248.242 184.848 245.721 180.582Q243.200 176.315 243.200 170.497L243.200 170.497Q243.200 165.552 244.800 161.430Q246.400 157.309 249.309 154.303Q252.218 151.297 256.170 149.648Q260.121 148 264.873 148L264.873 148Q270.788 148 274.885 150.279Q278.982 152.558 281.139 156.509Q283.297 160.461 283.297 165.600L283.297 165.600Q283.297 169.915 281.867 173.212Q280.436 176.509 278.158 178.376Q275.879 180.242 273.261 180.242L273.261 180.242Q270.836 180.242 269.624 178.909Q268.412 177.576 268.655 175.491L268.655 175.491Q267.588 177.527 265.455 178.715Q263.321 179.903 261.042 179.903L261.042 179.903Q258.521 179.903 256.606 178.691Q254.691 177.479 253.624 175.321Q252.558 173.164 252.558 170.352L252.558 170.352Q252.558 166.715 253.988 163.782Q255.418 160.848 257.915 159.127Q260.412 157.406 263.612 157.406L263.612 157.406Q266.473 157.406 268.388 158.861Q270.303 160.315 270.933 162.739L270.933 162.739L272.097 157.842L275.539 157.842L271.855 173.648Q271.758 174.182 271.685 174.618Q271.612 175.055 271.612 175.442L271.612 175.442Q271.612 176.752 272.242 177.139Q272.873 177.527 273.745 177.527L273.745 177.527Q275.491 177.527 277.018 176.097Q278.545 174.667 279.491 171.976Q280.436 169.285 280.436 165.600L280.436 165.600Q280.436 161.042 278.521 157.745Q276.606 154.448 273.042 152.655Q269.479 150.861 264.582 150.861L264.582 150.861Q260.655 150.861 257.333 152.267Q254.012 153.673 251.588 156.267Q249.164 158.861 247.806 162.473Q246.448 166.085 246.448 170.497L246.448 170.497Q246.448 174.327 247.758 177.333Q249.067 180.339 251.321 182.424Q253.576 184.509 256.533 185.576Q259.491 186.642 262.739 186.642L262.739 186.642Q266.182 186.642 268.461 185.939Q270.739 185.236 272.339 184.315L272.339 184.315L273.503 186.836Q272.145 187.515 270.691 188.145Q269.236 188.776 267.370 189.139Q265.503 189.503 262.739 189.503ZM262.158 176.945L262.158 176.945Q264.194 176.945 265.891 175.612Q267.588 174.279 268.582 171.976Q269.576 169.673 269.576 166.812L269.576 166.812Q269.576 163.903 268 162.158Q266.424 160.412 263.855 160.412L263.855 160.412Q261.576 160.412 259.782 161.721Q257.988 163.030 256.994 165.261Q256 167.491 256 170.303L256 170.303Q256 173.503 257.600 175.224Q259.200 176.945 262.158 176.945Z"/></svg>