<svg width="480px" height="360px" xmlns="http://www.w3.org/2000/svg"><rect x="216" y="124" width="80.5" height="80.5" fill-opacity="0"/><path fill="#F00" d="M250.570 151.103L250.570 151.103Q249.406 151.103 248.679 150.400Q247.952 149.697 247.952 148.582L247.952 148.582Q247.952 147.079 248.848 146.182Q249.745 145.285 251.006 145.285L251.006 145.285Q252.170 145.285 252.897 145.988Q253.624 146.691 253.624 147.806L253.624 147.806Q253.624 149.309 252.727 150.206Q251.830 151.103 250.570 151.103ZM237.430 190.424L237.430 190.424Q235.976 190.424 234.545 189.988Q233.115 189.552 232.291 188.679L232.291 188.679L233.648 185.188Q234.327 185.770 235.273 186.158Q236.218 186.545 237.139 186.545L237.139 186.545Q238.497 186.545 239.394 185.770Q240.291 184.994 240.776 182.764L240.776 182.764L247.127 155.758L251.006 155.758L244.509 183.782Q243.733 187.224 241.721 188.824Q239.709 190.424 237.430 190.424Z"/></svg>