<svg width="480px" height="360px" xmlns="http://www.w3.org/2000/svg"><rect x="216" y="124" width="80.5" height="80.5" fill-opacity="0"/><path fill="#F00" d="M254.545 155.273L254.545 155.273Q258.182 155.273 260.994 156.776Q263.806 158.279 265.382 161.091Q266.958 163.903 266.958 167.879L266.958 167.879Q266.958 171.855 265.382 174.667Q263.806 177.479 260.994 178.982Q258.182 180.485 254.545 180.485L254.545 180.485Q250.861 180.485 248.073 178.982Q245.285 177.479 243.709 174.667Q242.133 171.855 242.133 167.879L242.133 167.879Q242.133 163.903 243.709 161.091Q245.285 158.279 248.073 156.776Q250.861 155.273 254.545 155.273ZM254.545 160.218L254.545 160.218Q251.830 160.218 250.303 162.133Q248.776 164.048 248.776 167.879L248.776 167.879Q248.776 171.709 250.303 173.624Q251.830 175.539 254.545 175.539L254.545 175.539Q257.212 175.539 258.739 173.624Q260.267 171.709 260.267 167.879L260.267 167.879Q260.267 164.048 258.739 162.133Q257.212 160.218 254.545 160.218Z"/></svg>