<svg width="480px" height="360px" xmlns="http://www.w3.org/2000/svg"><rect x="216" y="124" width="80.5" height="80.5" fill-opacity="0"/><path fill="#F00" d="M265.891 190.182L262.012 190.182L262.012 175.976Q260.945 178.158 258.739 179.321Q256.533 180.485 253.964 180.485L253.964 180.485Q250.958 180.485 248.436 178.982Q245.915 177.479 244.412 174.642Q242.909 171.806 242.909 167.879L242.909 167.879Q242.909 163.855 244.509 161.042Q246.109 158.230 248.727 156.752Q251.345 155.273 254.352 155.273L254.352 155.273Q256.921 155.273 259.103 156.509Q261.285 157.745 262.255 159.927L262.255 159.927L262.497 155.758L265.891 155.758L265.891 190.182ZM254.352 177.091L254.352 177.091Q257.794 177.091 259.903 174.545Q262.012 172 262.012 167.733L262.012 167.733Q262.012 163.370 259.952 161.018Q257.891 158.667 254.448 158.667L254.448 158.667Q250.861 158.667 248.824 161.188Q246.788 163.709 246.788 167.879L246.788 167.879Q246.788 172.048 248.776 174.570Q250.764 177.091 254.352 177.091Z"/></svg>