<svg width="480px" height="360px" xmlns="http://www.w3.org/2000/svg"><rect x="216" y="124" width="80.5" height="80.5" fill-opacity="0"/><path fill="#F00" d="M248.388 180L244.509 180L244.509 155.758L247.661 155.758L248.194 159.733Q250.230 155.273 255.952 155.273L255.952 155.273Q256.582 155.273 257.333 155.370Q258.085 155.467 258.618 155.758L258.618 155.758L257.939 159.297Q257.406 159.103 256.776 159.006Q256.145 158.909 254.982 158.909L254.982 158.909Q253.479 158.909 251.952 159.782Q250.424 160.655 249.406 162.424Q248.388 164.194 248.388 166.909L248.388 166.909L248.388 180Z"/></svg>