<svg width="480px" height="360px" xmlns="http://www.w3.org/2000/svg"><rect x="216" y="124" width="80.5" height="80.5" fill-opacity="0"/><path fill="#F00" d="M246.158 180L242.279 180L249.697 148L260.170 148Q264.485 148 267.030 150.303Q269.576 152.606 269.576 156.679L269.576 156.679Q269.576 159.248 268.461 161.285Q267.345 163.321 265.503 164.703Q263.661 166.085 261.479 166.618L261.479 166.618L266.958 180L262.739 180L257.552 167.103L249.164 167.103L246.158 180ZM259.394 151.636L259.394 151.636L252.752 151.636L249.988 163.467L257.939 163.467Q261.818 163.467 263.685 161.430Q265.552 159.394 265.552 156.533L265.552 156.533Q265.552 154.109 263.903 152.873Q262.255 151.636 259.394 151.636Z"/></svg>