<svg version="1.1" xmlns="http://www.w3.org/2000/svg" xmlns:xlink="http://www.w3.org/1999/xlink" width="20" height="20" viewBox="0,0,20,20"><g transform="translate(-230,-170)"><g data-paper-data="{&quot;isPaintingLayer&quot;:true}" fill-rule="nonzero" stroke="none" stroke-linejoin="miter" stroke-miterlimit="10" stroke-dasharray="" stroke-dashoffset="0" style="mix-blend-mode: normal"><path d="M230,190v-20h20v20z" fill="#e5c29f" stroke-width="0" stroke-linecap="butt"/><path d="M244.35936,176.91405c0,0.64583 -0.16146,1.21354 -0.48437,1.70313c-0.3125,0.48958 -0.74479,0.88542 -1.29687,1.1875c0.625,0.30208 1.11979,0.72396 1.48438,1.26563c0.375,0.54167 0.5625,1.17708 0.5625,1.90625c0,1.1875 -0.41146,2.125 -1.23437,2.8125c-0.8125,0.6875 -1.93229,1.03125 -3.35937,1.03125c-1.4375,0 -2.57292,-0.34375 -3.40625,-1.03125c-0.83333,-0.69792 -1.25,-1.63542 -1.25,-2.8125c0,-0.70833 0.18229,-1.33333 0.54688,-1.875c0.36458,-0.55208 0.88021,-0.98437 1.54688,-1.29687c-0.5625,-0.30208 -1.00521,-0.69792 -1.32812,-1.1875c-0.32292,-0.48958 -0.48437,-1.05729 -0.48437,-1.70312c0,-1.15625 0.39063,-2.06771 1.17188,-2.73437c0.78125,-0.66667 1.83854,-1 3.17188,-1c1.34375,0 2.40625,0.33333 3.1875,1c0.78125,0.66667 1.17188,1.57813 1.17188,2.73438zM241.54686,182.72655c0,-0.54167 -0.14062,-0.95833 -0.42187,-1.25c-0.28125,-0.30208 -0.65625,-0.45312 -1.125,-0.45312c-0.45833,0 -0.82812,0.15104 -1.10937,0.45313c-0.28125,0.29167 -0.42187,0.70833 -0.42187,1.25c0,0.53125 0.14063,0.95313 0.42188,1.26563c0.29167,0.30208 0.67188,0.45313 1.14063,0.45313c0.45833,0 0.82292,-0.15104 1.09375,-0.45312c0.28125,-0.30208 0.42188,-0.72396 0.42188,-1.26562zM239.99999,175.53905c-0.41667,0 -0.73437,0.13542 -0.95312,0.40625c-0.20833,0.27083 -0.3125,0.64583 -0.3125,1.125c0,0.47917 0.10938,0.86458 0.32813,1.15625c0.21875,0.29167 0.54167,0.4375 0.96875,0.4375c0.41667,0 0.72917,-0.14583 0.9375,-0.4375c0.20833,-0.29167 0.3125,-0.67187 0.3125,-1.14062c0,-0.47917 -0.10937,-0.85417 -0.32812,-1.125c-0.20833,-0.28125 -0.52604,-0.42187 -0.95312,-0.42187z" fill="#a49789" stroke-width="1" stroke-linecap="square"/></g></g></svg>