<svg width="480px" height="360px" xmlns="http://www.w3.org/2000/svg"><rect x="216" y="124" width="80.5" height="80.5" fill-opacity="0"/><path fill="#F00" d="M260.412 161.382L264.097 161.382Q263.515 168.606 257.794 168.606L257.794 168.606Q256.145 168.606 254.933 168.073Q253.721 167.539 252.776 166.812Q251.830 166.085 250.885 165.552Q249.939 165.018 248.776 165.018L248.776 165.018Q247.515 165.018 246.788 165.988Q246.061 166.958 245.770 168.606L245.770 168.606L242.085 168.606Q242.667 161.382 248.436 161.382L248.436 161.382Q250.036 161.382 251.248 161.915Q252.461 162.448 253.430 163.176Q254.400 163.903 255.345 164.436Q256.291 164.970 257.406 164.970L257.406 164.970Q258.667 164.970 259.394 164Q260.121 163.030 260.412 161.382L260.412 161.382Z"/></svg>