<svg width="480px" height="360px" xmlns="http://www.w3.org/2000/svg"><rect x="216" y="124" width="80.5" height="80.5" fill-opacity="0"/><path fill="#F00" d="M245.236 165.842L248.048 165.842L246.885 173.891L243.685 187.758L239.515 187.758L242.715 173.891L245.236 165.842ZM248.436 155.273L248.436 155.273Q249.648 155.273 250.448 156.024Q251.248 156.776 251.248 157.988L251.248 157.988Q251.248 159.636 250.279 160.606Q249.309 161.576 247.952 161.576L247.952 161.576Q246.739 161.576 245.939 160.824Q245.139 160.073 245.139 158.861L245.139 158.861Q245.139 157.212 246.085 156.242Q247.030 155.273 248.436 155.273Z"/></svg>