<svg width="480px" height="360px" xmlns="http://www.w3.org/2000/svg"><rect x="216" y="124" width="80.5" height="80.5" fill-opacity="0"/><path fill="#F00" d="M246.448 151.103L246.448 151.103Q245.139 151.103 244.339 150.303Q243.539 149.503 243.539 148.194L243.539 148.194Q243.539 146.885 244.339 146.085Q245.139 145.285 246.448 145.285L246.448 145.285Q247.758 145.285 248.558 146.085Q249.358 146.885 249.358 148.194L249.358 148.194Q249.358 149.503 248.558 150.303Q247.758 151.103 246.448 151.103ZM244.509 155.758L248.388 155.758L248.388 182.473Q248.388 185.479 247.224 187.224Q246.061 188.970 244.364 189.697Q242.667 190.424 241.018 190.424L241.018 190.424Q239.515 190.424 238.255 189.964Q236.994 189.503 236.170 188.824L236.170 188.824L236.994 185.139Q237.673 185.770 238.691 186.206Q239.709 186.642 240.970 186.642L240.970 186.642Q242.521 186.642 243.515 185.624Q244.509 184.606 244.509 182.085L244.509 182.085L244.509 155.758Z"/></svg>