<svg width="480px" height="360px" xmlns="http://www.w3.org/2000/svg"><rect x="216" y="124" width="80.5" height="80.5" fill-opacity="0"/><path fill="#F00" d="M245.236 174.182L245.236 174.182Q246.691 174.182 247.564 175.273Q248.436 176.364 248.436 178.109L248.436 178.109Q248.436 179.952 247.491 181.867Q246.545 183.782 244.752 185.236Q242.958 186.691 240.436 187.224L240.436 187.224L239.224 184.897Q242.085 184.509 243.588 183.176Q245.091 181.842 245.576 180.097L245.576 180.097L245.527 180.048Q245.285 180.242 245.018 180.315Q244.752 180.388 244.218 180.388L244.218 180.388Q243.055 180.388 242.448 179.539Q241.842 178.691 241.842 177.673L241.842 177.673Q241.842 176.121 242.836 175.152Q243.830 174.182 245.236 174.182ZM249.600 155.273L249.600 155.273Q250.812 155.273 251.612 156.024Q252.412 156.776 252.412 157.988L252.412 157.988Q252.412 159.636 251.442 160.606Q250.473 161.576 249.115 161.576L249.115 161.576Q247.903 161.576 247.103 160.824Q246.303 160.073 246.303 158.861L246.303 158.861Q246.303 157.212 247.248 156.242Q248.194 155.273 249.600 155.273Z"/></svg>