<svg width="480px" height="360px" xmlns="http://www.w3.org/2000/svg"><rect x="216" y="124" width="80.5" height="80.5" fill-opacity="0"/><path fill="#F00" d="M247.418 180.485L247.418 180.485Q244.945 180.485 243.345 179.321Q241.745 178.158 241.745 176.121L241.745 176.121Q241.745 174.133 243.442 172.897Q245.139 171.661 247.855 171.661L247.855 171.661Q248.873 171.661 249.721 171.758Q250.570 171.855 251.297 172.048L251.297 172.048Q251.297 170.594 250.909 169.382Q250.521 168.170 249.794 166.764L249.794 166.764L243.006 166.764L243.006 163.224L247.661 163.224Q246.594 161.333 246.182 159.903Q245.770 158.473 245.770 156.970L245.770 156.970Q245.770 154.158 247.152 152.048Q248.533 149.939 251.006 148.727Q253.479 147.515 256.776 147.515L256.776 147.515Q265.455 147.515 267.394 155.661L267.394 155.661L261.964 157.988Q261.333 155.321 260.097 153.964Q258.861 152.606 256.533 152.606L256.533 152.606Q254.255 152.606 252.873 153.794Q251.491 154.982 251.491 157.212L251.491 157.212Q251.491 158.424 251.903 159.564Q252.315 160.703 253.430 162.788L253.430 162.788Q253.527 163.030 253.624 163.224L253.624 163.224L263.127 163.224L263.127 166.764L255.176 166.764Q255.564 167.830 255.758 168.873Q255.952 169.915 255.952 170.885L255.952 170.885Q255.952 172.485 255.564 173.988L255.564 173.988Q256.776 174.715 257.964 175.273Q259.152 175.830 260.752 175.830L260.752 175.830Q262.545 175.830 263.394 174.788Q264.242 173.745 264.194 171.515L264.194 171.515L268.655 171.903Q268.945 175.879 267.079 178.182Q265.212 180.485 261.867 180.485L261.867 180.485Q259.394 180.485 257.503 179.515Q255.612 178.545 253.915 177.430L253.915 177.430Q252.897 178.788 251.273 179.636Q249.648 180.485 247.418 180.485ZM245.673 176.073L245.673 176.073Q245.673 176.800 246.230 177.188Q246.788 177.576 247.709 177.576L247.709 177.576Q249.067 177.576 249.794 177.018Q250.521 176.461 250.909 175.539L250.909 175.539Q250.133 175.152 249.358 174.933Q248.582 174.715 247.709 174.715L247.709 174.715Q245.673 174.715 245.673 176.073Z"/></svg>