<svg width="480px" height="360px" xmlns="http://www.w3.org/2000/svg"><rect x="216" y="124" width="80.5" height="80.5" fill-opacity="0"/><path fill="#F00" d="M253.915 188.242L253.915 188.242Q250.521 188.242 247.855 187.248Q245.188 186.255 243.661 184.315Q242.133 182.376 242.133 179.564L242.133 179.564Q242.133 176.606 243.370 174.715Q244.606 172.824 246.691 171.830Q248.776 170.836 251.297 170.594L251.297 170.594L251.636 166.036L257.697 166.036L257.648 173.358Q253.091 173.842 251.176 175.152Q249.261 176.461 249.261 178.691L249.261 178.691Q249.261 180.533 250.521 181.600Q251.782 182.667 254.352 182.667L254.352 182.667Q256.873 182.667 258.400 181.236Q259.927 179.806 260.218 177.188L260.218 177.188L266.521 179.612Q265.697 183.394 262.594 185.818Q259.491 188.242 253.915 188.242ZM254.594 162.885L254.594 162.885Q252.655 162.885 251.539 161.867Q250.424 160.848 250.424 159.103L250.424 159.103Q250.424 157.358 251.539 156.339Q252.655 155.321 254.594 155.321L254.594 155.321Q256.485 155.321 257.600 156.339Q258.715 157.358 258.715 159.103L258.715 159.103Q258.715 160.848 257.600 161.867Q256.485 162.885 254.594 162.885Z"/></svg>