<svg width="480px" height="360px" xmlns="http://www.w3.org/2000/svg"><rect x="216" y="124" width="80.5" height="80.5" fill-opacity="0"/><path fill="#F00" d="M257.745 180.485L257.745 180.485Q254.836 180.485 252.727 178.958Q250.618 177.430 249.600 174.958L249.600 174.958L249.358 180L243.491 180L243.491 145.139L250.133 145.139L250.133 159.879Q251.200 157.842 253.164 156.558Q255.127 155.273 257.939 155.273L257.939 155.273Q260.848 155.273 263.152 156.776Q265.455 158.279 266.788 161.115Q268.121 163.952 268.121 167.927L268.121 167.927Q268.121 171.903 266.788 174.691Q265.455 177.479 263.103 178.982Q260.752 180.485 257.745 180.485ZM255.758 175.394L255.758 175.394Q258.473 175.394 259.976 173.479Q261.479 171.564 261.479 167.879L261.479 167.879Q261.479 164.194 259.976 162.279Q258.473 160.364 255.806 160.364L255.806 160.364Q253.236 160.364 251.685 162.424Q250.133 164.485 250.133 167.927L250.133 167.927Q250.133 171.467 251.685 173.430Q253.236 175.394 255.758 175.394Z"/></svg>