<svg width="480px" height="360px" xmlns="http://www.w3.org/2000/svg"><rect x="216" y="124" width="80.5" height="80.5" fill-opacity="0"/><path fill="#F00" d="M241.648 148.533L241.648 144.024Q247.224 144.024 249.600 145.794Q251.976 147.564 251.976 151.491L251.976 151.491L251.976 159.297Q251.976 162.012 253.212 163.176Q254.448 164.339 257.406 164.339L257.406 164.339L257.406 168.945Q254.448 168.945 253.212 170.109Q251.976 171.273 251.976 173.988L251.976 173.988L251.976 181.842Q251.976 185.721 249.600 187.491Q247.224 189.261 241.648 189.261L241.648 189.261L241.648 184.752Q244.218 184.752 245.333 183.927Q246.448 183.103 246.448 181.309L246.448 181.309L246.448 172.776Q246.448 170.303 247.733 168.800Q249.018 167.297 251.491 166.667L251.491 166.667Q249.018 166.036 247.733 164.509Q246.448 162.982 246.448 160.509L246.448 160.509L246.448 151.976Q246.448 150.182 245.333 149.358Q244.218 148.533 241.648 148.533L241.648 148.533Z"/></svg>