<svg width="480px" height="360px" xmlns="http://www.w3.org/2000/svg"><rect x="216" y="124" width="80.5" height="80.5" fill-opacity="0"/><path fill="#F00" d="M250.618 187.515L248.048 189.164Q245.576 185.430 244.242 180.630Q242.909 175.830 242.909 171.176L242.909 171.176Q242.909 165.600 244.727 160.388Q246.545 155.176 250.061 150.836Q253.576 146.497 258.618 143.588L258.618 143.588L260.218 145.964Q255.806 148.824 252.800 152.897Q249.794 156.970 248.267 161.745Q246.739 166.521 246.739 171.564L246.739 171.564Q246.739 175.830 247.782 180.048Q248.824 184.267 250.618 187.515L250.618 187.515Z"/></svg>