<svg width="480px" height="360px" xmlns="http://www.w3.org/2000/svg"><rect x="216" y="124" width="80.5" height="80.5" fill-opacity="0"/><path fill="#F00" d="M258.242 165.934L258.242 165.934Q256.967 167.451 255.198 168.374Q253.429 169.297 251.319 169.297L251.319 169.297Q248.549 169.297 246.495 167.934Q244.440 166.571 243.319 164.099Q242.198 161.626 242.198 158.637L242.198 158.637Q242.198 155.429 243.418 152.857Q244.637 150.286 246.879 148.923Q249.121 147.560 252.110 147.560L252.110 147.560Q256.857 147.560 259.593 151.110Q262.330 154.659 262.330 160.791L262.330 160.791L262.330 161.978Q262.330 171.319 258.637 175.615Q254.945 179.912 247.495 180.022L247.495 180.022L246.703 180.022L246.703 176.593L247.560 176.593Q252.593 176.505 255.297 173.967Q258 171.429 258.242 165.934ZM251.978 165.934L251.978 165.934Q254.022 165.934 255.747 164.681Q257.473 163.429 258.264 161.582L258.264 161.582L258.264 159.956Q258.264 155.956 256.527 153.451Q254.791 150.945 252.132 150.945L252.132 150.945Q249.451 150.945 247.824 153Q246.198 155.055 246.198 158.418L246.198 158.418Q246.198 161.692 247.769 163.813Q249.341 165.934 251.978 165.934Z"/></svg>