<svg width="480px" height="360px" xmlns="http://www.w3.org/2000/svg"><rect x="216" y="124" width="80.5" height="80.5" fill-opacity="0"/><path fill="#F00" d="M250.133 190.182L243.491 190.182L243.491 155.758L249.455 155.758L249.745 160.509Q250.764 158.182 252.873 156.727Q254.982 155.273 257.842 155.273L257.842 155.273Q260.800 155.273 263.127 156.776Q265.455 158.279 266.788 161.067Q268.121 163.855 268.121 167.830L268.121 167.830Q268.121 171.806 266.764 174.642Q265.406 177.479 263.055 178.982Q260.703 180.485 257.697 180.485L257.697 180.485Q255.030 180.485 253.115 179.224Q251.200 177.964 250.133 175.879L250.133 175.879L250.133 190.182ZM255.758 175.394L255.758 175.394Q258.424 175.394 259.952 173.479Q261.479 171.564 261.479 167.879L261.479 167.879Q261.479 164.194 260 162.279Q258.521 160.364 255.855 160.364L255.855 160.364Q253.285 160.364 251.709 162.352Q250.133 164.339 250.133 167.879L250.133 167.879Q250.133 171.370 251.661 173.382Q253.188 175.394 255.758 175.394Z"/></svg>