<svg width="480px" height="360px" xmlns="http://www.w3.org/2000/svg"><rect x="216" y="124" width="80.5" height="80.5" fill-opacity="0"/><path fill="#F00" d="M260.412 190.182L256.533 190.182L259.879 175.685Q258.715 177.867 256.655 179.127Q254.594 180.388 252.170 180.388L252.170 180.388Q249.455 180.388 247.297 179.055Q245.139 177.721 243.903 175.321Q242.667 172.921 242.667 169.721L242.667 169.721Q242.667 165.600 244.291 162.352Q245.915 159.103 248.727 157.188Q251.539 155.273 255.030 155.273L255.030 155.273Q258.376 155.273 260.509 156.970Q262.642 158.667 263.224 161.236L263.224 161.236L264.485 155.758L268.364 155.758L260.412 190.182ZM253.139 177.091L253.139 177.091Q255.515 177.091 257.455 175.588Q259.394 174.085 260.533 171.515Q261.673 168.945 261.673 165.794L261.673 165.794Q261.673 162.497 259.927 160.558Q258.182 158.618 255.273 158.618L255.273 158.618Q252.703 158.618 250.715 160.097Q248.727 161.576 247.612 164.073Q246.497 166.570 246.497 169.673L246.497 169.673Q246.497 173.212 248.267 175.152Q250.036 177.091 253.139 177.091Z"/></svg>