<svg width="480px" height="360px" xmlns="http://www.w3.org/2000/svg"><rect x="216" y="124" width="80.5" height="80.5" fill-opacity="0"/><path fill="#F00" d="M259.539 155.758L266.279 155.758L256.485 181.503Q255.321 184.800 253.891 186.764Q252.461 188.727 250.594 189.576Q248.727 190.424 246.158 190.424L246.158 190.424Q244.267 190.424 242.691 189.988Q241.115 189.552 239.952 188.776L239.952 188.776L241.358 183.976Q243.055 185.333 245.624 185.333L245.624 185.333Q247.030 185.333 248 184.752Q248.970 184.170 249.648 182.424L249.648 182.424L250.473 180.339L247.806 174.036L240.388 155.758L247.758 155.758L252.364 170.303L253.624 175.152L255.127 170.012L259.539 155.758Z"/></svg>