<svg width="480px" height="360px" xmlns="http://www.w3.org/2000/svg"><rect x="216" y="124" width="80.5" height="80.5" fill-opacity="0"/><path fill="#F00" d="M244.267 153.818L246.739 151.345L251.055 155.612Q253.624 153.867 257.018 153.867L257.018 153.867Q260.461 153.867 263.030 155.661L263.030 155.661L267.248 151.345L269.721 153.818L265.503 158.133Q267.200 160.703 267.200 164.048L267.200 164.048Q267.200 167.491 265.406 170.109L265.406 170.109L269.721 174.327L267.248 176.800L262.885 172.582Q260.364 174.279 257.018 174.279L257.018 174.279Q253.576 174.279 250.958 172.436L250.958 172.436L246.739 176.800L244.267 174.327L248.533 169.964Q246.788 167.394 246.788 164.048L246.788 164.048Q246.788 160.606 248.582 158.036L248.582 158.036L244.267 153.818ZM257.018 157.358L257.018 157.358Q254.255 157.358 252.461 159.248Q250.667 161.139 250.667 164.048L250.667 164.048Q250.667 167.006 252.461 168.897Q254.255 170.788 257.018 170.788L257.018 170.788Q259.733 170.788 261.527 168.897Q263.321 167.006 263.321 164.048L263.321 164.048Q263.321 161.139 261.527 159.248Q259.733 157.358 257.018 157.358Z"/></svg>