<svg width="480px" height="360px" xmlns="http://www.w3.org/2000/svg"><rect x="216" y="124" width="80.5" height="80.5" fill-opacity="0"/><path fill="#F00" d="M251.685 164.824L251.685 164.824Q247.515 164.824 244.994 162.448Q242.473 160.073 242.473 156.145L242.473 156.145Q242.473 152.267 244.994 149.891Q247.515 147.515 251.685 147.515L251.685 147.515Q255.855 147.515 258.400 149.891Q260.945 152.267 260.945 156.145L260.945 156.145Q260.945 160.073 258.400 162.448Q255.855 164.824 251.685 164.824ZM251.685 160.315L251.685 160.315Q253.527 160.315 254.715 159.152Q255.903 157.988 255.903 156.145L255.903 156.145Q255.903 154.303 254.715 153.139Q253.527 151.976 251.685 151.976L251.685 151.976Q249.842 151.976 248.679 153.139Q247.515 154.303 247.515 156.145L247.515 156.145Q247.515 157.988 248.679 159.152Q249.842 160.315 251.685 160.315Z"/></svg>