<svg width="480px" height="360px" xmlns="http://www.w3.org/2000/svg"><rect x="216" y="124" width="80.5" height="80.5" fill-opacity="0"/><path fill="#F00" d="M257.309 180.485L257.309 180.485Q252.897 180.485 249.576 178.545Q246.255 176.606 244.412 172.921Q242.570 169.236 242.570 164.048L242.570 164.048Q242.570 158.909 244.509 155.200Q246.448 151.491 249.988 149.503Q253.527 147.515 258.279 147.515L258.279 147.515Q263.515 147.515 266.691 149.430Q269.867 151.345 271.758 155.370L271.758 155.370L265.552 158.036Q264.776 155.467 262.909 154.230Q261.042 152.994 258.327 152.994L258.327 152.994Q254.255 152.994 251.879 155.855Q249.503 158.715 249.503 164L249.503 164Q249.503 169.479 251.782 172.291Q254.061 175.103 258.521 175.103L258.521 175.103Q261.770 175.103 263.927 173.527Q266.085 171.952 266.085 168.752L266.085 168.752L266.085 168.024L257.697 168.024L257.697 163.127L271.855 163.127L271.855 180L267.152 180L266.861 175.927Q265.503 178.109 263.079 179.297Q260.655 180.485 257.309 180.485Z"/></svg>