<svg width="480px" height="360px" xmlns="http://www.w3.org/2000/svg"><rect x="216" y="124" width="80.5" height="80.5" fill-opacity="0"/><path fill="#F00" d="M250.133 180L243.491 180L243.491 155.758L249.261 155.758L249.697 160.509Q250.618 158.036 252.485 156.655Q254.352 155.273 257.212 155.273L257.212 155.273Q258.909 155.273 259.830 155.806L259.830 155.806L259.055 161.382Q258.570 161.236 257.867 161.115Q257.164 160.994 256.048 160.994L256.048 160.994Q254.545 160.994 253.212 161.697Q251.879 162.400 251.006 163.830Q250.133 165.261 250.133 167.442L250.133 167.442L250.133 180Z"/></svg>