<svg width="480px" height="360px" xmlns="http://www.w3.org/2000/svg"><rect x="216" y="124" width="80.5" height="80.5" fill-opacity="0"/><path fill="#F00" d="M254.933 147.564L254.933 147.564Q259.539 147.564 262.327 149.818Q265.115 152.073 265.115 155.952L265.115 155.952Q265.115 158.424 263.927 160.291Q262.739 162.158 260.606 163.127L260.606 163.127L260.606 163.176Q263.321 164.194 264.945 166.279Q266.570 168.364 266.570 171.370L266.570 171.370Q266.570 174.182 265.115 176.218Q263.661 178.255 261.067 179.370Q258.473 180.485 254.933 180.485L254.933 180.485Q251.442 180.485 248.824 179.370Q246.206 178.255 244.752 176.218Q243.297 174.182 243.297 171.370L243.297 171.370Q243.297 168.412 244.897 166.303Q246.497 164.194 249.309 163.176L249.309 163.176L249.309 163.127Q247.224 162.206 245.988 160.339Q244.752 158.473 244.752 155.952L244.752 155.952Q244.752 152.073 247.539 149.818Q250.327 147.564 254.933 147.564ZM254.933 151.200L254.933 151.200Q252.121 151.200 250.448 152.558Q248.776 153.915 248.776 156.339L248.776 156.339Q248.776 158.715 250.473 160.073Q252.170 161.430 254.933 161.430L254.933 161.430Q257.697 161.430 259.394 160.073Q261.091 158.715 261.091 156.339L261.091 156.339Q261.091 153.915 259.442 152.558Q257.794 151.200 254.933 151.200ZM254.933 176.848L254.933 176.848Q258.473 176.848 260.509 175.273Q262.545 173.697 262.545 170.982L262.545 170.982Q262.545 168.218 260.461 166.642Q258.376 165.067 254.933 165.067L254.933 165.067Q251.539 165.067 249.430 166.642Q247.321 168.218 247.321 170.982L247.321 170.982Q247.321 173.697 249.382 175.273Q251.442 176.848 254.933 176.848Z"/></svg>