<svg width="480px" height="360px" xmlns="http://www.w3.org/2000/svg"><rect x="216" y="124" width="80.5" height="80.5" fill-opacity="0"/><path fill="#F00" d="M253.624 163.515L253.624 163.515Q251.248 163.515 249.382 162.473Q247.515 161.430 246.448 159.636Q245.382 157.842 245.382 155.515L245.382 155.515Q245.382 153.188 246.448 151.370Q247.515 149.552 249.382 148.533Q251.248 147.515 253.624 147.515L253.624 147.515Q256.048 147.515 257.891 148.533Q259.733 149.552 260.800 151.370Q261.867 153.188 261.867 155.515L261.867 155.515Q261.867 157.842 260.800 159.636Q259.733 161.430 257.891 162.473Q256.048 163.515 253.624 163.515ZM253.624 160.364L253.624 160.364Q255.758 160.364 257.115 158.982Q258.473 157.600 258.473 155.515L258.473 155.515Q258.473 153.382 257.115 152.024Q255.758 150.667 253.624 150.667L253.624 150.667Q251.539 150.667 250.158 152.024Q248.776 153.382 248.776 155.515L248.776 155.515Q248.776 157.600 250.158 158.982Q251.539 160.364 253.624 160.364Z"/></svg>