<svg width="480px" height="360px" xmlns="http://www.w3.org/2000/svg"><rect x="216" y="124" width="80.5" height="80.5" fill-opacity="0"/><path fill="#F00" d="M258.133 180.485L258.133 180.485Q253.576 180.485 250.255 178.473Q246.933 176.461 245.115 172.776Q243.297 169.091 243.297 164L243.297 164Q243.297 158.909 245.212 155.224Q247.127 151.539 250.570 149.527Q254.012 147.515 258.473 147.515L258.473 147.515Q263.224 147.515 266.206 149.309Q269.188 151.103 271.030 154.836L271.030 154.836L267.491 156.776Q266.424 154.012 264.121 152.582Q261.818 151.152 258.473 151.152L258.473 151.152Q255.224 151.152 252.727 152.679Q250.230 154.206 248.800 157.091Q247.370 159.976 247.370 164L247.370 164Q247.370 170.012 250.158 173.430Q252.945 176.848 258.279 176.848L258.279 176.848Q260.945 176.848 263.079 175.952Q265.212 175.055 266.473 173.212Q267.733 171.370 267.733 168.606L267.733 168.606L267.733 167.491L257.552 167.491L257.552 163.855L271.273 163.855L271.273 180L268.218 180L268.073 175.685Q266.618 178.012 264.121 179.248Q261.624 180.485 258.133 180.485Z"/></svg>