<svg version="1.1" xmlns="http://www.w3.org/2000/svg" xmlns:xlink="http://www.w3.org/1999/xlink" width="4.86192" height="4.87392" viewBox="0,0,4.86192,4.87392"><g transform="translate(-237.56904,-177.56304)"><g data-paper-data="{&quot;isPaintingLayer&quot;:true}" fill-rule="nonzero" stroke="none" stroke-width="0" stroke-linecap="butt" stroke-linejoin="miter" stroke-miterlimit="10" stroke-dasharray="" stroke-dashoffset="0" style="mix-blend-mode: normal"><g fill="#ff8a00"><path d="M240.91236,179.12813c1.23467,1.25642 1.83834,2.6653 1.34833,3.14682c-0.49,0.48152 -1.88813,-0.14666 -3.1228,-1.40308c-1.23467,-1.25642 -1.83834,-2.6653 -1.34833,-3.14682c0.49,-0.48152 1.88813,0.14666 3.1228,1.40308z"/><path d="M242.21043,177.72505c0.49,0.48152 -0.11366,1.8904 -1.34833,3.14682c-1.23467,1.25642 -2.63279,1.8846 -3.1228,1.40308c-0.49,-0.48152 0.11366,-1.8904 1.34833,-3.14682c1.23467,-1.25642 2.63279,-1.8846 3.1228,-1.40308z" data-paper-data="{&quot;index&quot;:null}"/></g><g fill="#ff7e00"><path d="M240.34733,179.7723c0.46919,0.47746 0.69859,1.01285 0.51239,1.19584c-0.18621,0.18299 -0.71752,-0.05573 -1.18671,-0.53319c-0.46919,-0.47746 -0.69859,-1.01285 -0.51239,-1.19584c0.18621,-0.18299 0.71752,0.05573 1.18671,0.53319z"/><path d="M240.84061,179.23911c0.18621,0.18299 -0.04319,0.71838 -0.51239,1.19583c-0.46919,0.47746 -1.0005,0.71618 -1.18671,0.53319c-0.18621,-0.18299 0.04319,-0.71838 0.51239,-1.19583c0.46919,-0.47746 1.0005,-0.71618 1.18671,-0.53319z" data-paper-data="{&quot;index&quot;:null}"/></g></g></g></svg>