<svg width="480px" height="360px" xmlns="http://www.w3.org/2000/svg"><rect x="216" y="124" width="80.5" height="80.5" fill-opacity="0"/><path fill="#F00" d="M246.933 146.352L246.933 146.352Q249.212 146.352 250.400 147.976Q251.588 149.600 251.588 151.830L251.588 151.830Q251.588 154.836 249.818 157.406Q248.048 159.976 245.382 161.236L245.382 161.236L242.521 158.958Q244.461 158.182 245.915 156.800Q247.370 155.418 247.903 153.915L247.903 153.915L247.661 153.770Q247.418 153.964 247.079 154.061Q246.739 154.158 246.109 154.158L246.109 154.158Q244.994 154.158 243.855 153.261Q242.715 152.364 242.715 150.521L242.715 150.521Q242.715 148.582 243.976 147.467Q245.236 146.352 246.933 146.352ZM257.794 146.352L257.794 146.352Q260.073 146.352 261.261 147.976Q262.448 149.600 262.448 151.830L262.448 151.830Q262.448 154.836 260.679 157.406Q258.909 159.976 256.242 161.236L256.242 161.236L253.382 158.958Q255.321 158.182 256.776 156.800Q258.230 155.418 258.764 153.915L258.764 153.915L258.521 153.770Q258.279 153.964 257.939 154.061Q257.600 154.158 256.970 154.158L256.970 154.158Q255.855 154.158 254.715 153.261Q253.576 152.364 253.576 150.521L253.576 150.521Q253.576 148.582 254.836 147.467Q256.097 146.352 257.794 146.352Z"/></svg>