<svg width="480px" height="360px" xmlns="http://www.w3.org/2000/svg"><rect x="216" y="124" width="80.5" height="80.5" fill-opacity="0"/><path fill="#F00" d="M252.170 184.848L248.921 184.848L250.085 179.903Q246.691 178.836 244.873 176.024Q243.055 173.212 243.055 169.576L243.055 169.576Q243.055 165.406 244.655 162.206Q246.255 159.006 249.091 157.164Q251.927 155.321 255.758 155.321L255.758 155.321L256.776 150.909L260.024 150.909L258.909 155.709Q261.673 156.436 263.394 158.352Q265.115 160.267 265.648 162.788L265.648 162.788L261.770 163.758Q261.624 162.206 260.703 160.897Q259.782 159.588 258.182 158.958L258.182 158.958L253.915 177.285L254.109 177.285Q256 177.285 257.770 176.218Q259.539 175.152 260.218 173.261L260.218 173.261L263.806 174.618Q262.545 177.430 259.855 178.933Q257.164 180.436 253.721 180.436L253.721 180.436Q253.430 180.436 253.188 180.436L253.188 180.436L252.170 184.848ZM246.788 169.430L246.788 169.430Q246.788 171.758 247.830 173.697Q248.873 175.636 250.812 176.558L250.812 176.558L255.030 158.473Q252.703 158.667 250.836 160.097Q248.970 161.527 247.879 163.927Q246.788 166.327 246.788 169.430Z"/></svg>