<svg width="480px" height="360px" xmlns="http://www.w3.org/2000/svg"><rect x="216" y="124" width="80.5" height="80.5" fill-opacity="0"/><path fill="#F00" d="M257.067 184.848L252.655 184.848L252.655 180.291Q247.952 179.612 245.212 176.388Q242.473 173.164 242.473 167.879L242.473 167.879Q242.473 162.545 245.236 159.321Q248 156.097 252.655 155.418L252.655 155.418L252.655 150.909L257.067 150.909L257.067 155.418Q260.848 155.855 262.958 157.794Q265.067 159.733 265.939 162.400L265.939 162.400L260.655 164.485Q259.879 160.897 257.067 159.976L257.067 159.976L257.067 175.830Q260.121 175.006 260.945 171.370L260.945 171.370L266.036 173.115Q265.261 176.073 262.958 178.012Q260.655 179.952 257.067 180.388L257.067 180.388L257.067 184.848ZM248.339 167.927L248.339 167.927Q248.339 171.176 249.527 173.091Q250.715 175.006 252.655 175.685L252.655 175.685L252.655 160.073Q250.667 160.800 249.503 162.739Q248.339 164.679 248.339 167.927Z"/></svg>