<svg width="480px" height="360px" xmlns="http://www.w3.org/2000/svg"><rect x="216" y="124" width="80.5" height="80.5" fill-opacity="0"/><path fill="#F00" d="M257.600 180.485L257.600 180.485Q253.867 180.485 250.788 178.933Q247.709 177.382 245.867 174.327Q244.024 171.273 244.024 166.764L244.024 166.764Q244.024 163.176 245.067 159.758Q246.109 156.339 248.194 153.576Q250.279 150.812 253.358 149.164Q256.436 147.515 260.461 147.515L260.461 147.515Q265.067 147.515 268.121 149.697Q271.176 151.879 272.388 156.485L272.388 156.485L268.315 157.842Q267.491 154.255 265.430 152.703Q263.370 151.152 260.073 151.152L260.073 151.152Q257.164 151.152 254.933 152.461Q252.703 153.770 251.200 155.927Q249.697 158.085 248.921 160.752Q248.145 163.418 248.145 166.182L248.145 166.182Q248.145 169.527 249.430 171.903Q250.715 174.279 252.921 175.564Q255.127 176.848 257.842 176.848L257.842 176.848Q261.042 176.848 262.885 175.515Q264.727 174.182 265.988 171.952L265.988 171.952L269.721 173.745Q267.733 176.800 264.873 178.642Q262.012 180.485 257.600 180.485Z"/></svg>