<svg width="480px" height="360px" xmlns="http://www.w3.org/2000/svg"><rect x="216" y="124" width="80.5" height="80.5" fill-opacity="0"/><path fill="#F00" d="M256.791 170.484L256.791 173.956L249.429 173.956L249.429 180L245.231 180L245.231 173.956L240.681 173.956L240.681 170.484L245.231 170.484L245.231 167.473L240.681 167.473L240.681 164.022L245.231 164.022L245.231 148L257.033 148Q262.176 148 265.187 150.615Q268.198 153.231 268.198 157.692L268.198 157.692Q268.198 162.374 265.308 164.912Q262.418 167.451 257.099 167.473L257.099 167.473L249.429 167.473L249.429 170.484L256.791 170.484ZM249.429 151.473L249.429 164.022L257.033 164.022Q260.440 164.022 262.220 162.418Q264 160.813 264 157.736L264 157.736Q264 154.945 262.154 153.220Q260.308 151.495 257.165 151.473L257.165 151.473L249.429 151.473Z"/></svg>