<svg width="480px" height="360px" xmlns="http://www.w3.org/2000/svg"><rect x="216" y="124" width="80.5" height="80.5" fill-opacity="0"/><path fill="#F00" d="M246.739 172.582L246.739 172.582Q249.018 172.582 250.206 174.206Q251.394 175.830 251.394 178.061L251.394 178.061Q251.394 181.067 249.624 183.636Q247.855 186.206 245.188 187.467L245.188 187.467L242.327 185.188Q244.267 184.412 245.721 183.030Q247.176 181.648 247.709 180.145L247.709 180.145L247.467 180Q247.224 180.194 246.885 180.291Q246.545 180.388 245.915 180.388L245.915 180.388Q244.800 180.388 243.661 179.491Q242.521 178.594 242.521 176.752L242.521 176.752Q242.521 174.812 243.782 173.697Q245.042 172.582 246.739 172.582Z"/></svg>