<svg width="480px" height="360px" xmlns="http://www.w3.org/2000/svg"><rect x="216" y="124" width="80.5" height="80.5" fill-opacity="0"/><path fill="#F00" d="M253.867 169.915L249.842 169.915L251.539 162.836Q256.436 162.836 259.297 161.358Q262.158 159.879 262.158 156.048L262.158 156.048Q262.158 153.576 260.364 152.412Q258.570 151.248 255.903 151.248L255.903 151.248Q252.703 151.248 250.642 152.776Q248.582 154.303 247.661 156.824L247.661 156.824L244.509 154.545Q245.818 151.491 248.824 149.552Q251.830 147.612 256 147.612L256 147.612Q258.909 147.612 261.188 148.606Q263.467 149.600 264.800 151.442Q266.133 153.285 266.133 155.855L266.133 155.855Q266.133 158.958 264.655 161.067Q263.176 163.176 260.630 164.339Q258.085 165.503 254.885 165.697L254.885 165.697L253.867 169.915ZM250.036 180.485L250.036 180.485Q248.824 180.485 248.024 179.733Q247.224 178.982 247.224 177.770L247.224 177.770Q247.224 176.121 248.194 175.152Q249.164 174.182 250.521 174.182L250.521 174.182Q251.733 174.182 252.533 174.933Q253.333 175.685 253.333 176.897L253.333 176.897Q253.333 178.545 252.388 179.515Q251.442 180.485 250.036 180.485Z"/></svg>