<svg width="480px" height="360px" xmlns="http://www.w3.org/2000/svg"><rect x="216" y="124" width="80.5" height="80.5" fill-opacity="0"/><path fill="#F00" d="M246.836 152.267L246.836 152.267Q242.715 152.267 242.715 148.727L242.715 148.727Q242.715 145.139 246.836 145.139L246.836 145.139Q250.958 145.139 250.958 148.727L250.958 148.727Q250.958 152.267 246.836 152.267ZM243.491 155.758L250.133 155.758L250.133 181.794Q250.133 184.945 248.994 186.861Q247.855 188.776 245.915 189.600Q243.976 190.424 241.503 190.424L241.503 190.424Q239.709 190.424 238.255 190.012Q236.800 189.600 235.733 188.873L235.733 188.873L236.752 184.121Q237.333 184.606 238.182 184.921Q239.030 185.236 240.145 185.236L240.145 185.236Q241.648 185.236 242.570 184.339Q243.491 183.442 243.491 181.164L243.491 181.164L243.491 155.758Z"/></svg>